<svg width="38" height="42" viewBox="0 0 38 42" fill="none" xmlns="http://www.w3.org/2000/svg">
<path d="M7.72168 14.3198H28.3184C28.4944 14.3198 28.6572 14.3642 28.7881 14.437L28.9082 14.519C29.0486 14.6367 29.1053 14.7751 29.1055 14.896C29.1055 14.9868 29.0734 15.0878 28.998 15.1821L28.9082 15.2739C28.7646 15.394 28.5531 15.4731 28.3184 15.4731H7.72168C7.54561 15.4731 7.38286 15.4288 7.25195 15.356L7.13281 15.2739C6.99186 15.156 6.93457 15.0171 6.93457 14.896C6.93467 14.8053 6.96681 14.705 7.04199 14.6108L7.13281 14.519C7.27636 14.399 7.48697 14.3199 7.72168 14.3198Z" fill="#EE8E46" stroke="#EE8E46"/>
<path d="M1.28613 8.93677H34.7539L34.8799 8.94458C34.9624 8.95476 35.0414 8.97487 35.1143 9.00317L35.2188 9.052C35.3177 9.10633 35.393 9.17303 35.4453 9.24341L35.4902 9.3147C35.5266 9.38471 35.5422 9.45605 35.54 9.52563L35.5322 9.59399C35.5182 9.66311 35.4849 9.73637 35.4277 9.80591L35.3623 9.87427L18.6279 24.9465C18.5582 25.0091 18.4689 25.0633 18.3633 25.1018C18.2574 25.1404 18.1404 25.1614 18.0205 25.1614C17.9006 25.1614 17.7836 25.1403 17.6777 25.1018C17.5718 25.0632 17.4819 25.0092 17.4121 24.9465H17.4131L0.677734 9.87427H0.678711C0.605073 9.80786 0.556757 9.73524 0.529297 9.66431L0.507812 9.59399C0.494064 9.5261 0.497564 9.45534 0.520508 9.38501L0.550781 9.3147C0.588018 9.24322 0.647332 9.17137 0.730469 9.10962L0.821289 9.052C0.920388 8.99764 1.03652 8.95989 1.16016 8.94458L1.28613 8.93677ZM3.9043 10.9612L17.6855 23.3752L18.0205 23.676L18.3545 23.3752L32.1367 10.9612L33.1045 10.0901H2.93652L3.9043 10.9612Z" fill="#EE8E46" stroke="#EE8E46"/>
<path d="M19.126 24.8169L19.1289 24.8188V37.271L19.125 37.2749H16.915L16.9111 37.271V24.8188L16.9141 24.8169H19.126Z" fill="#EE8E46" stroke="#EE8E46"/>
<path d="M18.0205 36.9292C21.1235 36.9293 23.9456 37.4729 25.9727 38.3853C27.7632 39.1912 28.8067 40.218 29.0498 41.312H6.99023C7.23338 40.218 8.27687 39.1912 10.0674 38.3853C12.0945 37.4729 14.9173 36.9292 18.0205 36.9292ZM25.9629 0.523926L36.2412 2.67236V2.67334C36.4058 2.71109 36.5396 2.78463 36.6338 2.87354L36.7148 2.96729C36.7796 3.05995 36.8059 3.15718 36.7998 3.25049L36.7832 3.34229C36.7552 3.43586 36.6897 3.53515 36.582 3.61865L36.459 3.6958C36.3214 3.76672 36.1577 3.80396 35.9902 3.80029L35.8232 3.78271L25.5439 1.63428C25.3246 1.58396 25.1612 1.46876 25.0713 1.34033C25.0065 1.24772 24.9803 1.15041 24.9863 1.05713L25.0029 0.965332C25.0309 0.871498 25.0959 0.77168 25.2041 0.687988L25.3262 0.61084C25.4637 0.539934 25.6276 0.502754 25.7949 0.506348L25.9629 0.523926Z" fill="#EE8E46" stroke="#EE8E46"/>
<path d="M25.2578 0.500977C25.315 0.498883 25.3721 0.50164 25.4277 0.508789L25.5908 0.542969C25.6432 0.558918 25.692 0.579567 25.7373 0.602539L25.8613 0.679688C25.8984 0.708074 25.9307 0.738445 25.958 0.769531L26.0264 0.865234C26.062 0.929121 26.0797 0.993653 26.083 1.05566C26.0862 1.1175 26.0754 1.18162 26.0479 1.24512L18.085 19.5352C18.0425 19.6323 17.9589 19.7309 17.834 19.8076L17.6953 19.876C17.5423 19.9355 17.3694 19.9559 17.2021 19.9346L17.0371 19.8994C16.8761 19.8502 16.7532 19.7665 16.6709 19.6729L16.6025 19.5771C16.5505 19.4836 16.5338 19.3852 16.5518 19.29L16.5811 19.1963V19.1953L24.5449 0.908203C24.5589 0.876137 24.5765 0.84336 24.5996 0.811523L24.6836 0.71875C24.7166 0.688654 24.7542 0.660354 24.7959 0.634766L24.9336 0.566406C24.9832 0.54705 25.0356 0.531623 25.0898 0.520508L25.2578 0.500977Z" fill="#EE8E46" stroke="#EE8E46"/>
</svg>
