<svg width="64" height="24" viewBox="0 0 64 24" fill="none" xmlns="http://www.w3.org/2000/svg">
<path d="M62.8924 12.0607L57.779 16.3373L57.2494 16.7677C51.7232 21.1552 44.3871 23.6098 36.7487 23.6099C28.8639 23.6099 21.3008 20.9944 15.7184 16.3373L12.8741 13.9584L3.3972 21.8845L3.31106 21.9515C3.13142 22.081 2.91942 22.1755 2.6908 22.2284L2.57544 22.251C2.30336 22.2961 2.02258 22.2819 1.76041 22.2096L1.6488 22.1752C1.35574 22.0736 1.1052 21.9014 0.928912 21.6808C0.774636 21.4878 0.68268 21.2647 0.662231 21.0343L0.658486 20.9347L0.657737 3.18613C0.657777 2.95391 0.730591 2.72627 0.866736 2.52516L0.928912 2.44058C1.08318 2.24754 1.2942 2.09157 1.54093 1.98761L1.6488 1.94626C1.94194 1.8447 2.26498 1.81808 2.57619 1.86982C2.84828 1.9151 3.10111 2.01861 3.31031 2.1693L3.3972 2.23696L12.8741 10.163L15.7184 7.78412L16.2473 7.35308C21.5953 3.10721 28.6385 0.671793 36.0101 0.519059L36.7487 0.511541C44.3872 0.511615 51.7239 2.96555 57.2502 7.35308L57.779 7.78412L62.8924 12.0607ZM3.86689 6.97278L3.86764 17.148V17.6956L10.6051 12.0607L3.86689 6.42521V6.97278ZM36.1944 3.21432C29.3531 3.31681 22.8261 5.63556 17.9875 9.68183L15.1431 12.0607L17.9875 14.4396C22.8261 18.4859 29.3531 20.8046 36.1944 20.9071L36.4701 20.9109L36.4708 20.6797L36.4701 3.44112V3.21057L36.1944 3.21432ZM55.113 9.3573C50.9846 6.04458 45.6745 3.94288 39.9833 3.37722L39.68 3.34652V3.60214L39.6792 20.5199V20.7755L39.9819 20.7455C45.8574 20.1615 51.3278 17.9403 55.51 14.4396L58.3543 12.0607L55.5092 9.68121L55.113 9.3573Z" fill="#EE8E46" stroke="#EE8E46" stroke-width="0.5"/>
</svg>
