<svg width="1466" height="269" viewBox="0 0 1466 269" fill="none" xmlns="http://www.w3.org/2000/svg">
<line x1="1210" y1="132.5" x2="1466" y2="132.5" stroke="black"/>
<line x1="3.99317" y1="136.5" x2="296.993" y2="132.5" stroke="black"/>
<line x1="523.971" y1="133.615" x2="624.973" y2="132.029" stroke="black"/>
<rect y="133" width="1462" height="136" fill="#0B5BF8" fill-opacity="0.05"/>
<path d="M754.187 157.527C753.502 154.417 755.733 151.255 758.579 149.815C761.425 148.374 764.728 148.234 767.907 148.146C771.069 148.04 774.407 147.988 777.165 149.569C779.923 151.15 781.627 154.962 779.835 157.579C778.939 158.897 777.393 159.6 775.9 160.127C768.961 162.568 761.144 162.34 754.205 157.544L754.187 157.527Z" stroke="black" stroke-miterlimit="10"/>
<path d="M772.141 156.296C772.141 154.873 772.72 153.451 773.739 152.449" stroke="black" stroke-miterlimit="10"/>
<path d="M766.148 156.209C767.079 154.277 768.538 152.608 770.329 151.431" stroke="black" stroke-miterlimit="10"/>
<path d="M760.457 154.663L763.531 151.905" stroke="black" stroke-miterlimit="10"/>
<path d="M792.956 153.714C791.814 147.759 784.787 145.317 778.867 143.982C773.368 142.735 767.536 141.488 762.161 143.192C758.577 144.333 754.993 145.458 751.409 146.6C746.561 148.128 740.887 150.587 740.166 155.629C739.692 158.897 741.73 162.129 744.418 164.044C749.143 167.399 755.643 168.084 761.107 169.63C764.971 170.719 769.029 172.371 773.105 172.318C781.765 172.177 794.818 163.622 792.938 153.749L792.956 153.714Z" stroke="black" stroke-miterlimit="10"/>
<path d="M733.001 168.365C732.527 169.788 731.332 171.509 729.962 170.912C728.785 167.768 729.98 164.307 731.174 161.162C733.388 155.348 735.584 149.515 737.797 143.683C737.569 152.027 735.619 160.46 733.001 168.347V168.365Z" stroke="black" stroke-miterlimit="10"/>
<path d="M737.32 148.146C736.688 144.492 737.759 140.592 740.148 137.746C739.393 137.254 738.409 137.114 737.531 137.342C737.373 141.013 737.232 144.703 737.074 148.374C737.865 145.212 738.655 142.05 739.446 138.905" stroke="black" stroke-miterlimit="10"/>
<path d="M802.39 140.451C801.125 149.55 800.475 158.738 800.493 167.926" stroke="black" stroke-miterlimit="10"/>
<path d="M799.28 158.58C796.75 161.057 795.486 164.781 796.013 168.277" stroke="black" stroke-miterlimit="10"/>
<path d="M798.947 158.896C800.967 155.734 801.126 151.782 801.213 148.04C801.266 145.598 801.336 143.156 801.389 140.714" stroke="black" stroke-miterlimit="10"/>
<path d="M801.143 158.088C803.532 160.372 804.392 164.132 803.251 167.241" stroke="black" stroke-miterlimit="10"/>
<path d="M743.805 104.667V131.017" stroke="black" stroke-miterlimit="10"/>
<path d="M792.816 103.507V131.738" stroke="black" stroke-miterlimit="10"/>
<path d="M720.246 131.686H810.98" stroke="black" stroke-miterlimit="10"/>
<path d="M743.138 106.423L707.477 142.085" stroke="black" stroke-miterlimit="10"/>
<path d="M792.641 102.418C804.639 114.259 809.54 132.845 822.417 143.736" stroke="black" stroke-miterlimit="10"/>
<path d="M726.641 102.436C728.678 106.792 732.631 110.218 737.234 111.641" stroke="black" stroke-miterlimit="10"/>
<path d="M794.363 78.8086L826.792 137.237" stroke="black" stroke-miterlimit="10"/>
<path d="M800.951 112.538C804.5 111.782 807.644 109.375 809.348 106.178" stroke="black" stroke-miterlimit="10"/>
<path d="M703.752 136.322L732.72 93.3003C736.901 87.0991 741.293 80.6871 747.758 76.9277" stroke="black" stroke-miterlimit="10"/>
<path d="M707.757 141.488C706.949 145.353 705.877 149.692 705.069 153.557C704.718 155.261 704.296 157.07 703.102 158.335C702.996 158.458 702.873 158.563 702.733 158.633C701.995 158.967 701.345 158.036 701.152 157.246C700.765 155.612 700.801 153.89 701.222 152.274C700.326 154.277 699.255 156.438 697.252 157.316C696.461 157.65 695.566 156.842 695.495 155.981C695.425 155.12 695.934 154.33 696.461 153.662C696.988 152.994 697.586 152.309 697.761 151.466C696.461 153.311 694.67 154.804 692.597 155.735C692.035 155.981 691.42 155.296 691.49 154.681C691.56 154.066 692.052 153.592 692.526 153.188L696.672 149.463C695.232 150.465 693.703 151.326 692.087 152.028C691.543 152.274 690.945 152.503 690.348 152.397C689.751 152.292 689.189 151.747 689.294 151.167C689.364 150.746 689.733 150.447 690.067 150.184C692.649 148.163 694.951 145.792 696.918 143.174C695.653 142.489 694.125 142.349 692.755 142.788C692.122 142.999 691.455 143.139 690.787 143.21C690.664 143.21 690.506 143.21 690.471 143.104C690.278 142.437 690.875 141.787 691.455 141.4C693.616 139.995 696.303 139.679 698.57 138.449C700.537 137.377 702.873 137.272 704.525 135.498" stroke="black" stroke-miterlimit="10"/>
<path d="M822.047 142.981C821.714 146.003 822.891 148.971 823.172 152.011C823.33 153.732 823.172 155.471 823.4 157.193C823.628 158.915 824.208 160.671 825.543 161.778C825.736 161.936 825.965 161.62 826.017 161.374L827.599 153.943C827.036 155.875 827.37 158.106 828.635 159.687C829.144 160.337 829.812 160.864 830.532 161.268C830.936 161.497 831.411 161.673 831.867 161.567C832.324 161.462 832.693 160.952 832.5 160.531C832.447 160.425 832.377 160.337 832.307 160.232C830.936 158.475 831.428 155.7 829.935 154.066C831.639 156.525 834.221 158.352 837.102 159.143C837.594 158.159 837.19 156.982 836.663 156.033C835.539 154.031 833.747 152.415 831.657 151.484C833.132 152.274 834.239 153.627 835.504 154.733C836.769 155.84 838.402 156.771 840.071 156.473C840.493 155.173 839.404 153.925 838.824 152.678C838.385 151.747 838.227 150.693 837.7 149.815C836.839 148.357 834.994 147.355 834.942 145.669C835.662 146.53 836.716 147.109 837.823 147.25C838.227 147.303 838.631 147.022 838.824 146.653C839.017 146.284 839.07 145.862 839.123 145.458C839.123 145.317 839.158 145.159 839.087 145.019C838.982 144.843 838.754 144.773 838.56 144.72C837.594 144.422 836.856 143.666 836.154 142.946C834.098 140.855 831.797 138.747 828.916 138.185C828.301 138.062 827.651 138.01 827.089 137.711C826.527 137.412 826.088 136.78 826.263 136.183" stroke="black" stroke-miterlimit="10"/>
<path d="M746.562 77.2973C751.165 76.4892 755.926 76.577 760.493 77.5432" stroke="black" stroke-miterlimit="10"/>
<path d="M794.029 79.4405C791.183 77.7014 787.67 77.1216 784.42 77.8419" stroke="black" stroke-miterlimit="10"/>
<path d="M656.127 64.3677C659.254 68.1622 663.435 71.0783 668.073 72.6945C671.621 73.9418 675.486 74.4864 678.683 76.489C679.685 77.1214 680.598 77.8768 681.511 78.6498C684.392 81.074 687.291 83.4807 690.172 85.905C695.6 90.4549 701.239 95.2858 703.839 101.874C704.366 103.191 704.753 104.579 704.665 105.984C704.595 107.109 704.226 108.18 703.857 109.252C701.31 116.595 698.762 123.92 696.233 131.263" stroke="black" stroke-miterlimit="10"/>
<path d="M678.963 94.8467C683.794 98.852 689.345 102.857 694.176 106.845C694.563 107.161 694.949 107.495 695.212 107.917C695.634 108.619 695.617 109.498 695.581 110.306C695.265 116.191 693.93 122.041 691.646 127.469" stroke="black" stroke-miterlimit="10"/>
<path d="M695.742 130.736C693.774 130.965 692.018 132.493 691.526 134.425C691.403 134.917 691.35 135.427 691.122 135.866C690.893 136.305 690.401 136.692 689.91 136.586C689.102 136.411 688.768 135.128 687.942 135.198C687.802 135.198 687.661 135.269 687.52 135.339C686.783 135.708 686.15 136.34 685.325 136.446C684.499 136.551 683.55 135.655 684.025 134.988C682.742 134.461 681.161 136.323 680.09 135.444C679.088 134.636 680.353 133.003 680.072 131.738C679.861 130.807 678.632 130.28 677.806 130.772C677.209 131.123 676.172 131.281 676.102 130.596C676.067 130.209 676.453 129.928 676.787 129.735C681.46 127.188 686.993 126.257 692.246 127.135" stroke="black" stroke-miterlimit="10"/>
<path d="M705.613 130.982H695.441" stroke="black" stroke-miterlimit="10"/>
<path d="M674.537 130.982H655.635" stroke="black" stroke-miterlimit="10"/>
<path d="M679.701 94.8467C678.629 95.1278 677.329 96.7439 676.943 97.7804C673.078 108.11 670.777 119.019 670.127 130.016" stroke="black" stroke-miterlimit="10"/>
<path d="M664.787 71.7466C663.083 79.195 655.16 85.8003 647.518 85.5017C647.062 85.4841 646.57 85.4314 646.201 85.1679C645.762 84.8692 645.568 84.3247 645.445 83.8152C644.971 81.9707 645.076 79.9856 645.762 78.2113" stroke="black" stroke-miterlimit="10"/>
<path d="M637.962 90.0859C635.854 92.598 634.694 95.7777 633.904 98.9573C633.342 101.241 632.955 103.736 633.904 105.896" stroke="black" stroke-miterlimit="10"/>
<path d="M637.962 90.0859C629.741 91.1751 626.017 91.6845 621.361 94.5304" stroke="black" stroke-miterlimit="10"/>
<path d="M599.945 88.0312C608.501 89.1028 616.792 92.3528 623.784 97.4121C634.272 105.001 644.531 115.559 651.558 126.433" stroke="black" stroke-miterlimit="10"/>
<path d="M640.403 76.4717C634.272 81.2499 626.05 83.235 618.408 81.777C619.287 83.3053 621.5 82.9891 623.257 83.0769C625.014 83.1648 627.087 85.1323 625.787 86.3268C622.449 86.9066 619.058 87.1876 615.668 87.1876C618.004 87.0822 620.341 86.9768 622.677 86.889C623.714 86.8363 624.926 86.889 625.506 87.7322C626.472 89.12 624.75 90.8416 623.152 91.4037C621.412 92.0186 619.55 92.2821 617.706 92.1767" stroke="black" stroke-miterlimit="10"/>
<path d="M632.674 79.6506C627.79 76.6115 621.431 76.7696 616.002 78.6845C610.574 80.5993 605.866 84.0951 601.229 87.5383" stroke="black" stroke-miterlimit="10"/>
<path d="M561.406 105.967C559.087 101.522 561.458 95.7775 565.428 92.6857C569.399 89.5939 574.511 88.5223 579.429 87.5386" stroke="black" stroke-miterlimit="10"/>
<path d="M579.27 87.2749C580.482 92.3518 585.471 95.426 590.038 97.9381C591.18 98.5706 592.392 99.2205 593.71 99.2557C596.116 99.3259 598.154 97.2179 598.822 94.899C599.489 92.5802 599.138 90.1208 598.769 87.7316" stroke="black" stroke-miterlimit="10"/>
<path d="M635.748 131.176H616.301" stroke="black" stroke-miterlimit="10"/>
<path d="M654.738 55.5844C656.671 54.6884 658.867 56.9546 658.708 59.0627C658.55 61.1707 656.917 62.8747 655.283 64.2274" stroke="black" stroke-miterlimit="10"/>
<path d="M640.018 44.1482C642.389 41.0388 647.642 41.8996 650.224 44.8157C652.806 47.7319 653.456 51.8426 654.001 55.6898" stroke="black" stroke-miterlimit="10"/>
<path d="M654.968 64.3154C653.931 67.4072 655.6 70.6572 656.18 73.8544C656.76 77.0516 655.144 81.3907 651.911 81.0745C650.857 80.9691 649.926 80.3542 649.03 79.7569C644.34 76.5948 639.649 73.4503 634.959 70.2882" stroke="black" stroke-miterlimit="10"/>
<path d="M639.685 69.3043C639.193 69.3746 638.912 68.5313 639.351 68.2854C639.79 68.0395 640.352 68.7246 640.036 69.1111" stroke="black" stroke-miterlimit="10"/>
<path d="M646.394 64.8417C646.13 65.1579 646.657 65.7025 646.991 65.4566C647.219 65.2282 647.026 64.7363 646.692 64.7363" stroke="black" stroke-miterlimit="10"/>
<path d="M642.741 64.0693C642.671 65.9139 642.741 67.776 642.952 69.6206C643.005 70.13 643.11 70.7097 643.514 71.0259C644.428 71.7462 645.622 70.6043 646.219 69.603" stroke="black" stroke-miterlimit="10"/>
<path d="M648.555 74.732C649.644 72.905 650.065 70.6916 649.732 68.5835" stroke="black" stroke-miterlimit="10"/>
<path d="M643.109 60.1699C644.585 59.7835 646.219 60.0821 647.448 60.978" stroke="black" stroke-miterlimit="10"/>
<path d="M637.698 64.2622C637.083 65.0879 636.75 66.1243 636.802 67.1432" stroke="black" stroke-miterlimit="10"/>
<path d="M642.143 49.2778L642.195 53.7223C645.375 53.5291 648.607 54.6007 651.067 56.656" stroke="black" stroke-miterlimit="10"/>
<path d="M635.73 43.9376C632.427 43.6214 629.019 45.1497 627.052 47.8199C625.084 50.4901 624.663 54.2144 625.98 57.2535C627.93 61.8209 633.411 65.0357 633.148 70.0072" stroke="black" stroke-miterlimit="10"/>
<path d="M633.322 57.2002C633.92 61.4514 634.095 65.7554 633.849 70.0418" stroke="black" stroke-miterlimit="10"/>
<path d="M638.419 50.1914C638.665 51.0873 638.911 52.0359 638.735 52.9494C638.56 53.8629 637.839 54.7589 636.908 54.794C636.908 56.902 635.696 58.9574 633.869 59.9938" stroke="black" stroke-miterlimit="10"/>
<path d="M649.59 126.556C646.938 125.73 644.197 124.905 641.422 125.151C638.646 125.396 635.818 126.978 634.922 129.613" stroke="black" stroke-miterlimit="10"/>
<path d="M692.841 89.77C692.788 94.2145 691.049 98.6238 688.045 101.909" stroke="black" stroke-miterlimit="10"/>
<path d="M620.764 120.284C626.016 122.129 629.003 127.943 634.15 130.122" stroke="black" stroke-miterlimit="10"/>
<path d="M620.957 120.864C622.661 124.079 623.452 127.768 623.188 131.387" stroke="black" stroke-miterlimit="10"/>
<path d="M633.957 129.7L635.45 130.262" stroke="black" stroke-miterlimit="10"/>
<path d="M635.326 130.368C640.754 133.776 646.71 136.359 652.893 138.027C649.854 138.607 646.587 139.31 644.549 141.629" stroke="black" stroke-miterlimit="10"/>
<path d="M651.154 125.941L654.756 130.702C655.915 132.248 657.32 133.916 659.235 134.039C660.359 134.11 661.431 133.618 662.468 133.179C663.504 132.739 664.611 132.3 665.717 132.493C666.824 132.687 667.861 133.758 667.58 134.847" stroke="black" stroke-miterlimit="10"/>
<path d="M667.281 134.847C668.37 135.48 669.337 136.34 670.074 137.377C670.882 138.519 671.427 139.977 671.093 141.329C671.058 141.47 671.005 141.611 670.865 141.646C670.408 141.751 669.951 141.488 669.635 141.136C669.319 140.785 669.126 140.363 668.862 139.977C668.142 138.888 667.018 138.115 665.929 137.394C665.63 137.201 665.191 137.008 664.945 137.271C664.769 137.465 664.822 137.781 664.98 137.992C665.138 138.203 665.384 138.325 665.595 138.484C666.579 139.221 666.824 140.556 667 141.786L667.439 144.773C667.492 145.071 667.106 145.3 666.807 145.229C666.508 145.159 666.297 144.896 666.104 144.667L663.768 141.733C663.1 140.89 662.222 139.977 661.168 140.152C661.976 141.892 662.573 143.736 662.942 145.616C663.012 146.002 663.065 146.441 662.784 146.723C662.398 147.074 661.783 146.81 661.396 146.477C660.676 145.879 660.114 145.089 659.762 144.228C659.499 143.578 659.358 142.893 659.095 142.261C658.831 141.628 658.392 141.013 657.76 140.732C657.707 142.12 657.83 143.508 658.111 144.878C658.252 145.546 658.427 146.213 658.357 146.898C658.287 147.583 657.883 148.268 657.215 148.444C656.776 148.567 656.495 148.005 656.407 147.566C656.021 145.844 655.634 144.14 655.248 142.419C655.09 141.698 654.914 140.943 654.405 140.398C653.719 139.661 652.63 139.485 651.646 139.362" stroke="black" stroke-miterlimit="10"/>
<path d="M652.12 139.713L644.795 141.066" stroke="black" stroke-miterlimit="10"/>
<path d="M568.8 131.844C562.985 123.956 560.069 113.96 560.736 104.175" stroke="black" stroke-miterlimit="10"/>
<path d="M598.979 87.5038C597.398 87.9606 595.501 87.6092 594.447 86.3444C593.393 85.0796 593.568 82.8486 595.009 82.0229C595.202 81.8999 595.413 81.8296 595.624 81.7067C596.818 80.9689 596.994 79.2297 596.467 77.9122C595.94 76.5947 594.939 75.5582 594.183 74.3812C592.356 71.5529 592.023 67.8462 593.305 64.7368C591.829 63.3842 589.001 64.5787 587.736 63.0328C585.136 59.8356 580.657 58.9924 576.581 58.3775C573.437 57.9032 570.081 57.4465 567.2 58.7816C563.669 60.4153 561.825 64.2625 560.331 67.8462C559.717 69.3218 559.102 70.8151 558.75 72.3785C557.275 79.1067 561.719 86.6079 568.324 88.5579" stroke="black" stroke-miterlimit="10"/>
<path d="M574.298 59.2212C575.229 60.3279 573.929 61.9265 572.682 62.6819C571.435 63.4373 569.924 64.5967 570.416 65.967C570.697 66.7224 571.505 67.1264 571.944 67.8115C572.787 69.1291 571.909 70.8331 571.751 72.3965C571.487 75.2249 573.666 77.6316 575.703 79.6166" stroke="black" stroke-miterlimit="10"/>
<path d="M573.386 84.2004C571.577 84.6572 569.416 84.3761 568.204 82.9531C566.992 81.5302 567.325 78.8776 569.1 78.2803" stroke="black" stroke-miterlimit="10"/>
<path d="M584.873 68.0754C584.644 68.3214 585.189 68.6376 585.417 68.3917C585.646 68.1457 585.54 67.7592 585.417 67.4606C585.084 67.0917 584.539 67.9876 585.013 68.1106C585.259 67.7944 584.557 67.3903 584.416 67.7768" stroke="black" stroke-miterlimit="10"/>
<path d="M580.465 64.438L580.271 67.5298" stroke="black" stroke-miterlimit="10"/>
<path d="M588.598 76.3137C590.653 76.2082 592.55 74.6799 593.112 72.6948" stroke="black" stroke-miterlimit="10"/>
<path d="M599.455 78.4917C602.933 78.3863 606.868 78.0701 609.064 75.3647C610.733 73.3094 610.856 70.4635 611.295 67.846C611.735 65.2461 612.683 62.5232 614.844 61.03C615.599 60.503 616.179 59.7476 616.495 58.8868C614.106 57.7449 612.613 55.3382 611.243 53.0721C609.732 50.56 608.168 47.6262 609.099 44.8506C609.486 43.6912 610.276 42.725 611.067 41.7764C612.349 40.2129 613.632 38.6494 614.914 37.1035" stroke="black" stroke-miterlimit="10"/>
<path d="M607.657 49.2427C603.898 49.5413 600.982 52.9845 600.068 56.6385C599.155 60.2924 599.77 64.1396 600.402 67.8639" stroke="black" stroke-miterlimit="10"/>
<path d="M606.781 68.1626L610.751 68.8126" stroke="black" stroke-miterlimit="10"/>
<path d="M609.748 59.4493C609.836 59.625 610.187 59.5372 610.17 59.3439C610.152 59.1507 609.801 59.0804 609.73 59.2737" stroke="black" stroke-miterlimit="10"/>
<path d="M605.707 57.569C606.919 56.3745 607.833 54.8461 608.325 53.2124" stroke="black" stroke-miterlimit="10"/>
<path d="M611.506 33.8014C608.59 36.2608 605.551 38.5972 602.441 40.8107C601.581 37.7364 603.548 34.1527 606.605 33.2393" stroke="black" stroke-miterlimit="10"/>
<path d="M600.526 33.4682C597.065 36.0506 593.991 39.1248 591.373 42.568C591.127 42.9018 590.776 43.2707 590.372 43.218C589.985 43.1653 589.775 42.7612 589.634 42.3923C588.527 39.4586 588.914 35.9979 590.618 33.3804C586.999 38.0181 584.715 43.6923 584.1 49.5421C580.763 47.3462 575.949 47.7152 572.98 50.4029C575.686 49.7178 578.584 49.9111 581.184 50.93" stroke="black" stroke-miterlimit="10"/>
<path d="M581.22 51.2803C578.62 52.0708 576.67 54.6532 576.635 57.3761" stroke="black" stroke-miterlimit="10"/>
<path d="M558.681 67.6353C553.446 65.984 547.42 67.0556 543.081 70.4285C540.955 72.0798 539.251 74.1879 537.565 76.2784C530.608 84.939 523.511 93.8279 519.927 104.333C518.803 107.618 518.048 111.026 517.292 114.417C515.922 120.53 514.569 126.643 513.199 132.739" stroke="black" stroke-miterlimit="10"/>
<path d="M514.113 129.823C516.994 130.157 519.787 128.593 521.843 126.556C523.898 124.518 525.409 121.988 527.218 119.74C528.624 118 531.136 116.314 532.91 117.684C533.367 118.036 533.666 118.545 533.964 119.055C534.948 120.741 535.914 122.445 536.863 124.149C537.46 125.238 538.953 125.572 540.148 125.221C541.342 124.869 542.309 124.008 543.222 123.165C544.241 122.234 545.313 121.25 545.787 119.95C546.208 118.809 546.121 117.579 546.085 116.367C545.98 112.432 546.402 108.497 547.35 104.685" stroke="black" stroke-miterlimit="10"/>
<path d="M524.391 125.625C529.204 138.273 534.861 150.57 541.343 162.445C541.887 163.447 542.66 164.29 543.223 165.291C545.383 169.138 549.582 166.591 553.148 166.819" stroke="black" stroke-miterlimit="10"/>
<path d="M539.973 126.433L541.202 144.474C541.36 146.688 541.519 148.954 542.467 150.956C542.678 151.396 542.941 151.835 543.398 152.045C544.382 152.485 545.366 151.466 545.858 150.517C546.35 149.569 546.912 148.409 547.983 148.321" stroke="black" stroke-miterlimit="10"/>
<path d="M524.971 133.301H409.449" stroke="black" stroke-miterlimit="10"/>
<path d="M398.505 132.651H362.088" stroke="black" stroke-miterlimit="10"/>
<path d="M354.393 132.001H296L296.018 133.951" stroke="black" stroke-miterlimit="10"/>
<path d="M825.086 132.23H902.979" stroke="black" stroke-miterlimit="10"/>
<path d="M919.02 131.667H1080" stroke="black" stroke-miterlimit="10"/>
<path d="M1100.01 132.23H1210" stroke="black" stroke-miterlimit="10"/>
<path d="M394.325 85.1499C384.68 100.082 376.476 115.963 369.906 132.476" stroke="black" stroke-miterlimit="10"/>
<path d="M394.023 84.8335L398.819 122.164C400.137 132.458 402.227 144.035 410.87 149.779" stroke="black" stroke-miterlimit="10"/>
<path d="M365.583 77.4907C365.46 99.4321 363.879 121.373 360.84 143.104" stroke="black" stroke-miterlimit="10"/>
<path d="M351.916 68.0752C352.584 81.3384 353.251 94.6016 353.919 107.882C354.639 122.358 355.377 136.868 357.432 151.22" stroke="black" stroke-miterlimit="10"/>
<path d="M368.868 56.5508C355.447 60.0466 345.715 72.2734 341.358 85.4487C337.001 98.6241 337.159 112.783 337.335 126.661" stroke="black" stroke-miterlimit="10"/>
<path d="M374.332 54.5473C379.374 53.2824 383.625 49.2244 385.101 44.2354" stroke="black" stroke-miterlimit="10"/>
<path d="M398.154 58.6411C402.124 59.8708 403.178 64.9126 403.547 69.076C405.497 91.2282 407.447 113.398 409.397 135.55" stroke="black" stroke-miterlimit="10"/>
<path d="M392.672 61.786C396.466 58.4834 399.91 54.7592 402.914 50.7011C404.231 50.7011 405.566 50.9647 406.796 51.4566C407.622 49.7525 407.99 47.8553 407.885 45.9756" stroke="black" stroke-miterlimit="10"/>
<path d="M405.811 44.5877L409.816 44.6404C409.289 38.8608 410.554 32.9231 413.382 27.8638" stroke="black" stroke-miterlimit="10"/>
<path d="M370.627 49.8569C374.017 49.8042 376.898 47.0989 378.181 43.9719C379.463 40.845 379.463 37.3491 379.375 33.9762C379.288 30.6033 379.129 27.1426 380.148 23.9103C382.274 17.1293 389.072 12.8957 395.801 10.5768C397.101 10.1376 398.453 9.73357 399.824 9.87411C401.194 10.0146 402.564 10.8403 402.986 12.1403" stroke="black" stroke-miterlimit="10"/>
<path d="M413.525 26.3173C416.213 23.7701 417.442 19.7824 416.634 16.1635C415.826 12.5447 413.015 9.45289 409.502 8.29346" stroke="black" stroke-miterlimit="10"/>
<path d="M409.661 9.22443C410.047 10.7352 410.293 12.2811 410.381 13.827C410.434 14.6351 410.153 15.7243 409.345 15.6716C408.782 15.6364 408.466 15.0216 408.22 14.4946C406.938 11.7365 404.338 9.64606 401.369 8.96094" stroke="black" stroke-miterlimit="10"/>
<path d="M386.699 42.8484C384.731 43.4984 382.377 41.7592 382.412 39.6863C382.448 37.6134 384.854 35.9621 386.804 36.6824" stroke="black" stroke-miterlimit="10"/>
<path d="M389.985 40.8454C389.616 39.2292 389.247 37.5252 389.774 35.9617C390.301 34.3983 392.076 33.1159 393.604 33.7659C393.885 32.7118 394.184 31.6754 394.465 30.6213C394.64 29.9889 394.851 29.2862 395.378 28.8998C395.8 28.5835 396.344 28.5133 396.871 28.4606C401.966 28.0741 407.342 29.8484 412.067 27.8984" stroke="black" stroke-miterlimit="10"/>
<path d="M391.566 52.8618C392.814 54.7942 395.554 55.6023 397.645 54.6361" stroke="black" stroke-miterlimit="10"/>
<path d="M336.633 126.994L342.149 131.122" stroke="black" stroke-miterlimit="10"/>
<path d="M336.65 126.555V131.79" stroke="black" stroke-miterlimit="10"/>
<path d="M394.463 131.334C392.671 121.074 392.953 110.446 395.271 100.275" stroke="black" stroke-miterlimit="10"/>
<path d="M408.904 84.8335L417.916 110.517C419.058 113.802 421.307 117.772 424.732 117.21C426.225 116.964 427.42 115.857 428.509 114.803C433.375 110.095 438.241 105.387 443.108 100.697" stroke="black" stroke-miterlimit="10"/>
<path d="M425.33 81.918C426.279 86.6962 428.053 91.3164 430.548 95.4974C433.358 90.7542 437.469 86.7841 442.318 84.1666" stroke="black" stroke-miterlimit="10"/>
<path d="M441.544 84.5527C440.911 81.0393 441.842 77.2623 444.073 74.4516C446.304 71.6409 449.748 69.8666 453.331 69.6733" stroke="black" stroke-miterlimit="10"/>
<path d="M453.313 69.6377C453.612 71.2539 452.751 73.0281 451.293 73.8011C452.066 72.4484 453.612 71.5701 455.176 71.6052C454.947 73.7484 453.999 75.8213 452.523 77.3848C453.419 76.0497 455.123 74.5565 456.388 75.5578C457.336 76.3132 456.95 77.947 456.019 78.7375C455.088 79.528 453.858 79.8091 452.751 80.3537C450.415 81.4955 448.799 83.9725 448.658 86.5549" stroke="black" stroke-miterlimit="10"/>
<path d="M446.217 59.9056L448.219 61.8029C448.588 62.1542 449.028 62.5407 449.537 62.488C449.994 62.4529 450.345 62.1015 450.661 61.7677C453.086 59.1502 455.369 56.4098 457.548 53.5639C457.899 53.1071 458.321 52.5977 458.9 52.5274C459.48 52.4571 460.218 52.7909 460.587 52.3517C461.079 51.7545 461.114 50.9464 461.131 50.1734C461.166 43.0763 459.129 35.9792 455.317 30.0063" stroke="black" stroke-miterlimit="10"/>
<path d="M454.947 30.0065L456.229 24.1918C456.334 23.735 456.422 23.2431 456.264 22.804C456.124 22.435 455.825 22.154 455.491 21.9256C452.259 19.554 447.797 20.4675 443.809 20.2216C441.701 20.0986 439.558 19.6067 437.485 19.9756C435.886 20.2567 434.411 21.0121 433.005 21.8202C430.563 23.208 428.192 24.8066 426.347 26.9322C424.503 29.0579 423.22 31.7808 423.273 34.5915" stroke="black" stroke-miterlimit="10"/>
<path d="M423.061 34.3628C421.92 36.8046 419.618 38.4559 417.581 40.2302C415.543 42.0045 413.575 44.2531 413.523 46.9584C413.487 48.68 414.208 50.6475 413.136 52.0002C412.785 52.457 412.258 52.7556 411.871 53.1948C410.396 54.8812 411.485 57.5866 410.624 59.6595C409.851 61.5216 407.725 62.3824 405.828 63.0324" stroke="black" stroke-miterlimit="10"/>
<path d="M426.841 43.8145C427.315 44.6225 426.682 45.6766 425.909 46.2211C425.136 46.7657 424.17 47.0819 423.591 47.8198C422.045 49.7521 424.082 52.7737 423.046 55.0223C422.905 55.3385 422.712 55.602 422.519 55.8831C421.026 58.0438 419.585 60.2573 418.215 62.5059C417.811 63.1559 417.425 63.8234 417.266 64.5612C417.126 65.1937 417.179 65.8436 417.038 66.476C416.511 68.7598 413.841 69.7084 412.277 71.4476" stroke="black" stroke-miterlimit="10"/>
<path d="M431.372 46.6074C428.104 50.1033 431.407 56.4802 428.508 60.2747C427.911 61.0476 427.103 61.6449 426.506 62.4003C425.294 63.9111 424.977 65.9488 424.872 67.8812C424.767 69.8136 424.819 71.7987 424.187 73.6257C423.554 75.4527 422.026 77.1391 420.094 77.2621" stroke="black" stroke-miterlimit="10"/>
<path d="M435.765 49.1901C434.166 51.5792 433.305 54.4602 433.323 57.3412C433.323 59.2033 433.692 61.1357 433.095 62.8924C432.937 63.3843 432.691 63.841 432.48 64.3154C430.793 67.8639 429.669 71.6936 429.177 75.5935C429.072 76.4015 429.002 77.2448 429.335 77.9826C429.669 78.7204 430.495 79.3001 431.268 79.0542C431.9 78.8434 432.251 78.1934 432.55 77.5961C434.904 72.8705 437.258 68.145 439.594 63.4019C440.842 60.8898 441.72 58.2196 442.212 55.4615C442.634 53.1427 442.757 50.736 443.53 48.5049C444.636 45.2901 447.043 42.497 447.412 39.1065C447.605 37.3322 447.219 35.4701 447.763 33.7661C448.677 30.85 452.541 29.3216 455.194 30.8148" stroke="black" stroke-miterlimit="10"/>
<path d="M454.613 41.285C456.194 40.635 457.933 40.354 459.637 40.4769" stroke="black" stroke-miterlimit="10"/>
<path d="M455.896 45.132C456.564 45.2374 456.705 43.9199 456.019 43.8672C455.967 44.1658 455.932 44.4469 455.879 44.7455" stroke="black" stroke-miterlimit="10"/>
<path d="M450.818 53.1602C450.924 54.9344 452.364 56.5506 454.121 56.8668" stroke="black" stroke-miterlimit="10"/>
<path d="M369.009 91.9307L367.885 92.2996C368.096 92.5982 368.675 92.3347 368.587 91.9834" stroke="black" stroke-miterlimit="10"/>
<path d="M384.995 93.3185C384.942 93.055 384.538 93.4239 384.732 93.5996C384.925 93.7753 385.224 93.6347 385.452 93.5117C385.54 93.2131 385.224 92.8618 384.907 92.9145" stroke="black" stroke-miterlimit="10"/>
<path d="M391.406 51.5441L405.513 41.6714C405.038 40.5823 404.986 39.3174 405.337 38.1756C406.918 36.7526 408.727 35.5581 410.66 34.6973" stroke="black" stroke-miterlimit="10"/>
<path d="M406.727 30.604C405.058 31.5351 403.705 32.9229 402.37 34.3107C399.841 36.9106 397.311 39.5105 394.781 42.128" stroke="black" stroke-miterlimit="10"/>
<path d="M394.727 41.9876C397.502 41.2849 400.366 40.8984 403.211 40.8457C403.124 41.0214 403.018 41.1971 402.93 41.3727C403.37 41.4079 403.791 41.3727 404.213 41.2849" stroke="black" stroke-miterlimit="10"/>
<path d="M403.407 41.4781C402.687 41.2673 402.001 41.8295 401.439 42.3389C398.207 45.3429 394.957 48.3644 391.725 51.3684" stroke="black" stroke-miterlimit="10"/>
<path d="M401.719 43.2167C402.544 42.1802 403.598 41.3195 404.793 40.7222" stroke="black" stroke-miterlimit="10"/>
<path d="M406.848 30.8675C408.394 30.077 410.045 29.4621 411.731 29.0405" stroke="black" stroke-miterlimit="10"/>
<path d="M406.586 31.5523C405.514 34.2577 404.425 36.9454 403.301 39.6332C403.178 39.9318 403.019 40.248 402.721 40.3534C402.352 40.4764 401.948 40.1778 401.842 39.8089C401.737 39.44 401.807 39.0359 401.93 38.667C402.51 36.6819 403.669 34.8549 405.198 33.4671C407.042 31.8158 409.361 30.8145 411.733 30.0767" stroke="black" stroke-miterlimit="10"/>
<path d="M397.678 40.4058C400.225 39.3693 402.561 37.7531 404.441 35.7505" stroke="black" stroke-miterlimit="10"/>
<path d="M400.104 38.0879L402.791 34.9082L400.753 37.7892C400.578 38.0527 400.385 38.3338 400.367 38.65C400.349 38.9662 400.578 39.3176 400.894 39.3176C402.335 37.3325 403.916 35.2245 406.234 34.3812C407.201 34.0299 408.255 33.9245 409.168 33.4677C410.082 33.011 410.89 32.0624 410.696 31.0435C409.326 31.4826 408.378 32.7299 407.657 33.9596C406.937 35.1893 406.287 36.542 405.145 37.4379C406.217 35.7514 407.798 34.3637 409.607 33.5029C409.397 34.1529 408.711 34.6096 408.026 34.5217C407.974 33.6434 408.167 32.7299 408.571 31.957C406.849 32.4488 405.286 33.5029 404.179 34.9082" stroke="black" stroke-miterlimit="10"/>
<path d="M406.375 30.551C406.744 30.0767 407.218 29.6903 407.745 29.4092" stroke="black" stroke-miterlimit="10"/>
<path d="M445.549 109.182C443.793 117.28 440.929 125.133 437.047 132.458" stroke="black" stroke-miterlimit="10"/>
<path d="M458.725 107.32C456.582 115.752 454.685 124.237 453.051 132.775" stroke="black" stroke-miterlimit="10"/>
<path d="M498.321 116.191L496.213 132.177" stroke="black" stroke-miterlimit="10"/>
<path d="M510.09 115.172L510.459 132.511" stroke="black" stroke-miterlimit="10"/>
<path d="M498.672 76.9463C503.907 77.2801 509.072 78.6327 513.797 80.9165C514.834 81.4083 515.888 81.9881 516.52 82.9367C517.17 83.8853 517.311 85.0974 517.416 86.2393C518.084 93.1432 518.47 100.082 518.558 107.021" stroke="black" stroke-miterlimit="10"/>
<path d="M445.021 109.41C449.484 109.99 454.104 109.217 458.109 107.179" stroke="black" stroke-miterlimit="10"/>
<path d="M498.428 115.998H509.881" stroke="black" stroke-miterlimit="10"/>
<path d="M457.354 76.0671L463.643 75.6807" stroke="black" stroke-miterlimit="10"/>
<path d="M461.237 74.768C460.13 74.5924 460.007 72.8884 460.78 72.0803C461.553 71.2722 462.713 71.0087 463.714 70.5168C465.928 69.4276 467.333 66.898 467.122 64.4561C466.999 63.0332 466.402 61.7157 465.998 60.363C464.013 53.6699 467.122 46.3093 472.041 41.3729C475.66 37.7365 480.368 35.0487 485.462 34.5217C490.557 33.9947 496.003 35.9095 499.129 39.9675" stroke="black" stroke-miterlimit="10"/>
<path d="M461.869 74.9784C463.204 74.8027 464.293 76.1905 464.452 77.508C464.61 78.8255 464.17 80.1607 464.012 81.4958C463.854 82.8309 464.065 84.3768 465.172 85.1497C466.524 86.0984 468.439 85.343 469.669 84.2538C470.899 83.1647 471.9 81.7066 473.393 81.0039C474.886 80.3012 476.608 80.4769 478.207 80.108C479.805 79.7391 481.474 78.4039 481.158 76.8053C480.701 74.4865 476.731 74.1527 476.503 71.7987C476.344 70.0947 478.365 68.9704 478.804 67.3015C479.103 66.1245 478.575 64.7367 479.278 63.753C479.63 63.2435 480.209 62.98 480.684 62.5935C483.582 60.2571 481.773 54.6532 484.882 52.6154C485.286 52.3519 485.743 52.1762 486.094 51.8424C486.516 51.4559 486.709 50.8938 486.937 50.3668C488.993 45.4656 493.472 41.6359 498.655 40.3887" stroke="black" stroke-miterlimit="10"/>
<path d="M494.157 76.7183C495.386 78.3871 494.122 80.8641 492.33 81.9006C490.292 83.0776 487.745 83.0951 485.478 82.4627C483.212 81.8303 481.157 80.6006 479.172 79.3709" stroke="black" stroke-miterlimit="10"/>
<path d="M495.072 76.4546L500.237 76.5951" stroke="black" stroke-miterlimit="10"/>
<path d="M498.428 40.8457C497.005 44.3943 498.516 48.8914 501.818 50.859C502.784 51.4211 504.067 52.2995 503.575 53.3184C503.382 53.7224 502.943 53.9508 502.538 54.1265C501.239 54.7062 499.886 55.1805 498.516 55.5318" stroke="black" stroke-miterlimit="10"/>
<path d="M494.422 49.6119C494.475 50.2971 495.81 50.0687 495.634 49.4011C495.318 49.243 494.949 49.1903 494.615 49.2782C494.51 49.5592 494.545 49.9106 494.721 50.1565" stroke="black" stroke-miterlimit="10"/>
<path d="M490.68 47.4858C491.663 45.8169 493.859 44.9737 495.686 45.571" stroke="black" stroke-miterlimit="10"/>
<path d="M499.287 56.3569C500.745 57.0596 501.448 58.8163 501.377 60.4325C501.307 62.0487 500.64 63.577 499.972 65.0527C499.515 66.0716 499.059 67.0729 498.602 68.0918C498.567 68.1796 498.514 68.285 498.461 68.3553C498.268 68.6364 497.934 68.7769 497.601 68.8647C495.194 69.5498 492.207 68.5309 490.38 70.235C489.274 71.2539 489.063 72.9228 489.239 74.3984C489.572 76.9808 491.294 79.6158 493.876 79.9672" stroke="black" stroke-miterlimit="10"/>
<path d="M492.26 58.5005C494.034 61.0653 497.143 62.6639 500.27 62.5936" stroke="black" stroke-miterlimit="10"/>
<path d="M492.26 58.5005C493.191 61.6099 495.808 64.9301 499.041 65.1057" stroke="black" stroke-miterlimit="10"/>
<path d="M457.688 106.617C458.285 104.491 460.077 102.998 461.676 101.487C463.274 99.9764 464.838 98.0616 464.697 95.8657C462.29 95.7251 459.831 96.7089 458.18 98.4832C458.408 96.5332 458.619 94.513 458.092 92.6157C457.565 90.7185 456.107 88.9442 454.157 88.6631C453.806 88.6104 453.524 88.9266 453.366 89.2428C452.927 90.1036 452.91 91.1225 452.716 92.0712C452.523 93.0198 452.084 94.0387 451.17 94.4076C450.257 94.7765 448.992 93.9333 449.308 93.0022C448.448 94.4779 446.462 95.1805 444.864 94.5832C444.495 94.4427 444.108 94.2319 443.722 94.3198C443.107 94.4603 442.791 95.2859 442.176 95.3562C440.226 95.6021 438.241 95.4089 436.379 94.7765C437.96 91.2279 441.034 88.3821 444.688 87.047C448.342 85.7119 452.523 85.9578 456.019 87.6618C456.546 87.9253 457.143 88.3821 457.038 88.9618" stroke="black" stroke-miterlimit="10"/>
<path d="M443.3 96.8848C443.23 101.083 443.827 105.299 445.057 109.322" stroke="black" stroke-miterlimit="10"/>
<path d="M498.355 115.172C496.44 112.221 494.262 109.428 491.873 106.863C492.874 105.686 494.842 106.213 496.036 107.214C497.231 108.216 498.18 109.586 499.655 110.06C499.725 108.514 499.778 106.969 499.848 105.423C499.936 103.209 499.848 100.592 498.021 99.3093C495.79 97.7458 492.435 99.2917 490.116 97.8512C489.747 97.6228 489.431 97.008 489.835 96.8147C495 94.3553 500.375 91.8432 506.102 91.7905C507.648 91.7905 509.423 92.0716 510.266 93.3891C510.652 93.9864 510.775 94.6891 510.881 95.3918C511.917 102.313 511.548 109.428 509.791 116.191" stroke="black" stroke-miterlimit="10"/>
<path d="M499.938 100.609C501.185 100.785 502.485 100.714 503.714 100.433C505.805 99.9415 507.702 98.8348 509.547 97.728C509.968 97.4645 510.408 97.2186 510.829 96.9551" stroke="black" stroke-miterlimit="10"/>
<path d="M355.957 150.096C357.468 151.308 358.82 152.713 359.997 154.241C361.403 156.068 362.685 158.212 364.811 159.125C366.603 159.898 368.658 159.652 370.59 159.389C371.17 159.301 371.785 159.213 372.224 158.827C372.663 158.44 372.804 157.65 372.347 157.298C373.559 157.245 374.438 156.139 375.017 155.067C375.597 153.996 376.124 152.783 377.196 152.221C377.266 152.186 377.354 152.151 377.424 152.098C377.863 151.764 377.617 151.079 377.301 150.623C375.615 148.321 372.699 147.338 369.958 146.494L373.612 146.389C373.963 146.389 374.28 146.09 374.315 145.757C370.134 143.701 365.549 142.489 360.911 142.19" stroke="black" stroke-miterlimit="10"/>
<path d="M409.712 149.024L409.677 145.511C409.677 145.265 409.677 145.019 409.8 144.826C410.028 144.439 410.555 144.404 410.995 144.422C414.192 144.509 417.371 145.318 420.217 146.793C421.131 147.268 422.361 147.162 423.046 146.389C423.731 145.616 423.59 144.211 422.677 143.737C423.432 143.877 424.24 143.508 424.644 142.858C425.048 142.208 424.978 141.312 424.486 140.715C424.838 140.926 425.312 140.645 425.47 140.276C425.628 139.907 425.54 139.468 425.47 139.081C425.365 138.572 425.277 138.062 425.171 137.535C424.96 136.464 423.906 135.743 422.852 135.55C421.798 135.357 420.692 135.55 419.62 135.743C415.984 136.323 412.259 136.341 408.605 135.831" stroke="black" stroke-miterlimit="10"/>
<path d="M575.896 130.912L587.473 124.957C588.018 124.676 588.58 124.377 588.896 123.867C589.353 123.13 589.195 122.199 589.16 121.338C589.019 117.473 592.234 113.766 596.099 113.38" stroke="black" stroke-miterlimit="10"/>
<path d="M573.736 147.723C580.219 143.964 585.647 138.413 589.266 131.86" stroke="black" stroke-miterlimit="10"/>
<path d="M591.393 130.192L604.972 128.611C605.13 128.593 605.306 128.576 605.464 128.523C606.483 128.172 606.412 126.52 605.552 125.87C604.691 125.22 603.514 125.238 602.425 125.291C603.531 125.255 604.708 125.22 605.675 124.658C606.641 124.096 607.291 122.831 606.781 121.83C606.149 120.6 604.392 120.635 603.022 120.846C603.848 120.846 604.708 120.829 605.464 120.477C606.219 120.126 606.817 119.335 606.676 118.51C606.325 116.525 603.444 115.541 601.968 116.929C604.094 116.77 605.745 114.346 605.095 112.308C604.199 111.817 603.092 112.273 602.161 112.712C599.491 114.012 596.821 115.312 594.151 116.63" stroke="black" stroke-miterlimit="10"/>
<path d="M545.365 167.733L558.945 166.152C559.103 166.134 559.278 166.117 559.437 166.064C560.455 165.713 560.385 164.061 559.524 163.411C558.664 162.761 557.487 162.779 556.397 162.832C557.504 162.796 558.681 162.761 559.647 162.199C560.613 161.637 561.263 160.372 560.754 159.371C560.122 158.141 558.365 158.176 556.995 158.387C557.82 158.387 558.681 158.37 559.437 158.018C560.192 157.667 560.789 156.876 560.649 156.051C560.297 154.066 557.416 153.082 555.941 154.47C558.066 154.312 559.718 151.887 559.068 149.849C558.172 149.358 557.065 149.814 556.134 150.254C553.464 151.554 550.793 152.853 548.123 154.171" stroke="black" stroke-miterlimit="10"/>
<path d="M858.148 103.543C859.607 112.854 861.539 122.076 863.91 131.176" stroke="black" stroke-miterlimit="10"/>
<path d="M836.346 104.755C834.695 108.163 835.362 112.572 837.945 115.33C838.876 116.314 840.07 117.21 840.369 118.528C840.791 120.407 839.21 122.076 837.962 123.552C835.802 126.152 834.414 129.384 833.992 132.739" stroke="black" stroke-miterlimit="10"/>
<path d="M821.046 92.5635C820.835 97.8512 820.94 103.156 821.397 108.427C821.502 109.604 821.643 110.851 822.433 111.729C824.032 113.504 827.001 112.572 828.933 111.167C830.866 109.762 832.868 107.9 835.257 108.181" stroke="black" stroke-miterlimit="10"/>
<path d="M826.299 66.248L827.124 83.1652" stroke="black" stroke-miterlimit="10"/>
<path d="M896.638 105.317L908.426 126.327C908.812 127.012 909.216 127.75 909.234 128.541C909.269 130.016 908.039 131.193 906.898 132.142C901.223 136.885 895.532 141.628 889.857 146.371" stroke="black" stroke-miterlimit="10"/>
<path d="M901.487 117.386C901.118 122.287 901.505 127.258 902.629 132.037" stroke="black" stroke-miterlimit="10"/>
<path d="M904.158 97.1484C910.868 107.583 915.207 119.547 916.718 131.861C916.824 132.669 916.894 133.53 916.543 134.268C916.226 134.918 915.647 135.357 915.067 135.779C907.039 141.734 899.011 147.689 890.982 153.627" stroke="black" stroke-miterlimit="10"/>
<path d="M876.541 73.8887C877.314 77.1737 878.403 80.898 881.46 82.3385C884.394 83.7263 888.188 82.479 890.893 84.2709" stroke="black" stroke-miterlimit="10"/>
<path d="M857.551 103.472H832.096C830.954 103.472 829.672 103.419 828.846 102.646C828.143 101.979 827.932 100.977 827.564 100.081C826.193 96.7261 822.574 94.8289 820.66 91.7371C819.746 90.2439 819.272 88.5223 818.552 86.9237C815.969 81.1968 810.418 77.332 807.309 71.8687" stroke="black" stroke-miterlimit="10"/>
<path d="M813.861 68.4438C818.973 73.2924 824.156 78.2639 827.564 84.4124C828.407 85.9231 829.145 87.5217 830.234 88.8744C834.503 94.0743 842.584 93.7932 848.978 91.6852C855.372 89.5771 861.556 86.0461 868.267 86.292" stroke="black" stroke-miterlimit="10"/>
<path d="M841.83 85.4664C839.968 85.7475 838.035 84.2718 837.807 82.4097C837.579 80.5476 839.125 78.6504 840.987 78.4923C841.32 77.0517 838.369 77.368 837.754 76.0153C837.438 75.3126 837.983 74.4869 838.668 74.1707C840.512 73.3099 842.374 72.4492 844.219 71.5708C843.2 71.4654 842.146 71.3248 841.338 70.71C840.53 70.0951 840.179 68.7776 840.881 68.0398C841.215 67.6884 841.689 67.5479 842.146 67.4074C844.518 66.7047 846.889 66.002 849.243 65.2993" stroke="black" stroke-miterlimit="10"/>
<path d="M836.382 71.5002C834.537 70.4637 832.587 69.234 831.832 67.2489C831.077 65.2639 832.394 62.4707 834.52 62.6112C833.659 59.6599 833.413 56.533 833.817 53.4763C835.574 53.8804 837.506 53.4236 838.894 52.2817" stroke="black" stroke-miterlimit="10"/>
<path d="M839.616 55.8124C839.247 55.5313 838.649 56.0408 838.86 56.4448C839.071 56.8489 839.826 56.6732 839.826 56.2164" stroke="black" stroke-miterlimit="10"/>
<path d="M831.585 49.0141L827.193 48.7155C826.051 46.7128 827.439 43.7791 829.705 43.3751C828.827 40.6697 829.196 37.5955 830.654 35.1536C831.444 33.8537 833.57 34.0645 834.589 35.1888C835.608 36.3131 835.854 37.9293 836.029 39.4576C837.154 35.8036 838.981 31.5172 842.758 30.9551C842.758 31.9915 842.775 33.0105 842.793 34.0469" stroke="black" stroke-miterlimit="10"/>
<path d="M840.071 44.7106C838.174 44.5173 836.206 45.1849 834.801 46.5024C836.171 47.6619 838.086 48.1186 839.843 47.7321C839.474 49.0145 839.14 50.4726 839.86 51.5793C840.58 52.6861 842.829 52.4928 842.794 51.1577C842.794 52.5279 842.829 53.8982 842.847 55.2684C843.725 55.5319 844.621 55.7954 845.499 56.059" stroke="black" stroke-miterlimit="10"/>
<path d="M866.599 81.3201C867.424 78.6323 864.491 76.331 861.856 75.3824C859.22 74.4338 856.041 73.4676 855.198 70.7974C854.917 69.8839 854.969 68.8826 854.706 67.9515C853.915 65.0529 850.595 63.7881 847.696 62.9449C847.433 61.5395 848.733 60.3274 850.015 59.6949C851.298 59.0625 852.791 58.6058 853.599 57.4288C854.864 55.6018 854.056 52.6505 855.812 51.2979" stroke="black" stroke-miterlimit="10"/>
<path d="M855.549 55.9537C856.62 55.655 857.833 55.9888 858.588 56.7969" stroke="black" stroke-miterlimit="10"/>
<path d="M855.443 60.4329C855.601 59.9234 856.567 60.1694 856.444 60.6964C856.321 61.2234 855.338 61.0126 855.425 60.5032" stroke="black" stroke-miterlimit="10"/>
<path d="M858.271 68.9703C859.536 69.0406 860.766 68.0744 861.012 66.8447" stroke="black" stroke-miterlimit="10"/>
<path d="M880.776 83.4463C881.496 87.6624 879.019 92.4231 874.891 93.6001C870.762 94.7771 865.808 91.3691 866.002 87.0827" stroke="black" stroke-miterlimit="10"/>
<path d="M891.105 145.371C890.613 148.216 890.841 151.168 891.755 153.908" stroke="black" stroke-miterlimit="10"/>
<path d="M814.001 68.3556C811.278 67.9691 808.397 69.1988 806.781 71.4123" stroke="black" stroke-miterlimit="10"/>
<path d="M819.043 71.6755C817.233 68.8648 815.968 65.7027 815.354 62.4177C815.125 61.2582 815.02 59.9407 815.775 59.0272C816.197 58.5178 816.812 58.2191 817.321 57.8151C821.397 54.6179 817.778 47.3099 820.922 43.1816C821.678 46.3964 822.416 49.5936 823.171 52.8084C823.434 53.9152 823.716 55.057 824.471 55.9003C825.051 56.5327 825.841 56.9192 826.491 57.4637C829.161 59.6948 828.406 64.7365 825.191 66.0892" stroke="black" stroke-miterlimit="10"/>
<path d="M818.324 61.3282C818.992 62.593 820.257 63.5241 821.662 63.7876C821.311 61.0647 822.681 58.2012 825 56.7607" stroke="black" stroke-miterlimit="10"/>
<path d="M867.353 63.4894C867.564 61.2584 867.037 58.9571 867.493 56.7612C867.95 54.5653 870.076 52.4046 872.201 53.1073C873.905 53.6694 874.643 55.8126 874.257 57.5517C873.87 59.2909 872.658 60.7314 871.481 62.0841" stroke="black" stroke-miterlimit="10"/>
<path d="M874.538 65.8608C873.133 68.2324 872.94 71.2891 874.064 73.8012" stroke="black" stroke-miterlimit="10"/>
<path d="M879.247 67.9869C878.825 67.1085 877.332 67.5652 877.016 68.4787C876.7 69.3922 877.121 70.3935 877.455 71.307C877.789 72.2205 878.017 73.3273 877.455 74.1002" stroke="black" stroke-miterlimit="10"/>
<path d="M879.564 66.5113C878.791 60.433 882.515 54.0386 888.19 51.7373" stroke="black" stroke-miterlimit="10"/>
<path d="M885.344 45.4829L890.561 49.3477" stroke="black" stroke-miterlimit="10"/>
<path d="M885.975 43.3756C888.065 42.304 890.946 43.3404 891.86 45.5012" stroke="black" stroke-miterlimit="10"/>
<path d="M885.221 42.1451C886.802 39.879 890.473 39.4749 892.494 41.3546" stroke="black" stroke-miterlimit="10"/>
<path d="M880.055 37.7182C880.125 34.8372 881.232 31.9913 883.147 29.8481" stroke="black" stroke-miterlimit="10"/>
<path d="M879.879 37.2263C875.312 34.8196 872.484 29.4968 873.063 24.3672" stroke="black" stroke-miterlimit="10"/>
<path d="M870.462 31.043L869.408 22.5757" stroke="black" stroke-miterlimit="10"/>
<path d="M863.438 33.7842C863.034 30.587 863.842 27.2492 865.704 24.5966C864.088 27.1965 862.998 30.1127 862.524 33.1342C862.067 29.6911 860.153 26.4587 857.324 24.4209" stroke="black" stroke-miterlimit="10"/>
<path d="M857.076 28.0044C857.814 31.4827 857.937 35.1015 857.392 38.6325" stroke="black" stroke-miterlimit="10"/>
<path d="M857.13 38.8601C853.511 35.4345 848.68 33.3265 843.727 33.0103" stroke="black" stroke-miterlimit="10"/>
<path d="M843.497 44.8681L853.669 40.6696C849.839 40.4939 846.009 40.3182 842.18 40.1426" stroke="black" stroke-miterlimit="10"/>
<path d="M848.873 50.2259C852.457 49.8043 855.882 48.0125 858.271 45.3071" stroke="black" stroke-miterlimit="10"/>
<path d="M851.631 53.1777C855.478 52.7737 859.167 51.1224 862.013 48.5049C862.101 49.9454 862.171 51.3859 862.259 52.8264C863.682 52.7561 864.402 54.6534 863.998 56.0236C863.594 57.3939 862.575 58.5006 862.136 59.8533C861.697 61.2059 862.329 63.1207 863.752 63.1383" stroke="black" stroke-miterlimit="10"/>
<path d="M890.947 59.853C891.439 72.3081 891.492 84.7632 891.105 97.2183C896.411 95.6021 901.698 93.986 907.004 92.3698" stroke="black" stroke-miterlimit="10"/>
<path d="M908.742 71.9927C909.269 85.7653 910.429 99.5204 912.22 113.188" stroke="black" stroke-miterlimit="10"/>
<path d="M921.215 74.1533C923.745 80.3018 923.938 87.1003 924.447 93.7231C925.396 106.301 927.557 118.809 930.929 130.965" stroke="black" stroke-miterlimit="10"/>
<path d="M963.129 70.7793L964.973 81.6358" stroke="black" stroke-miterlimit="10"/>
<path d="M967.17 95.3564C968.171 107.179 969.19 118.984 970.191 130.807" stroke="black" stroke-miterlimit="10"/>
<path d="M930.912 82.3037C930.578 74.9782 932.422 67.5473 936.147 61.2231" stroke="black" stroke-miterlimit="10"/>
<path d="M935.9 61.1177C939.537 61.2582 942.154 64.5608 945.404 66.2121C951.078 69.0931 958.878 66.9851 963.516 71.3593" stroke="black" stroke-miterlimit="10"/>
<path d="M936.885 35.5225C939.362 35.8914 941.277 37.8238 942.963 39.6507C947.566 44.6398 952.08 49.7343 956.578 54.8288C957.614 56.0058 958.668 57.1828 959.441 58.5354C960.618 60.5381 961.18 62.8218 961.725 65.088C962.357 67.6879 962.99 70.2878 963.622 72.8878" stroke="black" stroke-miterlimit="10"/>
<path d="M935.637 35.8394C928.066 41.3379 922.673 49.735 920.793 58.8875" stroke="black" stroke-miterlimit="10"/>
<path d="M922.725 31.9044C924.165 28.9883 927.872 28.1802 931.087 27.7059C932 27.5653 932.966 27.4423 933.862 27.6707C935.988 28.2329 937.095 30.6044 937.428 32.7828C937.762 34.9611 937.657 37.2624 938.623 39.2299" stroke="black" stroke-miterlimit="10"/>
<path d="M933.88 61.7681C932.105 58.3425 928.82 55.725 925.061 54.7764C926.712 56.3398 928.381 59.133 926.625 60.5911C925.149 61.8208 922.988 60.4857 921.53 59.2384C920.072 57.9911 917.788 56.779 916.436 58.1317C917.577 63.5072 918.702 68.8652 919.844 74.2407" stroke="black" stroke-miterlimit="10"/>
<path d="M919.529 74.0825C923.587 74.4514 927.768 73.6082 931.352 71.6934" stroke="black" stroke-miterlimit="10"/>
<path d="M890.771 60.8019C892.3 58.1492 894.601 55.9533 897.324 54.548C898.852 53.7574 900.75 53.248 902.243 54.0737C903.736 54.8993 903.982 57.6047 902.348 58.1492C905.001 56.6385 908.848 59.4316 908.251 62.418C907.495 62.4707 906.758 62.541 906.002 62.5937C907.214 63.3842 907.706 65.1058 907.091 66.4058C906.477 67.7058 904.843 68.426 903.455 68.0044C904.491 68.5139 905.212 69.6206 905.247 70.78C900.363 71.1489 895.356 70.0422 891.088 67.653" stroke="black" stroke-miterlimit="10"/>
<path d="M900.484 53.0723C899.43 51.4737 900.256 49.19 901.749 47.9954C903.242 46.8008 905.21 46.4143 907.107 46.0806" stroke="black" stroke-miterlimit="10"/>
<path d="M920.441 34.3105L924.201 34.6443C923.024 41.0212 921.847 47.4156 920.67 53.7925" stroke="black" stroke-miterlimit="10"/>
<path d="M909.902 43.3222C913.89 41.0912 917.456 38.1399 920.39 34.644" stroke="black" stroke-miterlimit="10"/>
<path d="M919.176 35.9966C917.736 40.1073 916.84 44.4112 916.541 48.7503C914.38 47.626 912.395 46.1855 910.656 44.4639" stroke="black" stroke-miterlimit="10"/>
<path d="M913.132 86.5553C913.449 91.2984 913.888 96.0766 915.24 100.627C915.697 102.19 917.296 104.052 918.561 103.033C919.369 97.2361 919.14 91.2984 917.893 85.5715C917.138 82.1283 916.031 78.773 915.539 75.2772C914.959 71.1137 917.559 54.7587 912.992 53.125C911.586 57.8154 912.43 64.3504 912.482 69.3219C912.535 75.0664 912.746 80.8108 913.132 86.5553Z" stroke="black" stroke-miterlimit="10"/>
<path d="M901.943 17.2007C896.866 16.8318 892.72 20.9776 889.347 24.7897C889.259 24.8951 889.171 25.0005 889.101 25.1059C888.732 25.791 889.435 26.6167 890.19 26.7923C890.946 26.968 891.736 26.7923 892.509 26.8626C894.898 27.1261 896.181 29.9017 896.216 32.3084C896.251 34.7151 895.478 37.1218 895.865 39.4934C896.251 41.8649 898.517 44.2541 900.783 43.4635C902.47 42.8663 903.489 40.7582 905.263 40.6879C906.651 40.6352 907.775 42.0055 907.968 43.3933C908.162 44.7811 907.67 46.1513 907.195 47.4689" stroke="black" stroke-miterlimit="10"/>
<path d="M900.135 33.8543C902.348 33.1516 904.421 31.9746 906.16 30.4287" stroke="black" stroke-miterlimit="10"/>
<path d="M900.309 21.0479C900.484 21.8208 901.486 22.26 902.171 21.8735C901.573 21.61 900.976 21.3465 900.396 21.083" stroke="black" stroke-miterlimit="10"/>
<path d="M917.491 27.5473L919.863 28.8648C919.915 25.5095 922.023 22.2596 925.063 20.8366C925.8 20.4853 926.749 19.9759 926.608 19.1678C926.099 16.48 925.414 13.8274 924.518 11.2274C923.938 9.5234 923.253 7.80184 922.023 6.51944C920.794 5.23703 918.879 4.41136 917.157 4.93838L917.052 1.14387C914.961 0.739825 912.713 1.19658 910.956 2.39115C909.27 3.51544 906.986 1.95197 905.001 2.39115C904.158 2.58439 903.437 3.12896 902.647 3.4276C899.415 4.67487 895.163 2.12764 892.563 4.3938C891.123 5.64107 891.07 8.15317 892.458 9.4707C893.846 10.7882 896.34 10.6126 897.535 9.10181" stroke="black" stroke-miterlimit="10"/>
<path d="M900.976 8.1709C900.115 9.4533 900.273 11.333 901.344 12.4573C902.416 13.5816 904.278 13.8275 905.613 13.037C905.859 15.3734 906.966 18.4477 909.285 18.1315C909.39 20.1166 909.496 22.1016 909.583 24.0692" stroke="black" stroke-miterlimit="10"/>
<path d="M915.137 20.2397C917.105 20.3979 918.036 23.0153 917.298 24.8423C916.56 26.6693 914.768 27.8288 913.1 28.8652" stroke="black" stroke-miterlimit="10"/>
<path d="M763.638 44.6396C759.791 45.0613 756.313 47.8544 755.065 51.5084C753.818 55.1624 754.855 59.5014 757.63 62.1892C752.905 63.6648 749.145 67.8634 748.197 72.7295C747.248 77.5956 749.145 82.8833 752.957 86.0454" stroke="black" stroke-miterlimit="10"/>
<path d="M787.846 38.3154C792.448 42.795 794.082 50.0678 791.851 56.0758C797.578 62.5756 796.981 73.6605 790.604 79.5104" stroke="black" stroke-miterlimit="10"/>
<path d="M783.84 42.3916C783.84 44.9915 785.702 47.4861 788.214 48.2063" stroke="black" stroke-miterlimit="10"/>
<path d="M783.436 42.8311C779.518 50.7714 770.489 55.8659 761.67 55.0929" stroke="black" stroke-miterlimit="10"/>
<path d="M761.336 44.5869C775.653 41.6884 789.724 37.5074 803.304 32.1318" stroke="black" stroke-miterlimit="10"/>
<path d="M761.722 44.3067C761.318 39.2825 761.248 33.4503 765.06 30.1828C767.186 28.3558 770.067 27.7761 772.667 26.7396C774.968 25.8261 777.093 24.5261 779.447 23.7532C781.801 22.9802 784.524 22.8397 786.615 24.1748C790.497 26.6518 790.058 32.3786 789.145 36.8934" stroke="black" stroke-miterlimit="10"/>
<path d="M771.876 23.1733C771.243 24.2976 772.42 25.9138 773.668 25.6503C773.843 24.5963 772.824 23.5422 771.77 23.6652" stroke="black" stroke-miterlimit="10"/>
<path d="M758.578 77.9648C760.089 81.1094 763.69 82.8134 767.168 83.0242C770.647 83.235 774.072 82.2161 777.41 81.2147C780.274 80.354 783.119 79.4932 785.983 78.6324" stroke="black" stroke-miterlimit="10"/>
<path d="M777.71 56.9199L781.171 63.1914C779.642 64.3508 777.833 65.1238 775.936 65.4224" stroke="black" stroke-miterlimit="10"/>
<path d="M782.926 53.5463C782.662 54.0909 783.084 54.8287 783.681 54.899C784.278 54.9693 784.841 54.3193 784.7 53.7396C783.892 52.8963 782.381 54.6531 783.33 55.3206" stroke="black" stroke-miterlimit="10"/>
<path d="M773.018 55.4088C774.001 55.1804 774.862 54.4426 775.249 53.5115C774.546 53.0372 773.404 53.6169 773.386 54.4777" stroke="black" stroke-miterlimit="10"/>
<path d="M783.732 48.8389C784.681 50.0861 786.403 50.701 787.913 50.3145" stroke="black" stroke-miterlimit="10"/>
<path d="M768.293 57.833C771.367 61.1005 767.959 66.2477 764.691 69.3395" stroke="black" stroke-miterlimit="10"/>
<path d="M784.789 58.0786C785.035 61.5042 786.265 64.8595 788.302 67.6351" stroke="black" stroke-miterlimit="10"/>
<path d="M758.209 77.9824C762.003 78.7553 766.202 76.7176 767.924 73.2393" stroke="black" stroke-miterlimit="10"/>
<path d="M785.191 78.474C783.698 79.3172 781.502 78.3686 781.098 76.6997" stroke="black" stroke-miterlimit="10"/>
<path d="M780.239 68.5664C777.885 70.042 774.899 70.4812 772.211 69.7083" stroke="black" stroke-miterlimit="10"/>
<path d="M788.249 68.0752C784.859 71.3954 782.294 75.5237 780.801 80.0209" stroke="black" stroke-miterlimit="10"/>
<path d="M1127.45 43.4277L1178.56 51.1221" stroke="black" stroke-miterlimit="10"/>
<path d="M1164.78 47.7319V34.4511C1164.77 32.5539 1164.62 30.3755 1163.13 29.181C1159.67 26.4405 1155.37 32.3782 1150.96 32.2904C1150.96 29.5148 1149.69 26.7743 1147.55 25.0176C1145.81 32.6241 1141.58 39.651 1135.67 44.763" stroke="black" stroke-miterlimit="10"/>
<path d="M1138.05 40.4067C1147.23 40.9162 1156.37 42.2513 1165.31 44.3945" stroke="black" stroke-miterlimit="10"/>
<path d="M1131.55 47.1694C1129.53 50.2788 1128.68 54.126 1129.21 57.7975C1132.53 57.3408 1136.01 58.1665 1138.77 60.0637C1139.96 57.5165 1141.16 54.9868 1142.35 52.4396C1139.31 49.7518 1135.5 47.9248 1131.49 47.2397" stroke="black" stroke-miterlimit="10"/>
<path d="M1143.97 52.4746H1144.95H1144.56" stroke="black" stroke-miterlimit="10"/>
<path d="M1145.71 53.3881C1142.67 55.18 1143.63 60.3096 1146.64 62.1717C1149.64 64.0338 1153.49 63.5947 1156.97 62.9271C1156.91 60.9245 1158.28 59.2204 1159.23 57.4461C1160.18 55.6719 1160.53 53.1422 1158.92 51.9652C1158.18 51.4206 1157.23 51.3152 1156.32 51.245C1152.59 50.8936 1148.88 50.5598 1145.16 50.2085" stroke="black" stroke-miterlimit="10"/>
<path d="M1165.13 50.8936C1165.66 56.7785 1163.24 64.104 1157.39 64.9648" stroke="black" stroke-miterlimit="10"/>
<path d="M1149.13 55.7078C1148.67 56.4105 1149.89 57.3591 1150.47 56.7618C1151.04 56.1646 1150.03 55.0051 1149.36 55.497" stroke="black" stroke-miterlimit="10"/>
<path d="M1133.37 51.9482C1133.07 52.405 1133.25 53.1077 1133.74 53.336" stroke="black" stroke-miterlimit="10"/>
<path d="M1142.77 63.6123C1146.48 63.2083 1148.34 69.5149 1145.02 71.2013" stroke="black" stroke-miterlimit="10"/>
<path d="M1137.43 64.3856C1135.25 63.9991 1132.93 65.7382 1132.69 67.9341" stroke="black" stroke-miterlimit="10"/>
<path d="M1133.97 71.3241C1134.5 71.6403 1135.02 70.5511 1134.44 70.3403" stroke="black" stroke-miterlimit="10"/>
<path d="M1137.54 71.5525C1137.17 71.535 1136.82 71.8863 1136.87 72.2552C1137.26 72.2201 1137.61 72.0093 1137.8 71.6755C1137.8 71.4471 1137.45 71.289 1137.27 71.4471" stroke="black" stroke-miterlimit="10"/>
<path d="M1140.91 72.6948C1140.66 72.607 1140.4 72.9407 1140.54 73.1515C1140.79 73.2921 1141.15 73.1515 1141.22 72.8705C1141.29 72.5894 1141.05 72.2732 1140.77 72.2907" stroke="black" stroke-miterlimit="10"/>
<path d="M1158.69 68.6372C1158.92 71.3601 1161.9 72.7831 1164.26 74.1533C1168.96 76.8938 1172.5 81.4085 1174.74 86.38C1176.99 91.3515 1178.03 96.7973 1178.54 102.226C1179.5 112.239 1178.8 122.393 1176.45 132.178" stroke="black" stroke-miterlimit="10"/>
<path d="M1167.93 109.041C1165.2 105.914 1162.45 102.752 1158.99 100.486C1155.52 98.2195 1151.22 96.9019 1147.2 97.8857C1146.76 97.9911 1146.32 98.1141 1145.88 98.0087C1145.34 97.8681 1144.97 97.3763 1144.65 96.9019C1143.6 95.3736 1142.54 93.8452 1141.49 92.3345C1141.56 97.6046 1137.68 102.682 1132.56 103.999" stroke="black" stroke-miterlimit="10"/>
<path d="M1160.65 132.88C1155.68 128.348 1151.33 123.13 1147.72 117.456C1145.7 114.276 1143.88 110.377 1145.23 106.846C1145.58 105.95 1146.07 104.79 1145.35 104.14C1145.04 103.842 1144.56 103.789 1144.12 103.754C1141.19 103.525 1138.24 103.578 1135.32 103.929" stroke="black" stroke-miterlimit="10"/>
<path d="M1149.54 108.743C1155.51 117.157 1162.41 124.922 1170.11 131.808" stroke="black" stroke-miterlimit="10"/>
<path d="M1152.52 107.144C1159.46 114.909 1166.91 122.234 1174.78 129.05" stroke="black" stroke-miterlimit="10"/>
<path d="M1158.28 71.606C1153.24 72.8005 1148.85 76.4721 1146.78 81.2328" stroke="black" stroke-miterlimit="10"/>
<path d="M1135.25 75.751C1142.35 78.0171 1146.69 86.6075 1144.32 93.6695" stroke="black" stroke-miterlimit="10"/>
<path d="M1148.5 79.0713C1146.9 83.2347 1145.58 87.5035 1144.56 91.8426" stroke="black" stroke-miterlimit="10"/>
<path d="M1131.85 76.3658C1128.56 76.1901 1125.42 77.9995 1123.22 80.4414C1121.02 82.8832 1119.6 85.9223 1118.21 88.9087" stroke="black" stroke-miterlimit="10"/>
<path d="M1116.72 130.526C1118 123.815 1119.87 117.192 1122.29 110.798" stroke="black" stroke-miterlimit="10"/>
<path d="M1114.8 130.526C1110.06 123.341 1108.83 113.925 1111.59 105.756" stroke="black" stroke-miterlimit="10"/>
<path d="M1117.02 111.219C1117.3 117.402 1117.18 123.604 1116.63 129.77" stroke="black" stroke-miterlimit="10"/>
<path d="M1113.61 112.045C1112.84 118.07 1113.47 124.272 1115.42 130.034" stroke="black" stroke-miterlimit="10"/>
<path d="M1139.85 90.7182C1138.5 87.0643 1135.08 84.2711 1131.21 83.6562L1133.69 91.9479C1133.81 92.3696 1133.79 93.002 1133.37 93.0371C1131.21 93.1777 1129.07 93.3182 1126.91 93.4587L1115.61 94.179C1114.8 94.2317 1113.94 94.3019 1113.26 94.7236C1112.57 95.1452 1112.13 96.0938 1112.52 96.814L1117.17 98.2194C1116.26 98.8518 1115.15 99.4667 1114.87 100.556C1114.59 101.645 1116.09 102.91 1116.79 102.031C1116.7 103.015 1116.59 103.999 1116.51 104.983C1117.42 105.088 1118.33 105.194 1119.25 105.299C1119.14 106.335 1119.02 107.389 1118.91 108.426C1124.32 109.111 1129.98 107.512 1134.23 104.104" stroke="black" stroke-miterlimit="10"/>
<path d="M1119.44 90.1737C1114.33 87.0818 1107.72 86.5548 1102.17 88.8034C1101.59 89.0318 1100.94 89.4183 1100.93 90.0507C1100.93 90.4723 1101.26 90.8588 1101.66 90.9642C1102.61 91.4912 1103.56 92.0182 1104.49 92.5452C1101.4 93.2479 1098.43 94.4074 1095.67 95.9708C1096.87 96.7789 1098.2 97.3762 1099.61 97.71C1097.85 98.2545 1096.55 100.029 1096.57 101.873C1097.2 102.084 1097.9 102.049 1098.54 101.821C1098.54 102.822 1098.26 103.823 1097.75 104.702C1099.42 104.702 1101.08 104.667 1102.75 104.667C1101.59 104.544 1101.15 106.423 1102.02 107.231C1102.88 108.039 1104.19 107.969 1105.35 107.794C1109.18 107.196 1112.89 105.879 1116.23 103.894" stroke="black" stroke-miterlimit="10"/>
<path d="M1117.77 46.3442H1074.82" stroke="black" stroke-miterlimit="10"/>
<path d="M1109.2 45.3954L1110.64 30.7444C1110.68 30.3403 1110.71 29.8836 1110.45 29.5674C1110.06 29.1282 1109.36 29.2336 1108.82 29.4268C1105.64 30.4809 1102.75 32.4659 1100.63 35.0483C1099.8 33.7659 1101.89 32.0268 1101.16 30.7092C1100.91 30.2701 1100.42 30.0417 1099.94 29.9012C1096.33 28.7417 1092.27 30.7092 1089.88 33.6781C1087.49 36.6469 1086.38 40.4063 1085.33 44.0778" stroke="black" stroke-miterlimit="10"/>
<path d="M1086.08 40.7925L1109.85 41.1087" stroke="black" stroke-miterlimit="10"/>
<path d="M1091.3 55.1981L1103.4 56.2522C1103.89 56.2873 1104.44 56.34 1104.88 56.0941C1105.46 55.7954 1105.72 55.1279 1105.95 54.4955C1106.92 51.8077 1107.9 49.1375 1108.87 46.4497" stroke="black" stroke-miterlimit="10"/>
<path d="M1099.63 57.5C1099.93 59.8189 1099.59 62.208 1098.66 64.3688C1098.47 64.8079 1098.24 65.2647 1097.85 65.5458C1097.36 65.8971 1096.71 65.9322 1096.11 65.9498C1094.78 65.9849 1093.41 66.0201 1092.18 65.4931C1090.95 64.966 1089.96 63.6836 1090.19 62.3661" stroke="black" stroke-miterlimit="10"/>
<path d="M1088.51 66.8623C1091.33 68.6366 1094.85 69.2514 1098.12 68.5312" stroke="black" stroke-miterlimit="10"/>
<path d="M1083.9 71.2539L1077.62 77.5781" stroke="black" stroke-miterlimit="10"/>
<path d="M1087.14 75.4355L1084.62 78.8963" stroke="black" stroke-miterlimit="10"/>
<path d="M1092.81 76.6997V83.9374" stroke="black" stroke-miterlimit="10"/>
<path d="M1098.17 74.1704V78.896" stroke="black" stroke-miterlimit="10"/>
<path d="M1104.98 57.1655L1103.79 73.1165C1107.69 73.1165 1111.31 69.8139 1111.69 65.9315C1112.08 62.0492 1109.18 58.1141 1104.97 57.1479L1104.98 57.1655Z" stroke="black" stroke-miterlimit="10"/>
<path d="M1111.15 69.6024C1113.05 68.8294 1115.26 70.3577 1115.98 72.2726C1116.7 74.1874 1116.37 76.3306 1116.02 78.3508C1115.44 81.7764 1114.84 85.1844 1114.26 88.61" stroke="black" stroke-miterlimit="10"/>
<path d="M1099.78 129.682C1104.61 127.082 1108.23 122.339 1109.45 116.999" stroke="black" stroke-miterlimit="10"/>
<path d="M1095.71 108.092C1091 110.253 1088.45 115.312 1086.27 120.003C1085.62 121.408 1084.96 122.937 1085.24 124.447C1085.52 125.958 1087.24 127.311 1088.61 126.59C1088.79 127.258 1088.96 127.926 1089.12 128.593C1083.78 131.176 1079.09 135.075 1075.56 139.854" stroke="black" stroke-miterlimit="10"/>
<path d="M1096.9 133.144C1093.53 133.144 1090.18 132.353 1087.15 130.842" stroke="black" stroke-miterlimit="10"/>
<path d="M1099.5 131.334C1097.64 136.358 1095.67 141.33 1093.57 146.266C1093.2 147.127 1092.71 148.093 1091.81 148.304C1090.84 148.532 1089.88 147.707 1089.58 146.758C1089.28 145.809 1089.47 144.79 1089.67 143.807C1088.6 145.282 1087.07 146.424 1085.33 147.021C1085.29 145.985 1085.26 144.966 1085.24 143.93C1083.38 147.303 1079.43 149.375 1075.6 149.024C1077.49 146.53 1079.18 143.877 1080.6 141.084C1079.23 140.855 1077.81 140.891 1076.46 141.224C1076.28 140.328 1076.65 139.345 1077.39 138.782" stroke="black" stroke-miterlimit="10"/>
<path d="M1092.53 123.71L1104.28 110.201" stroke="black" stroke-miterlimit="10"/>
<path d="M1096.5 124.834L1104.65 112.73" stroke="black" stroke-miterlimit="10"/>
<path d="M1073.05 78.9316C1073.91 86.6787 1074.24 94.4609 1074.1 102.261C1074.01 106.6 1073.73 111.079 1071.73 114.927C1069.11 119.951 1064.02 123.113 1059.15 126.029C1057.17 127.206 1054.48 126.222 1053.02 124.43C1051.56 122.639 1051.07 120.285 1050.65 118.018C1050.25 115.787 1049.89 113.504 1050.16 111.255C1050.75 106.161 1054.37 102.032 1057.33 97.8163C1061.49 91.861 1064.56 85.1328 1066.32 78.0708" stroke="black" stroke-miterlimit="10"/>
<path d="M1066.04 77.9295C1068.48 77.8241 1070.94 78.1754 1073.27 78.9132" stroke="black" stroke-miterlimit="10"/>
<path d="M1064.09 62.8402C1061.77 62.1903 1059.27 63.6659 1057.97 65.7037C1056.67 67.7415 1056.34 70.2184 1056.06 72.6076C1054.92 82.533 1054.58 92.5638 1055.04 102.56" stroke="black" stroke-miterlimit="10"/>
<path d="M1068.87 93.5293C1064.33 104.351 1059.8 115.19 1055.27 126.011" stroke="black" stroke-miterlimit="10"/>
<path d="M1064.86 94.9521C1057.08 102.155 1057.71 114.575 1052.92 124.026" stroke="black" stroke-miterlimit="10"/>
<path d="M1067.22 77.3149L1065.74 54.8465C1065.63 53.2304 1066.27 50.9115 1067.85 51.2453C1068.25 53.5114 1068.64 55.7776 1069.04 58.0438C1069.53 56.8668 1069.04 55.5317 1069.1 54.2668C1069.15 53.002 1070.48 51.5791 1071.52 52.2993C1071.98 52.6331 1072.13 53.2304 1072.22 53.7925C1072.57 55.7952 1072.77 57.833 1072.75 59.8532C1071.66 57.0073 1073.29 53.4236 1076.14 52.3696C1076.51 54.7938 1076.46 57.2708 1075.96 59.6775" stroke="black" stroke-miterlimit="10"/>
<path d="M1073.71 79.3877L1082.46 57.3234C1083.13 55.6369 1083.82 53.8802 1083.75 52.0708C1083.68 50.2614 1082.66 48.3466 1080.92 47.8196C1078.18 46.9939 1075.72 49.8749 1074.91 52.6154" stroke="black" stroke-miterlimit="10"/>
<path d="M1075.87 71.3243C1075.38 66.1771 1075.61 60.9421 1076.56 55.8652" stroke="black" stroke-miterlimit="10"/>
<path d="M1020.82 42.005C1026.46 42.0929 1031.8 39.651 1037 37.4727C1047.2 33.2039 1057.8 29.8486 1068.58 27.4243" stroke="black" stroke-miterlimit="10"/>
<path d="M1052.13 27.6875C1045.17 30.7442 1038.02 33.309 1030.71 35.3995" stroke="black" stroke-miterlimit="10"/>
<path d="M1030.22 40.0903C1029.97 35.9268 1030.5 31.7107 1031.76 27.7406C1032.38 25.8082 1033.26 23.8231 1034.96 22.7515C1036.67 21.6799 1039.39 22.0664 1040.13 23.9636C1040.51 22.2069 1040.93 20.4151 1041.97 18.957C1043.01 17.4989 1044.85 16.4624 1046.59 16.9016C1048.45 17.3759 1049.53 19.3083 1050.23 21.1177C1051.53 24.4028 1052.32 27.8811 1052.62 31.4121" stroke="black" stroke-miterlimit="10"/>
<path d="M1030.82 41.2319C1032.33 44.4819 1028.97 48.1358 1029.5 51.6844C1029.88 54.2667 1032.63 56.2343 1035.19 55.76" stroke="black" stroke-miterlimit="10"/>
<path d="M1041.23 38.4912C1039 43.6384 1038.05 49.3301 1038.53 54.9341" stroke="black" stroke-miterlimit="10"/>
<path d="M1053.74 32.8872C1054.48 38.7195 1056.5 44.3761 1059.63 49.3476C1057.01 50.5773 1053.88 50.6476 1051.23 49.5408" stroke="black" stroke-miterlimit="10"/>
<path d="M1047.93 42.1451L1053.69 39.9141" stroke="black" stroke-miterlimit="10"/>
<path d="M1047.06 46.3443L1048.42 44.1133" stroke="black" stroke-miterlimit="10"/>
<path d="M1044.75 57.0071C1047.21 57.6395 1049.93 57.1827 1052.05 55.7949" stroke="black" stroke-miterlimit="10"/>
<path d="M1055.34 51.3159C1054.92 52.4226 1054.5 53.6523 1054.87 54.7766C1055.24 55.9009 1056.82 56.6563 1057.66 55.8131" stroke="black" stroke-miterlimit="10"/>
<path d="M1055.58 55.6548L1049.79 61.4519" stroke="black" stroke-miterlimit="10"/>
<path d="M989.797 111.448C989.481 117.913 989.674 124.413 990.394 130.86" stroke="black" stroke-miterlimit="10"/>
<path d="M1013.48 124.624L1013.9 130.632" stroke="black" stroke-miterlimit="10"/>
<path d="M1048.33 64.3325C1042.32 66.0541 1036.65 68.9527 1031.75 72.8174" stroke="black" stroke-miterlimit="10"/>
<path d="M1029.97 57.6045C1033.38 61.803 1034.35 67.8637 1032.41 72.9055" stroke="black" stroke-miterlimit="10"/>
<path d="M1031.47 75.9805C1028.9 83.4992 1026.05 90.9301 1022.95 98.238" stroke="black" stroke-miterlimit="10"/>
<path d="M1048.01 64.666C1051.54 65.5619 1054.64 68.1092 1056.18 71.4294" stroke="black" stroke-miterlimit="10"/>
<path d="M1049.01 115.295C1046.22 119.318 1043.23 123.517 1038.81 125.607C1035.72 127.065 1032.2 127.364 1028.79 127.206C1019.01 126.767 1009.42 122.796 1002.18 116.191C999.528 113.767 996.787 110.816 993.204 110.675C991.429 110.605 989.462 111.22 987.986 110.253" stroke="black" stroke-miterlimit="10"/>
<path d="M987.652 109.867C990.287 106.108 993.643 102.858 997.472 100.363" stroke="black" stroke-miterlimit="10"/>
<path d="M997.562 100.328C1002.87 100.627 1007.42 103.965 1011.84 106.898C1016.27 109.832 1021.44 112.608 1026.64 111.554" stroke="black" stroke-miterlimit="10"/>
<path d="M1030.43 107.021C1034.58 105.932 1037.9 102.647 1039.88 98.835C1041.87 95.0229 1042.66 90.719 1043.13 86.4502" stroke="black" stroke-miterlimit="10"/>
<path d="M988.707 106.705C985.369 103.332 980.099 101.997 975.549 103.367C974.547 103.666 973.546 104.105 972.492 104.017C971.438 103.929 970.366 103.104 970.454 102.067C970.489 101.663 970.7 101.294 970.911 100.925C972 99.0456 974.67 99.2038 976.849 99.0457C977.622 98.993 978.518 98.747 978.746 98.0092C978.904 97.5349 978.693 97.0254 978.518 96.5511C977.639 94.3377 977.112 92.0012 976.972 89.6297C976.884 88.4 976.954 87.0297 977.762 86.1162C978.57 85.2027 980.397 85.15 980.854 86.2919C981.065 86.8189 980.942 87.3986 981.03 87.9608C981.118 88.5229 981.574 89.1202 982.119 88.9797C983.261 88.6635 981.961 86.4324 982.98 85.8352C983.753 85.3784 984.473 86.5905 984.42 87.4865C984.367 88.3824 984.315 89.577 985.158 89.8756C985.228 88.4 985.79 86.9594 986.704 85.8C987.284 87.7324 987.442 89.7702 987.196 91.7553C988.338 91.6147 988.759 90.2445 989.181 89.1729C989.602 88.1013 990.885 87.0122 991.746 87.7676C992.238 88.2067 992.185 88.9621 992.115 89.6297C991.869 91.8958 991.798 94.2674 992.624 96.393C993.45 98.5186 995.364 100.363 997.631 100.504" stroke="black" stroke-miterlimit="10"/>
<path d="M1029.01 57.3409C1022.7 56.8314 1016.13 56.3747 1010.25 58.7111C1005.43 60.6259 1001.55 64.2448 997.773 67.7758C996.227 69.2338 994.664 70.6919 993.118 72.1324C990.676 74.4161 986.917 74.2932 983.737 75.3647C980.944 76.2958 978.572 78.1931 976.008 79.6511C969.314 83.4456 961.392 84.1659 953.732 84.8335" stroke="black" stroke-miterlimit="10"/>
<path d="M976.814 95.4967C969.102 95.5494 961.39 95.0399 953.748 93.9859C954.082 90.6481 954.205 87.2928 954.099 83.9551" stroke="black" stroke-miterlimit="10"/>
<path d="M1005.96 62.418L1018.55 62.7342" stroke="black" stroke-miterlimit="10"/>
<path d="M1049.31 117.052C1047.15 121.373 1046.01 126.187 1045.96 131.018" stroke="black" stroke-miterlimit="10"/>
<path d="M805.887 70.7446C802.514 71.5175 798.719 69.6554 797.279 66.4933C796.77 65.3866 796.576 63.9812 797.314 63.015C798.052 62.0488 799.932 62.1015 800.23 63.2961C797.384 60.8191 796.014 56.7787 796.717 53.072C798.509 52.8085 800.265 54.6179 799.967 56.4098C799.774 55.1274 799.563 53.7747 800.037 52.5626C800.511 51.3504 801.864 50.3667 803.076 50.8059C802.25 52.0356 802.918 53.9855 804.341 54.4247C803.34 52.422 804.991 49.6289 807.24 49.541C807.468 50.5775 807.696 51.5964 807.942 52.6328C808.241 51.614 809.154 50.8059 810.208 50.6302C811.104 56.5328 812.018 62.4353 812.914 68.3378" stroke="black" stroke-miterlimit="10"/>
<path d="M885.606 142.208C884.781 143.578 884.447 145.23 884.658 146.811C880.758 146.898 876.946 148.813 874.539 151.905L879.3 152.748C878.351 153.152 877.402 153.556 876.454 153.96C876.296 155.155 877.578 156.297 878.755 155.998C877.315 156.49 876.067 157.544 875.347 158.879C876.19 159.722 877.508 160.074 878.667 159.775C877.859 161.268 877.631 163.078 878.035 164.729C894.741 162.779 894.847 149.727 885.624 142.226L885.606 142.208Z" stroke="black" stroke-miterlimit="10"/>
<path d="M953.099 83.5165C951.729 83.8327 950.534 82.6381 949.287 81.9705C948.04 81.303 945.879 81.7773 946.125 83.1651C946.23 83.7272 946.74 84.1137 947.144 84.5353C948.83 86.2218 949.111 89.1028 947.811 91.0879C949.831 91.0001 951.869 90.9122 953.889 90.8244" stroke="black" stroke-miterlimit="10"/>
<path d="M942.979 83.1121C940.45 82.1459 937.411 83.604 936.093 85.9755C934.776 88.3471 934.969 91.3335 936.005 93.8281C937.112 96.4456 939.325 98.782 942.136 99.186" stroke="black" stroke-miterlimit="10"/>
<path d="M954.24 94.7417C953.485 96.1471 952.273 97.3065 950.832 98.0092" stroke="black" stroke-miterlimit="10"/>
<path d="M939.959 84.2007C939.818 91.2275 939.748 98.5882 942.963 104.842C943.876 106.616 945.703 108.496 947.565 107.758C948.918 107.214 949.41 105.597 949.638 104.157C950.358 99.7652 950.235 95.2504 949.304 90.8938" stroke="black" stroke-miterlimit="10"/>
<path d="M940.029 82.4097L940.363 76.8057C943.771 75.5585 947.583 75.3652 951.097 76.2787" stroke="black" stroke-miterlimit="10"/>
<path d="M951.08 76.5239C951.255 78.4914 951.08 80.4941 950.57 82.4089" stroke="black" stroke-miterlimit="10"/>
<path d="M943.666 75.4878C943.262 70.1298 945.476 64.6489 949.481 61.0652C950.272 60.3625 951.185 59.6949 952.239 59.572C953.293 59.449 954.488 60.0287 954.734 61.0652C954.997 62.2422 954.013 63.2786 953.188 64.157C950.342 67.1785 948.48 71.1136 947.988 75.2419" stroke="black" stroke-miterlimit="10"/>
<path d="M952.872 61.3116C951.396 61.4872 949.991 62.2953 949.095 63.4723C950.377 62.5237 951.642 61.5575 952.925 60.6089C952.872 61.3116 953.452 61.9967 954.154 62.067C951.748 64.5966 949.675 67.4425 948.006 70.5168" stroke="black" stroke-miterlimit="10"/>
<path d="M951.727 63.1035C948.846 66.2656 947.125 70.4642 946.949 74.733" stroke="black" stroke-miterlimit="10"/>
<path d="M952.835 61.3989L951.061 64.7367" stroke="black" stroke-miterlimit="10"/>
<path d="M950.253 63.876C948.356 66.4759 946.863 69.3393 945.844 72.3785C946.722 69.8488 947.583 67.3016 948.461 64.7719C946.336 67.4245 945.264 70.9028 945.528 74.2757C946.019 74.3636 946.494 74.4514 946.986 74.5392" stroke="black" stroke-miterlimit="10"/>
<path d="M633.395 149.727C635.293 149.288 637.225 150.166 638.982 151.009C641.072 152.011 643.286 153.117 644.55 155.085C646.044 157.404 645.763 160.724 643.901 162.762C642.355 164.466 640.018 165.186 637.787 165.818C634.941 166.627 632.095 167.417 629.232 168.172C622.644 169.912 615.705 168.102 609.153 166.258C607.554 165.801 605.92 165.344 604.515 164.448C602.618 163.236 601.212 161.216 600.914 158.967C600.615 156.719 601.476 154.33 603.233 152.924C604.374 152.011 605.815 151.536 607.22 151.08L611.577 149.674C612.701 149.305 613.878 148.936 615.038 149.077C616.197 149.218 617.409 149.973 617.638 151.132C617.778 151.817 617.339 152.485 616.882 152.994C614.757 155.384 611.331 156.525 608.204 155.928C608.116 154.839 608.977 153.855 609.996 153.451C611.015 153.047 612.139 153.082 613.228 153.135C614.546 153.188 616.039 153.328 616.882 154.347C618.147 155.911 618.902 157.896 618.973 159.898C618.973 160.302 618.973 160.724 618.797 161.093C618.516 161.673 617.813 161.936 617.198 162.112C615.565 162.604 613.386 162.902 612.543 161.427C611.963 160.39 612.49 159.02 613.422 158.282C614.353 157.544 615.547 157.281 616.707 157.035C618.428 156.684 620.22 156.332 621.889 156.859C623.277 157.316 624.594 158.001 625.754 158.879C626.14 159.178 626.527 159.529 626.72 159.986C627.071 160.829 626.614 161.813 625.912 162.393C625.209 162.973 624.296 163.201 623.417 163.412C621.871 163.798 620.238 162.481 619.974 160.917C619.711 159.354 620.571 157.738 621.819 156.754C623.066 155.77 624.665 155.331 626.228 155.067C628.828 154.628 631.92 154.857 633.518 156.965C634.186 157.861 634.485 159.09 634.063 160.127C633.641 161.163 632.376 161.831 631.34 161.427C630.76 161.198 630.339 160.689 629.952 160.179C628.81 158.686 627.756 157.105 626.843 155.454C626.65 155.102 626.439 154.663 626.614 154.294C627.3 152.731 628.881 151.642 630.567 151.361C632.254 151.08 634.01 151.571 635.433 152.538C636.312 153.135 637.102 153.943 637.348 154.98C637.734 156.578 636.663 158.229 635.257 159.073C633.852 159.916 632.166 160.109 630.532 160.285C629.566 160.39 628.477 160.46 627.721 159.846C625.543 158.089 625.473 154.821 625.912 152.063C626.105 150.851 626.351 149.639 626.21 148.427C626.07 147.215 625.385 145.985 624.26 145.546C622.521 144.861 620.536 146.407 620.115 148.216C619.693 150.026 620.361 151.923 621.186 153.592C621.731 154.716 622.469 155.911 623.663 156.174C624.858 156.438 626.035 155.665 626.667 154.646C627.3 153.627 627.475 152.397 627.651 151.22C627.721 150.746 627.739 150.184 627.352 149.903C625.086 148.339 621.783 148.445 619.623 150.166C619.412 150.342 619.201 150.517 618.955 150.623C618.059 150.992 617.023 150.096 617.023 149.112C617.023 148.128 617.796 147.32 618.674 146.934C619.552 146.547 620.554 146.495 621.52 146.407C623.136 146.266 624.823 145.985 626.14 145.054C627.458 144.123 628.354 142.366 627.809 140.838C625.982 139.257 624.155 137.658 622.31 136.077C621.643 135.498 620.905 134.812 620.87 133.917C620.852 133.477 621.011 133.038 621.186 132.634C622.17 130.473 623.979 128.699 626.158 127.75C626.773 128.33 626.456 129.419 625.824 129.981C625.192 130.544 624.348 130.807 623.663 131.299C621.661 132.687 621.362 135.498 621.274 137.922C621.239 138.888 621.204 139.872 621.573 140.768C621.942 141.664 622.838 142.401 623.786 142.278C625.262 142.085 625.754 140.188 625.719 138.695C625.613 134.971 624.383 131.387 623.189 127.856C622.785 126.661 622.328 125.396 621.415 124.536C620.501 123.675 618.92 123.341 617.954 124.184C617.585 125.432 617.708 126.802 618.305 127.961C618.709 128.734 619.324 129.507 619.184 130.386C619.078 131.053 618.534 131.563 618.147 132.125C616.601 134.303 617.655 137.834 620.15 138.8" stroke="#EE8E46" stroke-miterlimit="10"/>
<path d="M620.869 125.695C621.168 125.291 621.818 125.397 622.239 125.66C622.661 125.924 623.03 126.31 623.522 126.433C624.014 126.556 624.646 126.152 624.488 125.66C624.435 125.502 624.312 125.379 624.172 125.274C622.942 124.325 621.168 124.589 619.78 123.868C618.726 123.324 618.058 122.287 617.356 121.339C613.93 116.666 609.169 113.135 605.621 108.567C604.69 107.373 603.847 106.126 602.775 105.072C601.703 104.017 600.316 103.192 598.822 103.104C598.471 104.053 598.752 105.124 599.332 105.967C599.912 106.811 600.72 107.408 601.528 108.023C605.551 111.097 609.468 114.329 612.929 118.019C614.159 119.336 615.371 120.777 615.827 122.516C616.091 123.535 616.091 124.624 616.6 125.537C617.479 127.101 619.464 127.593 621.238 127.926C620.008 127.61 619.042 126.486 618.902 125.221C619.727 126.767 621.484 127.768 623.223 127.716C622.749 126.626 621.66 125.836 620.869 125.695Z" stroke="#EE8E46" stroke-miterlimit="10"/>
<path d="M967.205 166.011L951.764 172.581C950.692 173.038 949.445 173.477 948.444 172.898C940.486 168.207 932.51 163.517 924.552 158.844C923.885 158.457 923.2 158.053 922.76 157.421C922.304 156.771 922.146 155.963 922.04 155.172C921.302 149.937 921.97 144.246 925.185 140.047C928.399 135.848 934.636 133.758 939.274 136.323C941.469 137.535 943.244 139.661 945.703 140.047" stroke="#EE8E46" stroke-miterlimit="10"/>
<path d="M945.315 139.942C942.347 140.891 939.641 142.665 937.586 145.019C940.256 144.703 942.645 143.227 945.245 142.559C950.656 141.154 956.84 143.578 959.826 148.304C955.645 146.969 950.726 148.409 947.915 151.765C951.271 150.096 954.767 148.409 958.508 148.128C962.25 147.847 966.378 149.252 968.258 152.502" stroke="#EE8E46" stroke-miterlimit="10"/>
<path d="M968.207 152.291L968.172 166.38" stroke="#EE8E46" stroke-miterlimit="10"/>
<path d="M696.214 170.139L701.186 168.681C705.085 167.539 709.425 166.415 713.096 168.154C717.716 170.35 719.315 176.586 717.558 181.382C715.801 186.178 711.48 189.621 706.895 191.87C701.906 194.311 696.442 195.629 691.049 196.929L686.183 198.088C682.881 198.879 679.508 199.669 676.152 199.283C672.797 198.896 669.371 197.087 668.036 193.978C665.963 189.182 669.547 183.718 673.816 180.714C677.136 178.378 681.071 176.779 685.129 176.762C689.187 176.744 693.351 178.396 695.845 181.593C697.04 179.362 694.001 177.306 691.594 176.586C687.536 175.357 682.74 174.232 679.35 176.779" stroke="#EE8E46" stroke-miterlimit="10"/>
<path d="M677.979 177.764C679.753 173.793 684.391 172.089 688.571 170.825C691.4 169.981 694.334 169.138 697.267 169.472C700.587 169.841 703.697 171.808 705.471 174.654C707.105 173.161 706.086 170.192 704.136 169.138C702.186 168.084 699.814 168.383 697.636 168.699" stroke="#EE8E46" stroke-miterlimit="10"/>
<path d="M440.928 171.721C446.145 170.386 451.363 169.051 456.563 167.715C467.261 164.975 478.399 163.78 488.675 159.722C491.047 158.791 493.366 157.702 495.667 156.613C499.409 154.856 503.572 154.189 507.507 152.924C511.442 151.659 515.395 149.569 517.415 145.967C518.188 144.597 518.627 142.999 518.329 141.453C517.977 139.713 515.606 139.503 513.849 139.696C506.752 140.504 499.672 141.33 492.575 142.138C487.305 142.753 481.982 143.367 476.941 145.054C467.542 148.216 458.073 151.413 448.253 152.783C440.77 153.82 429 153.96 424.713 161.637C422.886 164.922 424.169 168.699 427.05 170.965C431.055 174.11 436.431 172.88 440.91 171.721H440.928Z" stroke="#EE8E46" stroke-miterlimit="10"/>
<path d="M449.183 152.89C456.21 152.064 463.465 153.346 469.772 156.544C460.461 155.577 451.15 154.629 441.84 153.662" stroke="#EE8E46" stroke-miterlimit="10"/>
<path d="M490.783 147.513C491.222 147.935 490.994 148.725 490.502 149.077C490.01 149.428 489.36 149.463 488.763 149.463C481.982 149.639 474.902 148.866 468.174 149.551C471.845 148.954 475.534 148.515 479.224 148.163C481.033 148.005 489.553 146.319 490.8 147.496L490.783 147.513Z" stroke="#EE8E46" stroke-miterlimit="10"/>
<path d="M488.553 143.262C495.544 142.542 502.659 143.069 509.475 144.79C506.717 144.597 504.223 143.174 501.64 142.208C499.058 141.242 495.931 140.785 493.682 142.384" stroke="#EE8E46" stroke-miterlimit="10"/>
<path d="M779.061 139.713C783.119 143.297 789.917 143.209 793.887 139.52C789.355 136.955 783.681 136.516 779.061 139.713Z" stroke="#EE8E46" stroke-miterlimit="10"/>
<path d="M793.975 139.538C795.029 145.106 795.644 150.763 795.802 156.437C795.802 156.859 795.82 157.28 795.732 157.684C795.346 159.301 793.519 160.038 791.885 160.407C790.251 160.776 788.424 161.11 787.528 162.48C786.966 163.341 786.896 164.43 786.843 165.467C786.562 171.475 786.281 177.483 785.982 183.491" stroke="#EE8E46" stroke-miterlimit="10"/>
<path d="M779.06 139.713C778.006 145.282 776.337 150.323 776.179 155.998C776.179 156.419 776.162 156.841 776.249 157.245C776.636 158.861 778.463 159.599 780.097 159.968C781.73 160.337 783.557 160.67 784.453 162.041C785.015 162.901 785.086 163.991 785.138 165.027C785.419 171.035 785.701 177.043 785.999 183.051" stroke="#EE8E46" stroke-miterlimit="10"/>
<path d="M786.439 180.487C787.862 180.312 789.391 180.136 790.69 180.733C791.99 181.331 792.921 183.017 792.201 184.264C791.551 185.389 790.023 185.564 788.723 185.599C787.037 185.652 785.368 185.722 783.681 185.775C782.61 185.81 781.52 185.845 780.502 185.512C779.483 185.178 778.552 184.422 778.323 183.368C778.253 183.07 778.253 182.754 778.429 182.508C778.569 182.297 778.815 182.191 779.043 182.104C780.519 181.489 782.03 180.962 783.576 180.54" stroke="#EE8E46" stroke-miterlimit="10"/>
<path d="M780.871 182.437C781.486 183.912 783.243 184.808 784.789 184.439C783.541 183.772 782.312 183.086 781.064 182.419" stroke="#EE8E46" stroke-miterlimit="10"/>
<path d="M776.936 150.992C777.48 150.395 778.499 150.535 779.202 150.939C779.904 151.343 780.502 151.976 781.257 152.274C782.838 152.889 784.56 151.941 786.176 151.414C789.355 150.377 793.045 151.097 795.592 153.241" stroke="#EE8E46" stroke-miterlimit="10"/>
<path d="M972.387 63.8062C976.445 67.3899 983.243 67.3021 987.213 63.613C982.681 61.0482 977.007 60.609 972.387 63.8062Z" stroke="#EE8E46" stroke-miterlimit="10"/>
<path d="M987.302 63.6304C988.356 69.1992 988.971 74.8558 989.129 80.5299C989.129 80.9516 989.146 81.3732 989.058 81.7772C988.672 83.3934 986.845 84.1312 985.211 84.5001C983.577 84.869 981.75 85.2028 980.855 86.573C980.292 87.4338 980.222 88.523 980.169 89.5595C979.888 95.5674 979.607 101.575 979.309 107.583" stroke="#EE8E46" stroke-miterlimit="10"/>
<path d="M972.386 63.8062C971.332 69.3749 969.663 74.4167 969.505 80.0909C969.505 80.5125 969.488 80.9341 969.576 81.3381C969.962 82.9543 971.789 83.6921 973.423 84.0611C975.057 84.43 976.884 84.7637 977.779 86.134C978.342 86.9948 978.412 88.0839 978.465 89.1204C978.746 95.1283 979.027 101.136 979.325 107.144" stroke="#EE8E46" stroke-miterlimit="10"/>
<path d="M979.765 104.562C981.188 104.386 982.717 104.21 984.017 104.807C985.317 105.405 986.248 107.091 985.527 108.338C984.877 109.463 983.349 109.638 982.049 109.674C980.363 109.726 978.694 109.797 977.007 109.849C975.936 109.884 974.847 109.92 973.828 109.586C972.809 109.252 971.878 108.497 971.649 107.443C971.579 107.144 971.579 106.828 971.755 106.582C971.895 106.371 972.141 106.266 972.37 106.178C973.845 105.563 975.356 105.036 976.902 104.614" stroke="#EE8E46" stroke-miterlimit="10"/>
<path d="M974.195 106.529C974.81 108.005 976.567 108.901 978.113 108.532C976.866 107.864 975.636 107.179 974.389 106.512" stroke="#EE8E46" stroke-miterlimit="10"/>
<path d="M970.244 75.0842C970.789 74.4869 971.808 74.6275 972.51 75.0315C973.213 75.4356 973.81 76.068 974.566 76.3666C976.147 76.9814 977.868 76.0328 979.484 75.5058C982.664 74.4693 986.353 75.1896 988.9 77.3328" stroke="#EE8E46" stroke-miterlimit="10"/>
<path d="M1128.77 115.331C1132.83 118.914 1139.63 118.826 1143.6 115.137C1139.07 112.573 1133.39 112.133 1128.77 115.331Z" stroke="#EE8E46" stroke-miterlimit="10"/>
<path d="M1143.69 115.155C1144.74 120.724 1145.36 126.38 1145.51 132.054C1145.51 132.476 1145.53 132.898 1145.44 133.302C1145.06 134.918 1143.23 135.656 1141.6 136.025C1139.96 136.393 1138.14 136.727 1137.24 138.097C1136.68 138.958 1136.61 140.047 1136.55 141.084C1136.27 147.092 1135.99 153.1 1135.69 159.108" stroke="#EE8E46" stroke-miterlimit="10"/>
<path d="M1128.77 115.331C1127.72 120.899 1126.05 125.941 1125.89 131.615C1125.89 132.037 1125.87 132.459 1125.96 132.863C1126.35 134.479 1128.17 135.217 1129.81 135.585C1131.44 135.954 1133.27 136.288 1134.16 137.658C1134.73 138.519 1134.8 139.608 1134.85 140.645C1135.13 146.653 1135.41 152.661 1135.71 158.669" stroke="#EE8E46" stroke-miterlimit="10"/>
<path d="M1136.15 156.086C1137.57 155.91 1139.1 155.735 1140.4 156.332C1141.7 156.929 1142.63 158.616 1141.91 159.863C1141.26 160.987 1139.73 161.163 1138.43 161.198C1136.75 161.251 1135.08 161.321 1133.39 161.374C1132.32 161.409 1131.23 161.444 1130.21 161.11C1129.19 160.776 1128.26 160.021 1128.03 158.967C1127.96 158.668 1127.96 158.352 1128.14 158.106C1128.28 157.895 1128.53 157.79 1128.75 157.702C1130.23 157.087 1131.74 156.56 1133.29 156.139" stroke="#EE8E46" stroke-miterlimit="10"/>
<path d="M1130.58 158.054C1131.19 159.53 1132.95 160.426 1134.5 160.057C1133.25 159.389 1132.02 158.704 1130.77 158.037" stroke="#EE8E46" stroke-miterlimit="10"/>
<path d="M1126.63 126.609C1127.17 126.012 1128.19 126.152 1128.9 126.556C1129.6 126.96 1130.2 127.593 1130.95 127.892C1132.53 128.506 1134.25 127.558 1135.87 127.031C1139.05 125.994 1142.74 126.715 1145.29 128.858" stroke="#EE8E46" stroke-miterlimit="10"/>
<path d="M387.857 150.359C391.915 153.943 398.714 153.855 402.684 150.166C398.152 147.601 392.478 147.162 387.857 150.359Z" stroke="#EE8E46" stroke-miterlimit="10"/>
<path d="M402.772 150.184C403.826 155.752 404.441 161.409 404.599 167.083C404.599 167.505 404.617 167.926 404.529 168.33C404.143 169.947 402.316 170.684 400.682 171.053C399.048 171.422 397.221 171.756 396.325 173.126C395.763 173.987 395.693 175.076 395.64 176.113C395.359 182.121 395.078 188.129 394.779 194.137" stroke="#EE8E46" stroke-miterlimit="10"/>
<path d="M387.857 150.359C386.803 155.928 385.134 160.969 384.976 166.644C384.976 167.065 384.958 167.487 385.046 167.891C385.433 169.507 387.26 170.245 388.894 170.614C390.527 170.983 392.354 171.316 393.25 172.687C393.812 173.547 393.883 174.637 393.935 175.673C394.216 181.681 394.497 187.689 394.796 193.697" stroke="#EE8E46" stroke-miterlimit="10"/>
<path d="M395.236 191.115C396.659 190.939 398.187 190.763 399.487 191.361C400.787 191.958 401.718 193.644 400.998 194.892C400.348 196.016 398.82 196.192 397.52 196.227C395.833 196.28 394.164 196.35 392.478 196.402C391.406 196.438 390.317 196.473 389.298 196.139C388.28 195.805 387.348 195.05 387.12 193.996C387.05 193.697 387.05 193.381 387.225 193.135C387.366 192.924 387.612 192.819 387.84 192.731C389.316 192.116 390.827 191.589 392.373 191.167" stroke="#EE8E46" stroke-miterlimit="10"/>
<path d="M389.668 193.083C390.283 194.558 392.04 195.454 393.585 195.085C392.338 194.418 391.108 193.732 389.861 193.065" stroke="#EE8E46" stroke-miterlimit="10"/>
<path d="M385.73 161.637C386.275 161.04 387.294 161.181 387.997 161.585C388.699 161.989 389.297 162.621 390.052 162.92C391.633 163.535 393.355 162.586 394.971 162.059C398.15 161.023 401.84 161.743 404.387 163.886" stroke="#EE8E46" stroke-miterlimit="10"/>
<path d="M1003.13 105.229C1005.8 105.317 1008.47 105.282 1011.14 105.106C1010.61 109.023 1010.08 112.976 1010.37 116.929C1010.65 120.881 1011.79 124.869 1014.3 127.926C1015.51 129.401 1016.74 130.947 1017.18 132.809C1017.27 133.161 1017.32 133.53 1017.38 133.881C1017.97 138.062 1018.27 142.296 1018.27 146.529C1018.27 149.077 1018.17 151.624 1018.06 154.153C1017.76 161.356 1017.46 168.541 1017.16 175.743C1017.08 177.711 1016.94 179.854 1015.65 181.365C1014.02 183.28 1011.19 183.473 1008.68 183.508C1004.32 183.596 999.668 183.596 996.014 181.207" stroke="#EE8E46" stroke-miterlimit="10"/>
<path d="M1003.29 105.282C1002.6 105.159 1002.18 106.178 1002.57 106.757C1002.95 107.337 1003.74 107.495 1004.45 107.513C1005.15 107.53 1005.89 107.46 1006.52 107.776" stroke="#EE8E46" stroke-miterlimit="10"/>
<path d="M1004.52 107.776C1005.03 114.574 1003.32 121.355 1001.37 127.89C1001.16 128.575 1000.97 129.243 1000.67 129.893C1000.04 131.298 998.79 132.3 997.859 133.529C996.752 135.005 996.102 136.762 995.592 138.536C991.622 152.361 995.364 167.047 995.821 181.435" stroke="#EE8E46" stroke-miterlimit="10"/>
<path d="M993.643 147.917C1001.06 149.972 1008.87 150.552 1016.5 149.621C1018.68 158.967 1014.78 168.646 1015.13 178.238C1009.19 181.312 1001.72 181.207 995.891 177.957" stroke="#EE8E46" stroke-miterlimit="10"/>
<path d="M1003.62 160.144C1003.97 158.493 1004.64 156.824 1005.98 155.787C1007.31 154.751 1009.44 154.61 1010.58 155.858C1011.42 156.753 1011.54 158.141 1011.21 159.318C1010.88 160.495 1010.16 161.532 1009.45 162.533C1008.01 164.588 1006.57 166.644 1005.11 168.682" stroke="#EE8E46" stroke-miterlimit="10"/>
<path d="M1003.57 160.144C1004.11 158.809 1003.46 157.192 1002.34 156.279C1001.21 155.365 999.739 155.032 998.281 154.874C997.912 154.838 997.543 154.821 997.209 154.944C996.805 155.102 996.507 155.471 996.313 155.857C995.049 158.282 997.034 161.163 999.212 162.814C1001.39 164.465 1004.08 165.871 1004.97 168.453" stroke="#EE8E46" stroke-miterlimit="10"/>
<path d="M1004.94 104.719L1004.99 102.84C1006.06 102.682 1007.17 102.524 1008.19 102.875C1009.21 103.226 1010.1 104.21 1009.93 105.282" stroke="#EE8E46" stroke-miterlimit="10"/>
<path d="M1002.87 129.665C999.3 133.652 997.579 139.221 998.282 144.509" stroke="#EE8E46" stroke-miterlimit="10"/>
<path d="M1012.81 132.827C1013.76 134.777 1014.27 136.938 1014.32 139.116" stroke="#EE8E46" stroke-miterlimit="10"/>
<path d="M1013.41 159.652C1013.41 164.624 1013.14 169.595 1012.62 174.532C1012.56 175.006 1012.49 175.515 1012.16 175.867C1011.86 176.165 1011.42 176.253 1011.02 176.324C1006.99 177.009 1002.88 177.237 998.809 177.009" stroke="#EE8E46" stroke-miterlimit="10"/>
</svg>
