<svg width="915" height="200" viewBox="0 0 915 200" fill="none" xmlns="http://www.w3.org/2000/svg">
<path d="M459.186 157.527C458.501 154.417 460.732 151.255 463.578 149.815C466.424 148.374 469.727 148.234 472.906 148.146C476.068 148.04 479.406 147.988 482.164 149.569C484.922 151.15 486.626 154.962 484.834 157.579C483.938 158.897 482.392 159.6 480.899 160.127C473.96 162.568 466.143 162.34 459.204 157.544L459.186 157.527Z" stroke="black" stroke-miterlimit="10"/>
<path d="M477.14 156.297C477.14 154.874 477.719 153.451 478.738 152.45" stroke="black" stroke-miterlimit="10"/>
<path d="M471.148 156.209C472.079 154.277 473.538 152.608 475.329 151.431" stroke="black" stroke-miterlimit="10"/>
<path d="M465.457 154.663L468.531 151.905" stroke="black" stroke-miterlimit="10"/>
<path d="M497.957 153.714C496.815 147.759 489.788 145.317 483.868 143.982C478.369 142.735 472.537 141.488 467.162 143.192C463.578 144.334 459.994 145.458 456.41 146.6C451.562 148.128 445.888 150.587 445.167 155.629C444.693 158.897 446.731 162.129 449.419 164.044C454.144 167.399 460.644 168.084 466.108 169.63C469.972 170.719 474.03 172.371 478.106 172.318C486.766 172.178 499.819 163.622 497.939 153.75L497.957 153.714Z" stroke="black" stroke-miterlimit="10"/>
<path d="M438.001 168.365C437.527 169.788 436.332 171.51 434.962 170.912C433.785 167.768 434.98 164.307 436.174 161.162C438.388 155.348 440.584 149.516 442.797 143.683C442.569 152.028 440.619 160.46 438.001 168.347V168.365Z" stroke="black" stroke-miterlimit="10"/>
<path d="M442.321 148.146C441.689 144.492 442.76 140.592 445.149 137.746C444.394 137.254 443.41 137.114 442.532 137.342C442.374 141.013 442.233 144.703 442.075 148.374C442.866 145.212 443.656 142.05 444.447 138.905" stroke="black" stroke-miterlimit="10"/>
<path d="M507.39 140.451C506.125 149.551 505.475 158.738 505.493 167.926" stroke="black" stroke-miterlimit="10"/>
<path d="M504.28 158.58C501.75 161.057 500.486 164.781 501.013 168.277" stroke="black" stroke-miterlimit="10"/>
<path d="M503.947 158.896C505.967 155.734 506.126 151.782 506.213 148.04C506.266 145.598 506.336 143.156 506.389 140.714" stroke="black" stroke-miterlimit="10"/>
<path d="M506.143 158.089C508.532 160.372 509.392 164.132 508.251 167.241" stroke="black" stroke-miterlimit="10"/>
<path d="M448.805 104.667V131.017" stroke="black" stroke-miterlimit="10"/>
<path d="M497.815 103.508V131.738" stroke="black" stroke-miterlimit="10"/>
<path d="M425.247 131.686H515.981" stroke="black" stroke-miterlimit="10"/>
<path d="M448.137 106.423L412.476 142.085" stroke="black" stroke-miterlimit="10"/>
<path d="M497.641 102.419C509.639 114.259 514.54 132.845 527.417 143.736" stroke="black" stroke-miterlimit="10"/>
<path d="M431.64 102.436C433.677 106.792 437.63 110.218 442.233 111.641" stroke="black" stroke-miterlimit="10"/>
<path d="M499.363 78.8085L531.792 137.237" stroke="black" stroke-miterlimit="10"/>
<path d="M505.951 112.538C509.5 111.782 512.644 109.375 514.348 106.178" stroke="black" stroke-miterlimit="10"/>
<path d="M408.752 136.322L437.72 93.3005C441.901 87.0993 446.293 80.6873 452.758 76.928" stroke="black" stroke-miterlimit="10"/>
<path d="M412.756 141.488C411.948 145.353 410.876 149.692 410.068 153.557C409.717 155.261 409.295 157.07 408.101 158.335C407.995 158.458 407.872 158.563 407.732 158.634C406.994 158.967 406.344 158.036 406.151 157.246C405.764 155.612 405.8 153.89 406.221 152.274C405.325 154.277 404.254 156.438 402.251 157.316C401.46 157.65 400.565 156.842 400.494 155.981C400.424 155.12 400.933 154.33 401.46 153.662C401.987 152.995 402.585 152.309 402.76 151.466C401.46 153.311 399.669 154.804 397.596 155.735C397.034 155.981 396.419 155.296 396.489 154.681C396.559 154.066 397.051 153.592 397.525 153.188L401.671 149.464C400.231 150.465 398.702 151.326 397.086 152.028C396.542 152.274 395.944 152.503 395.347 152.397C394.75 152.292 394.188 151.747 394.293 151.168C394.363 150.746 394.732 150.447 395.066 150.184C397.648 148.164 399.95 145.792 401.917 143.175C400.652 142.489 399.124 142.349 397.754 142.788C397.121 142.999 396.454 143.139 395.786 143.21C395.663 143.21 395.505 143.21 395.47 143.104C395.277 142.437 395.874 141.787 396.454 141.4C398.615 139.995 401.302 139.679 403.569 138.449C405.536 137.377 407.873 137.272 409.524 135.498" stroke="black" stroke-miterlimit="10"/>
<path d="M527.047 142.981C526.714 146.003 527.891 148.972 528.172 152.011C528.33 153.732 528.172 155.472 528.4 157.193C528.628 158.915 529.208 160.671 530.543 161.778C530.736 161.936 530.965 161.62 531.017 161.374L532.599 153.943C532.036 155.876 532.37 158.107 533.635 159.688C534.144 160.338 534.812 160.865 535.532 161.269C535.936 161.497 536.411 161.673 536.867 161.567C537.324 161.462 537.693 160.953 537.5 160.531C537.447 160.426 537.377 160.338 537.307 160.232C535.936 158.476 536.428 155.7 534.935 154.066C536.639 156.526 539.221 158.353 542.102 159.143C542.594 158.159 542.19 156.982 541.663 156.034C540.539 154.031 538.747 152.415 536.657 151.484C538.132 152.274 539.239 153.627 540.504 154.734C541.769 155.84 543.402 156.772 545.071 156.473C545.493 155.173 544.404 153.926 543.824 152.678C543.385 151.747 543.227 150.693 542.7 149.815C541.839 148.357 539.994 147.356 539.942 145.669C540.662 146.53 541.716 147.11 542.823 147.25C543.227 147.303 543.631 147.022 543.824 146.653C544.017 146.284 544.07 145.862 544.123 145.458C544.123 145.318 544.158 145.16 544.087 145.019C543.982 144.843 543.754 144.773 543.56 144.72C542.594 144.422 541.856 143.666 541.154 142.946C539.098 140.856 536.797 138.748 533.916 138.186C533.301 138.063 532.651 138.01 532.089 137.711C531.527 137.413 531.088 136.78 531.263 136.183" stroke="black" stroke-miterlimit="10"/>
<path d="M451.562 77.2973C456.165 76.4892 460.926 76.577 465.493 77.5432" stroke="black" stroke-miterlimit="10"/>
<path d="M499.029 79.4405C496.183 77.7014 492.67 77.1216 489.42 77.8419" stroke="black" stroke-miterlimit="10"/>
<path d="M361.126 64.3678C364.253 68.1623 368.434 71.0785 373.072 72.6946C376.62 73.9419 380.485 74.4865 383.682 76.4891C384.684 77.1216 385.597 77.8769 386.511 78.6499C389.392 81.0742 392.29 83.4808 395.171 85.9051C400.599 90.455 406.238 95.286 408.838 101.874C409.365 103.191 409.752 104.579 409.664 105.984C409.594 107.109 409.225 108.18 408.856 109.252C406.309 116.595 403.761 123.92 401.232 131.263" stroke="black" stroke-miterlimit="10"/>
<path d="M383.964 94.847C388.795 98.8524 394.346 102.858 399.177 106.845C399.563 107.162 399.95 107.495 400.213 107.917C400.635 108.62 400.618 109.498 400.582 110.306C400.266 116.191 398.931 122.041 396.647 127.469" stroke="black" stroke-miterlimit="10"/>
<path d="M400.742 130.736C398.774 130.965 397.018 132.493 396.526 134.425C396.403 134.917 396.35 135.427 396.122 135.866C395.893 136.305 395.401 136.692 394.91 136.586C394.102 136.411 393.768 135.128 392.942 135.198C392.802 135.198 392.661 135.269 392.52 135.339C391.783 135.708 391.15 136.34 390.325 136.446C389.499 136.551 388.55 135.655 389.025 134.988C387.742 134.461 386.161 136.323 385.09 135.444C384.088 134.636 385.353 133.003 385.072 131.738C384.861 130.807 383.632 130.28 382.806 130.772C382.209 131.123 381.172 131.281 381.102 130.596C381.067 130.209 381.453 129.928 381.787 129.735C386.46 127.188 391.993 126.257 397.246 127.135" stroke="black" stroke-miterlimit="10"/>
<path d="M410.613 130.982H400.441" stroke="black" stroke-miterlimit="10"/>
<path d="M379.536 130.982H360.634" stroke="black" stroke-miterlimit="10"/>
<path d="M384.701 94.847C383.629 95.1281 382.329 96.7443 381.943 97.7808C378.078 108.11 375.777 119.019 375.127 130.016" stroke="black" stroke-miterlimit="10"/>
<path d="M369.786 71.7466C368.082 79.195 360.159 85.8003 352.517 85.5017C352.061 85.4841 351.569 85.4314 351.2 85.1679C350.761 84.8692 350.567 84.3247 350.444 83.8152C349.97 81.9707 350.075 79.9856 350.761 78.2113" stroke="black" stroke-miterlimit="10"/>
<path d="M342.963 90.0861C340.855 92.5982 339.695 95.7778 338.905 98.9575C338.342 101.241 337.956 103.736 338.905 105.896" stroke="black" stroke-miterlimit="10"/>
<path d="M342.961 90.0861C334.74 91.1752 331.016 91.6847 326.36 94.5305" stroke="black" stroke-miterlimit="10"/>
<path d="M304.946 88.0311C313.501 89.1027 321.793 92.3526 328.785 97.412C339.272 105.001 349.532 115.559 356.559 126.433" stroke="black" stroke-miterlimit="10"/>
<path d="M345.403 76.4718C339.273 81.2501 331.051 83.2352 323.409 81.7771C324.288 83.3054 326.501 82.9892 328.258 83.0771C330.015 83.1649 332.088 85.1324 330.788 86.327C327.45 86.9067 324.059 87.1878 320.669 87.1878C323.005 87.0824 325.342 86.977 327.678 86.8891C328.715 86.8364 329.927 86.8891 330.507 87.7323C331.473 89.1201 329.751 90.8417 328.153 91.4039C326.413 92.0187 324.551 92.2822 322.707 92.1768" stroke="black" stroke-miterlimit="10"/>
<path d="M337.675 79.651C332.791 76.6119 326.432 76.77 321.003 78.6848C315.575 80.5996 310.867 84.0955 306.229 87.5386" stroke="black" stroke-miterlimit="10"/>
<path d="M266.406 105.967C264.087 101.522 266.458 95.7775 270.428 92.6857C274.399 89.5939 279.511 88.5223 284.429 87.5386" stroke="black" stroke-miterlimit="10"/>
<path d="M284.271 87.2751C285.483 92.352 290.472 95.4263 295.039 97.9384C296.181 98.5708 297.393 99.2208 298.711 99.2559C301.117 99.3262 303.155 97.2181 303.823 94.8993C304.49 92.5804 304.139 90.121 303.77 87.7319" stroke="black" stroke-miterlimit="10"/>
<path d="M340.749 131.176H321.302" stroke="black" stroke-miterlimit="10"/>
<path d="M359.738 55.5844C361.671 54.6884 363.867 56.9546 363.708 59.0627C363.55 61.1707 361.917 62.8747 360.283 64.2274" stroke="black" stroke-miterlimit="10"/>
<path d="M345.018 44.1483C347.389 41.0389 352.642 41.8997 355.224 44.8159C357.806 47.732 358.456 51.8427 359.001 55.6899" stroke="black" stroke-miterlimit="10"/>
<path d="M359.967 64.3154C358.931 67.4072 360.599 70.6572 361.179 73.8544C361.759 77.0516 360.143 81.3907 356.91 81.0745C355.856 80.9691 354.925 80.3542 354.029 79.7569C349.339 76.5948 344.648 73.4503 339.958 70.2882" stroke="black" stroke-miterlimit="10"/>
<path d="M344.684 69.3047C344.192 69.3749 343.911 68.5317 344.35 68.2858C344.789 68.0398 345.351 68.725 345.035 69.1114" stroke="black" stroke-miterlimit="10"/>
<path d="M351.394 64.8421C351.13 65.1583 351.657 65.7029 351.991 65.4569C352.219 65.2286 352.026 64.7367 351.692 64.7367" stroke="black" stroke-miterlimit="10"/>
<path d="M347.74 64.0693C347.67 65.9139 347.74 67.776 347.951 69.6206C348.004 70.13 348.109 70.7097 348.513 71.0259C349.427 71.7462 350.621 70.6043 351.219 69.603" stroke="black" stroke-miterlimit="10"/>
<path d="M353.555 74.7324C354.644 72.9054 355.065 70.6919 354.732 68.5839" stroke="black" stroke-miterlimit="10"/>
<path d="M348.108 60.1699C349.584 59.7835 351.218 60.0821 352.447 60.978" stroke="black" stroke-miterlimit="10"/>
<path d="M342.699 64.2625C342.084 65.0881 341.751 66.1246 341.803 67.1435" stroke="black" stroke-miterlimit="10"/>
<path d="M347.143 49.2781L347.195 53.7226C350.375 53.5293 353.607 54.6009 356.067 56.6563" stroke="black" stroke-miterlimit="10"/>
<path d="M340.731 43.9375C337.428 43.6213 334.02 45.1496 332.053 47.8198C330.085 50.49 329.664 54.2142 330.981 57.2534C332.931 61.8208 338.412 65.0356 338.149 70.0071" stroke="black" stroke-miterlimit="10"/>
<path d="M338.323 57.2006C338.921 61.4518 339.096 65.7558 338.85 70.0421" stroke="black" stroke-miterlimit="10"/>
<path d="M343.419 50.1915C343.665 51.0875 343.911 52.0361 343.735 52.9496C343.56 53.863 342.839 54.759 341.908 54.7941C341.908 56.9022 340.696 58.9575 338.869 59.994" stroke="black" stroke-miterlimit="10"/>
<path d="M354.591 126.556C351.939 125.73 349.198 124.905 346.423 125.151C343.647 125.396 340.819 126.978 339.923 129.613" stroke="black" stroke-miterlimit="10"/>
<path d="M397.842 89.77C397.789 94.2145 396.05 98.6238 393.046 101.909" stroke="black" stroke-miterlimit="10"/>
<path d="M325.764 120.284C331.016 122.129 334.003 127.944 339.15 130.122" stroke="black" stroke-miterlimit="10"/>
<path d="M325.958 120.864C327.662 124.079 328.453 127.768 328.189 131.387" stroke="black" stroke-miterlimit="10"/>
<path d="M338.957 129.7L340.45 130.262" stroke="black" stroke-miterlimit="10"/>
<path d="M340.327 130.368C345.755 133.776 351.711 136.359 357.894 138.027C354.855 138.607 351.588 139.31 349.55 141.629" stroke="black" stroke-miterlimit="10"/>
<path d="M356.154 125.941L359.756 130.702C360.915 132.248 362.32 133.917 364.235 134.04C365.359 134.11 366.431 133.618 367.468 133.179C368.504 132.74 369.611 132.3 370.717 132.494C371.824 132.687 372.861 133.759 372.58 134.848" stroke="black" stroke-miterlimit="10"/>
<path d="M372.282 134.847C373.371 135.48 374.338 136.341 375.075 137.377C375.883 138.519 376.428 139.977 376.094 141.33C376.059 141.47 376.006 141.611 375.866 141.646C375.409 141.751 374.952 141.488 374.636 141.136C374.32 140.785 374.127 140.363 373.863 139.977C373.143 138.888 372.019 138.115 370.93 137.395C370.631 137.201 370.192 137.008 369.946 137.272C369.77 137.465 369.823 137.781 369.981 137.992C370.139 138.203 370.385 138.326 370.596 138.484C371.58 139.222 371.825 140.557 372.001 141.786L372.44 144.773C372.493 145.072 372.107 145.3 371.808 145.23C371.509 145.159 371.298 144.896 371.105 144.667L368.769 141.734C368.101 140.891 367.223 139.977 366.169 140.153C366.977 141.892 367.574 143.736 367.943 145.616C368.013 146.003 368.066 146.442 367.785 146.723C367.399 147.074 366.784 146.811 366.397 146.477C365.677 145.88 365.115 145.089 364.763 144.228C364.5 143.578 364.359 142.893 364.096 142.261C363.832 141.628 363.393 141.014 362.761 140.732C362.708 142.12 362.831 143.508 363.112 144.878C363.253 145.546 363.428 146.213 363.358 146.898C363.288 147.584 362.884 148.269 362.216 148.444C361.777 148.567 361.496 148.005 361.408 147.566C361.022 145.844 360.635 144.14 360.249 142.419C360.091 141.699 359.915 140.943 359.405 140.399C358.72 139.661 357.631 139.485 356.647 139.362" stroke="black" stroke-miterlimit="10"/>
<path d="M357.12 139.713L349.795 141.066" stroke="black" stroke-miterlimit="10"/>
<path d="M273.8 131.844C267.985 123.956 265.069 113.96 265.736 104.175" stroke="black" stroke-miterlimit="10"/>
<path d="M303.979 87.5037C302.398 87.9605 300.501 87.6091 299.447 86.3443C298.393 85.0794 298.568 82.8484 300.009 82.0228C300.202 81.8998 300.413 81.8295 300.624 81.7066C301.818 80.9687 301.994 79.2296 301.467 77.9121C300.94 76.5945 299.939 75.5581 299.183 74.3811C297.356 71.5528 297.023 67.8461 298.305 64.7367C296.829 63.3841 294.001 64.5786 292.736 63.0327C290.136 59.8355 285.657 58.9922 281.581 58.3774C278.437 57.9031 275.081 57.4464 272.2 58.7815C268.669 60.4152 266.825 64.2624 265.331 67.8461C264.717 69.3217 264.102 70.8149 263.75 72.3784C262.275 79.1066 266.719 86.6078 273.324 88.5578" stroke="black" stroke-miterlimit="10"/>
<path d="M279.298 59.2213C280.229 60.328 278.929 61.9267 277.682 62.682C276.435 63.4374 274.924 64.5969 275.416 65.9671C275.697 66.7225 276.505 67.1265 276.944 67.8116C277.787 69.1292 276.909 70.8332 276.751 72.3967C276.487 75.225 278.666 77.6317 280.703 79.6168" stroke="black" stroke-miterlimit="10"/>
<path d="M278.386 84.2008C276.577 84.6575 274.416 84.3764 273.204 82.9535C271.992 81.5306 272.325 78.8779 274.1 78.2806" stroke="black" stroke-miterlimit="10"/>
<path d="M289.874 68.0753C289.645 68.3212 290.19 68.6375 290.418 68.3915C290.647 68.1456 290.541 67.7591 290.418 67.4604C290.085 67.0915 289.54 67.9875 290.014 68.1104C290.26 67.7942 289.558 67.3902 289.417 67.7767" stroke="black" stroke-miterlimit="10"/>
<path d="M285.465 64.4382L285.271 67.53" stroke="black" stroke-miterlimit="10"/>
<path d="M293.598 76.3138C295.653 76.2084 297.55 74.68 298.112 72.6949" stroke="black" stroke-miterlimit="10"/>
<path d="M304.455 78.492C307.933 78.3866 311.868 78.0703 314.064 75.365C315.733 73.3096 315.856 70.4638 316.295 67.8463C316.735 65.2463 317.683 62.5234 319.844 61.0302C320.599 60.5032 321.179 59.7478 321.495 58.887C319.106 57.7452 317.613 55.3385 316.243 53.0723C314.732 50.5602 313.168 47.6265 314.099 44.8509C314.486 43.6914 315.276 42.7253 316.067 41.7766C317.349 40.2131 318.632 38.6497 319.914 37.1038" stroke="black" stroke-miterlimit="10"/>
<path d="M312.658 49.2427C308.899 49.5413 305.983 52.9845 305.069 56.6385C304.156 60.2924 304.771 64.1396 305.403 67.8639" stroke="black" stroke-miterlimit="10"/>
<path d="M311.78 68.1625L315.75 68.8125" stroke="black" stroke-miterlimit="10"/>
<path d="M314.749 59.4494C314.837 59.6251 315.188 59.5373 315.171 59.344C315.153 59.1508 314.802 59.0806 314.731 59.2738" stroke="black" stroke-miterlimit="10"/>
<path d="M310.708 57.5693C311.92 56.3747 312.834 54.8464 313.326 53.2126" stroke="black" stroke-miterlimit="10"/>
<path d="M316.505 33.8013C313.589 36.2607 310.55 38.5971 307.44 40.8106C306.58 37.7363 308.547 34.1526 311.604 33.2391" stroke="black" stroke-miterlimit="10"/>
<path d="M305.526 33.4681C302.065 36.0505 298.991 39.1247 296.373 42.5679C296.127 42.9016 295.776 43.2706 295.372 43.2179C294.985 43.1652 294.775 42.7611 294.634 42.3922C293.527 39.4585 293.914 35.9978 295.618 33.3802C291.999 38.018 289.715 43.6922 289.1 49.542C285.763 47.3461 280.949 47.715 277.98 50.4028C280.686 49.7177 283.584 49.9109 286.184 50.9298" stroke="black" stroke-miterlimit="10"/>
<path d="M286.22 51.2805C283.62 52.071 281.67 54.6534 281.635 57.3763" stroke="black" stroke-miterlimit="10"/>
<path d="M263.681 67.6356C258.446 65.9843 252.42 67.0559 248.081 70.4288C245.955 72.0801 244.251 74.1881 242.565 76.2786C235.608 84.9392 228.511 93.8282 224.927 104.333C223.803 107.618 223.048 111.026 222.292 114.417C220.922 120.53 219.569 126.644 218.199 132.739" stroke="black" stroke-miterlimit="10"/>
<path d="M219.114 129.823C221.995 130.157 224.788 128.593 226.844 126.556C228.899 124.518 230.41 121.988 232.219 119.74C233.625 118 236.137 116.314 237.911 117.684C238.368 118.036 238.666 118.545 238.965 119.055C239.949 120.741 240.915 122.445 241.864 124.149C242.461 125.238 243.954 125.572 245.149 125.221C246.343 124.869 247.31 124.008 248.223 123.165C249.242 122.234 250.313 121.25 250.788 119.95C251.209 118.809 251.122 117.579 251.086 116.367C250.981 112.432 251.403 108.497 252.351 104.685" stroke="black" stroke-miterlimit="10"/>
<path d="M229.39 125.625C234.203 138.273 239.86 150.57 246.342 162.445C246.887 163.447 247.659 164.29 248.222 165.291C250.382 169.139 254.581 166.591 258.147 166.82" stroke="black" stroke-miterlimit="10"/>
<path d="M244.972 126.433L246.201 144.474C246.359 146.688 246.518 148.954 247.466 150.957C247.677 151.396 247.941 151.835 248.397 152.046C249.381 152.485 250.365 151.466 250.857 150.517C251.349 149.569 251.911 148.409 252.982 148.321" stroke="black" stroke-miterlimit="10"/>
<path d="M229.971 133.302H114.449" stroke="black" stroke-miterlimit="10"/>
<path d="M103.505 132.651H67.0879" stroke="black" stroke-miterlimit="10"/>
<path d="M59.3932 132.001H1L1.01757 133.951" stroke="black" stroke-miterlimit="10"/>
<path d="M530.086 132.23H607.979" stroke="black" stroke-miterlimit="10"/>
<path d="M624.02 131.667H785.005" stroke="black" stroke-miterlimit="10"/>
<path d="M805.012 132.23H915" stroke="black" stroke-miterlimit="10"/>
<path d="M99.3246 85.1498C89.6802 100.082 81.4764 115.963 74.9062 132.476" stroke="black" stroke-miterlimit="10"/>
<path d="M99.0234 84.8334L103.819 122.164C105.137 132.458 107.227 144.035 115.87 149.779" stroke="black" stroke-miterlimit="10"/>
<path d="M70.583 77.4908C70.46 99.4322 68.879 121.374 65.8398 143.104" stroke="black" stroke-miterlimit="10"/>
<path d="M56.916 68.0751C57.5836 81.3383 58.2511 94.6015 58.9187 107.882C59.6389 122.358 60.3767 136.868 62.4321 151.22" stroke="black" stroke-miterlimit="10"/>
<path d="M73.868 56.5511C60.4467 60.047 50.7145 72.2737 46.3579 85.4491C42.0012 98.6244 42.1593 112.784 42.335 126.662" stroke="black" stroke-miterlimit="10"/>
<path d="M79.332 54.5476C84.3738 53.2828 88.6251 49.2248 90.1007 44.2357" stroke="black" stroke-miterlimit="10"/>
<path d="M103.153 58.6414C107.123 59.8711 108.178 64.9128 108.546 69.0762C110.496 91.2284 112.446 113.398 114.396 135.55" stroke="black" stroke-miterlimit="10"/>
<path d="M97.6729 61.7859C101.467 58.4833 104.911 54.759 107.914 50.701C109.232 50.701 110.567 50.9645 111.797 51.4564C112.622 49.7524 112.991 47.8551 112.886 45.9755" stroke="black" stroke-miterlimit="10"/>
<path d="M110.812 44.5877L114.817 44.6404C114.29 38.8608 115.555 32.9231 118.383 27.8638" stroke="black" stroke-miterlimit="10"/>
<path d="M75.626 49.8573C79.0164 49.8046 81.8974 47.0992 83.1799 43.9723C84.4623 40.8453 84.4623 37.3495 84.3744 33.9766C84.2866 30.6037 84.1285 27.143 85.1474 23.9106C87.273 17.1297 94.0715 12.896 100.8 10.5772C102.1 10.138 103.452 9.73394 104.823 9.87448C106.193 10.015 107.563 10.8407 107.985 12.1407" stroke="black" stroke-miterlimit="10"/>
<path d="M118.525 26.3175C121.213 23.7702 122.442 19.7825 121.634 16.1636C120.826 12.5448 118.015 9.45301 114.502 8.29358" stroke="black" stroke-miterlimit="10"/>
<path d="M114.66 9.22443C115.046 10.7352 115.292 12.2811 115.38 13.827C115.433 14.6351 115.152 15.7243 114.344 15.6716C113.781 15.6364 113.465 15.0216 113.219 14.4946C111.937 11.7365 109.337 9.64606 106.368 8.96094" stroke="black" stroke-miterlimit="10"/>
<path d="M91.6989 42.8487C89.7314 43.4986 87.3774 41.7595 87.4125 39.6866C87.4476 37.6136 89.8543 35.9624 91.8043 36.6826" stroke="black" stroke-miterlimit="10"/>
<path d="M94.9842 40.8457C94.6153 39.2295 94.2464 37.5255 94.7734 35.962C95.3004 34.3985 97.0747 33.1161 98.603 33.7661C98.8841 32.7121 99.1827 31.6756 99.4638 30.6216C99.6395 29.9892 99.8503 29.2865 100.377 28.9C100.799 28.5838 101.343 28.5135 101.871 28.4608C106.965 28.0743 112.341 29.8486 117.066 27.8987" stroke="black" stroke-miterlimit="10"/>
<path d="M96.5654 52.8617C97.8127 54.7941 100.553 55.6022 102.644 54.636" stroke="black" stroke-miterlimit="10"/>
<path d="M41.6318 126.994L47.1479 131.123" stroke="black" stroke-miterlimit="10"/>
<path d="M41.6494 126.555V131.79" stroke="black" stroke-miterlimit="10"/>
<path d="M99.4633 131.334C97.6715 121.074 97.9526 110.446 100.271 100.275" stroke="black" stroke-miterlimit="10"/>
<path d="M113.903 84.8334L122.915 110.517C124.057 113.802 126.306 117.772 129.731 117.21C131.225 116.964 132.419 115.857 133.508 114.803C138.374 110.095 143.24 105.387 148.107 100.696" stroke="black" stroke-miterlimit="10"/>
<path d="M130.33 81.918C131.279 86.6962 133.053 91.3164 135.548 95.4974C138.358 90.7542 142.469 86.7841 147.318 84.1666" stroke="black" stroke-miterlimit="10"/>
<path d="M146.544 84.5527C145.911 81.0393 146.842 77.2623 149.073 74.4516C151.304 71.6409 154.748 69.8666 158.331 69.6733" stroke="black" stroke-miterlimit="10"/>
<path d="M158.314 69.6379C158.613 71.2541 157.752 73.0284 156.294 73.8013C157.067 72.4487 158.613 71.5703 160.177 71.6055C159.948 73.7486 159 75.8216 157.524 77.3851C158.42 76.05 160.124 74.5567 161.389 75.5581C162.337 76.3134 161.951 77.9472 161.02 78.7377C160.089 79.5283 158.859 79.8093 157.752 80.3539C155.416 81.4958 153.8 83.9727 153.659 86.5551" stroke="black" stroke-miterlimit="10"/>
<path d="M151.216 59.9057L153.218 61.803C153.587 62.1543 154.027 62.5408 154.536 62.4881C154.993 62.453 155.344 62.1016 155.66 61.7679C158.085 59.1504 160.368 56.4099 162.547 53.564C162.898 53.1073 163.32 52.5978 163.899 52.5275C164.479 52.4573 165.217 52.791 165.586 52.3519C166.078 51.7546 166.113 50.9465 166.13 50.1735C166.165 43.0764 164.128 35.9793 160.316 30.0065" stroke="black" stroke-miterlimit="10"/>
<path d="M159.948 30.0066L161.23 24.1919C161.335 23.7351 161.423 23.2433 161.265 22.8041C161.125 22.4352 160.826 22.1541 160.492 21.9257C157.26 19.5542 152.798 20.4676 148.81 20.2217C146.702 20.0987 144.559 19.6069 142.486 19.9758C140.887 20.2568 139.412 21.0122 138.006 21.8203C135.564 23.2081 133.193 24.8067 131.348 26.9324C129.504 29.058 128.221 31.7809 128.274 34.5916" stroke="black" stroke-miterlimit="10"/>
<path d="M128.062 34.3628C126.921 36.8046 124.619 38.4559 122.582 40.2302C120.544 42.0045 118.576 44.2531 118.524 46.9584C118.488 48.68 119.209 50.6475 118.137 52.0002C117.786 52.457 117.259 52.7556 116.872 53.1948C115.397 54.8812 116.486 57.5866 115.625 59.6595C114.852 61.5216 112.726 62.3824 110.829 63.0324" stroke="black" stroke-miterlimit="10"/>
<path d="M131.841 43.8148C132.315 44.6229 131.682 45.6769 130.909 46.2215C130.136 46.7661 129.17 47.0823 128.591 47.8201C127.045 49.7525 129.082 52.7741 128.046 55.0227C127.905 55.3389 127.712 55.6024 127.519 55.8834C126.026 58.0442 124.585 60.2577 123.215 62.5063C122.811 63.1562 122.425 63.8238 122.266 64.5616C122.126 65.194 122.179 65.844 122.038 66.4764C121.511 68.7601 118.841 69.7088 117.277 71.4479" stroke="black" stroke-miterlimit="10"/>
<path d="M136.372 46.6074C133.104 50.1033 136.407 56.4802 133.508 60.2747C132.911 61.0476 132.103 61.6449 131.506 62.4003C130.294 63.9111 129.977 65.9488 129.872 67.8812C129.767 69.8136 129.819 71.7987 129.187 73.6257C128.554 75.4527 127.026 77.1391 125.094 77.2621" stroke="black" stroke-miterlimit="10"/>
<path d="M140.765 49.1899C139.166 51.5791 138.305 54.4601 138.323 57.3411C138.323 59.2032 138.692 61.1356 138.095 62.8923C137.937 63.3842 137.691 63.8409 137.48 64.3152C135.793 67.8638 134.669 71.6934 134.177 75.5933C134.072 76.4014 134.002 77.2446 134.335 77.9825C134.669 78.7203 135.495 79.3 136.268 79.0541C136.9 78.8433 137.251 78.1933 137.55 77.596C139.904 72.8704 142.258 68.1449 144.594 63.4017C145.842 60.8896 146.72 58.2195 147.212 55.4614C147.634 53.1425 147.757 50.7358 148.53 48.5048C149.636 45.29 152.043 42.4968 152.412 39.1064C152.605 37.3321 152.219 35.47 152.763 33.766C153.677 30.8498 157.541 29.3215 160.194 30.8147" stroke="black" stroke-miterlimit="10"/>
<path d="M159.614 41.2851C161.195 40.6351 162.934 40.3541 164.638 40.477" stroke="black" stroke-miterlimit="10"/>
<path d="M160.895 45.1321C161.563 45.2375 161.704 43.92 161.018 43.8673C160.966 44.166 160.931 44.447 160.878 44.7457" stroke="black" stroke-miterlimit="10"/>
<path d="M155.819 53.1603C155.925 54.9346 157.365 56.5507 159.122 56.8669" stroke="black" stroke-miterlimit="10"/>
<path d="M74.0081 91.9308L72.8838 92.2997C73.0946 92.5983 73.6743 92.3348 73.5865 91.9835" stroke="black" stroke-miterlimit="10"/>
<path d="M89.9952 93.3184C89.9425 93.0549 89.5384 93.4238 89.7317 93.5995C89.9249 93.7751 90.2235 93.6346 90.4519 93.5116C90.5397 93.213 90.2235 92.8616 89.9073 92.9143" stroke="black" stroke-miterlimit="10"/>
<path d="M96.4072 51.5444L110.514 41.6717C110.039 40.5825 109.987 39.3177 110.338 38.1758C111.919 36.7529 113.728 35.5583 115.661 34.6975" stroke="black" stroke-miterlimit="10"/>
<path d="M111.726 30.6042C110.057 31.5353 108.704 32.9231 107.369 34.3109C104.84 36.9109 102.31 39.5108 99.7803 42.1283" stroke="black" stroke-miterlimit="10"/>
<path d="M99.7275 41.9879C102.503 41.2852 105.367 40.8988 108.212 40.8461C108.125 41.0217 108.019 41.1974 107.931 41.3731C108.371 41.4082 108.792 41.3731 109.214 41.2852" stroke="black" stroke-miterlimit="10"/>
<path d="M108.406 41.4781C107.686 41.2673 107 41.8295 106.438 42.3389C103.206 45.3429 99.956 48.3644 96.7236 51.3684" stroke="black" stroke-miterlimit="10"/>
<path d="M106.718 43.2169C107.543 42.1805 108.597 41.3197 109.792 40.7224" stroke="black" stroke-miterlimit="10"/>
<path d="M111.848 30.8676C113.394 30.0771 115.045 29.4623 116.731 29.0406" stroke="black" stroke-miterlimit="10"/>
<path d="M111.585 31.5524C110.513 34.2578 109.424 36.9455 108.3 39.6333C108.177 39.932 108.018 40.2482 107.72 40.3536C107.351 40.4765 106.947 40.1779 106.841 39.809C106.736 39.4401 106.806 39.036 106.929 38.6671C107.509 36.682 108.668 34.8551 110.197 33.4673C112.041 31.8159 114.36 30.8146 116.732 30.0768" stroke="black" stroke-miterlimit="10"/>
<path d="M102.678 40.406C105.225 39.3696 107.561 37.7534 109.441 35.7507" stroke="black" stroke-miterlimit="10"/>
<path d="M105.103 38.088L107.79 34.9083L105.753 37.7894C105.577 38.0529 105.384 38.3339 105.366 38.6502C105.348 38.9664 105.577 39.3177 105.893 39.3177C107.334 37.3326 108.915 35.2246 111.233 34.3814C112.2 34.03 113.254 33.9246 114.167 33.4679C115.081 33.0111 115.889 32.0625 115.696 31.0436C114.325 31.4828 113.377 32.73 112.656 33.9597C111.936 35.1894 111.286 36.5421 110.144 37.438C111.216 35.7516 112.797 34.3638 114.606 33.503C114.396 34.153 113.71 34.6097 113.025 34.5219C112.973 33.6435 113.166 32.73 113.57 31.9571C111.848 32.449 110.285 33.503 109.178 34.9083" stroke="black" stroke-miterlimit="10"/>
<path d="M111.375 30.5513C111.744 30.077 112.218 29.6905 112.745 29.4094" stroke="black" stroke-miterlimit="10"/>
<path d="M150.549 109.182C148.793 117.28 145.929 125.133 142.047 132.458" stroke="black" stroke-miterlimit="10"/>
<path d="M163.726 107.32C161.583 115.752 159.686 124.237 158.052 132.775" stroke="black" stroke-miterlimit="10"/>
<path d="M203.32 116.191L201.212 132.177" stroke="black" stroke-miterlimit="10"/>
<path d="M215.091 115.172L215.46 132.511" stroke="black" stroke-miterlimit="10"/>
<path d="M203.673 76.9463C208.908 77.2801 214.073 78.6327 218.798 80.9165C219.835 81.4083 220.889 81.9881 221.521 82.9367C222.171 83.8853 222.312 85.0974 222.417 86.2393C223.085 93.1432 223.471 100.082 223.559 107.021" stroke="black" stroke-miterlimit="10"/>
<path d="M150.022 109.41C154.485 109.99 159.105 109.217 163.11 107.179" stroke="black" stroke-miterlimit="10"/>
<path d="M203.427 115.998H214.881" stroke="black" stroke-miterlimit="10"/>
<path d="M162.354 76.0673L168.643 75.6808" stroke="black" stroke-miterlimit="10"/>
<path d="M166.237 74.768C165.13 74.5924 165.007 72.8884 165.78 72.0803C166.553 71.2722 167.713 71.0087 168.714 70.5168C170.928 69.4276 172.333 66.898 172.122 64.4561C171.999 63.0332 171.402 61.7157 170.998 60.363C169.013 53.6699 172.122 46.3093 177.041 41.3729C180.66 37.7365 185.368 35.0487 190.462 34.5217C195.557 33.9947 201.003 35.9095 204.129 39.9675" stroke="black" stroke-miterlimit="10"/>
<path d="M166.869 74.9786C168.204 74.8029 169.293 76.1907 169.452 77.5083C169.61 78.8258 169.17 80.1609 169.012 81.496C168.854 82.8311 169.065 84.377 170.172 85.15C171.524 86.0986 173.439 85.3432 174.669 84.2541C175.899 83.1649 176.9 81.7068 178.393 81.0041C179.886 80.3014 181.608 80.4771 183.207 80.1082C184.805 79.7393 186.474 78.4042 186.158 76.8056C185.701 74.4867 181.731 74.1529 181.503 71.7989C181.344 70.0949 183.365 68.9706 183.804 67.3018C184.103 66.1248 183.575 64.737 184.278 63.7532C184.63 63.2438 185.209 62.9803 185.684 62.5938C188.582 60.2573 186.773 54.6534 189.882 52.6156C190.286 52.3521 190.743 52.1764 191.094 51.8427C191.516 51.4562 191.709 50.8941 191.937 50.367C193.993 45.4658 198.472 41.6362 203.655 40.3889" stroke="black" stroke-miterlimit="10"/>
<path d="M199.157 76.7183C200.386 78.3871 199.122 80.8641 197.33 81.9006C195.292 83.0776 192.745 83.0951 190.478 82.4627C188.212 81.8303 186.157 80.6006 184.172 79.3709" stroke="black" stroke-miterlimit="10"/>
<path d="M200.071 76.4547L205.236 76.5953" stroke="black" stroke-miterlimit="10"/>
<path d="M203.427 40.8461C202.004 44.3946 203.515 48.8918 206.817 50.8593C207.783 51.4215 209.066 52.2999 208.574 53.3187C208.381 53.7228 207.942 53.9511 207.537 54.1268C206.238 54.7065 204.885 55.1809 203.515 55.5322" stroke="black" stroke-miterlimit="10"/>
<path d="M199.421 49.6122C199.474 50.2973 200.809 50.0689 200.633 49.4014C200.317 49.2433 199.948 49.1906 199.614 49.2784C199.509 49.5595 199.544 49.9108 199.72 50.1568" stroke="black" stroke-miterlimit="10"/>
<path d="M195.68 47.4857C196.663 45.8168 198.859 44.9736 200.686 45.5709" stroke="black" stroke-miterlimit="10"/>
<path d="M204.287 56.3571C205.745 57.0597 206.448 58.8164 206.377 60.4326C206.307 62.0488 205.64 63.5771 204.972 65.0528C204.515 66.0717 204.059 67.073 203.602 68.0919C203.567 68.1797 203.514 68.2851 203.461 68.3554C203.268 68.6365 202.934 68.777 202.601 68.8648C200.194 69.55 197.207 68.5311 195.38 70.2351C194.274 71.254 194.063 72.9229 194.239 74.3985C194.572 76.9809 196.294 79.6159 198.876 79.9673" stroke="black" stroke-miterlimit="10"/>
<path d="M197.26 58.5007C199.034 61.0655 202.143 62.6641 205.27 62.5939" stroke="black" stroke-miterlimit="10"/>
<path d="M197.26 58.5007C198.191 61.6101 200.808 64.9303 204.041 65.106" stroke="black" stroke-miterlimit="10"/>
<path d="M162.689 106.617C163.286 104.491 165.078 102.998 166.677 101.487C168.275 99.9764 169.839 98.0616 169.698 95.8657C167.291 95.7251 164.832 96.7089 163.181 98.4832C163.409 96.5332 163.62 94.513 163.093 92.6157C162.566 90.7185 161.108 88.9442 159.158 88.6631C158.806 88.6104 158.525 88.9266 158.367 89.2428C157.928 90.1036 157.911 91.1225 157.717 92.0712C157.524 93.0198 157.085 94.0387 156.171 94.4076C155.258 94.7765 153.993 93.9333 154.309 93.0022C153.449 94.4779 151.463 95.1805 149.865 94.5832C149.496 94.4427 149.109 94.2319 148.723 94.3198C148.108 94.4603 147.792 95.2859 147.177 95.3562C145.227 95.6021 143.242 95.4089 141.38 94.7765C142.961 91.2279 146.035 88.3821 149.689 87.047C153.343 85.7119 157.524 85.9578 161.02 87.6618C161.547 87.9253 162.144 88.3821 162.039 88.9618" stroke="black" stroke-miterlimit="10"/>
<path d="M148.3 96.8849C148.23 101.083 148.827 105.3 150.057 109.322" stroke="black" stroke-miterlimit="10"/>
<path d="M203.356 115.173C201.441 112.221 199.263 109.428 196.874 106.864C197.875 105.687 199.843 106.214 201.037 107.215C202.232 108.216 203.181 109.586 204.656 110.061C204.726 108.515 204.779 106.969 204.849 105.423C204.937 103.21 204.849 100.592 203.022 99.3096C200.791 97.7462 197.436 99.2921 195.117 97.8516C194.748 97.6232 194.432 97.0083 194.836 96.8151C200.001 94.3557 205.376 91.8436 211.103 91.7909C212.649 91.7909 214.423 92.072 215.267 93.3895C215.653 93.9868 215.776 94.6895 215.882 95.3922C216.918 102.314 216.549 109.428 214.792 116.192" stroke="black" stroke-miterlimit="10"/>
<path d="M204.937 100.609C206.184 100.785 207.484 100.715 208.713 100.433C210.804 99.9416 212.701 98.8349 214.546 97.7282C214.967 97.4647 215.407 97.2187 215.828 96.9552" stroke="black" stroke-miterlimit="10"/>
<path d="M60.957 150.096C62.4678 151.308 63.8205 152.713 64.9975 154.242C66.4028 156.069 67.6852 158.212 69.8109 159.125C71.6027 159.898 73.6581 159.652 75.5905 159.389C76.1702 159.301 76.785 159.213 77.2242 158.827C77.6634 158.44 77.8039 157.65 77.3472 157.298C78.5593 157.246 79.4377 156.139 80.0174 155.067C80.5971 153.996 81.1241 152.784 82.1957 152.221C82.266 152.186 82.3538 152.151 82.4241 152.099C82.8633 151.765 82.6173 151.08 82.3011 150.623C80.6147 148.322 77.6985 147.338 74.958 146.495L78.612 146.389C78.9634 146.389 79.2796 146.091 79.3147 145.757C75.1337 143.701 70.5487 142.489 65.911 142.191" stroke="black" stroke-miterlimit="10"/>
<path d="M114.711 149.024L114.676 145.511C114.676 145.265 114.676 145.019 114.799 144.826C115.027 144.439 115.554 144.404 115.994 144.422C119.191 144.509 122.37 145.318 125.216 146.793C126.13 147.268 127.36 147.162 128.045 146.389C128.73 145.616 128.589 144.211 127.676 143.737C128.431 143.877 129.239 143.508 129.643 142.858C130.047 142.208 129.977 141.312 129.485 140.715C129.837 140.926 130.311 140.645 130.469 140.276C130.627 139.907 130.539 139.468 130.469 139.081C130.364 138.572 130.276 138.062 130.17 137.535C129.959 136.464 128.905 135.743 127.851 135.55C126.797 135.357 125.691 135.55 124.619 135.743C120.983 136.323 117.258 136.341 113.604 135.831" stroke="black" stroke-miterlimit="10"/>
<path d="M280.897 130.912L292.474 124.957C293.019 124.676 293.581 124.377 293.897 123.868C294.354 123.13 294.196 122.199 294.161 121.338C294.02 117.473 297.235 113.767 301.1 113.38" stroke="black" stroke-miterlimit="10"/>
<path d="M278.736 147.724C285.219 143.964 290.647 138.413 294.266 131.861" stroke="black" stroke-miterlimit="10"/>
<path d="M296.392 130.192L309.971 128.611C310.129 128.593 310.305 128.576 310.463 128.523C311.482 128.172 311.411 126.52 310.551 125.87C309.69 125.22 308.513 125.238 307.424 125.291C308.53 125.256 309.707 125.22 310.674 124.658C311.64 124.096 312.29 122.831 311.78 121.83C311.148 120.6 309.391 120.635 308.021 120.846C308.847 120.846 309.707 120.829 310.463 120.477C311.218 120.126 311.816 119.335 311.675 118.51C311.324 116.525 308.443 115.541 306.967 116.929C309.093 116.771 310.744 114.346 310.094 112.309C309.198 111.817 308.091 112.273 307.16 112.713C304.49 114.013 301.82 115.313 299.15 116.63" stroke="black" stroke-miterlimit="10"/>
<path d="M250.365 167.733L263.945 166.152C264.103 166.134 264.278 166.117 264.437 166.064C265.455 165.713 265.385 164.062 264.524 163.412C263.664 162.762 262.487 162.779 261.397 162.832C262.504 162.797 263.681 162.762 264.647 162.199C265.613 161.637 266.263 160.372 265.754 159.371C265.122 158.141 263.365 158.177 261.995 158.387C262.82 158.387 263.681 158.37 264.437 158.018C265.192 157.667 265.789 156.877 265.649 156.051C265.297 154.066 262.416 153.082 260.941 154.47C263.066 154.312 264.718 151.888 264.068 149.85C263.172 149.358 262.065 149.815 261.134 150.254C258.464 151.554 255.793 152.854 253.123 154.171" stroke="black" stroke-miterlimit="10"/>
<path d="M563.148 103.543C564.607 112.854 566.539 122.076 568.91 131.176" stroke="black" stroke-miterlimit="10"/>
<path d="M541.346 104.755C539.695 108.163 540.362 112.572 542.945 115.33C543.876 116.314 545.07 117.21 545.369 118.528C545.791 120.407 544.21 122.076 542.962 123.552C540.802 126.152 539.414 129.384 538.992 132.739" stroke="black" stroke-miterlimit="10"/>
<path d="M526.046 92.5636C525.835 97.8513 525.94 103.157 526.397 108.427C526.502 109.604 526.643 110.851 527.433 111.729C529.032 113.504 532.001 112.573 533.933 111.167C535.866 109.762 537.868 107.9 540.257 108.181" stroke="black" stroke-miterlimit="10"/>
<path d="M531.299 66.2483L532.124 83.1654" stroke="black" stroke-miterlimit="10"/>
<path d="M601.638 105.317L613.426 126.327C613.812 127.012 614.216 127.75 614.234 128.541C614.269 130.016 613.039 131.193 611.898 132.142C606.223 136.885 600.532 141.628 594.857 146.371" stroke="black" stroke-miterlimit="10"/>
<path d="M606.487 117.386C606.118 122.287 606.505 127.259 607.629 132.037" stroke="black" stroke-miterlimit="10"/>
<path d="M609.158 97.1484C615.868 107.583 620.207 119.547 621.718 131.861C621.824 132.669 621.894 133.53 621.543 134.268C621.226 134.918 620.647 135.357 620.067 135.779C612.039 141.734 604.011 147.689 595.982 153.627" stroke="black" stroke-miterlimit="10"/>
<path d="M581.541 73.8889C582.314 77.174 583.403 80.8982 586.46 82.3387C589.394 83.7265 593.188 82.4793 595.893 84.2711" stroke="black" stroke-miterlimit="10"/>
<path d="M562.551 103.472H537.096C535.954 103.472 534.672 103.42 533.846 102.647C533.143 101.979 532.932 100.978 532.564 100.082C531.193 96.7265 527.574 94.8293 525.66 91.7374C524.746 90.2442 524.272 88.5226 523.552 86.924C520.969 81.1972 515.418 77.3324 512.309 71.869" stroke="black" stroke-miterlimit="10"/>
<path d="M518.861 68.444C523.973 73.2925 529.156 78.264 532.564 84.4125C533.407 85.9233 534.145 87.5219 535.234 88.8745C539.503 94.0744 547.584 93.7933 553.978 91.6853C560.372 89.5772 566.556 86.0462 573.267 86.2922" stroke="black" stroke-miterlimit="10"/>
<path d="M546.83 85.4666C544.968 85.7477 543.035 84.2721 542.807 82.41C542.579 80.5478 544.125 78.6506 545.987 78.4925C546.32 77.052 543.369 77.3682 542.754 76.0155C542.438 75.3128 542.983 74.4872 543.668 74.171C545.512 73.3102 547.374 72.4494 549.219 71.571C548.2 71.4656 547.146 71.3251 546.338 70.7102C545.53 70.0954 545.179 68.7778 545.881 68.04C546.215 67.6887 546.689 67.5481 547.146 67.4076C549.518 66.7049 551.889 66.0022 554.243 65.2996" stroke="black" stroke-miterlimit="10"/>
<path d="M541.382 71.5002C539.537 70.4637 537.587 69.234 536.832 67.2489C536.077 65.2639 537.394 62.4707 539.52 62.6112C538.659 59.6599 538.413 56.533 538.817 53.4763C540.574 53.8804 542.506 53.4236 543.894 52.2817" stroke="black" stroke-miterlimit="10"/>
<path d="M544.616 55.8128C544.247 55.5317 543.649 56.0411 543.86 56.4452C544.071 56.8492 544.826 56.6735 544.826 56.2168" stroke="black" stroke-miterlimit="10"/>
<path d="M536.585 49.0143L532.193 48.7157C531.051 46.713 532.439 43.7793 534.705 43.3753C533.827 40.67 534.196 37.5957 535.654 35.1539C536.444 33.8539 538.57 34.0647 539.589 35.189C540.608 36.3133 540.854 37.9295 541.029 39.4578C542.154 35.8039 543.981 31.5175 547.758 30.9553C547.758 31.9918 547.775 33.0107 547.793 34.0472" stroke="black" stroke-miterlimit="10"/>
<path d="M545.071 44.7107C543.174 44.5175 541.206 45.185 539.801 46.5026C541.171 47.662 543.086 48.1187 544.843 47.7322C544.474 49.0146 544.14 50.4727 544.86 51.5795C545.58 52.6862 547.829 52.4929 547.794 51.1578C547.794 52.5281 547.829 53.8983 547.847 55.2686C548.725 55.5321 549.621 55.7956 550.499 56.0591" stroke="black" stroke-miterlimit="10"/>
<path d="M571.599 81.3204C572.424 78.6326 569.491 76.3313 566.856 75.3827C564.22 74.434 561.041 73.4678 560.198 70.7976C559.917 69.8841 559.969 68.8828 559.706 67.9518C558.915 65.0532 555.595 63.7883 552.696 62.9451C552.433 61.5397 553.733 60.3276 555.015 59.6952C556.298 59.0628 557.791 58.606 558.599 57.429C559.864 55.6021 559.056 52.6508 560.812 51.2981" stroke="black" stroke-miterlimit="10"/>
<path d="M560.549 55.9538C561.62 55.6551 562.833 55.9889 563.588 56.797" stroke="black" stroke-miterlimit="10"/>
<path d="M560.443 60.433C560.601 59.9236 561.567 60.1695 561.444 60.6965C561.321 61.2236 560.338 61.0127 560.425 60.5033" stroke="black" stroke-miterlimit="10"/>
<path d="M563.271 68.9705C564.536 69.0407 565.766 68.0745 566.012 66.8448" stroke="black" stroke-miterlimit="10"/>
<path d="M585.776 83.4463C586.496 87.6624 584.019 92.4231 579.891 93.6001C575.762 94.7771 570.808 91.3691 571.002 87.0827" stroke="black" stroke-miterlimit="10"/>
<path d="M596.105 145.371C595.613 148.216 595.841 151.168 596.755 153.908" stroke="black" stroke-miterlimit="10"/>
<path d="M519.002 68.3558C516.279 67.9694 513.398 69.199 511.782 71.4125" stroke="black" stroke-miterlimit="10"/>
<path d="M524.043 71.6755C522.233 68.8648 520.968 65.7027 520.354 62.4177C520.125 61.2582 520.02 59.9407 520.775 59.0272C521.197 58.5178 521.812 58.2191 522.321 57.8151C526.397 54.6179 522.778 47.3099 525.922 43.1816C526.678 46.3964 527.416 49.5936 528.171 52.8084C528.434 53.9152 528.716 55.057 529.471 55.9003C530.051 56.5327 530.841 56.9192 531.491 57.4637C534.161 59.6948 533.406 64.7365 530.191 66.0892" stroke="black" stroke-miterlimit="10"/>
<path d="M523.324 61.3285C523.992 62.5933 525.257 63.5243 526.662 63.7878C526.311 61.0649 527.681 58.2015 530 56.761" stroke="black" stroke-miterlimit="10"/>
<path d="M572.353 63.4897C572.564 61.2587 572.037 58.9574 572.493 56.7615C572.95 54.5656 575.076 52.4048 577.201 53.1075C578.905 53.6697 579.643 55.8128 579.257 57.552C578.87 59.2911 577.658 60.7316 576.481 62.0843" stroke="black" stroke-miterlimit="10"/>
<path d="M579.538 65.8611C578.133 68.2326 577.94 71.2893 579.064 73.8014" stroke="black" stroke-miterlimit="10"/>
<path d="M584.247 67.9869C583.825 67.1085 582.332 67.5652 582.016 68.4787C581.7 69.3922 582.121 70.3935 582.455 71.307C582.789 72.2205 583.017 73.3273 582.455 74.1002" stroke="black" stroke-miterlimit="10"/>
<path d="M584.564 66.5113C583.791 60.433 587.515 54.0386 593.19 51.7373" stroke="black" stroke-miterlimit="10"/>
<path d="M590.344 45.4829L595.561 49.3477" stroke="black" stroke-miterlimit="10"/>
<path d="M590.975 43.3756C593.065 42.304 595.946 43.3404 596.86 45.5012" stroke="black" stroke-miterlimit="10"/>
<path d="M590.221 42.1454C591.802 39.8792 595.473 39.4752 597.494 41.3549" stroke="black" stroke-miterlimit="10"/>
<path d="M585.055 37.7183C585.125 34.8373 586.232 31.9915 588.147 29.8483" stroke="black" stroke-miterlimit="10"/>
<path d="M584.879 37.2267C580.312 34.82 577.484 29.4972 578.063 24.3676" stroke="black" stroke-miterlimit="10"/>
<path d="M575.462 31.043L574.408 22.5757" stroke="black" stroke-miterlimit="10"/>
<path d="M568.438 33.7841C568.034 30.5868 568.842 27.2491 570.704 24.5965C569.088 27.1964 567.998 30.1125 567.524 33.1341C567.067 29.6909 565.153 26.4586 562.324 24.4208" stroke="black" stroke-miterlimit="10"/>
<path d="M562.076 28.0044C562.814 31.4827 562.937 35.1015 562.392 38.6325" stroke="black" stroke-miterlimit="10"/>
<path d="M562.13 38.86C558.511 35.4344 553.68 33.3263 548.727 33.0101" stroke="black" stroke-miterlimit="10"/>
<path d="M548.497 44.8685L558.669 40.6699C554.839 40.4943 551.009 40.3186 547.18 40.1429" stroke="black" stroke-miterlimit="10"/>
<path d="M553.873 50.226C557.457 49.8044 560.882 48.0126 563.271 45.3073" stroke="black" stroke-miterlimit="10"/>
<path d="M556.631 53.1779C560.478 52.7738 564.167 51.1225 567.013 48.505C567.101 49.9455 567.171 51.386 567.259 52.8265C568.682 52.7563 569.402 54.6535 568.998 56.0237C568.594 57.394 567.575 58.5007 567.136 59.8534C566.697 61.2061 567.329 63.1209 568.752 63.1384" stroke="black" stroke-miterlimit="10"/>
<path d="M595.947 59.8533C596.439 72.3084 596.492 84.7635 596.105 97.2186C601.411 95.6024 606.698 93.9862 612.004 92.37" stroke="black" stroke-miterlimit="10"/>
<path d="M613.742 71.9927C614.269 85.7653 615.429 99.5204 617.22 113.188" stroke="black" stroke-miterlimit="10"/>
<path d="M626.215 74.1533C628.745 80.3018 628.938 87.1003 629.447 93.7231C630.396 106.301 632.557 118.809 635.929 130.965" stroke="black" stroke-miterlimit="10"/>
<path d="M668.129 70.7795L669.973 81.636" stroke="black" stroke-miterlimit="10"/>
<path d="M672.17 95.3566C673.171 107.179 674.19 118.984 675.191 130.807" stroke="black" stroke-miterlimit="10"/>
<path d="M635.912 82.304C635.578 74.9785 637.422 67.5476 641.147 61.2234" stroke="black" stroke-miterlimit="10"/>
<path d="M640.9 61.1177C644.537 61.2582 647.154 64.5608 650.404 66.2121C656.078 69.0931 663.878 66.9851 668.516 71.3593" stroke="black" stroke-miterlimit="10"/>
<path d="M641.885 35.5227C644.362 35.8916 646.277 37.824 647.963 39.651C652.566 44.6401 657.08 49.7345 661.578 54.829C662.614 56.006 663.668 57.183 664.441 58.5357C665.618 60.5383 666.18 62.822 666.725 65.0882C667.357 67.6881 667.99 70.2881 668.622 72.888" stroke="black" stroke-miterlimit="10"/>
<path d="M640.637 35.8395C633.066 41.338 627.673 49.7351 625.793 58.8876" stroke="black" stroke-miterlimit="10"/>
<path d="M627.725 31.9044C629.165 28.9883 632.872 28.1802 636.087 27.7059C637 27.5653 637.966 27.4423 638.862 27.6707C640.988 28.2329 642.095 30.6044 642.428 32.7828C642.762 34.9611 642.657 37.2624 643.623 39.2299" stroke="black" stroke-miterlimit="10"/>
<path d="M638.88 61.7681C637.105 58.3425 633.82 55.725 630.061 54.7764C631.712 56.3398 633.381 59.133 631.625 60.5911C630.149 61.8208 627.988 60.4857 626.53 59.2384C625.072 57.9911 622.788 56.779 621.436 58.1317C622.577 63.5072 623.702 68.8652 624.844 74.2407" stroke="black" stroke-miterlimit="10"/>
<path d="M624.529 74.0824C628.587 74.4513 632.768 73.6081 636.352 71.6932" stroke="black" stroke-miterlimit="10"/>
<path d="M595.771 60.8019C597.3 58.1492 599.601 55.9533 602.324 54.548C603.852 53.7574 605.75 53.248 607.243 54.0737C608.736 54.8993 608.982 57.6047 607.348 58.1492C610.001 56.6385 613.848 59.4316 613.251 62.418C612.495 62.4707 611.758 62.541 611.002 62.5937C612.214 63.3842 612.706 65.1058 612.091 66.4058C611.477 67.7058 609.843 68.426 608.455 68.0044C609.491 68.5139 610.212 69.6206 610.247 70.78C605.363 71.1489 600.356 70.0422 596.088 67.653" stroke="black" stroke-miterlimit="10"/>
<path d="M605.484 53.0726C604.43 51.4739 605.256 49.1902 606.749 47.9956C608.242 46.8011 610.21 46.4146 612.107 46.0808" stroke="black" stroke-miterlimit="10"/>
<path d="M625.441 34.3108L629.201 34.6446C628.024 41.0214 626.847 47.4159 625.67 53.7927" stroke="black" stroke-miterlimit="10"/>
<path d="M614.902 43.3223C618.89 41.0913 622.456 38.14 625.39 34.6442" stroke="black" stroke-miterlimit="10"/>
<path d="M624.176 35.9968C622.736 40.1075 621.84 44.4115 621.541 48.7506C619.38 47.6263 617.395 46.1858 615.656 44.4642" stroke="black" stroke-miterlimit="10"/>
<path d="M618.132 86.5555C618.449 91.2986 618.888 96.0769 620.24 100.627C620.697 102.19 622.296 104.052 623.561 103.033C624.369 97.2363 624.14 91.2986 622.893 85.5717C622.138 82.1286 621.031 78.7733 620.539 75.2774C619.959 71.114 622.559 54.759 617.992 53.1252C616.586 57.8157 617.43 64.3506 617.482 69.3221C617.535 75.0666 617.746 80.811 618.132 86.5555Z" stroke="black" stroke-miterlimit="10"/>
<path d="M606.943 17.2007C601.866 16.8318 597.72 20.9776 594.347 24.7897C594.259 24.8951 594.171 25.0005 594.101 25.1059C593.732 25.791 594.435 26.6167 595.19 26.7923C595.946 26.968 596.736 26.7923 597.509 26.8626C599.898 27.1261 601.181 29.9017 601.216 32.3084C601.251 34.7151 600.478 37.1218 600.865 39.4934C601.251 41.8649 603.517 44.2541 605.783 43.4635C607.47 42.8663 608.489 40.7582 610.263 40.6879C611.651 40.6352 612.775 42.0055 612.968 43.3933C613.162 44.7811 612.67 46.1513 612.195 47.4689" stroke="black" stroke-miterlimit="10"/>
<path d="M605.135 33.8542C607.348 33.1515 609.421 31.9745 611.16 30.4286" stroke="black" stroke-miterlimit="10"/>
<path d="M605.309 21.0479C605.484 21.8208 606.486 22.26 607.171 21.8735C606.573 21.61 605.976 21.3465 605.396 21.083" stroke="black" stroke-miterlimit="10"/>
<path d="M622.491 27.5475L624.863 28.8651C624.915 25.5098 627.023 22.2598 630.063 20.8369C630.8 20.4855 631.749 19.9761 631.608 19.168C631.099 16.4802 630.414 13.8276 629.518 11.2277C628.938 9.52365 628.253 7.80208 627.023 6.51968C625.794 5.23728 623.879 4.41161 622.157 4.93862L622.052 1.14411C619.961 0.740069 617.713 1.19683 615.956 2.39139C614.27 3.51569 611.986 1.95221 610.001 2.39139C609.158 2.58463 608.437 3.12921 607.647 3.42785C604.415 4.67511 600.163 2.12788 597.563 4.39404C596.123 5.64131 596.07 8.15341 597.458 9.47095C598.846 10.7885 601.34 10.6128 602.535 9.10205" stroke="black" stroke-miterlimit="10"/>
<path d="M605.976 8.17078C605.115 9.45318 605.273 11.3329 606.344 12.4572C607.416 13.5815 609.278 13.8274 610.613 13.0369C610.859 15.3733 611.966 18.4476 614.285 18.1314C614.39 20.1165 614.496 22.1015 614.583 24.069" stroke="black" stroke-miterlimit="10"/>
<path d="M620.137 20.2397C622.105 20.3979 623.036 23.0153 622.298 24.8423C621.56 26.6693 619.768 27.8288 618.1 28.8652" stroke="black" stroke-miterlimit="10"/>
<path d="M468.637 44.6399C464.79 45.0615 461.312 47.8547 460.065 51.5086C458.817 55.1626 459.854 59.5017 462.629 62.1894C457.904 63.6651 454.144 67.8636 453.196 72.7297C452.247 77.5958 454.144 82.8835 457.956 86.0456" stroke="black" stroke-miterlimit="10"/>
<path d="M492.846 38.3157C497.448 42.7953 499.082 50.0681 496.851 56.0761C502.578 62.5759 501.981 73.6607 495.604 79.5106" stroke="black" stroke-miterlimit="10"/>
<path d="M488.84 42.3918C488.84 44.9918 490.702 47.4863 493.214 48.2066" stroke="black" stroke-miterlimit="10"/>
<path d="M488.435 42.8311C484.517 50.7714 475.488 55.8659 466.669 55.0929" stroke="black" stroke-miterlimit="10"/>
<path d="M466.336 44.5873C480.653 41.6887 494.724 37.5077 508.304 32.1322" stroke="black" stroke-miterlimit="10"/>
<path d="M466.723 44.307C466.319 39.2828 466.249 33.4505 470.061 30.183C472.187 28.356 475.068 27.7763 477.668 26.7398C479.969 25.8264 482.094 24.5264 484.448 23.7534C486.802 22.9805 489.525 22.8399 491.616 24.175C495.498 26.652 495.059 32.3789 494.146 36.8936" stroke="black" stroke-miterlimit="10"/>
<path d="M476.876 23.1735C476.243 24.2978 477.42 25.9139 478.668 25.6504C478.843 24.5964 477.824 23.5424 476.77 23.6653" stroke="black" stroke-miterlimit="10"/>
<path d="M463.578 77.9651C465.089 81.1096 468.69 82.8136 472.168 83.0244C475.647 83.2352 479.072 82.2163 482.41 81.215C485.274 80.3542 488.119 79.4934 490.983 78.6326" stroke="black" stroke-miterlimit="10"/>
<path d="M482.709 56.9199L486.17 63.1914C484.641 64.3508 482.832 65.1238 480.935 65.4224" stroke="black" stroke-miterlimit="10"/>
<path d="M487.927 53.5466C487.663 54.0911 488.085 54.829 488.682 54.8992C489.279 54.9695 489.842 54.3195 489.701 53.7398C488.893 52.8966 487.382 54.6533 488.331 55.3209" stroke="black" stroke-miterlimit="10"/>
<path d="M478.018 55.4088C479.001 55.1804 479.862 54.4426 480.249 53.5115C479.546 53.0372 478.404 53.6169 478.386 54.4777" stroke="black" stroke-miterlimit="10"/>
<path d="M488.733 48.8389C489.682 50.0861 491.404 50.701 492.914 50.3145" stroke="black" stroke-miterlimit="10"/>
<path d="M473.293 57.8334C476.367 61.1009 472.959 66.248 469.691 69.3399" stroke="black" stroke-miterlimit="10"/>
<path d="M489.788 58.0786C490.034 61.5042 491.264 64.8595 493.302 67.6351" stroke="black" stroke-miterlimit="10"/>
<path d="M463.21 77.9826C467.004 78.7556 471.203 76.7178 472.925 73.2395" stroke="black" stroke-miterlimit="10"/>
<path d="M490.191 78.4742C488.698 79.3174 486.502 78.3688 486.098 76.7" stroke="black" stroke-miterlimit="10"/>
<path d="M485.238 68.5664C482.884 70.042 479.898 70.4812 477.21 69.7083" stroke="black" stroke-miterlimit="10"/>
<path d="M493.248 68.0751C489.858 71.3953 487.293 75.5235 485.8 80.0207" stroke="black" stroke-miterlimit="10"/>
<path d="M832.453 43.428L883.556 51.1224" stroke="black" stroke-miterlimit="10"/>
<path d="M869.783 47.7321V34.4514C869.765 32.5541 869.624 30.3758 868.131 29.1812C864.671 26.4408 860.367 32.3785 855.957 32.2906C855.957 29.515 854.692 26.7745 852.549 25.0178C850.81 32.6244 846.576 39.6512 840.674 44.7633" stroke="black" stroke-miterlimit="10"/>
<path d="M843.047 40.4069C852.234 40.9163 861.369 42.2514 870.311 44.3946" stroke="black" stroke-miterlimit="10"/>
<path d="M836.546 47.1694C834.526 50.2788 833.683 54.126 834.21 57.7975C837.53 57.3408 841.009 58.1665 843.767 60.0637C844.961 57.5165 846.156 54.9868 847.35 52.4396C844.311 49.7518 840.499 47.9248 836.494 47.2397" stroke="black" stroke-miterlimit="10"/>
<path d="M848.967 52.475H849.951H849.564" stroke="black" stroke-miterlimit="10"/>
<path d="M850.705 53.3881C847.666 55.18 848.632 60.3096 851.636 62.1717C854.64 64.0338 858.487 63.5947 861.966 62.9271C861.913 60.9245 863.283 59.2204 864.232 57.4461C865.18 55.6719 865.532 53.1422 863.916 51.9652C863.178 51.4206 862.229 51.3152 861.316 51.245C857.591 50.8936 853.885 50.5598 850.161 50.2085" stroke="black" stroke-miterlimit="10"/>
<path d="M870.134 50.8938C870.661 56.7788 868.237 64.1043 862.387 64.9651" stroke="black" stroke-miterlimit="10"/>
<path d="M854.13 55.7077C853.673 56.4104 854.885 57.359 855.465 56.7617C856.045 56.1644 855.026 55.005 854.358 55.4969" stroke="black" stroke-miterlimit="10"/>
<path d="M838.373 51.9484C838.074 52.4051 838.25 53.1078 838.742 53.3362" stroke="black" stroke-miterlimit="10"/>
<path d="M847.77 63.6124C851.476 63.2084 853.338 69.515 850.018 71.2014" stroke="black" stroke-miterlimit="10"/>
<path d="M842.431 64.3856C840.252 63.9991 837.933 65.7382 837.688 67.9341" stroke="black" stroke-miterlimit="10"/>
<path d="M838.969 71.3241C839.496 71.6403 840.023 70.5511 839.443 70.3403" stroke="black" stroke-miterlimit="10"/>
<path d="M842.536 71.5528C842.167 71.5352 841.816 71.8866 841.869 72.2555C842.255 72.2203 842.606 72.0095 842.8 71.6758C842.8 71.4474 842.448 71.2893 842.273 71.4474" stroke="black" stroke-miterlimit="10"/>
<path d="M845.908 72.695C845.662 72.6072 845.399 72.941 845.539 73.1518C845.785 73.2923 846.154 73.1518 846.224 72.8707C846.295 72.5896 846.049 72.2734 845.768 72.291" stroke="black" stroke-miterlimit="10"/>
<path d="M863.688 68.6371C863.916 71.36 866.902 72.7829 869.256 74.1532C873.964 76.8936 877.495 81.4084 879.744 86.3799C881.992 91.3514 883.029 96.7972 883.538 102.225C884.505 112.239 883.802 122.393 881.448 132.177" stroke="black" stroke-miterlimit="10"/>
<path d="M872.927 109.041C870.204 105.914 867.446 102.752 863.985 100.486C860.525 98.2196 856.221 96.9021 852.198 97.8858C851.759 97.9912 851.32 98.1142 850.88 98.0088C850.336 97.8683 849.967 97.3764 849.651 96.9021C848.597 95.3737 847.543 93.8454 846.489 92.3346C846.559 97.6047 842.676 102.682 837.564 103.999" stroke="black" stroke-miterlimit="10"/>
<path d="M865.654 132.88C860.683 128.348 856.326 123.13 852.725 117.456C850.704 114.277 848.877 110.377 850.23 106.846C850.581 105.95 851.073 104.79 850.353 104.14C850.037 103.842 849.563 103.789 849.123 103.754C846.19 103.525 843.238 103.578 840.322 103.93" stroke="black" stroke-miterlimit="10"/>
<path d="M854.535 108.743C860.508 117.157 867.412 124.922 875.106 131.808" stroke="black" stroke-miterlimit="10"/>
<path d="M857.521 107.144C864.461 114.909 871.909 122.234 879.779 129.05" stroke="black" stroke-miterlimit="10"/>
<path d="M863.282 71.6058C858.24 72.8004 853.848 76.472 851.775 81.2326" stroke="black" stroke-miterlimit="10"/>
<path d="M840.254 75.7511C847.351 78.0173 851.69 86.6076 849.319 93.6696" stroke="black" stroke-miterlimit="10"/>
<path d="M853.498 79.0717C851.899 83.2351 850.581 87.5039 849.562 91.843" stroke="black" stroke-miterlimit="10"/>
<path d="M836.845 76.3661C833.56 76.1905 830.415 77.9999 828.22 80.4417C826.024 82.8836 824.601 85.9227 823.213 88.9091" stroke="black" stroke-miterlimit="10"/>
<path d="M821.721 130.526C823.003 123.815 824.865 117.193 827.29 110.798" stroke="black" stroke-miterlimit="10"/>
<path d="M819.804 130.526C815.061 123.341 813.832 113.925 816.59 105.756" stroke="black" stroke-miterlimit="10"/>
<path d="M822.017 111.219C822.298 117.403 822.175 123.604 821.631 129.77" stroke="black" stroke-miterlimit="10"/>
<path d="M818.61 112.045C817.837 118.07 818.469 124.272 820.419 130.034" stroke="black" stroke-miterlimit="10"/>
<path d="M844.854 90.7185C843.501 87.0645 840.075 84.2713 836.211 83.6565L838.688 91.9482C838.811 92.3698 838.793 93.0022 838.371 93.0374C836.211 93.1779 834.067 93.3184 831.907 93.459L820.611 94.1792C819.803 94.2319 818.942 94.3022 818.257 94.7238C817.572 95.1454 817.133 96.094 817.519 96.8143L822.174 98.2197C821.261 98.8521 820.154 99.4669 819.873 100.556C819.592 101.645 821.085 102.91 821.788 102.032C821.7 103.015 821.595 103.999 821.507 104.983C822.42 105.088 823.334 105.194 824.247 105.299C824.142 106.336 824.019 107.39 823.914 108.426C829.324 109.111 834.981 107.513 839.232 104.105" stroke="black" stroke-miterlimit="10"/>
<path d="M824.442 90.1737C819.33 87.0818 812.725 86.5548 807.174 88.8034C806.594 89.0318 805.944 89.4183 805.926 90.0507C805.926 90.4723 806.26 90.8588 806.664 90.9642C807.613 91.4912 808.562 92.0182 809.493 92.5452C806.401 93.2479 803.432 94.4074 800.674 95.9708C801.868 96.7789 803.204 97.3762 804.609 97.71C802.852 98.2545 801.552 100.029 801.57 101.873C802.202 102.084 802.905 102.049 803.537 101.821C803.537 102.822 803.256 103.823 802.747 104.702C804.416 104.702 806.085 104.667 807.753 104.667C806.594 104.544 806.155 106.423 807.016 107.231C807.876 108.039 809.194 107.969 810.353 107.794C814.183 107.196 817.89 105.879 821.227 103.894" stroke="black" stroke-miterlimit="10"/>
<path d="M822.772 46.3444H779.82" stroke="black" stroke-miterlimit="10"/>
<path d="M814.202 45.3956L815.642 30.7446C815.678 30.3406 815.713 29.8838 815.449 29.5676C815.063 29.1284 814.36 29.2338 813.815 29.4271C810.636 30.4811 807.755 32.4662 805.629 35.0486C804.803 33.7662 806.894 32.027 806.156 30.7095C805.91 30.2703 805.418 30.0419 804.944 29.9014C801.325 28.742 797.267 30.7095 794.878 33.6783C792.489 36.6472 791.382 40.4065 790.328 44.0781" stroke="black" stroke-miterlimit="10"/>
<path d="M791.082 40.7927L814.85 41.1089" stroke="black" stroke-miterlimit="10"/>
<path d="M796.299 55.1985L808.403 56.2525C808.894 56.2877 809.439 56.3404 809.878 56.0944C810.458 55.7958 810.721 55.1282 810.95 54.4958C811.916 51.8081 812.9 49.1378 813.866 46.4501" stroke="black" stroke-miterlimit="10"/>
<path d="M804.627 57.4999C804.925 59.8187 804.592 62.2079 803.661 64.3686C803.467 64.8078 803.239 65.2646 802.853 65.5456C802.361 65.897 801.711 65.9321 801.113 65.9497C799.778 65.9848 798.408 66.0199 797.178 65.4929C795.949 64.9659 794.965 63.6835 795.193 62.366" stroke="black" stroke-miterlimit="10"/>
<path d="M793.506 66.8624C796.334 68.6367 799.848 69.2516 803.115 68.5313" stroke="black" stroke-miterlimit="10"/>
<path d="M788.904 71.254L782.615 77.5782" stroke="black" stroke-miterlimit="10"/>
<path d="M792.137 75.4355L789.625 78.8963" stroke="black" stroke-miterlimit="10"/>
<path d="M797.811 76.7V83.9376" stroke="black" stroke-miterlimit="10"/>
<path d="M803.168 74.1704V78.896" stroke="black" stroke-miterlimit="10"/>
<path d="M809.984 57.1657L808.789 73.1166C812.689 73.1166 816.308 69.814 816.694 65.9316C817.081 62.0493 814.182 58.1143 809.966 57.1481L809.984 57.1657Z" stroke="black" stroke-miterlimit="10"/>
<path d="M816.15 69.6026C818.048 68.8296 820.261 70.358 820.981 72.2728C821.702 74.1876 821.368 76.3308 821.016 78.3511C820.437 81.7766 819.839 85.1847 819.26 88.6103" stroke="black" stroke-miterlimit="10"/>
<path d="M804.783 129.682C809.614 127.082 813.233 122.339 814.445 116.999" stroke="black" stroke-miterlimit="10"/>
<path d="M800.708 108.093C796 110.253 793.453 115.313 791.275 120.003C790.625 121.408 789.957 122.937 790.238 124.448C790.519 125.958 792.241 127.311 793.611 126.591C793.787 127.258 793.962 127.926 794.12 128.593C788.78 131.176 784.09 135.076 780.559 139.854" stroke="black" stroke-miterlimit="10"/>
<path d="M801.904 133.144C798.531 133.144 795.176 132.353 792.154 130.842" stroke="black" stroke-miterlimit="10"/>
<path d="M804.505 131.334C802.642 136.358 800.675 141.33 798.567 146.266C798.198 147.127 797.706 148.093 796.81 148.304C795.844 148.532 794.878 147.707 794.579 146.758C794.281 145.809 794.474 144.791 794.667 143.807C793.595 145.282 792.067 146.424 790.328 147.022C790.293 145.985 790.258 144.966 790.24 143.93C788.378 147.303 784.425 149.376 780.596 149.024C782.493 146.53 784.179 143.877 785.602 141.084C784.232 140.855 782.809 140.891 781.457 141.224C781.281 140.329 781.65 139.345 782.388 138.783" stroke="black" stroke-miterlimit="10"/>
<path d="M797.529 123.71L809.282 110.201" stroke="black" stroke-miterlimit="10"/>
<path d="M801.498 124.834L809.649 112.731" stroke="black" stroke-miterlimit="10"/>
<path d="M778.048 78.9316C778.908 86.6787 779.242 94.4609 779.102 102.261C779.014 106.6 778.733 111.079 776.73 114.927C774.113 119.951 769.018 123.113 764.152 126.029C762.167 127.206 759.479 126.222 758.021 124.43C756.563 122.639 756.071 120.285 755.65 118.018C755.245 115.787 754.894 113.504 755.158 111.255C755.755 106.161 759.374 102.032 762.325 97.8163C766.488 91.861 769.563 85.1328 771.319 78.0708" stroke="black" stroke-miterlimit="10"/>
<path d="M771.037 77.9297C773.479 77.8243 775.938 78.1757 778.275 78.9135" stroke="black" stroke-miterlimit="10"/>
<path d="M769.088 62.8402C766.769 62.1903 764.275 63.6659 762.975 65.7037C761.675 67.7415 761.341 70.2184 761.06 72.6076C759.918 82.533 759.585 92.5638 760.041 102.56" stroke="black" stroke-miterlimit="10"/>
<path d="M773.867 93.5294C769.334 104.351 764.802 115.19 760.27 126.011" stroke="black" stroke-miterlimit="10"/>
<path d="M769.862 94.9524C762.079 102.155 762.712 114.575 757.916 124.026" stroke="black" stroke-miterlimit="10"/>
<path d="M772.215 77.3151L770.74 54.8468C770.634 53.2306 771.267 50.9117 772.848 51.2455C773.252 53.5117 773.638 55.7779 774.042 58.044C774.534 56.867 774.042 55.5319 774.095 54.2671C774.148 53.0022 775.483 51.5793 776.519 52.2996C776.976 52.6333 777.134 53.2306 777.222 53.7928C777.573 55.7954 777.767 57.8332 777.749 59.8534C776.66 57.0076 778.294 53.4238 781.139 52.3698C781.508 54.7941 781.456 57.2711 780.964 59.6778" stroke="black" stroke-miterlimit="10"/>
<path d="M778.715 79.3876L787.463 57.3233C788.131 55.6368 788.816 53.8801 788.746 52.0707C788.675 50.2613 787.657 48.3464 785.917 47.8194C783.177 46.9938 780.718 49.8748 779.909 52.6153" stroke="black" stroke-miterlimit="10"/>
<path d="M780.875 71.3246C780.383 66.1774 780.611 60.9424 781.56 55.8655" stroke="black" stroke-miterlimit="10"/>
<path d="M725.818 42.0052C731.457 42.093 736.798 39.6512 741.998 37.4728C752.204 33.204 762.797 29.8487 773.583 27.4244" stroke="black" stroke-miterlimit="10"/>
<path d="M757.125 27.6876C750.169 30.7443 743.019 33.3091 735.711 35.3996" stroke="black" stroke-miterlimit="10"/>
<path d="M735.219 40.0906C734.973 35.9272 735.5 31.7111 736.765 27.7409C737.38 25.8085 738.258 23.8234 739.962 22.7518C741.666 21.6802 744.389 22.0667 745.127 23.964C745.513 22.2073 745.935 20.4154 746.971 18.9574C748.008 17.4993 749.852 16.4628 751.592 16.902C753.454 17.3763 754.525 19.3087 755.228 21.1181C756.528 24.4032 757.318 27.8815 757.617 31.4125" stroke="black" stroke-miterlimit="10"/>
<path d="M735.816 41.2319C737.326 44.4819 733.971 48.1358 734.498 51.6844C734.885 54.2667 737.625 56.2343 740.19 55.76" stroke="black" stroke-miterlimit="10"/>
<path d="M746.233 38.4913C744.002 43.6385 743.053 49.3303 743.527 54.9342" stroke="black" stroke-miterlimit="10"/>
<path d="M758.741 32.8873C759.478 38.7196 761.499 44.3762 764.626 49.3477C762.008 50.5774 758.881 50.6477 756.229 49.541" stroke="black" stroke-miterlimit="10"/>
<path d="M752.926 42.1453L758.688 39.9143" stroke="black" stroke-miterlimit="10"/>
<path d="M752.064 46.3443L753.417 44.1133" stroke="black" stroke-miterlimit="10"/>
<path d="M749.746 57.0072C752.205 57.6396 754.928 57.1828 757.054 55.795" stroke="black" stroke-miterlimit="10"/>
<path d="M760.34 51.3159C759.919 52.4226 759.497 53.6523 759.866 54.7766C760.235 55.9009 761.816 56.6563 762.659 55.8131" stroke="black" stroke-miterlimit="10"/>
<path d="M760.584 55.6548L754.787 61.4519" stroke="black" stroke-miterlimit="10"/>
<path d="M694.797 111.448C694.481 117.913 694.674 124.413 695.394 130.86" stroke="black" stroke-miterlimit="10"/>
<path d="M718.477 124.624L718.898 130.632" stroke="black" stroke-miterlimit="10"/>
<path d="M753.331 64.3324C747.323 66.054 741.649 68.9526 736.748 72.8173" stroke="black" stroke-miterlimit="10"/>
<path d="M734.973 57.6044C738.381 61.8029 739.347 67.8636 737.415 72.9053" stroke="black" stroke-miterlimit="10"/>
<path d="M736.465 75.9805C733.901 83.4992 731.055 90.9301 727.945 98.238" stroke="black" stroke-miterlimit="10"/>
<path d="M753.014 64.6663C756.545 65.5622 759.636 68.1094 761.182 71.4296" stroke="black" stroke-miterlimit="10"/>
<path d="M754.015 115.295C751.221 119.318 748.235 123.517 743.808 125.607C740.716 127.065 737.203 127.364 733.795 127.206C724.01 126.767 714.418 122.796 707.181 116.191C704.528 113.767 701.787 110.816 698.204 110.675C696.429 110.605 694.462 111.22 692.986 110.254" stroke="black" stroke-miterlimit="10"/>
<path d="M692.652 109.867C695.287 106.108 698.643 102.858 702.472 100.363" stroke="black" stroke-miterlimit="10"/>
<path d="M702.562 100.328C707.868 100.627 712.418 103.965 716.845 106.898C721.272 109.832 726.436 112.608 731.636 111.554" stroke="black" stroke-miterlimit="10"/>
<path d="M735.43 107.022C739.576 105.932 742.896 102.647 744.881 98.8352C746.866 95.0232 747.656 90.7193 748.131 86.4504" stroke="black" stroke-miterlimit="10"/>
<path d="M693.707 106.705C690.369 103.332 685.099 101.997 680.549 103.367C679.547 103.666 678.546 104.105 677.492 104.017C676.438 103.93 675.366 103.104 675.454 102.067C675.489 101.663 675.7 101.294 675.911 100.926C677 99.0459 679.67 99.204 681.849 99.0459C682.622 98.9932 683.518 98.7473 683.746 98.0094C683.904 97.5351 683.693 97.0257 683.518 96.5514C682.639 94.3379 682.112 92.0015 681.972 89.6299C681.884 88.4002 681.954 87.03 682.762 86.1165C683.57 85.203 685.397 85.1503 685.854 86.2921C686.065 86.8192 685.942 87.3989 686.03 87.961C686.118 88.5232 686.574 89.1204 687.119 88.9799C688.261 88.6637 686.961 86.4327 687.98 85.8354C688.753 85.3787 689.473 86.5908 689.42 87.4867C689.367 88.3826 689.315 89.5772 690.158 89.8758C690.228 88.4002 690.79 86.9597 691.704 85.8003C692.284 87.7326 692.442 89.7704 692.196 91.7555C693.338 91.615 693.759 90.2447 694.181 89.1731C694.602 88.1016 695.885 87.0124 696.746 87.7678C697.238 88.207 697.185 88.9624 697.115 89.6299C696.869 91.8961 696.798 94.2676 697.624 96.3932C698.45 98.5189 700.364 100.363 702.631 100.504" stroke="black" stroke-miterlimit="10"/>
<path d="M734.008 57.3411C727.701 56.8317 721.131 56.3749 715.246 58.7114C710.433 60.6262 706.55 64.245 702.773 67.776C701.227 69.2341 699.664 70.6921 698.118 72.1326C695.676 74.4164 691.917 74.2934 688.737 75.365C685.944 76.296 683.572 78.1933 681.008 79.6514C674.314 83.4459 666.392 84.1662 658.732 84.8337" stroke="black" stroke-miterlimit="10"/>
<path d="M681.814 95.4966C674.102 95.5493 666.39 95.0398 658.748 93.9858C659.082 90.648 659.205 87.2927 659.099 83.955" stroke="black" stroke-miterlimit="10"/>
<path d="M710.957 62.4182L723.553 62.7344" stroke="black" stroke-miterlimit="10"/>
<path d="M754.314 117.052C752.154 121.374 751.012 126.187 750.959 131.018" stroke="black" stroke-miterlimit="10"/>
<path d="M510.887 70.7448C507.514 71.5178 503.719 69.6556 502.279 66.4936C501.77 65.3868 501.576 63.9814 502.314 63.0153C503.052 62.0491 504.932 62.1018 505.23 63.2963C502.384 60.8194 501.014 56.7789 501.717 53.0723C503.509 52.8088 505.265 54.6182 504.967 56.41C504.774 55.1276 504.563 53.7749 505.037 52.5628C505.511 51.3507 506.864 50.3669 508.076 50.8061C507.25 52.0358 507.918 53.9857 509.341 54.4249C508.34 52.4223 509.991 49.6291 512.24 49.5413C512.468 50.5777 512.696 51.5966 512.942 52.6331C513.241 51.6142 514.154 50.8061 515.208 50.6304C516.104 56.533 517.018 62.4355 517.914 68.3381" stroke="black" stroke-miterlimit="10"/>
<path d="M590.606 142.208C589.781 143.578 589.447 145.23 589.658 146.811C585.758 146.899 581.946 148.813 579.539 151.905L584.3 152.749C583.351 153.153 582.402 153.557 581.454 153.961C581.296 155.155 582.578 156.297 583.755 155.998C582.315 156.49 581.067 157.544 580.347 158.879C581.19 159.723 582.508 160.074 583.667 159.775C582.859 161.269 582.631 163.078 583.035 164.729C599.741 162.779 599.847 149.727 590.624 142.226L590.606 142.208Z" stroke="black" stroke-miterlimit="10"/>
<path d="M658.099 83.5165C656.729 83.8327 655.534 82.6381 654.287 81.9705C653.04 81.303 650.879 81.7773 651.125 83.1651C651.23 83.7272 651.74 84.1137 652.144 84.5353C653.83 86.2218 654.111 89.1028 652.811 91.0879C654.831 91.0001 656.869 90.9122 658.889 90.8244" stroke="black" stroke-miterlimit="10"/>
<path d="M647.979 83.1122C645.45 82.146 642.411 83.6041 641.093 85.9757C639.776 88.3472 639.969 91.3336 641.005 93.8282C642.112 96.4457 644.325 98.7821 647.136 99.1862" stroke="black" stroke-miterlimit="10"/>
<path d="M659.24 94.7417C658.485 96.1471 657.273 97.3065 655.832 98.0092" stroke="black" stroke-miterlimit="10"/>
<path d="M644.959 84.201C644.818 91.2279 644.748 98.5885 647.963 104.842C648.876 106.617 650.703 108.496 652.565 107.759C653.918 107.214 654.41 105.598 654.638 104.157C655.358 99.7655 655.235 95.2508 654.304 90.8941" stroke="black" stroke-miterlimit="10"/>
<path d="M645.029 82.4097L645.363 76.8057C648.771 75.5585 652.583 75.3652 656.097 76.2787" stroke="black" stroke-miterlimit="10"/>
<path d="M656.08 76.5242C656.255 78.4917 656.08 80.4944 655.57 82.4092" stroke="black" stroke-miterlimit="10"/>
<path d="M648.666 75.4878C648.262 70.1298 650.476 64.6489 654.481 61.0652C655.272 60.3625 656.185 59.6949 657.239 59.572C658.293 59.449 659.488 60.0287 659.734 61.0652C659.997 62.2422 659.013 63.2786 658.188 64.157C655.342 67.1785 653.48 71.1136 652.988 75.2419" stroke="black" stroke-miterlimit="10"/>
<path d="M657.872 61.3116C656.396 61.4872 654.991 62.2953 654.095 63.4723C655.377 62.5237 656.642 61.5575 657.925 60.6089C657.872 61.3116 658.452 61.9967 659.154 62.067C656.748 64.5966 654.675 67.4425 653.006 70.5168" stroke="black" stroke-miterlimit="10"/>
<path d="M656.727 63.1035C653.846 66.2656 652.125 70.4642 651.949 74.733" stroke="black" stroke-miterlimit="10"/>
<path d="M657.835 61.399L656.061 64.7368" stroke="black" stroke-miterlimit="10"/>
<path d="M655.253 63.8761C653.356 66.476 651.863 69.3395 650.844 72.3786C651.722 69.8489 652.583 67.3017 653.461 64.772C651.336 67.4247 650.264 70.903 650.528 74.2758C651.019 74.3637 651.494 74.4515 651.986 74.5394" stroke="black" stroke-miterlimit="10"/>
<path d="M338.395 149.727C340.293 149.288 342.225 150.166 343.982 151.009C346.072 152.01 348.286 153.117 349.55 155.085C351.044 157.404 350.763 160.724 348.901 162.762C347.355 164.466 345.018 165.186 342.787 165.818C339.941 166.626 337.095 167.417 334.232 168.172C327.644 169.911 320.705 168.102 314.153 166.257C312.554 165.801 310.92 165.344 309.515 164.448C307.618 163.236 306.212 161.216 305.914 158.967C305.615 156.718 306.476 154.329 308.233 152.924C309.374 152.01 310.815 151.536 312.22 151.079L316.577 149.674C317.701 149.305 318.878 148.936 320.038 149.077C321.197 149.217 322.409 149.973 322.638 151.132C322.778 151.817 322.339 152.485 321.882 152.994C319.757 155.383 316.331 156.525 313.204 155.928C313.116 154.839 313.977 153.855 314.996 153.451C316.015 153.047 317.139 153.082 318.228 153.135C319.546 153.187 321.039 153.328 321.882 154.347C323.147 155.91 323.902 157.895 323.973 159.898C323.973 160.302 323.973 160.724 323.797 161.093C323.516 161.672 322.813 161.936 322.198 162.112C320.565 162.603 318.386 162.902 317.543 161.426C316.963 160.39 317.49 159.02 318.422 158.282C319.353 157.544 320.547 157.281 321.707 157.035C323.428 156.683 325.22 156.332 326.889 156.859C328.277 157.316 329.594 158.001 330.754 158.879C331.14 159.178 331.527 159.529 331.72 159.986C332.071 160.829 331.614 161.813 330.912 162.393C330.209 162.972 329.296 163.201 328.417 163.411C326.871 163.798 325.238 162.48 324.974 160.917C324.711 159.354 325.571 157.737 326.819 156.754C328.066 155.77 329.665 155.331 331.228 155.067C333.828 154.628 336.92 154.856 338.518 156.964C339.186 157.86 339.485 159.09 339.063 160.126C338.641 161.163 337.376 161.83 336.34 161.426C335.76 161.198 335.339 160.689 334.952 160.179C333.81 158.686 332.756 157.105 331.843 155.454C331.65 155.102 331.439 154.663 331.614 154.294C332.3 152.731 333.881 151.642 335.567 151.36C337.254 151.079 339.01 151.571 340.433 152.537C341.312 153.135 342.102 153.943 342.348 154.979C342.734 156.578 341.663 158.229 340.257 159.072C338.852 159.916 337.166 160.109 335.532 160.285C334.566 160.39 333.477 160.46 332.721 159.845C330.543 158.089 330.473 154.821 330.912 152.063C331.105 150.851 331.351 149.639 331.21 148.427C331.07 147.215 330.385 145.985 329.26 145.546C327.521 144.861 325.536 146.407 325.115 148.216C324.693 150.025 325.361 151.923 326.186 153.591C326.731 154.716 327.469 155.91 328.663 156.174C329.858 156.437 331.035 155.664 331.667 154.645C332.3 153.627 332.475 152.397 332.651 151.22C332.721 150.746 332.739 150.183 332.352 149.902C330.086 148.339 326.783 148.444 324.623 150.166C324.412 150.342 324.201 150.517 323.955 150.623C323.059 150.992 322.023 150.096 322.023 149.112C322.023 148.128 322.796 147.32 323.674 146.934C324.552 146.547 325.554 146.494 326.52 146.407C328.136 146.266 329.823 145.985 331.14 145.054C332.458 144.123 333.354 142.366 332.809 140.838C330.982 139.257 329.155 137.658 327.31 136.077C326.643 135.497 325.905 134.812 325.87 133.916C325.852 133.477 326.011 133.038 326.186 132.634C327.17 130.473 328.979 128.699 331.158 127.75C331.773 128.33 331.456 129.419 330.824 129.981C330.192 130.543 329.348 130.807 328.663 131.299C326.661 132.687 326.362 135.497 326.274 137.922C326.239 138.888 326.204 139.872 326.573 140.767C326.942 141.663 327.838 142.401 328.786 142.278C330.262 142.085 330.754 140.188 330.719 138.695C330.613 134.97 329.383 131.387 328.189 127.856C327.785 126.661 327.328 125.396 326.415 124.535C325.501 123.675 323.92 123.341 322.954 124.184C322.585 125.431 322.708 126.802 323.305 127.961C323.709 128.734 324.324 129.507 324.184 130.385C324.078 131.053 323.534 131.562 323.147 132.124C321.601 134.303 322.655 137.834 325.15 138.8" stroke="#EE8E46" stroke-miterlimit="10"/>
<path d="M325.869 125.695C326.168 125.291 326.818 125.396 327.239 125.66C327.661 125.923 328.03 126.31 328.522 126.433C329.014 126.556 329.646 126.152 329.488 125.66C329.435 125.502 329.312 125.379 329.172 125.273C327.942 124.325 326.168 124.588 324.78 123.868C323.726 123.324 323.058 122.287 322.356 121.338C318.93 116.666 314.169 113.135 310.621 108.567C309.69 107.373 308.847 106.125 307.775 105.071C306.703 104.017 305.316 103.192 303.822 103.104C303.471 104.052 303.752 105.124 304.332 105.967C304.912 106.81 305.72 107.408 306.528 108.023C310.551 111.097 314.468 114.329 317.929 118.018C319.159 119.336 320.371 120.776 320.827 122.515C321.091 123.534 321.091 124.624 321.6 125.537C322.479 127.1 324.464 127.592 326.238 127.926C325.008 127.61 324.042 126.486 323.902 125.221C324.727 126.767 326.484 127.768 328.223 127.715C327.749 126.626 326.66 125.836 325.869 125.695Z" stroke="#EE8E46" stroke-miterlimit="10"/>
<path d="M672.205 166.011L656.764 172.581C655.692 173.038 654.445 173.477 653.444 172.898C645.486 168.207 637.51 163.517 629.552 158.844C628.885 158.457 628.2 158.053 627.76 157.421C627.304 156.771 627.146 155.963 627.04 155.172C626.302 149.937 626.97 144.246 630.185 140.047C633.399 135.848 639.636 133.758 644.274 136.323C646.469 137.535 648.244 139.661 650.703 140.047" stroke="#EE8E46" stroke-miterlimit="10"/>
<path d="M650.315 139.942C647.347 140.891 644.641 142.665 642.586 145.019C645.256 144.703 647.645 143.227 650.245 142.559C655.656 141.154 661.84 143.578 664.826 148.304C660.645 146.969 655.726 148.409 652.915 151.765C656.271 150.096 659.767 148.409 663.508 148.128C667.25 147.847 671.378 149.252 673.258 152.502" stroke="#EE8E46" stroke-miterlimit="10"/>
<path d="M673.207 152.291L673.172 166.38" stroke="#EE8E46" stroke-miterlimit="10"/>
<path d="M401.214 170.139L406.186 168.681C410.085 167.539 414.425 166.415 418.096 168.154C422.716 170.35 424.315 176.586 422.558 181.382C420.801 186.178 416.48 189.621 411.895 191.87C406.906 194.311 401.442 195.629 396.049 196.929L391.183 198.088C387.881 198.879 384.508 199.669 381.152 199.283C377.797 198.896 374.371 197.087 373.036 193.978C370.963 189.182 374.547 183.718 378.816 180.714C382.136 178.378 386.071 176.779 390.129 176.762C394.187 176.744 398.351 178.396 400.845 181.593C402.04 179.362 399.001 177.306 396.594 176.586C392.536 175.357 387.74 174.232 384.35 176.779" stroke="#EE8E46" stroke-miterlimit="10"/>
<path d="M382.979 177.763C384.754 173.793 389.391 172.089 393.572 170.824C396.401 169.981 399.335 169.138 402.268 169.472C405.588 169.841 408.698 171.808 410.472 174.654C412.106 173.161 411.087 170.192 409.137 169.138C407.187 168.084 404.815 168.383 402.637 168.699" stroke="#EE8E46" stroke-miterlimit="10"/>
<path d="M145.929 171.721C151.146 170.386 156.364 169.051 161.564 167.715C172.262 164.975 183.4 163.78 193.676 159.722C196.048 158.791 198.367 157.702 200.668 156.613C204.41 154.856 208.573 154.189 212.508 152.924C216.443 151.659 220.396 149.569 222.416 145.967C223.189 144.597 223.628 142.999 223.33 141.453C222.978 139.713 220.607 139.503 218.85 139.696C211.753 140.504 204.673 141.33 197.576 142.138C192.306 142.753 186.983 143.367 181.942 145.054C172.543 148.216 163.074 151.413 153.254 152.783C145.771 153.82 134.001 153.96 129.714 161.637C127.887 164.922 129.17 168.699 132.051 170.965C136.056 174.11 141.432 172.88 145.911 171.721H145.929Z" stroke="#EE8E46" stroke-miterlimit="10"/>
<path d="M154.185 152.889C161.212 152.064 168.467 153.346 174.774 156.543C165.463 155.577 156.152 154.629 146.842 153.662" stroke="#EE8E46" stroke-miterlimit="10"/>
<path d="M195.784 147.513C196.223 147.935 195.994 148.725 195.503 149.077C195.011 149.428 194.361 149.463 193.763 149.463C186.983 149.639 179.903 148.866 173.175 149.551C176.846 148.954 180.535 148.514 184.225 148.163C186.034 148.005 194.554 146.319 195.801 147.496L195.784 147.513Z" stroke="#EE8E46" stroke-miterlimit="10"/>
<path d="M193.555 143.262C200.546 142.542 207.661 143.069 214.477 144.79C211.719 144.597 209.225 143.174 206.642 142.208C204.06 141.242 200.933 140.785 198.684 142.384" stroke="#EE8E46" stroke-miterlimit="10"/>
<path d="M484.061 139.713C488.119 143.297 494.917 143.209 498.887 139.52C494.355 136.955 488.681 136.516 484.061 139.713Z" stroke="#EE8E46" stroke-miterlimit="10"/>
<path d="M498.976 139.537C500.03 145.106 500.645 150.763 500.803 156.437C500.803 156.859 500.821 157.28 500.733 157.684C500.347 159.301 498.52 160.038 496.886 160.407C495.252 160.776 493.425 161.11 492.529 162.48C491.967 163.341 491.897 164.43 491.844 165.467C491.563 171.475 491.282 177.482 490.983 183.49" stroke="#EE8E46" stroke-miterlimit="10"/>
<path d="M484.06 139.713C483.006 145.282 481.337 150.324 481.179 155.998C481.179 156.419 481.162 156.841 481.249 157.245C481.636 158.861 483.463 159.599 485.097 159.968C486.73 160.337 488.557 160.671 489.453 162.041C490.015 162.902 490.086 163.991 490.138 165.027C490.419 171.035 490.701 177.043 490.999 183.051" stroke="#EE8E46" stroke-miterlimit="10"/>
<path d="M491.439 180.487C492.862 180.311 494.391 180.136 495.69 180.733C496.99 181.33 497.921 183.017 497.201 184.264C496.551 185.388 495.023 185.564 493.723 185.599C492.037 185.652 490.368 185.722 488.681 185.775C487.61 185.81 486.52 185.845 485.502 185.511C484.483 185.178 483.552 184.422 483.323 183.368C483.253 183.069 483.253 182.753 483.429 182.507C483.569 182.297 483.815 182.191 484.043 182.103C485.519 181.488 487.03 180.961 488.576 180.54" stroke="#EE8E46" stroke-miterlimit="10"/>
<path d="M485.87 182.437C486.485 183.912 488.242 184.808 489.788 184.439C488.54 183.772 487.311 183.087 486.063 182.419" stroke="#EE8E46" stroke-miterlimit="10"/>
<path d="M481.935 150.992C482.479 150.395 483.498 150.535 484.201 150.939C484.903 151.343 485.501 151.976 486.256 152.274C487.837 152.889 489.559 151.941 491.175 151.414C494.354 150.377 498.044 151.097 500.591 153.241" stroke="#EE8E46" stroke-miterlimit="10"/>
<path d="M677.387 63.8062C681.445 67.3899 688.243 67.3021 692.213 63.613C687.681 61.0482 682.007 60.609 677.387 63.8062Z" stroke="#EE8E46" stroke-miterlimit="10"/>
<path d="M692.302 63.6302C693.356 69.199 693.971 74.8556 694.129 80.5298C694.129 80.9514 694.146 81.3731 694.058 81.7771C693.672 83.3933 691.845 84.1311 690.211 84.5C688.577 84.8689 686.75 85.2027 685.855 86.5729C685.292 87.4337 685.222 88.5229 685.169 89.5593C684.888 95.5673 684.607 101.575 684.309 107.583" stroke="#EE8E46" stroke-miterlimit="10"/>
<path d="M677.386 63.8059C676.332 69.3747 674.663 74.4164 674.505 80.0906C674.505 80.5122 674.488 80.9339 674.576 81.3379C674.962 82.9541 676.789 83.6919 678.423 84.0608C680.057 84.4297 681.884 84.7635 682.779 86.1337C683.342 86.9945 683.412 88.0837 683.465 89.1201C683.746 95.1281 684.027 101.136 684.325 107.144" stroke="#EE8E46" stroke-miterlimit="10"/>
<path d="M684.765 104.562C686.188 104.386 687.717 104.21 689.017 104.807C690.317 105.405 691.248 107.091 690.527 108.338C689.877 109.463 688.349 109.638 687.049 109.674C685.363 109.726 683.694 109.797 682.007 109.849C680.936 109.884 679.847 109.92 678.828 109.586C677.809 109.252 676.878 108.497 676.649 107.443C676.579 107.144 676.579 106.828 676.755 106.582C676.895 106.371 677.141 106.266 677.37 106.178C678.845 105.563 680.356 105.036 681.902 104.614" stroke="#EE8E46" stroke-miterlimit="10"/>
<path d="M679.195 106.529C679.81 108.005 681.567 108.901 683.113 108.532C681.866 107.864 680.636 107.179 679.389 106.512" stroke="#EE8E46" stroke-miterlimit="10"/>
<path d="M675.244 75.0843C675.789 74.487 676.808 74.6276 677.51 75.0316C678.213 75.4357 678.81 76.0681 679.566 76.3667C681.147 76.9816 682.868 76.0329 684.484 75.5059C687.664 74.4695 691.353 75.1897 693.9 77.3329" stroke="#EE8E46" stroke-miterlimit="10"/>
<path d="M833.771 115.33C837.829 118.914 844.628 118.826 848.598 115.137C844.066 112.572 838.392 112.133 833.771 115.33Z" stroke="#EE8E46" stroke-miterlimit="10"/>
<path d="M848.686 115.154C849.74 120.723 850.355 126.38 850.513 132.054C850.513 132.476 850.531 132.897 850.443 133.301C850.057 134.917 848.23 135.655 846.596 136.024C844.962 136.393 843.135 136.727 842.239 138.097C841.677 138.958 841.607 140.047 841.554 141.084C841.273 147.091 840.992 153.099 840.693 159.107" stroke="#EE8E46" stroke-miterlimit="10"/>
<path d="M833.771 115.331C832.717 120.899 831.048 125.941 830.89 131.615C830.89 132.037 830.873 132.459 830.96 132.863C831.347 134.479 833.174 135.217 834.808 135.585C836.441 135.954 838.268 136.288 839.164 137.658C839.726 138.519 839.797 139.608 839.849 140.645C840.13 146.653 840.411 152.661 840.71 158.669" stroke="#EE8E46" stroke-miterlimit="10"/>
<path d="M841.15 156.086C842.573 155.91 844.101 155.734 845.401 156.332C846.701 156.929 847.632 158.616 846.912 159.863C846.262 160.987 844.734 161.163 843.434 161.198C841.747 161.251 840.079 161.321 838.392 161.374C837.32 161.409 836.231 161.444 835.212 161.11C834.194 160.776 833.263 160.021 833.034 158.967C832.964 158.668 832.964 158.352 833.14 158.106C833.28 157.895 833.526 157.79 833.754 157.702C835.23 157.087 836.741 156.56 838.287 156.139" stroke="#EE8E46" stroke-miterlimit="10"/>
<path d="M835.58 158.054C836.195 159.53 837.952 160.426 839.498 160.057C838.25 159.389 837.021 158.704 835.773 158.036" stroke="#EE8E46" stroke-miterlimit="10"/>
<path d="M831.629 126.609C832.173 126.012 833.192 126.152 833.895 126.556C834.598 126.96 835.195 127.593 835.95 127.891C837.531 128.506 839.253 127.557 840.869 127.03C844.049 125.994 847.738 126.714 850.285 128.857" stroke="#EE8E46" stroke-miterlimit="10"/>
<path d="M92.8574 150.359C96.9154 153.943 103.714 153.855 107.684 150.166C103.152 147.601 97.4776 147.162 92.8574 150.359Z" stroke="#EE8E46" stroke-miterlimit="10"/>
<path d="M107.772 150.183C108.826 155.752 109.441 161.409 109.599 167.083C109.599 167.505 109.617 167.926 109.529 168.33C109.143 169.947 107.316 170.684 105.682 171.053C104.048 171.422 102.221 171.756 101.325 173.126C100.763 173.987 100.693 175.076 100.64 176.113C100.359 182.121 100.078 188.129 99.7793 194.136" stroke="#EE8E46" stroke-miterlimit="10"/>
<path d="M92.8571 150.359C91.803 155.928 90.1342 160.97 89.976 166.644C89.976 167.066 89.9585 167.487 90.0463 167.891C90.4328 169.507 92.2598 170.245 93.8935 170.614C95.5273 170.983 97.3542 171.317 98.2502 172.687C98.8123 173.548 98.8826 174.637 98.9353 175.673C99.2164 181.681 99.4974 187.689 99.7961 193.697" stroke="#EE8E46" stroke-miterlimit="10"/>
<path d="M100.236 191.115C101.659 190.939 103.187 190.763 104.487 191.361C105.787 191.958 106.718 193.644 105.998 194.892C105.348 196.016 103.82 196.192 102.52 196.227C100.833 196.28 99.1645 196.35 97.4781 196.402C96.4065 196.438 95.3173 196.473 94.2984 196.139C93.2795 195.805 92.3484 195.05 92.1201 193.996C92.0498 193.697 92.0498 193.381 92.2255 193.135C92.366 192.924 92.612 192.819 92.8403 192.731C94.316 192.116 95.8267 191.589 97.3727 191.167" stroke="#EE8E46" stroke-miterlimit="10"/>
<path d="M94.667 193.083C95.2818 194.558 97.0385 195.454 98.5845 195.085C97.3372 194.418 96.1075 193.733 94.8602 193.065" stroke="#EE8E46" stroke-miterlimit="10"/>
<path d="M90.7305 161.637C91.2751 161.04 92.2939 161.181 92.9966 161.585C93.6993 161.989 94.2966 162.621 95.052 162.92C96.633 163.535 98.3546 162.586 99.9708 162.059C103.15 161.023 106.84 161.743 109.387 163.886" stroke="#EE8E46" stroke-miterlimit="10"/>
<path d="M708.128 105.229C710.799 105.317 713.469 105.281 716.139 105.106C715.612 109.023 715.085 112.976 715.366 116.928C715.647 120.881 716.789 124.869 719.301 127.925C720.513 129.401 721.743 130.947 722.182 132.809C722.27 133.16 722.323 133.529 722.375 133.881C722.973 138.062 723.271 142.295 723.271 146.529C723.271 149.076 723.166 151.623 723.06 154.153C722.762 161.356 722.463 168.541 722.165 175.743C722.077 177.711 721.936 179.854 720.654 181.365C719.02 183.279 716.192 183.473 713.68 183.508C709.323 183.596 704.668 183.596 701.014 181.207" stroke="#EE8E46" stroke-miterlimit="10"/>
<path d="M708.287 105.282C707.602 105.159 707.181 106.178 707.567 106.757C707.954 107.337 708.744 107.495 709.447 107.513C710.149 107.53 710.887 107.46 711.52 107.776" stroke="#EE8E46" stroke-miterlimit="10"/>
<path d="M709.517 107.776C710.026 114.574 708.322 121.355 706.372 127.89C706.161 128.575 705.968 129.243 705.669 129.893C705.037 131.298 703.79 132.3 702.859 133.529C701.752 135.005 701.102 136.762 700.592 138.536C696.622 152.361 700.364 167.048 700.821 181.435" stroke="#EE8E46" stroke-miterlimit="10"/>
<path d="M698.643 147.917C706.056 149.972 713.873 150.552 721.497 149.621C723.676 158.967 719.776 168.646 720.127 178.238C714.19 181.312 706.723 181.207 700.891 177.957" stroke="#EE8E46" stroke-miterlimit="10"/>
<path d="M708.621 160.144C708.972 158.492 709.64 156.823 710.975 155.787C712.31 154.751 714.436 154.61 715.578 155.857C716.421 156.753 716.544 158.141 716.21 159.318C715.876 160.495 715.156 161.531 714.453 162.533C713.013 164.588 711.572 166.644 710.114 168.681" stroke="#EE8E46" stroke-miterlimit="10"/>
<path d="M708.569 160.144C709.113 158.809 708.463 157.192 707.339 156.279C706.215 155.366 704.739 155.032 703.281 154.874C702.912 154.839 702.543 154.821 702.209 154.944C701.805 155.102 701.507 155.471 701.313 155.857C700.049 158.282 702.034 161.163 704.212 162.814C706.39 164.465 709.078 165.871 709.974 168.453" stroke="#EE8E46" stroke-miterlimit="10"/>
<path d="M709.939 104.719L709.992 102.84C711.064 102.682 712.17 102.524 713.189 102.875C714.208 103.226 715.104 104.21 714.929 105.282" stroke="#EE8E46" stroke-miterlimit="10"/>
<path d="M707.867 129.665C704.3 133.652 702.579 139.221 703.282 144.509" stroke="#EE8E46" stroke-miterlimit="10"/>
<path d="M717.809 132.827C718.757 134.777 719.267 136.938 719.319 139.116" stroke="#EE8E46" stroke-miterlimit="10"/>
<path d="M718.407 159.652C718.407 164.624 718.143 169.595 717.616 174.532C717.564 175.006 717.493 175.516 717.16 175.867C716.861 176.166 716.422 176.253 716.018 176.324C711.995 177.009 707.884 177.237 703.809 177.009" stroke="#EE8E46" stroke-miterlimit="10"/>
</svg>
