<svg width="56" height="46" viewBox="0 0 56 46" fill="none" xmlns="http://www.w3.org/2000/svg">
<path d="M45.291 0.25C46.9297 0.250072 48.8927 0.640173 50.3584 1.52148C51.089 1.96079 51.6866 2.51715 52.0654 3.19727C52.4422 3.87394 52.6102 4.68885 52.4619 5.66602L52.4355 5.83984L52.5908 5.92285C54.6347 7.02753 55.75 9.27775 55.75 12.5322C55.7498 17.4971 52.3283 24.5758 41.7002 33.1709H41.6289L41.5596 33.2285C31.8907 41.3076 23.8699 44.9131 17.0801 44.9131C13.184 44.9131 10.059 43.6067 7.72363 41.5869L7.67676 41.5459L7.61621 41.5322L7.22852 41.4395C5.30816 40.9589 3.60552 40.2171 2.36426 39.1875C1.04723 38.095 0.250071 36.6805 0.25 34.8896C0.25 33.7251 0.513505 32.8415 0.976562 32.1455C1.44081 31.4478 2.11964 30.9176 2.98242 30.4824L3.08789 30.4287L3.11328 30.3135C3.82723 27.084 6.62942 23.7606 12.4639 21.4023L13.0381 21.1768C17.2836 19.5739 20.0404 17.6007 22.0303 15.5762C23.9771 13.5954 25.1855 11.5678 26.3232 9.83691C26.3274 9.83562 26.3323 9.83471 26.3369 9.83301C26.3488 9.82859 26.3636 9.82136 26.3799 9.81152L26.4395 9.77539L26.4717 9.71387C27.3141 8.10564 28.2733 6.52123 29.6934 5.19238L29.9834 4.93066C31.6178 3.50312 33.9487 2.39657 36.6797 2.39648C37.5309 2.39648 38.5674 2.49373 39.6621 2.62012L39.7979 2.63574L39.8848 2.5293C41.0311 1.11761 42.5925 0.25 45.291 0.25ZM46.9609 8.7832C42.8461 8.94824 40.8615 11.9328 38.9102 15.3438C37.0035 18.6766 35.1055 22.4553 31.3252 24.8486L30.9531 25.0762C25.8823 28.0686 22.4306 30.5223 20.1895 32.5273C17.9579 34.5238 16.8906 36.1062 16.6592 37.3623C16.5416 38.0005 16.6397 38.5553 16.9102 39.0244C17.178 39.4889 17.6042 39.8508 18.1113 40.1299C19.1207 40.6853 20.5059 40.9427 21.8271 41.0107L21.8691 41.0127L21.9092 41.001C26.4074 39.7042 32.0803 36.6895 38.7305 31.1289L38.7295 31.1279L38.7969 31.0752C49.0102 22.8365 51.7694 16.3849 51.7695 12.5322C51.7695 11.0948 51.4442 10.1325 51.1133 9.48438L51.0645 9.38867L50.9609 9.3584L50.3965 9.20215C49.2871 8.91557 48.3017 8.78432 47.4033 8.77637L46.9609 8.7832ZM36.6797 5.50781C35.2942 5.50788 34.2211 5.93578 33.1582 6.80273L32.9453 6.98145C31.8219 7.96171 30.8376 9.46658 30.0283 11.04C29.9923 11.0873 29.9548 11.1348 29.9141 11.1807L29.9023 11.1943L29.8926 11.209C27.7665 14.4181 24.5648 19.991 15.6338 23.6377L14.752 23.9844H14.751C11 25.4115 8.97482 26.9632 7.91016 28.5977L7.58691 29.0947L8.16895 28.9795C13.4757 27.9307 20.6387 26.928 27.3193 21.4199L27.3184 21.4189C34.2916 15.7998 36.1521 10.0174 37.959 5.91406L38.1055 5.58301L37.7441 5.56348C37.4751 5.54935 37.1833 5.52959 36.9297 5.51855V5.50781H36.6797Z" fill="#EE8E46" stroke="#EE8E46" stroke-width="0.5"/>
</svg>
