<svg width="175" height="236" viewBox="0 0 175 236" fill="none" xmlns="http://www.w3.org/2000/svg">
<path d="M33.0935 106.821L32.5368 9.58319C32.1391 8.58893 32.1391 7.55491 32.6561 6.6402C33.0538 5.8448 33.7299 5.24825 34.3662 4.6517C35.4002 3.69721 36.4342 2.74273 37.6671 2.02687C38.9 1.311 40.292 0.873533 41.6839 1.03261" stroke="#EE8E46" stroke-miterlimit="10"/>
<path d="M85.1936 1.58957L41.4863 1.1521" stroke="#EE8E46" stroke-miterlimit="10"/>
<path d="M85.2324 1.62915C90.1639 1.70869 149.063 1.86778 153.915 2.1064C155.188 2.18594 156.58 2.26548 157.773 2.5041C161.472 3.21996 163.42 5.16869 165.051 6.95835C165.846 7.87306 165.846 8.23099 166.324 9.18547C166.801 10.0604 166.682 11.4126 166.92 12.3273C167.318 14.1567 167.039 14.7135 166.682 19.4064L168.034 107.298L32.6562 106.582" stroke="#EE8E46" stroke-miterlimit="10"/>
<path d="M27.8848 111.355L28.5609 203.979" stroke="#EE8E46" stroke-miterlimit="10"/>
<path d="M47.2129 220.405L104.641 219.291L174 219.49L173.92 107.06L156.581 107.219" stroke="#EE8E46" stroke-miterlimit="10"/>
<path d="M27.8045 111.395L2.78906 111.156" stroke="#EE8E46" stroke-miterlimit="10"/>
<path d="M2.78965 111.156C2.31241 111.156 1.71586 111.156 1.3977 110.798C1.23862 110.599 1.1591 110.321 1.11933 110.082C1.03979 109.605 1 109.088 1 108.571V107.935C1.11931 107.298 1.71587 106.702 2.35219 106.742L32.8956 106.662" stroke="#EE8E46" stroke-miterlimit="10"/>
<path d="M31.1859 234.762C39.9278 234.762 47.0144 227.817 47.0144 219.251C47.0144 210.685 39.9278 203.741 31.1859 203.741C22.4441 203.741 15.3574 210.685 15.3574 219.251C15.3574 227.817 22.4441 234.762 31.1859 234.762Z" stroke="#EE8E46" stroke-miterlimit="10"/>
<path d="M30.9471 225.058C33.9123 225.058 36.3161 222.725 36.3161 219.848C36.3161 216.97 33.9123 214.638 30.9471 214.638C27.9819 214.638 25.5781 216.97 25.5781 219.848C25.5781 222.725 27.9819 225.058 30.9471 225.058Z" stroke="#EE8E46" stroke-miterlimit="10"/>
<path d="M28.0841 195.588C26.8115 195.508 25.6184 196.184 24.5844 196.94C20.6869 199.883 17.9427 204.695 18.4995 209.547" stroke="#EE8E46" stroke-miterlimit="10"/>
<path d="M168.67 219.371L168.551 231.779" stroke="#EE8E46" stroke-miterlimit="10"/>
<path d="M168.512 231.54C168.512 231.938 168.591 232.336 168.512 232.733C168.432 233.131 168.313 233.529 168.074 233.807C167.637 234.284 166.881 234.404 166.245 234.205C165.608 234.006 165.131 233.529 164.694 233.052L164.455 220.007V219.49" stroke="#EE8E46" stroke-miterlimit="10"/>
<path d="M163.024 107.418L161.592 10.9353" stroke="#EE8E46" stroke-miterlimit="10"/>
<path d="M37.5896 106.384L36.834 15.4294" stroke="#EE8E46" stroke-miterlimit="10"/>
<path d="M157.496 107.458L155.984 15.9863" stroke="#EE8E46" stroke-miterlimit="10"/>
<path d="M155.945 16.1453C155.547 14.8727 154.951 13.5205 153.201 12.6058C151.371 11.6513 149.303 11.3331 146.639 11.3331L48.9234 11.0945C46.1793 11.0547 43.276 11.2934 41.0489 12.049C38.8218 12.8046 36.3561 14.1568 36.8333 15.4295" stroke="#EE8E46" stroke-miterlimit="10"/>
<path d="M161.512 11.2138C161.114 9.54344 160.517 7.79356 158.608 6.56068C156.699 5.32781 154.472 4.89034 151.649 4.89034L48.0474 4.57218C45.1442 4.49264 42.0819 4.8108 39.6559 5.84482C37.2299 6.83907 35.9176 10.5377 36.5141 12.2478" stroke="#EE8E46" stroke-miterlimit="10"/>
<path d="M36.5547 12.5659C35.9582 11.1739 37.0718 9.22518 39.4977 8.39001C41.9237 7.55484 44.9064 7.31622 47.8096 7.39576L150.576 7.67415C153.399 7.67415 155.626 8.03208 157.535 9.02633C159.444 10.0206 160.041 11.4523 160.439 12.8045C160.836 14.1567 160.439 13.1624 160.598 13.3613C160.677 13.5999 160.836 13.8783 160.836 14.1169C160.836 14.3555 161.314 15.5486 161.632 15.7475" stroke="#EE8E46" stroke-miterlimit="10"/>
<path d="M72.9043 144.603H78.1142V145.637H74.1769V148.858H77.8358V149.892H74.1769V154.267H72.9441V144.603H72.9043Z" fill="black" stroke="#EE8E46"/>
<path d="M88.0965 149.335C88.0965 152.676 86.0682 154.426 83.6025 154.426C81.1367 154.426 79.2676 152.437 79.2676 149.534C79.2676 146.631 81.1765 144.483 83.7616 144.483C86.3466 144.483 88.0965 146.512 88.0965 149.375V149.335ZM80.6197 149.494C80.6197 151.562 81.7333 153.392 83.6821 153.392C85.6308 153.392 86.7841 151.562 86.7841 149.375C86.7841 147.188 85.7899 145.438 83.7218 145.438C81.6538 145.438 80.6197 147.347 80.6197 149.455V149.494Z" fill="black" stroke="#EE8E46"/>
<path d="M97.9599 149.335C97.9599 152.676 95.9316 154.426 93.4658 154.426C91.0001 154.426 89.1309 152.437 89.1309 149.534C89.1309 146.631 91.0398 144.483 93.6249 144.483C96.21 144.483 97.9599 146.512 97.9599 149.375V149.335ZM90.4831 149.494C90.4831 151.562 91.5966 153.392 93.5453 153.392C95.4941 153.392 96.6474 151.562 96.6474 149.375C96.6474 147.188 95.6532 145.438 93.5851 145.438C91.5171 145.438 90.4831 147.347 90.4831 149.455V149.494Z" fill="black" stroke="#EE8E46"/>
<path d="M99.5898 144.722C100.345 144.603 101.26 144.523 102.254 144.523C104.044 144.523 105.317 144.921 106.152 145.716C107.027 146.512 107.504 147.625 107.504 149.176C107.504 150.727 107.027 152.04 106.112 152.915C105.197 153.829 103.726 154.307 101.857 154.307C99.9875 154.307 100.226 154.307 99.5898 154.187V144.682V144.722ZM100.823 153.273C101.141 153.273 101.578 153.352 102.095 153.352C104.76 153.352 106.192 151.881 106.192 149.256C106.192 146.631 104.919 145.517 102.294 145.517C99.6694 145.517 101.181 145.517 100.823 145.637V153.233V153.273Z" fill="black" stroke="#EE8E46"/>
<path d="M72.9043 161.783H78.1142V162.817H74.1769V166.039H77.8358V167.073H74.1769V171.448H72.9441V161.783H72.9043Z" fill="black" stroke="#EE8E46"/>
<path d="M84.8756 166.914H81.1372V170.374H85.313V171.408H79.9043V161.744H85.1142V162.778H81.1372V165.84H84.8756V166.874V166.914Z" fill="black" stroke="#EE8E46"/>
<path d="M86.7447 169.897C87.3014 170.255 88.1366 170.533 88.9718 170.533C90.2444 170.533 91.0001 169.857 91.0001 168.902C91.0001 167.948 90.483 167.471 89.1706 166.993C87.5798 166.437 86.6254 165.602 86.6254 164.249C86.6254 162.897 87.8582 161.625 89.7274 161.625C91.5966 161.625 91.4375 161.863 91.875 162.102L91.5171 163.136C91.1989 162.977 90.5626 162.659 89.6877 162.659C88.3752 162.659 87.8582 163.454 87.8582 164.09C87.8582 164.727 88.4548 165.442 89.7672 165.959C91.3978 166.596 92.233 167.391 92.233 168.783C92.233 170.175 91.1194 171.567 88.8525 171.567C86.5856 171.567 86.9037 171.289 86.3867 170.97L86.7049 169.936L86.7447 169.897Z" fill="black" stroke="#EE8E46"/>
<path d="M95.8121 162.857H92.8691V161.783H100.028V162.857H97.0848V171.448H95.8121V162.857Z" fill="black" stroke="#EE8E46"/>
<path d="M102.334 161.783V171.448H101.102V161.783H102.334Z" fill="black" stroke="#EE8E46"/>
<path d="M106.63 171.448L103.488 161.783H104.84L106.352 166.556C106.749 167.868 107.107 169.022 107.386 170.175C107.664 169.061 108.062 167.829 108.499 166.596L110.13 161.823H111.442L107.982 171.487H106.59L106.63 171.448Z" fill="black" stroke="#EE8E46"/>
<path d="M113.232 168.385L112.237 171.408H110.965L114.226 161.744H115.737L119.038 171.408H117.726L116.692 168.385H113.232ZM116.413 167.431L115.459 164.647C115.26 164.011 115.101 163.454 114.942 162.897C114.783 163.454 114.624 164.05 114.465 164.647L113.51 167.431H116.413Z" fill="black" stroke="#EE8E46"/>
<path d="M120.43 161.783H121.663V170.374H125.799V171.408H120.43V161.744V161.783Z" fill="black" stroke="#EE8E46"/>
<path d="M95.1347 70.0338C94.9756 68.6021 95.0154 67.051 95.2142 65.8181C95.4131 64.5853 96.2482 62.8752 96.805 61.2446C97.6402 58.7788 99.7878 55.0802 98.4356 52.4156C97.0834 49.751 96.9243 50.8646 95.8108 50.6657C94.6972 50.4669 91.436 51.0237 90.7202 50.1885C90.2827 49.7113 91.1577 49.1147 91.794 48.9954C94.4188 48.5579 97.9981 48.6375 100.305 47.2057C102.611 45.774 104.64 42.3538 106.588 40.2857C107.782 39.0131 109.333 37.6609 111.043 37.9393C111.321 39.4903 111.6 41.0414 111.918 42.5924C113.986 40.4448 116.332 38.1779 119.315 37.8995C119.792 37.8598 120.269 37.8995 120.627 38.1779C121.025 38.5359 121.105 39.1324 121.105 39.6494C121.144 42.7515 120.747 45.8536 119.872 48.7965C121.343 48.6375 122.815 48.5182 124.246 48.8761C125.678 49.234 127.03 50.2283 127.428 51.6202C127.428 51.7395 121.184 51.7395 120.906 52.0179C120.627 52.2963 120.508 54.4837 120.349 55.0405C120.031 56.1142 119.514 57.188 118.917 58.1425C118.082 59.4549 116.929 60.648 116.491 62.1593C115.934 64.0683 116.173 65.8977 115.497 67.8464C114.781 69.9542 113.946 71.9825 112.912 73.9313C112.037 75.5221 110.963 77.1526 109.293 77.8685C108.219 78.3457 107.026 78.3457 105.873 78.306C103.844 78.2264 101.816 77.8685 99.9866 76.9538C98.3561 76.1584 96.8846 74.8857 96.0494 73.2154C95.2142 71.545 95.4926 70.2326 93.4246 70.0338C88.6124 69.5963 83.4025 69.8349 78.6699 70.6701C77.6358 70.869 76.562 71.1076 75.8064 71.8234C75.0905 72.4995 74.7724 73.454 74.5338 74.4085C73.8974 76.9538 73.7781 79.5786 73.619 82.2034C73.1816 90.3961 72.585 98.549 71.8691 106.702" stroke="#EE8E46" stroke-miterlimit="10"/>
<path d="M113.072 73.1359C116.612 73.812 120.708 71.6644 123.651 73.6926C125.878 75.2039 126.236 78.306 126.316 81.0501C126.515 89.8393 125.799 98.6285 124.168 107.259" stroke="#EE8E46" stroke-miterlimit="10"/>
<path d="M105.158 64.6648C105.317 65.5795 106.033 66.2556 106.829 66.693C107.465 67.051 108.141 67.2498 108.857 67.3294C109.573 67.4089 110.448 67.3294 110.806 66.6533C111.044 66.2158 111.004 65.6988 110.925 65.2215C110.885 64.8238 110.845 64.3864 110.686 64.0284C110.567 63.7103 110.328 63.4319 110.209 63.1137C109.931 62.4774 109.891 61.7218 110.169 61.0854" stroke="#EE8E46" stroke-miterlimit="10"/>
<path d="M103.328 59.0177C103.845 58.3018 104.8 57.9041 105.675 58.0234C106.549 58.1427 107.345 58.779 107.663 59.6142" stroke="#EE8E46" stroke-miterlimit="10"/>
<path d="M111.68 60.0911C112.197 59.3753 113.151 58.9776 114.026 59.0969C114.901 59.2162 115.696 59.8525 116.015 60.6877" stroke="#EE8E46" stroke-miterlimit="10"/>
<path d="M97.3223 51.302L120.906 51.8986" stroke="#EE8E46" stroke-miterlimit="10"/>
<path d="M97.3223 48.1602L120.866 48.7567" stroke="#EE8E46" stroke-miterlimit="10"/>
<path d="M84.041 106.503L84.9557 85.7827" stroke="#EE8E46" stroke-miterlimit="10"/>
<path d="M114.584 106.901L115.22 84.4705" stroke="#EE8E46" stroke-miterlimit="10"/>
</svg>
