<svg width="303" height="236" viewBox="0 0 303 236" fill="none" xmlns="http://www.w3.org/2000/svg">
<path d="M4.98438 127.119H298.179" stroke="#EE8E46" stroke-width="2" stroke-miterlimit="10"/>
<path d="M1 234.216H301.884" stroke="#EE8E46" stroke-width="2" stroke-miterlimit="10"/>
<path d="M150.436 1V127.119" stroke="#EE8E46" stroke-width="2" stroke-miterlimit="10"/>
<path d="M87.1719 156.12V233.732" stroke="#EE8E46" stroke-width="2" stroke-miterlimit="10"/>
<path d="M114.57 155.226V234.222" stroke="#EE8E46" stroke-width="2" stroke-miterlimit="10"/>
<path d="M191.594 154.171V234.285" stroke="#EE8E46" stroke-width="2" stroke-miterlimit="10"/>
<path d="M218.029 155.826V234.469" stroke="#EE8E46" stroke-width="2" stroke-miterlimit="10"/>
<path d="M246.379 156.518V234.21" stroke="#EE8E46" stroke-width="2" stroke-miterlimit="10"/>
<path d="M269.01 152.972V233.991" stroke="#EE8E46" stroke-width="2" stroke-miterlimit="10"/>
<path d="M58.6602 157.261V234.031" stroke="#EE8E46" stroke-width="2" stroke-miterlimit="10"/>
<path d="M30.5488 154.88V234.21" stroke="#EE8E46" stroke-width="2" stroke-miterlimit="10"/>
<path d="M8.63132 152.961C12.0727 168.294 9.81879 184.279 7.30551 199.791C5.44361 211.291 3.44337 222.768 1.31055 234.222" stroke="#EE8E46" stroke-width="2" stroke-miterlimit="10"/>
<path d="M294.68 152.972C291.239 168.202 293.493 184.077 296.006 199.485C297.868 210.91 299.868 222.312 302.001 233.685" stroke="#EE8E46" stroke-width="2" stroke-miterlimit="10"/>
<path d="M118.928 233.962C124.041 228.094 126.813 220.572 129.206 213.147C135.725 192.92 140.21 172.024 142.567 150.892" stroke="#EE8E46" stroke-width="2" stroke-miterlimit="10"/>
<path d="M190.095 233.962C184.711 227.99 181.783 220.329 179.264 212.778C172.393 192.187 167.666 170.923 165.182 149.41" stroke="#EE8E46" stroke-width="2" stroke-miterlimit="10"/>
<path d="M150.436 29.7759C149.635 51.6345 141.34 72.3978 133.16 92.6366C128.318 104.621 123.378 116.778 115.516 126.987" stroke="#EE8E46" stroke-width="2" stroke-miterlimit="10"/>
<path d="M150.436 29.7759C151.237 51.6345 159.532 72.3978 167.711 92.6366C172.554 104.621 177.494 116.778 185.356 126.987" stroke="#EE8E46" stroke-width="2" stroke-miterlimit="10"/>
<path d="M150.437 29.7759C138.718 54.8856 119.419 75.2627 100.511 95.0864C89.3112 106.823 77.9265 118.715 64.3398 126.992" stroke="#EE8E46" stroke-width="2" stroke-miterlimit="10"/>
<path d="M150.437 25.5967C135.208 55.8597 102.062 76.6634 69.5283 96.8446C50.2579 108.794 30.6532 120.882 4.98438 127.125" stroke="#EE8E46" stroke-width="2" stroke-miterlimit="10"/>
<path d="M150.436 29.7759C162.155 54.8856 181.454 75.2627 200.361 95.0864C211.561 106.823 222.946 118.715 236.533 126.992" stroke="#EE8E46" stroke-width="2" stroke-miterlimit="10"/>
<path d="M150.436 25.5967C165.665 55.8597 198.81 76.6634 231.345 96.8446C250.615 108.794 270.22 120.882 295.888 127.125" stroke="#EE8E46" stroke-width="2" stroke-miterlimit="10"/>
<path d="M4.79802 126.946C2.81507 132.665 3.22434 138.902 3.66243 144.943C3.80078 146.851 3.95642 148.822 4.84414 150.523C5.73185 152.223 7.55916 153.578 9.45565 153.313C11.3521 153.047 12.7759 150.621 11.6634 149.064C19.5952 156.016 32.6227 156.178 40.7275 149.427C44.751 153.555 50.6538 155.105 56.251 156.483C58.3435 156.996 60.6146 157.503 62.6033 156.667C63.0241 156.489 63.4161 156.258 63.8139 156.022C67.2956 153.958 70.783 151.9 74.2647 149.837C78.0923 153.918 83.678 156.293 89.2694 156.212C94.8609 156.131 100.377 153.601 104.09 149.41C108.799 153.849 115.319 156.304 121.781 156.08C128.242 155.855 134.578 152.955 138.97 148.205" stroke="#EE8E46" stroke-width="2" stroke-miterlimit="10"/>
<path d="M298.178 126.992C300.161 132.711 299.752 138.948 299.313 144.989C299.175 146.897 299.019 148.868 298.132 150.569C297.244 152.269 295.417 153.624 293.52 153.359C291.624 153.094 290.2 150.667 291.312 149.11C283.381 156.062 270.353 156.224 262.248 149.474C258.225 153.601 252.322 155.151 246.725 156.529C244.632 157.042 242.361 157.549 240.373 156.714C239.952 156.535 239.56 156.304 239.162 156.068C235.68 154.004 232.193 151.946 228.711 149.883C224.884 153.964 219.298 156.339 213.706 156.258C208.115 156.178 202.598 153.647 198.886 149.456C194.177 153.895 187.657 156.35 181.195 156.126C174.733 155.901 168.398 153.001 164.006 148.252" stroke="#EE8E46" stroke-width="2" stroke-miterlimit="10"/>
<path d="M138.609 148.252C142.616 151.139 146.956 153.785 151.712 154.298C156.467 154.811 161.725 152.713 164.013 148.061" stroke="#EE8E46" stroke-width="2" stroke-miterlimit="10"/>
<path d="M150.356 1.04614C155.095 1.0692 159.81 1.58224 164.519 2.09527C174.889 3.21932 185.265 4.34915 195.636 5.47321C200.697 6.02083 205.735 6.80478 210.727 7.81355C207.966 9.74462 204.663 10.8917 201.296 11.0704C200.391 11.1165 199.48 11.0992 198.575 11.1396C195.976 11.2607 193.428 11.8832 190.88 12.3962C184.47 13.6817 177.945 14.2754 171.431 14.8692C168.554 15.1286 165.678 15.3937 162.79 15.3246C160.415 15.2727 157.931 15.019 155.752 15.9586C153.901 16.7599 152.091 18.4258 150.166 17.8148" stroke="#EE8E46" stroke-width="2" stroke-miterlimit="10"/>
</svg>
