<svg width="183" height="199" viewBox="0 0 183 199" fill="none" xmlns="http://www.w3.org/2000/svg">
<path d="M60.3897 69.9295C53.2297 78.5895 48.0997 86.9496 47.5897 97.9696C47.1697 106.94 48.3697 115.51 49.4997 124.67C50.2697 130.16 51.2997 135.66 53.0897 140.9C57.9997 154.76 68.0497 166.8 78.6397 176.92C85.9697 183.85 96.4797 187.17 107.06 189.84C114.93 191.89 124.06 194.3 131.64 196.17C140.51 198.43 150.75 200.36 157.57 192.81C162.05 188.4 166.82 180.65 170.79 174.05C177.51 163.29 181.73 151.37 181.87 138.54C182.19 130.24 181.66 120.77 180.94 111.97C180.08 100.82 178.44 90.4195 173.48 80.6195C168.75 70.5795 162.42 62.0995 153.08 55.6195C145.46 50.1795 137.09 45.5596 128.09 43.2796C114.58 39.7196 100.6 42.1596 88.2097 48.8196C77.6197 53.8296 67.6697 60.6995 60.5197 69.7695L60.3897 69.9196V69.9295Z" stroke="#EE8E46" stroke-miterlimit="10"/>
<path d="M88.1794 47.3298C87.2294 46.4598 86.7794 44.2599 86.4994 41.1199C86.1794 37.2699 85.9794 32.2499 85.8594 28.1999C85.6494 20.4299 86.0494 15.1599 94.7394 11.9999C101.609 9.27986 109.349 6.62986 116.209 4.12986C123.529 1.27986 129.719 0.339861 137.359 0.689861C145.559 0.819861 158.909 1.06985 167.949 1.23985C171.329 1.47985 175.779 0.969859 178.009 3.74986C180.789 9.14986 176.069 16.6898 170.469 18.3298C168.169 19.0498 165.609 19.1899 163.139 19.2499C153.819 19.4999 142.919 18.8399 133.879 19.6999C128.629 20.2799 124.569 23.3799 120.369 26.4099C113.179 31.6599 101.739 40.1899 95.1494 44.9299C91.7194 47.3399 89.4894 48.5099 88.2294 47.3899L88.1694 47.3399L88.1794 47.3298Z" stroke="#EE8E46" stroke-miterlimit="10"/>
<path d="M83.1406 53.1503C82.7906 51.9103 83.5606 49.8003 84.9606 46.9803C86.7006 43.5403 89.1606 39.1503 91.1806 35.6303C95.0606 28.9003 98.1706 24.6203 107.231 26.4803C114.511 27.7603 122.481 29.5503 129.641 31.0203C137.371 32.4303 143.141 34.8703 149.461 39.1603C156.381 43.5703 167.631 50.7603 175.241 55.6403C177.991 57.6103 182.051 59.5103 182.501 63.0503C182.051 69.1103 174.071 73.0603 168.451 71.5203C166.111 70.9303 163.861 69.7103 161.721 68.4603C153.651 63.8003 144.701 57.5303 136.551 53.5203C131.771 51.2703 126.691 51.7803 121.521 52.1703C112.651 52.8803 98.4306 54.1503 90.3406 54.7403C86.1506 55.0003 83.6406 54.8303 83.1606 53.2103L83.1406 53.1303V53.1503Z" stroke="#EE8E46" stroke-miterlimit="10"/>
<path d="M92.5492 46.2702C92.3292 44.9402 90.6492 43.1702 88.0292 40.9202C84.7992 38.1902 80.4692 34.8002 76.9392 32.1002C70.1792 26.9402 65.2592 23.8702 57.3591 28.8902C50.9191 32.7102 44.0292 37.2702 37.7892 41.2302C30.9692 45.3302 26.4992 49.7402 22.3292 56.1602C17.6392 62.8902 10.0192 73.8602 4.86916 81.2902C3.09916 84.1802 0.0391782 87.4602 1.19918 91.0502C4.35918 96.7702 13.8192 97.7902 18.5492 94.3102C20.5392 92.9102 22.1592 90.9202 23.6692 88.9602C29.3592 81.5702 35.1692 72.3202 41.2292 65.5502C44.8292 61.6702 49.9591 60.3702 55.1091 58.9202C63.9791 56.4702 78.2592 52.6802 86.3292 50.3902C90.4792 49.1602 92.8192 48.1102 92.5592 46.3602V46.2802L92.5492 46.2702Z" stroke="#EE8E46" stroke-miterlimit="10"/>
<path d="M96.3403 48.36C95.1703 47.79 92.9004 48.17 89.7904 49.05C85.9904 50.15 81.0904 51.79 77.1704 53.16C69.6404 55.79 64.7303 58.08 64.7803 67.36C64.6103 74.77 64.8203 82.97 64.8603 90.3C64.7303 98.18 66.0204 104.31 69.0704 111.33C72.1104 118.95 77.0804 131.34 80.4504 139.73C81.8804 142.8 82.9703 147.15 86.4303 148.22C92.5903 148.86 98.1604 141.7 97.7304 135.87C97.6104 133.46 96.8304 131.02 96.0104 128.68C92.9504 119.88 88.4403 109.92 86.0603 101.16C84.7603 96.04 86.2903 91.11 87.7103 86.09C90.1903 77.46 94.3103 63.65 96.5203 55.77C97.6103 51.68 97.9504 49.18 96.4204 48.41L96.3504 48.37L96.3403 48.36Z" stroke="#EE8E46" stroke-miterlimit="10"/>
<mask id="path-6-inside-1_459_24453" fill="white">
<path d="M105.721 91.3004C106.791 93.0704 108.091 94.7004 109.521 96.1904C109.961 96.6504 110.411 97.0904 110.871 97.5304C111.221 97.8604 111.751 97.3304 111.401 97.0004C109.881 95.5704 108.461 94.0104 107.261 92.3004C106.951 91.8504 106.651 91.3904 106.361 90.9204C106.111 90.5104 105.461 90.8804 105.711 91.3004H105.721Z"/>
</mask>
<path d="M105.721 91.3004C106.791 93.0704 108.091 94.7004 109.521 96.1904C109.961 96.6504 110.411 97.0904 110.871 97.5304C111.221 97.8604 111.751 97.3304 111.401 97.0004C109.881 95.5704 108.461 94.0104 107.261 92.3004C106.951 91.8504 106.651 91.3904 106.361 90.9204C106.111 90.5104 105.461 90.8804 105.711 91.3004H105.721Z" fill="black"/>
<path d="M105.721 91.3004L106.576 90.783L106.285 90.3004H105.721V91.3004ZM109.521 96.1904L110.243 95.4991L110.242 95.4979L109.521 96.1904ZM110.871 97.5304L110.179 98.253L110.185 98.258L110.871 97.5304ZM111.401 97.0004L112.087 96.2728L112.086 96.272L111.401 97.0004ZM107.261 92.3004L106.437 92.8677L106.442 92.8748L107.261 92.3004ZM106.361 90.9204L105.507 91.441L105.509 91.4455L106.361 90.9204ZM105.711 91.3004L104.851 91.8118L105.142 92.3004H105.711V91.3004ZM105.721 91.3004L104.865 91.8177C105.979 93.6613 107.327 95.3492 108.799 96.8828L109.521 96.1904L110.242 95.4979C108.854 94.0516 107.602 92.4794 106.576 90.783L105.721 91.3004ZM109.521 96.1904L108.798 96.8816C109.253 97.357 109.715 97.8086 110.179 98.253L110.871 97.5304L111.562 96.8077C111.106 96.3722 110.668 95.9437 110.243 95.4991L109.521 96.1904ZM110.871 97.5304L110.185 98.258C110.479 98.5352 110.859 98.6635 111.24 98.6291C111.596 98.597 111.895 98.43 112.105 98.22C112.314 98.0106 112.488 97.7045 112.512 97.334C112.539 96.9331 112.382 96.5511 112.087 96.2728L111.401 97.0004L110.715 97.728C110.594 97.6146 110.502 97.4227 110.517 97.2037C110.529 97.015 110.614 96.8826 110.691 96.8058C110.768 96.7282 110.892 96.6525 111.06 96.6372C111.254 96.6197 111.437 96.6905 111.557 96.8028L110.871 97.5304ZM111.401 97.0004L112.086 96.272C110.603 94.8766 109.231 93.3675 108.079 91.7259L107.261 92.3004L106.442 92.8748C107.69 94.6532 109.159 96.2641 110.715 97.7287L111.401 97.0004ZM107.261 92.3004L108.084 91.7331C107.784 91.297 107.493 90.8511 107.212 90.3953L106.361 90.9204L105.509 91.4455C105.808 91.9297 106.117 92.4037 106.437 92.8677L107.261 92.3004ZM106.361 90.9204L107.214 90.3998C107.004 90.0551 106.671 89.8304 106.294 89.7632C105.941 89.7005 105.607 89.7836 105.348 89.9329C105.09 90.082 104.844 90.3337 104.725 90.6843C104.596 91.0616 104.646 91.4671 104.851 91.8118L105.711 91.3004L106.57 90.7889C106.65 90.9236 106.687 91.1253 106.618 91.328C106.558 91.5039 106.444 91.61 106.348 91.6653C106.251 91.7209 106.111 91.7622 105.943 91.7322C105.75 91.6979 105.592 91.5806 105.507 91.441L106.361 90.9204ZM105.711 91.3004V92.3004H105.721V91.3004V90.3004H105.711V91.3004Z" fill="#EE8E46" mask="url(#path-6-inside-1_459_24453)"/>
<path d="M130.791 74.7002L130.931 74.9004L130.949 74.9307C131.005 74.8761 131.059 74.7948 131.099 74.7197C131.063 74.668 131.027 74.6172 130.99 74.5664L130.791 74.7002ZM130.791 74.7002L130.985 74.5596C130.95 74.5109 130.917 74.4609 130.88 74.4131L130.682 74.5615C130.696 74.5802 130.713 74.6024 130.721 74.6104L130.791 74.7002ZM129.4 72.9395C129.495 73.0137 129.588 73.0886 129.68 73.166C129.669 73.2417 129.643 73.3311 129.573 73.4131L129.421 73.2803L129.221 73.1201L129.4 72.9395Z" fill="black" stroke="#EE8E46"/>
<mask id="path-9-inside-2_459_24453" fill="white">
<path d="M150.74 120.52C150.97 121.97 151.01 123.52 150.86 125.01C150.84 125.21 151.05 125.39 151.24 125.39C151.46 125.39 151.59 125.22 151.62 125.01C151.77 123.45 151.71 121.87 151.47 120.32C151.44 120.13 151.19 120 151.01 120.06C150.8 120.13 150.72 120.31 150.75 120.52H150.74Z"/>
</mask>
<path d="M150.74 120.52C150.97 121.97 151.01 123.52 150.86 125.01C150.84 125.21 151.05 125.39 151.24 125.39C151.46 125.39 151.59 125.22 151.62 125.01C151.77 123.45 151.71 121.87 151.47 120.32C151.44 120.13 151.19 120 151.01 120.06C150.8 120.13 150.72 120.31 150.75 120.52H150.74Z" fill="black"/>
<path d="M150.74 120.52V119.52H149.569L149.753 120.676L150.74 120.52ZM150.86 125.01L149.865 124.91L149.865 124.91L150.86 125.01ZM151.62 125.01L152.61 125.151L152.613 125.128L152.616 125.105L151.62 125.01ZM151.47 120.32L152.458 120.167L152.458 120.164L151.47 120.32ZM151.01 120.06L150.694 119.111L151.01 120.06ZM150.75 120.52V121.52H151.903L151.74 120.378L150.75 120.52ZM150.74 120.52L149.753 120.676C149.969 122.039 150.007 123.502 149.865 124.91L150.86 125.01L151.855 125.11C152.014 123.537 151.972 121.901 151.728 120.363L150.74 120.52ZM150.86 125.01L149.865 124.91C149.816 125.4 150.053 125.782 150.283 126C150.511 126.216 150.848 126.39 151.24 126.39V125.39V124.39C151.443 124.39 151.58 124.474 151.66 124.549C151.743 124.628 151.884 124.819 151.855 125.109L150.86 125.01ZM151.24 125.39V126.39C151.634 126.39 151.985 126.227 152.235 125.958C152.467 125.708 152.573 125.409 152.61 125.151L151.62 125.01L150.63 124.868C150.637 124.82 150.664 124.711 150.768 124.599C150.89 124.467 151.067 124.39 151.24 124.39V125.39ZM151.62 125.01L152.616 125.105C152.774 123.456 152.71 121.793 152.458 120.167L151.47 120.32L150.482 120.473C150.71 121.947 150.766 123.443 150.625 124.914L151.62 125.01ZM151.47 120.32L152.458 120.164C152.381 119.676 152.05 119.369 151.778 119.219C151.506 119.07 151.108 118.973 150.694 119.111L151.01 120.06L151.326 121.008C151.093 121.086 150.91 121.024 150.815 120.972C150.721 120.921 150.53 120.774 150.482 120.476L151.47 120.32ZM151.01 120.06L150.694 119.111C150.366 119.22 150.08 119.443 149.907 119.768C149.743 120.077 149.723 120.399 149.76 120.661L150.75 120.52L151.74 120.378C151.748 120.43 151.753 120.557 151.673 120.706C151.586 120.872 151.444 120.969 151.326 121.008L151.01 120.06ZM150.75 120.52V119.52H150.74V120.52V121.52H150.75V120.52Z" fill="#EE8E46" mask="url(#path-9-inside-2_459_24453)"/>
<mask id="path-11-inside-3_459_24453" fill="white">
<path d="M115.081 145.65C114.891 147.86 115.321 150.17 116.371 152.13C116.651 152.65 116.981 153.14 117.351 153.6C117.481 153.76 117.751 153.73 117.881 153.6C118.041 153.44 118.011 153.23 117.881 153.07C116.231 151.04 115.611 148.22 115.831 145.65C115.851 145.45 115.651 145.27 115.451 145.27C115.231 145.27 115.091 145.44 115.071 145.65H115.081Z"/>
</mask>
<path d="M115.081 145.65C114.891 147.86 115.321 150.17 116.371 152.13C116.651 152.65 116.981 153.14 117.351 153.6C117.481 153.76 117.751 153.73 117.881 153.6C118.041 153.44 118.011 153.23 117.881 153.07C116.231 151.04 115.611 148.22 115.831 145.65C115.851 145.45 115.651 145.27 115.451 145.27C115.231 145.27 115.091 145.44 115.071 145.65H115.081Z" fill="black"/>
<path d="M115.081 145.65L116.077 145.735L116.17 144.65H115.081V145.65ZM116.371 152.13L115.489 152.602L115.49 152.604L116.371 152.13ZM117.351 153.6L116.572 154.226L116.575 154.23L117.351 153.6ZM117.881 153.07L118.657 152.439L118.657 152.439L117.881 153.07ZM115.831 145.65L114.836 145.55L114.835 145.557L114.834 145.564L115.831 145.65ZM115.071 145.65L114.075 145.555L113.971 146.65H115.071V145.65ZM115.081 145.65L114.084 145.564C113.879 147.953 114.341 150.459 115.489 152.602L116.371 152.13L117.252 151.657C116.3 149.88 115.903 147.766 116.077 145.735L115.081 145.65ZM116.371 152.13L115.49 152.604C115.802 153.182 116.166 153.722 116.572 154.226L117.351 153.6L118.13 152.973C117.795 152.557 117.5 152.117 117.251 151.655L116.371 152.13ZM117.351 153.6L116.575 154.23C116.888 154.615 117.328 154.72 117.653 154.708C117.969 154.696 118.321 154.574 118.588 154.307L117.881 153.6L117.174 152.892C117.311 152.755 117.462 152.713 117.578 152.709C117.704 152.704 117.944 152.744 118.127 152.969L117.351 153.6ZM117.881 153.6L118.588 154.307C118.861 154.033 119.004 153.671 118.989 153.294C118.974 152.942 118.827 152.649 118.657 152.439L117.881 153.07L117.105 153.7C117.064 153.65 116.997 153.542 116.99 153.375C116.983 153.183 117.06 153.006 117.174 152.892L117.881 153.6ZM117.881 153.07L118.657 152.439C117.208 150.656 116.624 148.112 116.827 145.735L115.831 145.65L114.834 145.564C114.598 148.327 115.254 151.423 117.105 153.7L117.881 153.07ZM115.831 145.65L116.826 145.749C116.873 145.276 116.656 144.895 116.418 144.665C116.182 144.437 115.84 144.27 115.451 144.27V145.27V146.27C115.261 146.27 115.119 146.192 115.029 146.104C114.936 146.014 114.808 145.823 114.836 145.55L115.831 145.65ZM115.451 145.27V144.27C114.585 144.27 114.131 144.972 114.075 145.555L115.071 145.65L116.066 145.744C116.058 145.827 116.022 145.952 115.912 146.068C115.791 146.197 115.619 146.27 115.451 146.27V145.27ZM115.071 145.65V146.65H115.081V145.65V144.65H115.071V145.65Z" fill="#EE8E46" mask="url(#path-11-inside-3_459_24453)"/>
<mask id="path-13-inside-4_459_24453" fill="white">
<path d="M95.0595 165.34C94.7995 167.13 94.9795 168.97 95.6395 170.66C95.7095 170.85 95.8895 170.98 96.0995 170.92C96.2795 170.87 96.4395 170.65 96.3595 170.46C95.7495 168.89 95.5395 167.18 95.7795 165.54C95.8095 165.34 95.7295 165.14 95.5195 165.08C95.3395 165.03 95.0895 165.14 95.0595 165.34Z"/>
</mask>
<path d="M95.0595 165.34C94.7995 167.13 94.9795 168.97 95.6395 170.66C95.7095 170.85 95.8895 170.98 96.0995 170.92C96.2795 170.87 96.4395 170.65 96.3595 170.46C95.7495 168.89 95.5395 167.18 95.7795 165.54C95.8095 165.34 95.7295 165.14 95.5195 165.08C95.3395 165.03 95.0895 165.14 95.0595 165.34Z" fill="black"/>
<path d="M95.0595 165.34L94.0706 165.192L94.0699 165.197L95.0595 165.34ZM95.6395 170.66L96.5779 170.315L96.5745 170.306L96.571 170.297L95.6395 170.66ZM96.0995 170.92L95.8319 169.957L95.8248 169.959L96.0995 170.92ZM96.3595 170.46L95.4274 170.823L95.4325 170.836L95.4379 170.848L96.3595 170.46ZM95.7795 165.54L94.7906 165.392L94.7901 165.396L95.7795 165.54ZM95.5195 165.08L95.7942 164.119L95.7872 164.117L95.5195 165.08ZM95.0595 165.34L94.0699 165.197C93.7867 167.146 93.981 169.162 94.7081 171.024L95.6395 170.66L96.571 170.297C95.9781 168.778 95.8124 167.114 96.0491 165.484L95.0595 165.34ZM95.6395 170.66L94.7012 171.006C94.9014 171.549 95.5312 172.123 96.3743 171.882L96.0995 170.92L95.8248 169.959C95.9966 169.91 96.1866 169.938 96.3374 170.03C96.473 170.113 96.5447 170.225 96.5779 170.315L95.6395 170.66ZM96.0995 170.92L96.3672 171.884C96.7275 171.784 97.009 171.542 97.1778 171.268C97.3519 170.987 97.4785 170.541 97.2811 170.072L96.3595 170.46L95.4379 170.848C95.3205 170.57 95.4071 170.329 95.4762 170.217C95.5401 170.114 95.6516 170.007 95.8319 169.957L96.0995 170.92ZM96.3595 170.46L97.2916 170.098C96.7412 168.682 96.5552 167.146 96.769 165.685L95.7795 165.54L94.7901 165.396C94.5239 167.215 94.7578 169.099 95.4274 170.823L96.3595 170.46ZM95.7795 165.54L96.7685 165.689C96.8464 165.169 96.642 164.361 95.7942 164.119L95.5195 165.08L95.2448 166.042C95.0767 165.994 94.9309 165.872 94.8506 165.716C94.7803 165.58 94.7803 165.461 94.7906 165.392L95.7795 165.54ZM95.5195 165.08L95.7872 164.117C95.4199 164.015 95.0522 164.083 94.7711 164.23C94.484 164.379 94.1457 164.692 94.0706 165.192L95.0595 165.34L96.0485 165.489C96.0034 165.789 95.8051 165.946 95.6954 166.003C95.5918 166.057 95.4391 166.096 95.2519 166.044L95.5195 165.08Z" fill="#EE8E46" mask="url(#path-13-inside-4_459_24453)"/>
<mask id="path-15-inside-5_459_24453" fill="white">
<path d="M131.539 177.01C131.819 178.88 131.869 180.79 131.709 182.67C131.689 182.87 131.889 183.05 132.089 183.05C132.309 183.05 132.449 182.88 132.469 182.67C132.639 180.71 132.569 178.75 132.269 176.81C132.239 176.61 131.989 176.5 131.809 176.55C131.599 176.61 131.519 176.81 131.549 177.01H131.539Z"/>
</mask>
<path d="M131.539 177.01C131.819 178.88 131.869 180.79 131.709 182.67C131.689 182.87 131.889 183.05 132.089 183.05C132.309 183.05 132.449 182.88 132.469 182.67C132.639 180.71 132.569 178.75 132.269 176.81C132.239 176.61 131.989 176.5 131.809 176.55C131.599 176.61 131.519 176.81 131.549 177.01H131.539Z" fill="black"/>
<path d="M131.539 177.01V176.01H130.378L130.55 177.158L131.539 177.01ZM131.709 182.67L132.704 182.77L132.705 182.762L132.705 182.755L131.709 182.67ZM132.469 182.67L133.465 182.765L133.465 182.756L132.469 182.67ZM132.269 176.81L131.28 176.958L131.281 176.963L132.269 176.81ZM131.809 176.55L131.541 175.587L131.534 175.589L131.809 176.55ZM131.549 177.01V178.01H132.71L132.538 176.862L131.549 177.01ZM131.539 177.01L130.55 177.158C130.818 178.947 130.866 180.779 130.713 182.585L131.709 182.67L132.705 182.755C132.872 180.801 132.82 178.813 132.528 176.862L131.539 177.01ZM131.709 182.67L130.714 182.571C130.667 183.044 130.884 183.425 131.122 183.654C131.358 183.882 131.699 184.05 132.089 184.05V183.05V182.05C132.279 182.05 132.42 182.128 132.511 182.216C132.604 182.305 132.731 182.496 132.704 182.77L131.709 182.67ZM132.089 183.05V184.05C132.955 184.05 133.409 183.347 133.465 182.765L132.469 182.67L131.474 182.575C131.481 182.492 131.517 182.368 131.627 182.252C131.749 182.123 131.921 182.05 132.089 182.05V183.05ZM132.469 182.67L133.465 182.756C133.642 180.715 133.569 178.675 133.257 176.657L132.269 176.81L131.281 176.963C131.569 178.825 131.636 180.705 131.473 182.584L132.469 182.67ZM132.269 176.81L133.258 176.662C133.183 176.161 132.845 175.849 132.557 175.7C132.276 175.553 131.909 175.485 131.541 175.587L131.809 176.55L132.077 177.514C131.889 177.566 131.737 177.527 131.633 177.473C131.524 177.416 131.325 177.259 131.28 176.958L132.269 176.81ZM131.809 176.55L131.534 175.589C130.686 175.831 130.482 176.639 130.56 177.158L131.549 177.01L132.538 176.862C132.548 176.93 132.548 177.049 132.478 177.186C132.398 177.341 132.252 177.464 132.084 177.512L131.809 176.55ZM131.549 177.01V176.01H131.539V177.01V178.01H131.549V177.01Z" fill="#EE8E46" mask="url(#path-15-inside-5_459_24453)"/>
<path d="M157.569 166.02L157.69 166.375C157.697 166.373 157.704 166.373 157.71 166.37C157.792 166.337 157.852 166.287 157.896 166.236C157.864 166.139 157.829 166.042 157.791 165.945L157.569 166.02ZM157.569 166.02L157.789 165.94V165.939H157.539M157.569 166.02L157.539 165.939M157.539 165.939L157.753 165.854C157.755 165.858 157.756 165.862 157.758 165.866L157.539 165.939Z" fill="black" stroke="#EE8E46"/>
<mask id="path-18-inside-6_459_24453" fill="white">
<path d="M165.891 142.35V145.65C165.891 145.85 166.061 146.03 166.271 146.03C166.481 146.03 166.651 145.87 166.651 145.65V142.35C166.651 142.15 166.481 141.97 166.271 141.97C166.061 141.97 165.891 142.13 165.891 142.35Z"/>
</mask>
<path d="M165.891 142.35V145.65C165.891 145.85 166.061 146.03 166.271 146.03C166.481 146.03 166.651 145.87 166.651 145.65V142.35C166.651 142.15 166.481 141.97 166.271 141.97C166.061 141.97 165.891 142.13 165.891 142.35Z" fill="black"/>
<path d="M165.891 142.35H164.891V145.65H165.891H166.891V142.35H165.891ZM165.891 145.65H164.891C164.891 146.385 165.491 147.03 166.271 147.03V146.03V145.03C166.63 145.03 166.891 145.315 166.891 145.65H165.891ZM166.271 146.03V147.03C167.016 147.03 167.651 146.439 167.651 145.65H166.651H165.651C165.651 145.3 165.946 145.03 166.271 145.03V146.03ZM166.651 145.65H167.651V142.35H166.651H165.651V145.65H166.651ZM166.651 142.35H167.651C167.651 141.615 167.05 140.97 166.271 140.97V141.97V142.97C165.911 142.97 165.651 142.685 165.651 142.35H166.651ZM166.271 141.97V140.97C165.526 140.97 164.891 141.56 164.891 142.35H165.891H166.891C166.891 142.699 166.596 142.97 166.271 142.97V141.97Z" fill="#EE8E46" mask="url(#path-18-inside-6_459_24453)"/>
<path d="M157.59 91.54L157.65 91.7002L157.742 91.9531C157.797 91.9334 157.85 91.9045 157.896 91.8652C157.917 91.8478 157.935 91.8295 157.95 91.8115C157.918 91.7205 157.885 91.6299 157.85 91.54H157.59ZM157.59 91.54L157.814 91.4492C157.811 91.4403 157.806 91.4317 157.803 91.4229L157.585 91.5205C157.588 91.5295 157.59 91.5372 157.59 91.54ZM155.301 88.5098L155.544 88.7109C155.575 88.738 155.606 88.7664 155.637 88.7939C155.703 88.7176 155.735 88.6348 155.747 88.5596C155.699 88.5184 155.652 88.4764 155.604 88.4365L155.603 88.4355L155.475 88.335L155.301 88.5098ZM155.301 88.5098C155.3 88.5087 155.298 88.5068 155.296 88.5049L155.387 88.4004L155.301 88.5098ZM158.052 91.3369C158.052 91.3381 158.053 91.3413 158.054 91.3447C158.053 91.3428 158.052 91.3412 158.052 91.3398C158.051 91.3374 158.051 91.3356 158.051 91.335L158.052 91.3369ZM156.424 89.3281C156.425 89.3276 156.427 89.3267 156.429 89.3262C156.43 89.3257 156.431 89.3247 156.433 89.3242C156.43 89.3252 156.427 89.3271 156.424 89.3281Z" fill="black" stroke="#EE8E46"/>
<path d="M133.786 106.337L133.671 106.357V106.356L133.786 106.336V106.337Z" fill="black" stroke="#EE8E46"/>
<mask id="path-22-inside-7_459_24453" fill="white">
<path d="M126.949 128.41V135.43C126.949 135.91 127.699 135.91 127.699 135.43V128.41C127.699 127.93 126.949 127.93 126.949 128.41Z"/>
</mask>
<path d="M126.949 128.41V135.43C126.949 135.91 127.699 135.91 127.699 135.43V128.41C127.699 127.93 126.949 127.93 126.949 128.41Z" fill="black"/>
<path d="M126.949 128.41H125.949V135.43H126.949H127.949V128.41H126.949ZM126.949 135.43H125.949C125.949 135.836 126.119 136.206 126.417 136.46C126.694 136.697 127.028 136.79 127.324 136.79C127.62 136.79 127.954 136.697 128.231 136.46C128.529 136.206 128.699 135.836 128.699 135.43H127.699H126.699C126.699 135.264 126.775 135.073 126.933 134.939C127.069 134.823 127.216 134.79 127.324 134.79C127.433 134.79 127.579 134.823 127.716 134.939C127.873 135.073 127.949 135.264 127.949 135.43H126.949ZM127.699 135.43H128.699V128.41H127.699H126.699V135.43H127.699ZM127.699 128.41H128.699C128.699 128.004 128.529 127.633 128.231 127.379C127.954 127.143 127.62 127.05 127.324 127.05C127.028 127.05 126.694 127.143 126.417 127.379C126.119 127.633 125.949 128.004 125.949 128.41H126.949H127.949C127.949 128.576 127.873 128.766 127.716 128.9C127.579 129.017 127.433 129.05 127.324 129.05C127.216 129.05 127.069 129.017 126.933 128.9C126.775 128.766 126.699 128.576 126.699 128.41H127.699Z" fill="#EE8E46" mask="url(#path-22-inside-7_459_24453)"/>
<mask id="path-24-inside-8_459_24453" fill="white">
<path d="M103.01 121.39V125.22C103.01 125.42 103.18 125.6 103.39 125.6C103.6 125.6 103.77 125.44 103.77 125.22V121.39C103.77 121.19 103.6 121.01 103.39 121.01C103.18 121.01 103.01 121.17 103.01 121.39Z"/>
</mask>
<path d="M103.01 121.39V125.22C103.01 125.42 103.18 125.6 103.39 125.6C103.6 125.6 103.77 125.44 103.77 125.22V121.39C103.77 121.19 103.6 121.01 103.39 121.01C103.18 121.01 103.01 121.17 103.01 121.39Z" fill="black"/>
<path d="M103.01 121.39H102.01V125.22H103.01H104.01V121.39H103.01ZM103.01 125.22H102.01C102.01 125.955 102.611 126.6 103.39 126.6V125.6V124.6C103.749 124.6 104.01 124.885 104.01 125.22H103.01ZM103.39 125.6V126.6C104.135 126.6 104.77 126.009 104.77 125.22H103.77H102.77C102.77 124.87 103.065 124.6 103.39 124.6V125.6ZM103.77 125.22H104.77V121.39H103.77H102.77V125.22H103.77ZM103.77 121.39H104.77C104.77 120.655 104.169 120.01 103.39 120.01V121.01V122.01C103.03 122.01 102.77 121.725 102.77 121.39H103.77ZM103.39 121.01V120.01C102.645 120.01 102.01 120.6 102.01 121.39H103.01H104.01C104.01 121.739 103.715 122.01 103.39 122.01V121.01Z" fill="#EE8E46" mask="url(#path-24-inside-8_459_24453)"/>
<mask id="path-26-inside-9_459_24453" fill="white">
<path d="M68.8301 140.86C68.7201 145.42 70.1501 149.98 72.8601 153.64C73.1401 154.02 73.8001 153.65 73.5101 153.26C70.8701 149.69 69.4701 145.3 69.5801 140.86C69.5901 140.38 68.8401 140.38 68.8301 140.86Z"/>
</mask>
<path d="M68.8301 140.86C68.7201 145.42 70.1501 149.98 72.8601 153.64C73.1401 154.02 73.8001 153.65 73.5101 153.26C70.8701 149.69 69.4701 145.3 69.5801 140.86C69.5901 140.38 68.8401 140.38 68.8301 140.86Z" fill="black"/>
<path d="M68.8301 140.86L69.8298 140.884L69.8299 140.881L68.8301 140.86ZM72.8601 153.64L73.6652 153.047L73.6638 153.045L72.8601 153.64ZM73.5101 153.26L72.7061 153.855L72.7077 153.857L73.5101 153.26ZM69.5801 140.86L70.5798 140.885L70.5799 140.881L69.5801 140.86ZM68.8301 140.86L67.8304 140.836C67.7151 145.616 69.2127 150.394 72.0564 154.235L72.8601 153.64L73.6638 153.045C71.0875 149.566 69.7251 145.224 69.8298 140.884L68.8301 140.86ZM72.8601 153.64L72.0551 154.233C72.5751 154.939 73.4169 154.881 73.8957 154.607C74.1469 154.463 74.4114 154.208 74.5269 153.829C74.6542 153.411 74.5547 152.989 74.3126 152.663L73.5101 153.26L72.7077 153.857C72.6106 153.726 72.5373 153.497 72.6137 153.246C72.6782 153.034 72.8146 152.921 72.902 152.871C72.9934 152.819 73.1122 152.786 73.2503 152.804C73.4081 152.825 73.5647 152.91 73.6652 153.047L72.8601 153.64ZM73.5101 153.26L74.3142 152.665C71.8053 149.273 70.4754 145.1 70.5798 140.885L69.5801 140.86L68.5804 140.835C68.4649 145.5 69.935 150.107 72.7061 153.855L73.5101 153.26ZM69.5801 140.86L70.5799 140.881C70.5884 140.475 70.4254 140.097 70.1244 139.835C69.8459 139.593 69.5083 139.5 69.2126 139.5C68.9162 139.5 68.5854 139.593 68.3105 139.824C68.0154 140.071 67.8388 140.434 67.8303 140.839L68.8301 140.86L69.8299 140.881C69.8265 141.046 69.7474 141.229 69.5954 141.356C69.4636 141.467 69.3215 141.5 69.2126 141.5C69.1045 141.5 68.9531 141.467 68.8127 141.345C68.6498 141.203 68.5769 141.005 68.5803 140.839L69.5801 140.86Z" fill="#EE8E46" mask="url(#path-26-inside-9_459_24453)"/>
<mask id="path-28-inside-10_459_24453" fill="white">
<path d="M58.1606 98.9702C57.3706 103.22 57.7906 107.66 59.4106 111.68C59.5906 112.12 60.3106 111.93 60.1306 111.48C58.5606 107.59 58.1106 103.3 58.8806 99.1702C58.9706 98.7002 58.2506 98.5002 58.1606 98.9702Z"/>
</mask>
<path d="M58.1606 98.9702C57.3706 103.22 57.7906 107.66 59.4106 111.68C59.5906 112.12 60.3106 111.93 60.1306 111.48C58.5606 107.59 58.1106 103.3 58.8806 99.1702C58.9706 98.7002 58.2506 98.5002 58.1606 98.9702Z" fill="black"/>
<path d="M58.1606 98.9702L57.1785 98.7821L57.1775 98.7874L58.1606 98.9702ZM59.4106 111.68L58.4831 112.054L58.4851 112.059L59.4106 111.68ZM60.1306 111.48L61.0591 111.109L61.0579 111.106L60.1306 111.48ZM58.8806 99.1702L57.8985 98.9821L57.8976 98.9869L58.8806 99.1702ZM58.1606 98.9702L57.1775 98.7874C56.3534 103.221 56.7907 107.854 58.4831 112.054L59.4106 111.68L60.3381 111.306C58.7906 107.466 58.3879 103.219 59.1438 99.1529L58.1606 98.9702ZM59.4106 111.68L58.4851 112.059C58.8105 112.854 59.6224 113.027 60.167 112.879C60.449 112.803 60.769 112.62 60.9745 112.282C61.1997 111.91 61.2077 111.48 61.0591 111.109L60.1306 111.48L59.2021 111.852C59.1435 111.705 59.129 111.468 59.2643 111.245C59.3797 111.054 59.5422 110.976 59.6442 110.949C59.8288 110.899 60.1907 110.946 60.3362 111.302L59.4106 111.68ZM60.1306 111.48L61.0579 111.106C59.558 107.39 59.1292 103.293 59.8637 99.3534L58.8806 99.1702L57.8976 98.9869C57.092 103.308 57.5632 107.791 59.2033 111.854L60.1306 111.48ZM58.8806 99.1702L59.8628 99.3582C60.0294 98.488 59.4059 97.907 58.8558 97.7541C58.5734 97.6757 58.2134 97.6715 57.8709 97.8454C57.4965 98.0356 57.2548 98.3834 57.1785 98.7821L58.1606 98.9702L59.1428 99.1582C59.1114 99.3219 58.9935 99.5185 58.7766 99.6286C58.5916 99.7226 58.4228 99.7096 58.3205 99.6812C58.2152 99.6519 58.0992 99.5855 58.0094 99.4619C57.9069 99.3207 57.8679 99.1416 57.8985 98.9821L58.8806 99.1702Z" fill="#EE8E46" mask="url(#path-28-inside-10_459_24453)"/>
<mask id="path-30-inside-11_459_24453" fill="white">
<path d="M104.56 71.3998C105.47 72.5098 106.15 73.8498 106.54 75.2498C106.65 75.6598 106.74 76.0698 106.8 76.4898C106.83 76.6898 107.08 76.7998 107.26 76.7498C107.47 76.6898 107.55 76.4898 107.52 76.2898C107.29 74.7598 106.73 73.2698 105.89 71.9698C105.65 71.5898 105.37 71.2198 105.09 70.8698C104.96 70.7098 104.69 70.7398 104.56 70.8698C104.41 71.0198 104.43 71.2398 104.56 71.3998Z"/>
</mask>
<path d="M104.56 71.3998C105.47 72.5098 106.15 73.8498 106.54 75.2498C106.65 75.6598 106.74 76.0698 106.8 76.4898C106.83 76.6898 107.08 76.7998 107.26 76.7498C107.47 76.6898 107.55 76.4898 107.52 76.2898C107.29 74.7598 106.73 73.2698 105.89 71.9698C105.65 71.5898 105.37 71.2198 105.09 70.8698C104.96 70.7098 104.69 70.7398 104.56 70.8698C104.41 71.0198 104.43 71.2398 104.56 71.3998Z" fill="black"/>
<path d="M104.56 71.3998L103.784 72.0304L103.787 72.0338L104.56 71.3998ZM106.54 75.2498L107.506 74.9906L107.504 74.9814L106.54 75.2498ZM106.8 76.4898L105.81 76.6312L105.811 76.6381L106.8 76.4898ZM107.26 76.7498L107.528 77.7133L107.535 77.7113L107.26 76.7498ZM107.52 76.2898L108.509 76.1415L108.509 76.1411L107.52 76.2898ZM105.89 71.9698L105.045 72.5038L105.05 72.5125L105.89 71.9698ZM105.09 70.8698L105.871 70.2451L105.866 70.2392L105.09 70.8698ZM104.56 71.3998L103.787 72.0338C104.604 73.0306 105.222 74.2445 105.577 75.5181L106.54 75.2498L107.504 74.9814C107.078 73.4551 106.336 71.989 105.334 70.7658L104.56 71.3998ZM106.54 75.2498L105.574 75.5089C105.677 75.8897 105.757 76.2596 105.81 76.6312L106.8 76.4898L107.79 76.3484C107.723 75.88 107.624 75.4298 107.506 74.9907L106.54 75.2498ZM106.8 76.4898L105.811 76.6381C105.886 77.1387 106.225 77.4507 106.512 77.6003C106.793 77.7468 107.161 77.8153 107.528 77.7133L107.26 76.7498L106.993 75.7863C107.18 75.7343 107.333 75.7727 107.436 75.8267C107.546 75.8838 107.744 76.0409 107.789 76.3414L106.8 76.4898ZM107.26 76.7498L107.535 77.7113C108.383 77.4691 108.587 76.6606 108.509 76.1415L107.52 76.2898L106.531 76.4381C106.521 76.3696 106.521 76.2507 106.591 76.1144C106.671 75.9585 106.817 75.8363 106.986 75.7883L107.26 76.7498ZM107.52 76.2898L108.509 76.1411C108.258 74.472 107.648 72.8475 106.73 71.4271L105.89 71.9698L105.05 72.5125C105.813 73.6921 106.322 75.0476 106.531 76.4385L107.52 76.2898ZM105.89 71.9698L106.736 71.4358C106.467 71.01 106.16 70.6069 105.871 70.2451L105.09 70.8698L104.309 71.4945C104.58 71.8327 104.834 72.1695 105.045 72.5038L105.89 71.9698ZM105.09 70.8698L105.866 70.2392C105.553 69.8539 105.113 69.7495 104.788 69.7617C104.472 69.7736 104.12 69.8953 103.853 70.1627L104.56 70.8698L105.267 71.5769C105.13 71.7143 104.979 71.756 104.863 71.7603C104.737 71.765 104.497 71.7257 104.314 71.5004L105.09 70.8698ZM104.56 70.8698L103.853 70.1627C103.246 70.7699 103.423 71.5862 103.784 72.0304L104.56 71.3998L105.336 70.7692C105.393 70.8391 105.451 70.9518 105.455 71.1044C105.459 71.2723 105.395 71.449 105.267 71.5769L104.56 70.8698Z" fill="#EE8E46" mask="url(#path-30-inside-11_459_24453)"/>
<path d="M140.37 154.75C140.38 154.76 140.4 154.77 140.41 154.77C140.415 154.77 140.427 154.777 140.434 154.781L140.42 154.77C140.38 154.73 140.42 154.77 140.44 154.77M140.37 154.75L140.305 154.945C140.306 154.952 140.307 154.959 140.309 154.966C140.323 154.958 140.338 154.952 140.353 154.943L140.44 154.77M140.37 154.75L140.3 154.82C140.303 154.787 140.309 154.754 140.319 154.722C140.337 154.732 140.353 154.744 140.37 154.75ZM140.44 154.77C140.46 154.78 140.47 154.79 140.49 154.79M140.44 154.77V154.888C140.449 154.881 140.456 154.873 140.464 154.866L140.49 154.79M139.946 154.771C140.024 154.83 140.105 154.882 140.191 154.928L140.25 154.869C140.249 154.814 140.256 154.759 140.272 154.707C140.274 154.704 140.275 154.701 140.276 154.697C140.231 154.667 140.186 154.637 140.141 154.606C140.124 154.625 140.107 154.646 140.085 154.664C140.051 154.691 140.016 154.711 139.982 154.727M139.946 154.771L139.982 154.727M139.946 154.771C139.944 154.77 139.941 154.768 139.938 154.766C139.939 154.764 139.938 154.762 139.938 154.761L139.967 154.732C139.972 154.73 139.977 154.729 139.982 154.727M139.946 154.771L139.982 154.727M140.49 154.79C140.496 154.792 140.502 154.793 140.508 154.796C140.502 154.811 140.5 154.827 140.493 154.841C140.492 154.842 140.491 154.842 140.49 154.843V154.79ZM139.59 154.01C139.623 154.067 139.657 154.124 139.695 154.176C139.627 154.209 139.551 154.24 139.499 154.248C139.488 154.248 139.476 154.244 139.463 154.243C139.436 154.2 139.411 154.155 139.387 154.11M139.59 154.01L139.387 154.11M139.59 154.01L139.387 154.11M139.59 154.01C139.563 153.956 139.536 153.902 139.509 153.849C139.492 153.859 139.475 153.871 139.459 153.884C139.405 153.927 139.368 153.978 139.341 154.025C139.355 154.054 139.371 154.082 139.387 154.11M139.812 154.99L139.813 154.992C139.813 154.992 139.811 154.99 139.808 154.987C139.81 154.989 139.812 154.99 139.812 154.99Z" fill="black" stroke="#EE8E46"/>
<path d="M167.84 114.77L168.023 115.037C168.054 115.015 168.085 114.991 168.111 114.961C168.145 114.922 168.168 114.882 168.186 114.845C168.138 114.775 168.09 114.704 168.04 114.636L167.84 114.77ZM167.84 114.77L168.034 114.628C168.016 114.604 167.998 114.581 167.979 114.557M167.84 114.77C167.822 114.743 167.805 114.725 167.787 114.7L167.872 114.628M167.872 114.628L167.979 114.557M167.872 114.628L167.979 114.557M167.872 114.628L167.971 114.545C167.974 114.549 167.977 114.553 167.979 114.557" fill="black" stroke="#EE8E46"/>
</svg>
