<svg width="50" height="50" viewBox="0 0 50 50" fill="none" xmlns="http://www.w3.org/2000/svg">
<path d="M8.06799 35.4584L5.55966 20.5001C5.18049 18.2376 4.99091 17.1084 5.59924 16.3667C6.20549 15.6251 7.32216 15.6251 9.55341 15.6251H40.4451C42.6763 15.6251 43.793 15.6251 44.3992 16.3667C45.0076 17.1084 44.8159 18.2376 44.4388 20.5001L41.9305 35.4584C41.0992 40.4167 40.6847 42.8938 38.9867 44.3647C37.2909 45.8334 34.8451 45.8334 29.9534 45.8334H20.0451C15.1534 45.8334 12.7076 45.8334 11.0117 44.3626C9.31382 42.8938 8.89924 40.4147 8.06799 35.4563M36.4576 15.6251C36.4576 12.5861 35.2504 9.67167 33.1015 7.52282C30.9527 5.37396 28.0382 4.16675 24.9992 4.16675C21.9603 4.16675 19.0458 5.37396 16.897 7.52282C14.7481 9.67167 13.5409 12.5861 13.5409 15.6251" stroke="#EE8E46" stroke-width="3.5" stroke-linecap="round" stroke-linejoin="round"/>
</svg>
