<svg width="254" height="76" viewBox="0 0 254 76" fill="none" xmlns="http://www.w3.org/2000/svg">
<path d="M0.647118 12.2166C0.785137 10.7881 1.51416 9.45859 2.68939 8.49218C3.86463 7.52577 5.40011 6.99314 6.99088 7.00007C8.49971 7.00007 9.89453 7.47155 10.9909 8.26038C12.1646 7.4435 13.6055 7.00029 15.0882 7.00007C16.6306 7.00007 18.0522 7.46853 19.1855 8.26038C20.3203 7.44116 21.7318 6.99644 23.1856 7.00007C26.4581 7.00007 29.2444 9.22752 29.5294 12.2166C29.811 15.1634 30.1765 19.721 30.1765 23.6229C30.1768 25.9665 29.5052 28.2705 28.2269 30.3113C26.9486 32.3521 25.1069 34.0605 22.8805 35.2709C22.1361 35.6759 21.9416 36.1776 21.9618 36.4375C22.3876 42.2827 23.4706 57.4487 23.4706 59.8817C23.4706 61.8857 22.5875 63.8075 21.0155 65.2245C19.4435 66.6415 17.3114 67.4375 15.0882 67.4375C12.8651 67.4375 10.733 66.6415 9.16102 65.2245C7.58902 63.8075 6.70588 61.8857 6.70588 59.8817C6.70588 57.4487 7.78888 42.2827 8.21471 36.4375C8.23147 36.1746 8.04035 35.6759 7.296 35.2709C5.06955 34.0605 3.22786 32.3521 1.94955 30.3113C0.671238 28.2705 -0.000321619 25.9665 1.15549e-07 23.6229C1.15549e-07 19.7241 0.365471 15.1634 0.647118 12.2166ZM21.7941 22.8673C21.7941 23.4685 21.5292 24.045 21.0576 24.4701C20.586 24.8952 19.9464 25.134 19.2794 25.134C18.6125 25.134 17.9728 24.8952 17.5012 24.4701C17.0296 24.045 16.7647 23.4685 16.7647 22.8673V13.0447C16.7647 12.6439 16.5881 12.2596 16.2737 11.9762C15.9593 11.6928 15.5329 11.5336 15.0882 11.5336C14.6436 11.5336 14.2172 11.6928 13.9028 11.9762C13.5884 12.2596 13.4118 12.6439 13.4118 13.0447V22.8673C13.4118 23.4685 13.1468 24.045 12.6752 24.4701C12.2036 24.8952 11.564 25.134 10.8971 25.134C10.2301 25.134 9.59049 24.8952 9.11889 24.4701C8.64729 24.045 8.38235 23.4685 8.38235 22.8673V12.7878C8.38235 12.4552 8.23575 12.1361 7.9748 11.9009C7.71385 11.6657 7.35992 11.5336 6.99088 11.5336C6.65952 11.5284 6.33816 11.6359 6.09084 11.8348C5.84352 12.0336 5.68841 12.3091 5.65641 12.6065C5.37812 15.523 5.02941 19.9205 5.02941 23.6229C5.02941 26.9172 6.97412 29.8005 9.89788 31.3902C11.7252 32.3876 13.4084 34.2917 13.2341 36.7337C12.7982 42.7179 11.7353 57.6422 11.7353 59.8847C11.7353 60.6863 12.0886 61.4551 12.7173 62.0219C13.3461 62.5886 14.199 62.9071 15.0882 62.9071C15.9775 62.9071 16.8303 62.5886 17.4591 62.0219C18.0879 61.4551 18.4412 60.6863 18.4412 59.8847C18.4412 57.6422 17.3783 42.7179 16.9424 36.7337C16.7681 34.2917 18.4512 32.3876 20.2786 31.3902C21.764 30.5837 22.9929 29.4446 23.846 28.0836C24.699 26.7227 25.1472 25.186 25.1471 23.6229C25.1471 19.9235 24.7984 15.523 24.5201 12.6065C24.4881 12.3091 24.333 12.0336 24.0856 11.8348C23.8383 11.6359 23.5169 11.5284 23.1856 11.5336C22.8165 11.5336 22.4626 11.6657 22.2017 11.9009C21.9407 12.1361 21.7941 12.4552 21.7941 12.7878V22.8673ZM33.5294 24.3784C33.5294 19.7694 35.5606 15.3492 39.1762 12.0901C42.7918 8.831 47.6956 7.00007 52.8088 7.00007C53.4758 7.00007 54.1154 7.23888 54.587 7.66398C55.0586 8.08908 55.3235 8.66563 55.3235 9.26681V34.9566C55.3235 35.9177 55.6789 40.6839 56.0779 45.9639L56.0947 46.2148C56.5306 51.9814 57 58.2527 57 59.8817C57 61.8857 56.1169 63.8075 54.5449 65.2245C52.9729 66.6415 50.8408 67.4375 48.6176 67.4375C46.3945 67.4375 44.2624 66.6415 42.6904 65.2245C41.1184 63.8075 40.2353 61.8857 40.2353 59.8817C40.2353 58.3282 40.6645 51.9904 41.0802 46.1785C41.2881 43.2438 41.4994 40.3998 41.6569 38.2902L41.7341 37.2233H39.3971C38.6265 37.2233 37.8635 37.0865 37.1516 36.8207C36.4397 36.5549 35.7929 36.1653 35.248 35.6742C34.7031 35.1831 34.2709 34.6 33.9761 33.9583C33.6812 33.3166 33.5294 32.6288 33.5294 31.9343V24.3784ZM46.9345 35.1138L46.8641 36.0628C46.5998 39.5319 46.3438 43.0015 46.0962 46.4717C45.6738 52.3954 45.2647 58.5187 45.2647 59.8817C45.2647 60.6833 45.618 61.452 46.2468 62.0188C46.8756 62.5856 47.7284 62.904 48.6176 62.904C49.5069 62.904 50.3597 62.5856 50.9885 62.0188C51.6173 61.452 51.9706 60.6833 51.9706 59.8817C51.9706 58.431 51.5079 52.2473 51.0586 46.2692L51.0351 45.9548C50.6562 40.9408 50.2941 36.096 50.2941 34.9566V11.733C47.003 12.2649 44.0242 13.823 41.8788 16.1347C39.7335 18.4464 38.5583 21.3645 38.5588 24.3784V31.9343C38.5588 32.3513 38.9344 32.6898 39.3971 32.6898H44.4265C44.7713 32.6899 45.1125 32.7539 45.4288 32.8779C45.745 33.0019 46.0296 33.1832 46.2648 33.4105C46.5 33.6379 46.6809 33.9064 46.7961 34.1994C46.9113 34.4924 46.9584 34.8036 46.9345 35.1138Z" fill="#EE8E46"/>
<path d="M66.2 37V35.6H68.4L68.8 35.2V12L68.4 11.6H66.2V10.2H85.44L86.88 16.6L85.56 17C84.92 15.5867 84.1467 14.4933 83.24 13.72C82.3333 12.9467 81.32 12.4 80.2 12.08C79.1067 11.76 77.92 11.6 76.64 11.6H75.4L75 12V25L73.2 23.2H77.92C79.0667 23.2 80.08 22.8133 80.96 22.04C81.8667 21.24 82.32 20.16 82.32 18.8H83.72V29H82.32C82.32 27.64 81.8667 26.5733 80.96 25.8C80.08 25 79.0667 24.6 77.92 24.6H73.2L75 22.8V35.2L75.4 35.6H78.6V37H66.2ZM101.997 9.8C104.85 9.8 107.29 10.3867 109.317 11.56C111.344 12.7333 112.89 14.36 113.957 16.44C115.05 18.52 115.597 20.9067 115.597 23.6C115.597 25.5733 115.264 27.4 114.597 29.08C113.957 30.76 113.037 32.2267 111.837 33.48C110.664 34.7067 109.237 35.6667 107.557 36.36C105.904 37.0533 104.05 37.4 101.997 37.4C99.1435 37.4 96.7035 36.8133 94.6769 35.64C92.6502 34.4667 91.0902 32.84 89.9969 30.76C88.9302 28.68 88.3969 26.2933 88.3969 23.6C88.3969 21.6267 88.7169 19.8 89.3569 18.12C90.0235 16.44 90.9435 14.9867 92.1169 13.76C93.3169 12.5067 94.7569 11.5333 96.4369 10.84C98.1169 10.1467 99.9702 9.8 101.997 9.8ZM102.397 35.8C103.704 35.8 104.85 35.32 105.837 34.36C106.824 33.3733 107.597 32 108.157 30.24C108.717 28.4533 108.997 26.3733 108.997 24C108.997 21.68 108.664 19.5733 107.997 17.68C107.357 15.76 106.477 14.24 105.357 13.12C104.237 11.9733 102.984 11.4 101.597 11.4C100.317 11.4 99.1702 11.8933 98.1569 12.88C97.1702 13.84 96.3969 15.2133 95.8369 17C95.2769 18.76 94.9969 20.8267 94.9969 23.2C94.9969 25.52 95.3169 27.64 95.9569 29.56C96.6235 31.4533 97.5169 32.9733 98.6369 34.12C99.7569 35.24 101.01 35.8 102.397 35.8ZM132.388 9.8C135.241 9.8 137.681 10.3867 139.708 11.56C141.734 12.7333 143.281 14.36 144.348 16.44C145.441 18.52 145.988 20.9067 145.988 23.6C145.988 25.5733 145.654 27.4 144.988 29.08C144.348 30.76 143.428 32.2267 142.228 33.48C141.054 34.7067 139.628 35.6667 137.948 36.36C136.294 37.0533 134.441 37.4 132.388 37.4C129.534 37.4 127.094 36.8133 125.068 35.64C123.041 34.4667 121.481 32.84 120.388 30.76C119.321 28.68 118.788 26.2933 118.788 23.6C118.788 21.6267 119.108 19.8 119.748 18.12C120.414 16.44 121.334 14.9867 122.508 13.76C123.708 12.5067 125.148 11.5333 126.828 10.84C128.508 10.1467 130.361 9.8 132.388 9.8ZM132.788 35.8C134.094 35.8 135.241 35.32 136.228 34.36C137.214 33.3733 137.988 32 138.548 30.24C139.108 28.4533 139.388 26.3733 139.388 24C139.388 21.68 139.054 19.5733 138.388 17.68C137.748 15.76 136.868 14.24 135.748 13.12C134.628 11.9733 133.374 11.4 131.988 11.4C130.708 11.4 129.561 11.8933 128.548 12.88C127.561 13.84 126.788 15.2133 126.228 17C125.668 18.76 125.388 20.8267 125.388 23.2C125.388 25.52 125.708 27.64 126.348 29.56C127.014 31.4533 127.908 32.9733 129.028 34.12C130.148 35.24 131.401 35.8 132.788 35.8ZM162.578 10.2C164.311 10.2 165.991 10.44 167.618 10.92C169.245 11.3733 170.698 12.1067 171.978 13.12C173.285 14.1333 174.311 15.4533 175.058 17.08C175.805 18.68 176.178 20.6133 176.178 22.88C176.178 25.12 175.778 27.12 174.978 28.88C174.205 30.6133 173.151 32.0933 171.818 33.32C170.511 34.52 169.058 35.44 167.458 36.08C165.858 36.6933 164.231 37 162.578 37H148.778V35.6H150.978L151.378 35.2V12L150.978 11.6H148.778V10.2H162.578ZM160.978 35.6C162.551 35.6 163.978 35.1333 165.258 34.2C166.565 33.2667 167.605 31.9067 168.378 30.12C169.178 28.3333 169.578 26.16 169.578 23.6C169.578 21.1467 169.178 19.0267 168.378 17.24C167.578 15.4267 166.525 14.04 165.218 13.08C163.911 12.0933 162.498 11.6 160.978 11.6H157.978L157.578 12V35.2L157.978 35.6H160.978Z" fill="#EE8E46"/>
<path d="M66.2 67V65.6H68.4L68.8 65.2V42L68.4 41.6H66.2V40.2H85.44L86.88 46.6L85.56 47C84.92 45.5867 84.1467 44.4933 83.24 43.72C82.3333 42.9467 81.32 42.4 80.2 42.08C79.1067 41.76 77.92 41.6 76.64 41.6H75.4L75 42V55L73.2 53.2H77.92C79.0667 53.2 80.08 52.8133 80.96 52.04C81.8667 51.24 82.32 50.16 82.32 48.8H83.72V59H82.32C82.32 57.64 81.8667 56.5733 80.96 55.8C80.08 55 79.0667 54.6 77.92 54.6H73.2L75 52.8V65.2L75.4 65.6H78.6V67H66.2ZM109.538 59.4H110.938L109.218 67H88.7781V65.6H90.9781L91.3781 65.2V42L90.9781 41.6H88.7781V40.2H108.818L110.258 46.6L108.938 47C108.298 45.5867 107.525 44.4933 106.618 43.72C105.711 42.9467 104.698 42.4 103.578 42.08C102.485 41.76 101.298 41.6 100.018 41.6H97.9781L97.5781 42V54.2L95.7781 52.4H99.6981C100.845 52.4 101.858 52.0133 102.738 51.24C103.645 50.44 104.098 49.36 104.098 48H105.498V58.2H104.098C104.098 56.84 103.645 55.7733 102.738 55C101.858 54.2 100.845 53.8 99.6981 53.8H95.7781L97.5781 52V65.2L97.9781 65.6H100.418C102.338 65.6 104.098 65.0933 105.698 64.08C107.298 63.0667 108.578 61.5067 109.538 59.4ZM120.234 44.8C120.234 45.7333 120.487 46.5333 120.994 47.2C121.501 47.84 122.167 48.4 122.994 48.88C123.847 49.36 124.767 49.8133 125.754 50.24C126.767 50.6667 127.767 51.1333 128.754 51.64C129.767 52.1467 130.687 52.7333 131.514 53.4C132.367 54.0667 133.047 54.8933 133.554 55.88C134.061 56.84 134.314 58.0133 134.314 59.4C134.314 61.0533 133.914 62.48 133.114 63.68C132.314 64.88 131.167 65.8 129.674 66.44C128.181 67.08 126.381 67.4 124.274 67.4C122.807 67.4 121.487 67.2533 120.314 66.96C119.167 66.6667 118.167 66.2667 117.314 65.76L116.634 66.96H115.234C115.181 66.0533 115.074 65.04 114.914 63.92C114.754 62.7733 114.581 61.6533 114.394 60.56C114.207 59.44 114.021 58.4667 113.834 57.64L115.154 57.24C116.087 59.4 117.061 61.1067 118.074 62.36C119.114 63.6133 120.181 64.5067 121.274 65.04C122.394 65.5467 123.501 65.8 124.594 65.8C125.474 65.8 126.247 65.6667 126.914 65.4C127.607 65.1067 128.141 64.6933 128.514 64.16C128.914 63.6 129.114 62.92 129.114 62.12C129.114 61.16 128.861 60.36 128.354 59.72C127.847 59.0533 127.167 58.48 126.314 58C125.487 57.4933 124.567 57.0267 123.554 56.6C122.567 56.1733 121.567 55.72 120.554 55.24C119.567 54.7333 118.647 54.16 117.794 53.52C116.967 52.8533 116.301 52.0667 115.794 51.16C115.287 50.2267 115.034 49.0933 115.034 47.76C115.034 46.16 115.421 44.7733 116.194 43.6C116.994 42.4 118.127 41.4667 119.594 40.8C121.061 40.1333 122.807 39.8 124.834 39.8C125.954 39.8 127.007 39.92 127.994 40.16C128.981 40.4 129.914 40.8267 130.794 41.44L131.474 40.2H132.874C132.981 41.56 133.154 43.0133 133.394 44.56C133.661 46.1067 133.927 47.5067 134.194 48.76L132.874 49.16C132.101 47.1333 131.207 45.56 130.194 44.44C129.181 43.32 128.154 42.5333 127.114 42.08C126.074 41.6267 125.087 41.4 124.154 41.4C123.007 41.4 122.061 41.6933 121.314 42.28C120.594 42.8667 120.234 43.7067 120.234 44.8ZM159.549 40.2L161.149 47.36L159.829 47.76C159.189 46.2133 158.415 45 157.509 44.12C156.629 43.2133 155.682 42.5733 154.669 42.2C153.655 41.8 152.669 41.6 151.709 41.6V65.2L152.109 65.6H154.309V67H142.909V65.6H145.109L145.509 65.2V41.6C144.549 41.6 143.562 41.8 142.549 42.2C141.562 42.5733 140.615 43.2133 139.709 44.12C138.802 45 138.029 46.2133 137.389 47.76L136.069 47.36L137.669 40.2H159.549ZM174.797 41.6H172.597L172.197 42V65.2L172.597 65.6H174.797V67H163.397V65.6H165.597L165.997 65.2V42L165.597 41.6H163.397V40.2H174.797V41.6ZM195.926 40.2H204.046V41.6H201.846L192.166 67H189.166L178.806 41.6H176.606V40.2H188.526V41.6H186.206L185.806 42L192.766 60H192.966L199.726 42L199.326 41.6H195.926V40.2ZM201.25 67V65.6H203.57L214.05 40.2H217.05L227.41 65.6H229.73V67H217.69V65.6H220.01L220.41 65.2L213.25 47.2H213.05L205.69 65.2L206.09 65.6H209.45V67H201.25ZM208.01 58.2V56.8H221.05V58.2H208.01ZM251.682 58.6H253.082L251.162 67H231.122V65.6H233.322L233.722 65.2V42L233.322 41.6H231.122V40.2H242.522V41.6H240.322L239.922 42V65.2L240.322 65.6H242.762C244.495 65.6 246.149 65.0667 247.722 64C249.295 62.9067 250.615 61.1067 251.682 58.6Z" fill="#EE8E46"/>
</svg>
