<svg width="210" height="252" viewBox="0 0 210 252" fill="none" xmlns="http://www.w3.org/2000/svg">
<path d="M112.249 91.3608C105.951 94.8204 98.1998 91.8684 91.6594 88.8991C86.072 86.3658 80.4305 83.805 75.5379 80.096C66.4164 73.2013 60.3752 62.3799 59.2708 50.9938C63.4472 49.4142 68.2611 49.6076 72.2974 51.5063C73.1723 56.09 76.1643 60.3752 79.4654 63.6779C85.7556 69.9756 93.0824 76.0437 101.907 77.2157C108.881 78.1409 115.848 75.8877 122.528 73.6488C125.55 72.6391 130.556 71.0897 133.568 70.077" stroke="#EE8E46" stroke-miterlimit="10"/>
<path d="M94.3984 24.9424C94.2168 26.3529 94.8538 27.7273 95.2031 29.1162C95.8948 31.8497 97.3449 36.0378 98.4203 38.6509C103.966 52.1153 101.286 61.5352 107.688 72.1765C111.509 78.5256 118.739 91.3668 125.358 94.7175C129.167 98.8402 128.425 98.9319 130.922 100.724C134.198 103.075 134.497 102.425 136.673 103.906C138.848 105.387 141.587 105.913 144.172 105.625" stroke="#EE8E46" stroke-miterlimit="10"/>
<path d="M146.481 90.7853C139.541 88.5185 133.776 83.4866 129.41 77.6369C125.044 71.7873 119.708 65.7898 116.669 59.1522C114.725 54.9029 112.807 48.5025 111.834 43.9299C110.861 39.3573 114.902 31.812 115.902 27.5664" stroke="#EE8E46" stroke-miterlimit="10"/>
<path d="M111.959 122.75C122.147 125.955 132.265 129.348 142.317 132.95C145.172 133.974 149.534 134.738 150.952 137.794C152.37 140.85 151.316 146.368 151.776 149.836C152.897 158.271 152.244 166.945 149.872 175.12" stroke="#EE8E46" stroke-miterlimit="10"/>
<path d="M146.156 69.5273C147.621 72.5039 145.728 71.8877 148.892 72.8934C151.124 73.5956 153.615 73.7082 155.554 75.01C158.082 76.7065 159.01 79.9547 159.444 82.974C160.29 88.8487 159.972 94.8917 158.507 100.647C157.461 104.742 156.38 109.476 155.286 113.587" stroke="#EE8E46" stroke-miterlimit="10"/>
<path d="M155.71 111.867C154.317 115.297 155.276 119.079 154.078 123.786C152.631 129.453 155.158 137.083 151.353 140.782" stroke="#EE8E46" stroke-miterlimit="10"/>
<path d="M149.783 174.64C146.901 186.868 152.466 200.003 149.155 212.129C142.596 211.785 136.117 209.852 130.438 206.545C130.174 200.717 130.42 194.872 130.659 189.045C131.09 178.477 131.533 167.903 132.467 157.368C125.029 172.252 123.782 189.345 122.66 205.943C115.537 205.16 108.015 204.209 102.346 199.837C101.942 199.521 101.519 199.168 101.349 198.674C101.2 198.25 101.249 197.793 101.304 197.35C101.826 193.058 102.345 188.777 102.866 184.485C104.45 171.419 106.044 158.355 108.109 145.356C109.084 139.257 110.16 133.138 110.197 126.954" stroke="#EE8E46" stroke-miterlimit="10"/>
<path d="M107.886 202.588C106.326 205.745 106.364 209.426 106.442 212.942C106.525 216.846 106.607 220.751 106.698 224.659C106.734 226.379 106.793 228.19 107.694 229.658C108.394 230.8 109.6 231.63 110.925 231.785C112.249 231.94 113.659 231.356 114.406 230.249C114.718 229.791 114.914 229.266 115.111 228.741C115.868 226.736 116.716 224.738 117.079 222.619C118.046 217.011 115.591 211.186 116.841 205.646" stroke="#EE8E46" stroke-miterlimit="10"/>
<path d="M136.538 208.906C134.979 212.063 135.016 215.744 135.095 219.26C135.177 223.164 135.259 227.069 135.351 230.976C135.386 232.696 135.446 234.508 136.347 235.976C137.046 237.118 138.252 237.948 139.577 238.103C140.902 238.258 142.312 237.674 143.059 236.567C143.37 236.109 143.567 235.584 143.763 235.059C144.52 233.054 145.369 231.056 145.731 228.937C146.698 223.329 144.243 217.504 145.493 211.964" stroke="#EE8E46" stroke-miterlimit="10"/>
<path d="M134.718 234.364C133.257 234.176 131.913 233.481 130.514 233.031C129.115 232.58 127.486 232.393 126.234 233.173C125.567 233.592 125.082 234.236 124.708 234.926C122.901 238.236 123.686 242.739 126.502 245.25C128.599 247.115 131.502 247.819 134.31 247.958C137.118 248.096 139.926 247.732 142.732 247.776C143.4 247.787 144.093 247.817 144.735 247.61C146.04 247.192 146.865 245.837 147.072 244.477C147.28 243.116 146.979 241.743 146.687 240.403C146.101 237.735 145.502 235.072 144.916 232.403" stroke="#EE8E46" stroke-miterlimit="10"/>
<path d="M105.89 227.193C103.746 226.844 101.723 225.977 99.6444 225.354C97.5654 224.732 95.301 224.365 93.2309 225.014C91.1609 225.663 89.3658 227.604 89.4816 229.768C89.6282 232.435 92.3267 234.154 94.8136 235.146C100.475 237.409 106.658 238.285 112.74 237.944C113.521 237.896 114.339 237.828 115.018 237.434C115.829 236.955 116.324 236.083 116.711 235.22C117.415 233.68 117.916 232.056 118.229 230.393C118.423 229.343 118.531 228.234 118.2 227.218C117.87 226.202 117.001 225.3 115.933 225.226" stroke="#EE8E46" stroke-miterlimit="10"/>
<path d="M132.5 69.8761C134.168 72.5709 136.691 74.7167 139.606 75.9481C141.316 76.6749 143.435 77.0373 144.951 75.9521C146.438 74.8894 146.801 72.8022 146.543 70.9911C146.284 69.1801 145.544 67.469 145.32 65.6479C145.009 63.2021 145.641 60.7592 146.265 58.3766C146.731 56.5944 147.275 54.7001 148.71 53.5371C149.412 52.9717 150.26 52.641 151.043 52.1849C154.685 50.0704 156.295 45.0207 154.534 41.1857C156.234 41.4478 157.839 42.2776 159.03 43.5225C157.913 36.944 151.614 31.6396 144.938 31.6677C145.398 30.439 145.87 29.1723 145.854 27.8568C145.838 26.5414 145.226 25.1539 144.043 24.5826C142.965 24.0759 141.711 24.3312 140.515 24.3325C138.374 24.3405 136.24 23.4279 134.768 21.8747C134.485 24.2073 131.81 25.5464 129.46 25.5199C127.109 25.4934 124.86 24.5449 122.528 24.2619C124.277 25.0007 125.471 26.6345 126.489 28.2334C127.506 29.8323 128.484 31.5551 130.042 32.6324C131.601 33.7097 133.964 33.9289 135.275 32.5593C135.695 32.1252 135.979 31.5543 136.47 31.1949C136.96 30.8355 137.779 30.7994 138.06 31.3386C139.52 36.2951 143.986 40.2264 149.08 41.0634C148.211 43.5577 146.565 45.7236 145.716 48.224C144.867 50.7243 145.073 53.9342 147.246 55.4249" stroke="#EE8E46" stroke-miterlimit="10"/>
<path d="M133.567 70.0852C134.312 68.1496 135.077 66.0523 134.555 64.0434C134.146 62.4784 133.027 61.2039 131.86 60.082C130.638 58.9009 129.326 57.8068 127.952 56.8085C127.414 56.4192 126.854 56.0333 126.428 55.5219C125.705 54.655 125.426 53.5085 125.35 52.3838C125.274 51.2592 125.387 50.1313 125.33 49.0127C125.177 45.7671 123.602 42.609 121.11 40.5355C122.464 41.3285 124.186 40.654 125.565 39.9032C126.401 39.443 127.25 38.9447 127.848 38.2103C128.449 37.4663 128.765 36.5279 129.193 35.6667C129.621 34.8055 130.217 33.9446 131.126 33.6224" stroke="#EE8E46" stroke-miterlimit="10"/>
<path d="M130.125 50.8988C130.326 51.1927 130.758 51.255 131.1 51.1321C131.443 51.0093 131.708 50.7676 131.972 50.5259C132.358 50.1651 132.745 49.8043 133.121 49.4405" stroke="#EE8E46" stroke-miterlimit="10"/>
<path d="M131.996 37.2209C133.234 37.2852 134.381 38.1702 134.777 39.3432" stroke="#EE8E46" stroke-miterlimit="10"/>
<path d="M129.671 41.3112C129.69 41.548 129.897 41.7596 130.144 41.7744C130.39 41.7892 130.622 41.6208 130.684 41.3888L129.978 41.1667L129.726 41.9681C129.872 42.2028 130.21 41.963 130.355 41.736C130.481 41.5346 130.61 41.3237 130.603 41.0803C130.596 40.8369 130.342 40.6103 130.122 40.7089" stroke="#EE8E46" stroke-miterlimit="10"/>
<path d="M110.243 127.807C111.877 123.845 111.802 119.418 111.701 115.141C111.513 107.24 111.335 99.3429 111.146 91.4424" stroke="#EE8E46" stroke-miterlimit="10"/>
<path d="M59.0155 50.4726C59.1718 47.5761 58.1255 44.6366 56.1943 42.4777C55.0692 41.2222 53.5435 39.8408 53.9492 38.2177C55.7404 37.7223 57.828 38.8507 58.4051 40.6152C58.4803 39.643 58.6403 38.6345 59.1447 37.7973C59.6492 36.9601 60.6031 36.3272 61.5729 36.4435C62.5427 36.5599 63.3735 37.6179 63.0413 38.5408C63.5043 37.5019 63.9704 36.4534 64.424 35.4115C64.6157 34.9686 64.9202 34.4668 65.398 34.4808C65.6575 34.4891 65.8755 34.6625 66.0714 34.8395C66.9331 35.6661 67.4995 36.7982 67.6274 37.9916C68.0916 36.649 69.854 35.9454 71.1174 36.5944C72.3809 37.2434 72.8266 39.0924 72.0018 40.2482C72.4667 39.5033 72.9597 38.7359 73.711 38.2804C74.4624 37.8248 75.5273 37.7719 76.1358 38.4036C76.8508 39.1632 76.5586 40.3921 76.2179 41.3752C77.2848 40.8826 78.3175 42.4655 77.8966 43.5701C77.4758 44.6747 76.3413 45.2823 75.3819 45.9659C73.5851 47.2457 72.1607 49.041 71.3289 51.0856" stroke="#EE8E46" stroke-miterlimit="10"/>
<path d="M97.6042 37.6409C99.4908 38.1086 98.3752 39.089 100.114 39.9608C103.546 41.6799 110.236 38.1758 113.663 36.4445" stroke="#EE8E46" stroke-miterlimit="10"/>
<path d="M94.6401 26.4336C94.6455 25.4499 94.7326 24.4395 95.1829 23.5747C95.6331 22.71 96.5352 22.0083 97.5165 22.0549C98.4977 22.1015 99.4002 23.0983 99.1252 24.0391C99.515 22.9666 99.9048 21.8941 100.285 20.8187C100.448 20.3668 100.708 19.8405 101.195 19.8259C101.451 19.8121 101.681 19.9789 101.883 20.1368C102.807 20.8991 103.449 21.9921 103.655 23.1683C104.024 21.7957 105.731 20.9697 107.031 21.5359C108.331 22.102 108.905 23.9077 108.17 25.1125C108.581 24.3402 109.019 23.5452 109.728 23.0239C110.438 22.5027 111.511 22.3895 112.153 22.9795C112.928 23.6843 112.715 24.9277 112.447 25.9443C113.485 25.3796 116.242 26.446 115.9 27.5651" stroke="#EE8E46" stroke-miterlimit="10"/>
</svg>
