<svg width="163" height="219" viewBox="0 0 163 219" fill="none" xmlns="http://www.w3.org/2000/svg">
<path d="M96.9937 22.1165L96.5111 25.8857C96.4642 26.2528 96.4171 26.6198 96.2252 26.938C95.9597 27.3576 95.4865 27.5894 95.0256 27.8026C93.1303 28.6689 91.2336 29.5452 89.3284 30.4102C92.2339 32.2844 94.2573 35.457 94.7259 38.8843C94.9602 40.5979 94.8862 42.514 95.9961 43.8458C97.7351 45.9335 101.175 45.2851 103.444 46.7754C104.523 47.4881 105.242 48.6388 105.735 49.831C106.714 52.1844 106.928 54.8431 106.339 57.3183C95.273 56.7383 84.9948 64.4152 74.0631 66.2518C69.6018 67.0013 65.0134 66.6961 60.5447 67.4245" stroke="#EE8E46" stroke-miterlimit="10"/>
<path d="M117.813 41.3362C117.6 38.4356 121.153 36.9851 123.122 34.8377C126.002 31.7082 124.989 25.9226 121.218 23.9578C123.062 24.3553 124.849 24.9672 126.55 25.7797C127.206 23.2526 124.66 21.0917 122.315 19.9548C118.642 18.1738 114.627 17.0852 110.558 16.7456C111.184 15.0011 111.678 12.7153 110.21 11.5897C107.777 9.72561 103.58 13.7653 101.488 11.5215C100.778 10.7652 100.482 9.37639 99.4462 9.3547C98.9043 9.33571 98.4577 9.75238 98.103 10.1606C96.9343 11.493 96.065 13.0855 95.5638 14.7957L89.9992 14.0833C92.8457 15.7886 95.9836 18.7611 98.0286 21.372C101.017 21.6538 104.066 19.6547 105.014 16.8122C104.591 18.7037 105.112 20.7766 106.376 22.2391C107.641 23.7015 109.623 24.5198 111.547 24.373C113.542 24.2252 115.906 23.2375 117.306 24.6668C118.573 25.9581 117.828 28.1513 116.764 29.608C115.701 31.0647 114.291 32.5477 114.392 34.3552C114.479 35.9592 115.73 37.2182 116.465 38.6431C117.957 41.5562 117.229 43.8524 117.334 47.1322C117.438 50.7245 117.808 54.8449 120.723 56.9621C123.011 58.6162 126.089 58.4356 128.842 59.0603C133.947 60.2079 138.017 64.2475 140.405 68.9084C142.792 73.5693 143.693 78.8163 144.422 83.9907C146.539 99.1926 147.268 114.6 146.594 129.939C146.311 136.405 141.749 142.112 136.835 146.322C131.92 150.532 125.831 153.21 119.54 154.703C118.563 154.931 117.5 155.128 116.611 154.671C115.902 154.298 115.451 153.575 115.033 152.896C113.671 150.625 112.298 148.352 110.934 146.091C121.021 144.317 128.517 134.984 130.853 125.01C133.188 115.035 131.243 104.564 128.419 94.7253" stroke="#EE8E46" stroke-miterlimit="10"/>
<path d="M60.6072 67.7249C51.9597 65.9726 44.7444 58.5461 43.2361 49.8542C40.0328 49.6759 36.8097 49.8883 33.66 50.4731C33.0915 50.5818 32.4797 50.7152 32.0827 51.1382C31.3822 51.8852 31.6627 53.0805 32.0146 54.033C36.1414 65.1874 44.9797 74.5052 55.8881 79.2288C66.8065 83.9536 79.6427 84.0142 90.5989 79.3882C89.2081 84.5029 89.3782 90.6544 90.6553 95.7982C92.0783 101.535 93.5012 107.273 94.9229 113.02C94.5493 113.103 94.9704 112.491 95.346 112.55C107.371 114.613 119.098 120.036 131.236 118.778" stroke="#EE8E46" stroke-miterlimit="10"/>
<path d="M110.221 145.505C108.6 146.044 106.856 145.175 105.485 144.153C104.114 143.13 102.822 141.876 101.158 141.492C100.922 141.441 100.675 141.4 100.461 141.503C100.064 141.685 99.9971 142.21 100.022 142.647C100.104 144.291 100.724 145.902 101.771 147.176C100.131 146.835 98.3714 148.293 98.3999 149.96C98.4284 151.627 100.235 153.028 101.859 152.631C101.361 153.132 100.873 153.634 100.376 154.135C101.061 155.241 102.579 155.748 103.79 155.268C103.234 155.983 102.818 156.797 102.566 157.662C102.478 157.953 102.415 158.287 102.541 158.566C102.767 159.079 103.537 159.127 104.002 158.803C104.467 158.48 104.69 157.923 104.888 157.394C104.57 158.543 104.377 160.051 105.385 160.684C106.318 161.267 107.73 160.238 107.473 159.177C106.706 161.468 108.681 164.231 111.099 164.239C111.845 162.983 111.753 161.419 112.106 160.002C112.612 157.94 114.13 156.158 116.071 155.328" stroke="#EE8E46" stroke-miterlimit="10"/>
<path d="M42.2433 50.1303C42.7189 45.3923 42.7851 40.6221 42.4458 35.8705C41.6363 36.1298 41.0792 37.0162 41.1821 37.8662C40.723 37.1219 40.2378 36.3439 39.4887 35.8952C38.7397 35.4464 37.6532 35.4283 37.093 36.1026C37.1936 35.2384 36.5413 34.3483 35.6873 34.1684C34.8332 33.9885 33.8839 34.5525 33.6358 35.3878C33.2711 34.1414 31.4748 33.8408 30.4021 34.5806C29.3295 35.3204 28.8938 36.676 28.7101 37.953C28.3389 36.8368 27.0051 36.1519 25.8828 36.4921C24.4773 37.7841 23.8398 39.8499 24.2784 41.7005C23.543 40.8301 22.3984 40.3206 21.2658 40.347C21.4504 42.9213 23.4872 44.9665 25.5702 46.4934C27.6531 48.0203 29.9995 49.3793 31.3176 51.6047" stroke="#EE8E46" stroke-miterlimit="10"/>
<path d="M146.516 131.884C147.678 139.271 143.754 155.978 137.335 159.814C130.916 163.65 112.326 162.54 105.526 165.652C104.499 166.115 103.44 166.665 102.843 167.627C102.299 168.495 102.231 169.575 102.211 170.601C102.076 175.746 102.556 180.898 103.646 185.927C97.4324 185.717 91.2176 185.516 85.014 185.306C84.0305 185.271 82.9974 185.229 82.1692 184.69C81.0427 183.961 80.5992 182.543 80.3451 181.22C77.7846 168.068 86.1586 154.633 98.8269 150.257C94.4785 153.511 87.6958 151.997 83.6513 155.633C81.1328 157.901 80.4361 161.532 80.0254 164.897C79.2576 171.13 78.9573 177.413 79.1222 183.685C73.1515 181.892 66.8125 181.322 60.6162 182.001C60.2217 168.703 61.5875 155.359 64.6662 142.415C65.2502 139.979 65.9363 137.456 67.5977 135.582C69.2717 133.689 71.7168 132.702 74.1377 131.983C80.6255 130.051 87.5775 129.691 94.2345 130.927C94.2641 122.664 93.8795 114.408 93.0866 106.191" stroke="#EE8E46" stroke-miterlimit="10"/>
<path d="M99.7551 38.4294C100.332 38.6444 101.011 38.5398 101.503 38.1592C101.996 37.7786 102.258 37.1468 102.196 36.5339" stroke="#EE8E46" stroke-miterlimit="10"/>
<path d="M98.5834 29.0041C98.6285 29.2821 98.4589 29.583 98.2018 29.7013C98.1356 29.4307 98.0832 29.1316 98.2154 28.8864C98.3476 28.6412 98.7782 28.5855 98.8754 28.85C98.9049 28.9344 98.8922 29.0336 98.8807 29.1229C98.8287 29.5295 98.707 30.008 98.3344 30.1619C97.9025 29.8344 98.1493 29.009 98.689 28.9672C98.787 29.3831 98.5648 29.8587 98.1698 30.0299C98.079 29.7158 98.1036 29.3661 98.2422 29.0713C98.4576 29.1997 98.5187 29.51 98.3717 29.713C98.3889 29.3422 98.4657 28.979 98.5994 28.6432C98.6544 28.9225 98.615 29.23 98.4915 29.4864C98.4615 29.5632 98.3327 29.466 98.4096 29.496" stroke="#EE8E46" stroke-miterlimit="10"/>
<path d="M98.7445 25.0526C99.9088 24.7782 101.227 25.3502 101.819 26.3939" stroke="#EE8E46" stroke-miterlimit="10"/>
<path d="M110.233 32.1895L110.755 28.1127C110.794 27.7345 110.843 27.3477 110.998 27.0046C111.17 26.6032 111.474 26.2792 111.775 25.9749C112.448 25.2848 113.146 24.6382 113.89 24.0277" stroke="#EE8E46" stroke-miterlimit="10"/>
<path d="M106.285 57.513C106.521 58.4204 106.882 59.3034 107.341 60.1284C107.63 60.6291 107.959 61.125 108.441 61.4588C108.737 61.6681 109.082 61.8031 109.431 61.9182C111.566 62.6452 113.962 62.7504 116.064 61.9207C118.166 61.0909 119.913 59.2579 120.358 57.0465" stroke="#EE8E46" stroke-miterlimit="10"/>
<path d="M100.553 57.9487C101.997 62.2571 104.739 66.1166 108.326 68.8945C109.384 66.7717 110.716 64.7948 112.265 63.0071" stroke="#EE8E46" stroke-miterlimit="10"/>
<path d="M114.361 62.9427C115.771 64.9984 117.214 67.0381 118.69 69.0519C122.188 66.3745 125.071 62.9126 127.066 58.9841" stroke="#EE8E46" stroke-miterlimit="10"/>
<path d="M63.293 181.799C63.388 185.703 63.9792 189.59 65.0396 193.355" stroke="#EE8E46" stroke-miterlimit="10"/>
<path d="M73.8145 182.854C74.6971 186.748 75.653 190.62 76.6723 194.471" stroke="#EE8E46" stroke-miterlimit="10"/>
<path d="M90.3105 185.904C90.2036 189.338 90.9412 192.79 92.4316 195.874" stroke="#EE8E46" stroke-miterlimit="10"/>
<path d="M98.7988 186.385C99.548 190.141 100.661 193.812 102.134 197.348" stroke="#EE8E46" stroke-miterlimit="10"/>
<path d="M64.9774 192.974C65.2094 194.627 64.8902 196.411 65.1222 198.064C62.7584 197.549 60.3644 197.192 57.9525 196.974C56.736 196.869 55.4847 196.799 54.3177 197.174C52.099 197.888 50.5961 200.257 50.7318 202.583C50.8675 204.909 52.5319 207.027 54.7025 207.87C56.2586 208.472 57.9728 208.47 59.6486 208.453C62.9988 208.428 66.3503 208.393 69.7006 208.368C73.1017 208.34 76.5128 208.313 79.8806 207.837C79.2317 202.905 78.3974 198.16 76.3992 193.61" stroke="#EE8E46" stroke-miterlimit="10"/>
<path d="M92.2306 195.243L92.9334 199.991C90.6179 199.493 88.2735 199.142 85.9211 198.932C84.7344 198.83 83.5029 198.763 82.3695 199.112C80.2055 199.793 78.7376 202.045 78.8774 204.261C79.0171 206.476 80.6521 208.51 82.7769 209.317C84.3057 209.895 85.979 209.898 87.6138 209.886C90.8921 209.872 94.1716 209.848 97.4499 209.834C100.779 209.817 104.108 209.8 107.4 209.364C106.743 204.653 103.693 200.441 101.721 196.085" stroke="#EE8E46" stroke-miterlimit="10"/>
<path d="M65.3494 196.52C65.1486 197.694 65.7801 198.904 66.7118 199.658C67.6436 200.413 68.8271 200.776 69.9947 201.026C71.2715 201.291 72.6665 201.419 73.7971 200.777C74.4171 200.423 74.9025 199.86 75.3297 199.28C76.0109 198.369 76.6005 197.386 77.0947 196.36" stroke="#EE8E46" stroke-miterlimit="10"/>
<path d="M92.801 199.762C94.4123 200.563 96.1843 201.133 97.9793 201.05C99.7744 200.968 101.599 200.183 102.634 198.712" stroke="#EE8E46" stroke-miterlimit="10"/>
</svg>
