<svg width="119" height="246" viewBox="0 0 119 246" fill="none" xmlns="http://www.w3.org/2000/svg">
<path d="M56.7841 18.2078L56.5328 21.9877C56.5084 22.3558 56.4839 22.7238 56.3488 23.0469C56.1613 23.4735 55.8115 23.7178 55.4707 23.9433C54.0683 24.8599 52.6653 25.7864 51.2554 26.702C53.5007 28.4972 55.12 31.6137 55.5753 35.0263C55.8029 36.7327 55.8043 38.6496 56.6804 39.9508C58.053 41.9907 60.6259 41.2505 62.3802 42.679C63.2139 43.3624 63.7905 44.4931 64.1972 45.6714C65.0052 47.9971 65.2458 50.6485 64.8757 53.1381C56.5199 52.855 49.0041 60.8028 40.8215 62.9314C37.4821 63.8 34.0155 63.618 30.67 64.4658" stroke="#EE8E46" stroke-miterlimit="10"/>
<path d="M72.3882 36.4501C72.1393 33.546 74.7909 31.9953 76.2197 29.7881C78.311 26.5712 77.3686 20.7945 74.4491 18.9248C75.8602 19.274 77.2339 19.8397 78.5482 20.6091C78.9702 18.0563 76.9739 15.9571 75.1613 14.8795C72.3213 13.1917 69.2436 12.2077 66.1463 11.9764C66.5693 10.2095 66.8756 7.90318 65.7275 6.81345C63.8261 5.0089 60.7637 9.17436 59.1095 6.97966C58.5485 6.24009 58.2822 4.85481 57.496 4.8609C57.0843 4.85643 56.7581 5.28641 56.5013 5.70551C55.6548 7.07356 55.0432 8.69452 54.7143 10.4236L50.472 9.85861C52.6823 11.4928 55.1518 14.3904 56.7813 16.9545C59.0566 17.1568 61.3091 15.0694 61.9434 12.1923C61.6788 14.1012 62.1362 16.1668 63.1393 17.5999C64.1424 19.0329 65.6705 19.8006 67.1257 19.6015C68.6345 19.3995 70.3985 18.3451 71.5032 19.7413C72.5025 21.0026 72.0035 23.2228 71.2404 24.7128C70.4774 26.2028 69.4525 27.7284 69.5836 29.5389C69.6977 31.1457 70.6839 32.375 71.2842 33.7847C72.5035 36.6669 72.0206 38.99 72.1981 42.2774C72.3853 45.8784 72.7894 50.0019 75.0639 52.0475C76.8495 53.6452 79.1787 53.3813 81.2857 53.9339C85.193 54.9479 88.4015 58.8908 90.3524 63.5024C92.3032 68.1139 93.144 73.3532 93.8521 78.5245C95.9139 93.7179 94.5061 91.0322 94.4557 106.438C94.4347 112.932 80.7637 112.693 74.8881 112.938C69.9842 113.141 69.137 111.316 62.6378 109.241C61.8984 109.002 49.5794 104.389 48.8919 103.945M48.8919 103.945C48.3433 103.59 49.228 104.625 48.8919 103.945ZM48.8919 103.945C47.7901 101.703 45.2772 96.483 44.1679 94.24C51.766 92.1896 81.0179 104.759 82.4827 94.6891C83.9474 84.6194 84.0926 85.6461 81.6563 75.8425" stroke="#EE8E46" stroke-miterlimit="10"/>
<path d="M30.2931 64.9964C23.7743 63.4903 26.8466 58.5788 31.1889 53.7969C28.7881 53.7054 28.4831 43.3702 26.1449 44.033C25.7231 44.1558 17.3129 50.6132 17.0286 51.0427C16.5268 51.8013 14.8872 54.9644 14.8799 55.978C14.7589 69.2104 18.8543 72.4323 27.1592 76.8224C35.4641 81.2125 45.0653 80.9316 53.1218 76.0582C52.233 81.1616 52.5424 87.2503 53.6496 92.3115C54.8835 97.9565 56.1174 103.602 57.3506 109.256C57.0737 109.349 57.3705 108.732 57.6532 108.78C66.7071 110.505 75.6369 115.565 84.6769 113.996" stroke="#EE8E46" stroke-miterlimit="10"/>
<path d="M44.2339 95.3103C43.0272 95.8922 41.6863 95.0705 40.6217 94.0849C39.5572 93.0993 38.5461 91.8799 37.2793 91.54C37.1002 91.4961 36.9129 91.461 36.754 91.5703C36.4606 91.7621 36.4255 92.2896 36.4572 92.7256C36.568 94.367 37.0839 95.9621 37.9113 97.2072C36.6644 96.9101 35.3811 98.4156 35.4524 100.082C35.5236 101.748 36.9279 103.1 38.1404 102.66C37.7801 103.174 37.4273 103.689 37.067 104.203C37.6166 105.291 38.7763 105.757 39.675 105.244C39.2776 105.975 38.9877 106.799 38.8236 107.671C38.7661 107.965 38.7286 108.301 38.8316 108.576C39.0179 109.083 39.6001 109.11 39.941 108.774C40.2819 108.438 40.433 107.876 40.5671 107.342C40.3612 108.499 40.2607 110.012 41.0395 110.618C41.7609 111.176 42.795 110.109 42.5693 109.055C42.0592 111.366 43.631 114.076 45.4551 114.019C45.9798 112.743 45.8636 111.182 46.0874 109.756C46.4074 107.68 47.4994 105.858 48.9384 104.975" stroke="#EE8E46" stroke-miterlimit="10"/>
<path d="M31.8145 53.4842C35.2797 52.2793 38.6571 50.6809 41.9155 48.705C41.512 48.0383 40.7376 47.8144 40.1724 48.2111C40.5749 47.5214 40.9877 46.793 41.0979 45.9337C41.2082 45.0745 40.9277 44.0425 40.3015 43.758C40.9376 43.5516 41.3936 42.628 41.2837 41.7695C41.1739 40.911 40.5221 40.2112 39.8652 40.2742C40.645 39.5043 40.3622 37.7086 39.5545 36.9579C38.7467 36.2071 37.6721 36.2746 36.7135 36.5384C37.3997 35.8063 37.5216 34.3157 36.9691 33.378C35.6833 32.5132 34.0515 32.6269 32.8655 33.6841C33.2804 32.6947 33.3262 31.4351 32.9937 30.3861C31.2225 31.4556 30.3421 34.0805 29.8354 36.5645C29.3287 39.0484 29.0064 41.7277 27.7951 43.7358" stroke="#EE8E46" stroke-miterlimit="10"/>
<path d="M59.2695 34.0613C59.7102 34.2605 60.2176 34.1379 60.5766 33.7448C60.9356 33.3517 61.1142 32.714 61.0488 32.1039" stroke="#EE8E46" stroke-miterlimit="10"/>
<path d="M58.2594 24.6196C58.3023 24.898 58.1818 25.2052 57.9889 25.3311C57.9302 25.0607 57.8811 24.7614 57.9747 24.5112C58.0683 24.2611 58.3956 24.1934 58.4778 24.4567C58.5029 24.5408 58.4962 24.641 58.4902 24.731C58.4627 25.1414 58.3841 25.6258 58.1042 25.7907C57.7643 25.473 57.9279 24.6363 58.3389 24.5797C58.4264 24.9952 58.271 25.4795 57.9744 25.6624C57.8955 25.349 57.9037 24.9966 58.0007 24.6964C58.1692 24.8198 58.2252 25.1301 58.1191 25.3382C58.121 24.9648 58.1687 24.5975 58.2607 24.2563C58.3112 24.5356 58.2904 24.8459 58.2037 25.1071C58.1831 25.1852 58.0819 25.0909 58.1415 25.119" stroke="#EE8E46" stroke-miterlimit="10"/>
<path d="M58.3114 20.616C59.1695 20.3179 60.1668 20.8413 60.6381 21.8438" stroke="#EE8E46" stroke-miterlimit="10"/>
<path d="M66.9364 27.2886L67.216 23.1635C67.2341 22.7811 67.2607 22.3897 67.3701 22.0395C67.4914 21.6301 67.7168 21.2951 67.9408 20.9802C68.4412 20.2662 68.9621 19.5952 69.5196 18.9595" stroke="#EE8E46" stroke-miterlimit="10"/>
<path d="M64.3528 53.0485C64.556 53.9342 64.851 54.7927 65.2175 55.5915C65.4475 56.0761 65.7079 56.5549 66.0767 56.8704C66.3034 57.0683 66.565 57.1918 66.828 57.2958C68.441 57.9542 70.2303 57.9945 71.7731 57.1235C73.3159 56.2525 74.5641 54.4046 74.8302 52.2191" stroke="#EE8E46" stroke-miterlimit="10"/>
<path d="M60.0391 53.8103C61.25 58.0564 63.4204 61.8214 66.1917 64.4884C66.922 62.3491 67.862 60.3476 68.9707 58.5284" stroke="#EE8E46" stroke-miterlimit="10"/>
<path d="M70.4064 58.1469C71.5268 60.1578 72.671 62.1519 73.8396 64.1192C76.3875 61.3576 78.4499 57.8307 79.8316 53.8626" stroke="#EE8E46" stroke-miterlimit="10"/>
<path d="M63.6387 188.893C63.8324 192.828 68.0403 222.228 68.9806 225.988" stroke="#EE8E46" stroke-miterlimit="10"/>
<path d="M72.1543 188.864C72.9597 192.768 76.7043 222.765 77.6222 226.623" stroke="#EE8E46" stroke-miterlimit="10"/>
<path d="M83.2031 187.093C83.2254 190.56 88.0935 224.274 89.3522 227.346" stroke="#EE8E46" stroke-miterlimit="10"/>
<path d="M89.9805 188.116C90.6756 191.883 95.3189 224.873 96.5679 228.398" stroke="#EE8E46" stroke-miterlimit="10"/>
<path d="M68.4311 225.794C68.6532 227.421 68.4676 229.192 68.6897 230.819C66.9089 230.373 65.1102 230.084 63.3023 229.933C62.3905 229.861 61.4539 229.825 60.5933 230.227C58.9572 230.991 57.9046 233.371 58.0747 235.666C58.2448 237.96 59.5506 240.01 61.1968 240.785C62.3769 241.339 63.6572 241.291 64.9083 241.229C67.41 241.116 69.9123 240.993 72.414 240.88C74.9535 240.762 77.5005 240.645 80.0019 240.085C79.3715 235.229 78.6082 230.563 76.9811 226.119" stroke="#EE8E46" stroke-miterlimit="10"/>
<path d="M88.651 226.882L89.3159 231.548C87.5727 231.118 85.8122 230.834 84.05 230.689C83.1611 230.62 82.2399 230.587 81.4041 230.961C79.8088 231.69 78.7796 233.95 78.9494 236.133C79.1191 238.316 80.3997 240.279 82.0096 241.019C83.168 241.55 84.4171 241.508 85.6371 241.452C88.0839 241.352 90.5313 241.242 92.9781 241.141C95.4627 241.036 97.9473 240.931 100.392 240.414C99.7623 235.783 97.3613 231.708 95.76 227.462" stroke="#EE8E46" stroke-miterlimit="10"/>
<path d="M68.8254 229.136C68.7103 230.297 69.2169 231.47 69.9339 232.188C70.6509 232.906 71.544 233.232 72.4221 233.447C73.3819 233.673 74.426 233.763 75.2502 233.102C75.702 232.737 76.0474 232.17 76.3488 231.588C76.8298 230.674 77.2405 229.691 77.5788 228.67" stroke="#EE8E46" stroke-miterlimit="10"/>
<path d="M89.2587 231.168C90.4803 231.905 91.8145 232.412 93.1468 232.285C94.479 232.158 95.8125 231.347 96.539 229.891" stroke="#EE8E46" stroke-miterlimit="10"/>
<path d="M83.688 113.924C87.7092 131.907 91.5197 171.899 96.6407 189.446C91.845 188.474 87.0486 187.512 82.2529 186.541C81.5562 186.397 80.83 186.24 80.2606 185.782C79.4107 185.086 79.1707 183.898 78.9919 182.819C76.9435 170.456 75.9143 157.044 74.5527 144.632C77.1995 158.843 77.571 173.354 75.6421 187.397C70.6395 187.824 65.5486 187.637 60.5132 186.845C58.6433 161.18 57.7671 135.417 55.8965 109.762" stroke="#EE8E46" stroke-miterlimit="10"/>
<path d="M46.9066 26.0013C48.5454 26.9054 49.1123 27.5375 49.3483 29.8644C48.0733 33.093 39.754 37.1113 37.7697 32.703C35.4913 27.6293 44.8828 24.3303 46.9059 26.0111L46.9066 26.0013Z" stroke="#EE8E46" stroke-miterlimit="10"/>
<path d="M51.4653 40.691C51.5053 42.8139 51.5028 45.121 50.5383 46.8101C50.0516 47.664 49.3558 48.2603 48.6496 48.7853C47.3254 49.7571 45.8431 50.498 44.3229 50.3349C43.4095 50.2329 41.4544 49.4623 41.3532 47.9205C41.2333 46.2065 42.9373 45.8747 43.8136 45.5123C46.5433 44.3886 49.1198 42.8449 51.4728 40.692L51.4653 40.691Z" stroke="#EE8E46" stroke-miterlimit="10"/>
<path d="M50.2544 32.8559C50.5925 32.8514 50.9733 32.8823 51.1985 33.2193C51.4503 33.6094 51.3563 34.2307 51.0987 34.6025C50.8412 34.9744 50.4615 35.1516 50.0981 35.3112C48.303 36.1123 46.5074 36.9232 44.7123 37.7242C44.1009 37.9994 41.3946 39.5211 40.9696 38.4642C40.493 37.2815 42.3472 36.0426 42.8549 35.6348C45.0875 33.9015 47.6537 32.906 50.2625 32.8471L50.2544 32.8559Z" stroke="#EE8E46" stroke-miterlimit="10"/>
<path d="M43.8685 39.6892C44.3287 40.4442 44.9097 41.0764 45.5553 41.529L46.1012 38.7478C46.8135 39.4372 47.5521 40.0707 48.317 40.6481L48.778 38.3511C48.8021 38.2156 48.8424 38.0624 48.9227 37.9839C49.0111 37.8966 49.8425 38.6018 49.9542 38.6167C50.6618 38.701 50.6659 38.0773 51.3735 38.1616C51.0029 37.5276 50.6646 36.8582 50.381 36.1566C51.2071 36.2666 52.0478 36.2695 52.8728 36.1712C52.1563 35.4317 51.2188 35.079 50.3235 35.2175C49.7928 35.2954 49.2813 35.5345 48.7772 35.7746C46.8617 36.6889 44.8078 37.4262 42.9685 38.5488C41.4581 39.4674 41.454 41.3298 43.3382 41.8978C43.396 41.7073 43.9832 39.8829 43.8678 39.6991L43.8685 39.6892Z" stroke="#EE8E46" stroke-miterlimit="10"/>
<path d="M37.6881 35.3603C37.7057 34.7665 37.8011 34.0168 38.2455 33.8604C38.5828 33.7388 38.9346 34.0685 39.1254 34.4553C39.3163 34.842 39.4197 35.3052 39.6267 35.6745C39.8337 36.0438 40.2184 36.3291 40.5373 36.1464C40.5534 35.4644 40.562 34.7815 40.5781 34.0995C40.5852 33.993 40.5857 33.8758 40.6367 33.7848C40.687 33.7035 40.7786 33.6765 40.8615 33.6678C41.3451 33.5948 41.853 33.8279 42.1882 34.2923C42.4288 34.6074 42.6595 35.0678 42.991 35.0333C43.383 34.9873 43.5083 34.349 43.7102 33.9066C44.016 33.253 44.7094 32.9535 45.2578 33.2506C45.4818 33.3681 45.6992 33.5824 45.9391 33.5749C46.2989 33.5637 46.5317 33.1058 46.7992 32.7991C47.1548 32.4062 47.6288 32.2537 48.1011 32.2378C48.626 32.219 49.1553 32.3572 49.637 32.6455" stroke="#EE8E46" stroke-miterlimit="10"/>
<path d="M41.0669 44.0586C41.1222 44.5835 41.3618 45.0533 41.6871 45.3654C42.0124 45.6775 42.4003 45.8388 42.8023 45.9023C43.3019 45.969 43.8195 45.8788 44.241 45.5369C44.6624 45.1951 44.9613 44.5483 44.93 43.8872C44.9278 43.8073 44.9188 43.7166 44.8861 43.6426C44.8473 43.5478 44.7841 43.4796 44.7203 43.4214C43.9203 42.6678 40.807 41.4065 41.0669 44.0586Z" stroke="#EE8E46" stroke-miterlimit="10"/>
<path d="M42.3729 44.4218L42.613 44.4539L42.2154 44.4008C42.3879 44.4238 42.5986 43.7597 42.7718 43.7728C42.7069 43.724 42.4378 44.4706 42.3729 44.4218Z" stroke="#EE8E46" stroke-miterlimit="10"/>
<path d="M43.5469 44.2079C43.5592 44.139 43.5108 44.062 43.4571 44.065C43.4326 44.2028 43.4908 44.3617 43.5859 44.4247" stroke="#EE8E46" stroke-miterlimit="10"/>
<path d="M45.0493 42.0022C45.1047 42.5271 45.3442 42.9969 45.6695 43.309C45.9948 43.6211 46.3827 43.7824 46.7847 43.8459C47.2844 43.9126 47.8019 43.8224 48.2234 43.4806C48.6448 43.1387 48.9437 42.4919 48.9124 41.8309C48.9102 41.7509 48.9012 41.6602 48.8685 41.5862C48.8297 41.4914 48.7665 41.4233 48.7027 41.365C47.9028 40.6114 44.7895 39.3501 45.0493 42.0022Z" stroke="#EE8E46" stroke-miterlimit="10"/>
<path d="M48.9058 42.1385C49.2809 42.3192 49.7101 42.256 50.0672 42.0224C50.4243 41.7887 50.7161 41.3957 50.9277 40.9518C51.2 40.3955 51.373 39.7355 51.3264 39.0662C51.2798 38.397 50.9816 37.7444 50.5216 37.4721C50.4634 37.4341 50.4045 37.4062 50.3362 37.4071C50.2603 37.407 50.181 37.4567 50.11 37.4975C49.243 38.095 46.9798 41.1983 48.8908 42.1365L48.9058 42.1385Z" stroke="#EE8E46" stroke-miterlimit="10"/>
<path d="M40.0005 30.1557C39.9577 30.12 39.9094 30.0537 39.9289 29.9865C39.9484 29.9193 40.0422 29.9817 40.0023 30.0163C40.0075 29.9372 40.0134 29.8482 40.0187 29.7691L40.3249 29.81" stroke="#EE8E46" stroke-miterlimit="10"/>
<path d="M44.4961 28.8178C44.769 28.8732 45.0512 28.9006 45.3268 28.9174C45.4305 28.931 45.5853 28.8539 45.5493 28.7225C45.5371 28.6819 45.5094 28.6489 45.4737 28.6247C45.3245 28.5076 45.148 28.4649 44.9797 28.5208" stroke="#EE8E46" stroke-miterlimit="10"/>
<path d="M41.9688 28.3358L42.5222 28.4059C42.4631 28.3984 42.4035 28.4001 42.3364 28.4008C42.3605 28.3763 42.3765 28.3599 42.4006 28.3354" stroke="#EE8E46" stroke-miterlimit="10"/>
<path d="M43.6225 31.1679C43.8724 30.9693 44.0754 30.6736 44.1984 30.3168C44.2162 30.2789 44.2271 30.2299 44.2071 30.1869C44.1946 30.1449 44.1574 30.1298 44.1278 30.1158C44.0384 30.0837 43.94 30.0706 43.8597 30.1305C43.7793 30.1904 43.7315 30.3353 43.7702 30.4413" stroke="#EE8E46" stroke-miterlimit="10"/>
<path d="M46.9803 29.9121C47.0177 29.6954 47.0248 29.4747 46.994 29.249C46.8912 29.4166 46.7857 29.6242 46.8172 29.84C46.8486 30.0557 47.1328 30.1439 47.1702 29.9272" stroke="#EE8E46" stroke-miterlimit="10"/>
<path d="M39.5551 32.1065C39.8318 32.1137 40.1104 32.0916 40.3903 32.0499C40.4962 32.0345 40.6377 31.9352 40.5936 31.8113C40.5814 31.7703 40.5455 31.7459 40.5097 31.7215C40.351 31.6316 40.1641 31.6265 40.009 31.7043" stroke="#EE8E46" stroke-miterlimit="10"/>
<path d="M42.1278 32.7234C42.1424 32.5039 42.1268 32.2804 42.0721 32.0719C41.9909 32.2623 41.9 32.4817 41.9623 32.6913C42.0245 32.9009 42.304 32.9381 42.3262 32.7197" stroke="#EE8E46" stroke-miterlimit="10"/>
</svg>
