<svg width="187" height="261" viewBox="0 0 187 261" fill="none" xmlns="http://www.w3.org/2000/svg">
<path d="M0.859375 141.05L47.4894 246.66L90.0094 259L125.669 260.38L157.209 245.29L173.669 194.54L186.019 139.68L169.559 136.94L158.589 150.66L144.869 141.05L129.779 157.51L120.179 147.91L98.8994 163.51L85.0994 140.97L61.2094 153.4L51.6094 136.94L31.0394 150.66L11.8294 138.31L0.859375 141.05Z" stroke="#EE8E46" stroke-miterlimit="10"/>
<path d="M178.931 100.1C179.511 105.36 173.921 109.1 175.741 114.47C177.051 118.35 179.971 121.86 181.561 125.71C183.411 130.2 185.071 134.9 186.021 139.68" stroke="#EE8E46" stroke-miterlimit="10"/>
<path d="M175.01 92.1201C176.36 94.8501 177.71 97.5901 179.06 100.32" stroke="#EE8E46" stroke-miterlimit="10"/>
<path d="M175.151 92.4005C170.441 86.8305 163.771 83.4504 158.801 78.1604L157.951 77.4904L156.421 75.2004C155.461 73.7604 154.791 72.1404 154.471 70.4404" stroke="#EE8E46" stroke-miterlimit="10"/>
<path d="M157.48 40.0596C160.59 47.8396 154.85 56.3396 154.67 64.0196" stroke="#EE8E46" stroke-miterlimit="10"/>
<path d="M84.6602 39.6698C92.6302 30.0298 99.2802 13.7898 109.35 5.86985C114.18 2.06985 120.63 -0.450134 126.5 2.44987C132.31 5.31987 136.07 11.2698 139.99 16.1798C145.94 23.6198 153.45 31.3599 157.48 40.0599" stroke="#EE8E46" stroke-miterlimit="10"/>
<path d="M46.6094 54.9799C58.4894 48.2399 74.4494 49.6499 84.6594 39.6699" stroke="#EE8E46" stroke-miterlimit="10"/>
<path d="M32.75 83.6302C36.72 74.8002 40.28 62.2603 46.85 54.7803" stroke="#EE8E46" stroke-miterlimit="10"/>
<path d="M13.6992 102.62C17.3892 97.7798 28.7592 87.6897 33.0392 83.4697" stroke="#EE8E46" stroke-miterlimit="10"/>
<path d="M2.79079 146.95C0.940786 142.56 1.11081 140.01 2.38081 135.47C3.43081 131.72 4.70079 128.02 6.17079 124.41C7.64079 120.8 9.6008 117.49 10.8708 113.9C12.1408 110.31 11.7208 105.84 13.7008 102.62" stroke="#EE8E46" stroke-miterlimit="10"/>
<path d="M31.0391 150.66L60.7591 250.84" stroke="#EE8E46" stroke-miterlimit="10"/>
<path d="M61.3398 152.69L73.5698 254.6" stroke="#EE8E46" stroke-miterlimit="10"/>
<path d="M98.7703 163.9L97.3203 259.88" stroke="#EE8E46" stroke-miterlimit="10"/>
<path d="M129.81 157.52L125.67 260.38" stroke="#EE8E46" stroke-miterlimit="10"/>
<path d="M159.22 150.72L151.24 248.94" stroke="#EE8E46" stroke-miterlimit="10"/>
<mask id="path-16-inside-1_460_24484" fill="white">
<path d="M13.4407 102.88C15.7907 104.75 18.0707 106.77 20.7607 108.15C23.6007 109.61 26.8707 110.04 29.9007 110.98C32.9307 111.92 36.0007 113.36 38.9707 114.75C41.5907 115.98 44.1807 117.29 46.7507 118.63C57.2407 124.11 67.5707 130.21 78.9007 133.83C84.3307 135.56 90.0007 136.67 95.7207 136.64C98.5607 136.62 101.401 136.32 104.181 135.73C105.641 135.42 107.091 135.03 108.511 134.56C109.931 134.09 111.241 133.41 112.601 132.86C113.961 132.31 115.371 131.86 116.561 131.07C117.991 130.12 119.431 129.21 120.911 128.33C123.891 126.57 127.001 124.97 130.271 123.82C133.071 122.83 135.991 122.31 138.911 121.82C141.431 121.39 143.971 121.09 146.511 120.79C156.341 119.63 167.041 118.47 174.471 111.19C175.411 110.27 176.261 109.27 177.051 108.23C177.341 107.85 176.691 107.47 176.401 107.85C173.261 111.99 168.951 114.92 164.091 116.67C159.331 118.39 154.281 119.1 149.281 119.71C144.281 120.32 139.151 120.88 134.161 121.94C127.711 123.3 121.811 126.71 116.361 130.3C115.081 131.14 113.611 131.65 112.191 132.21C110.891 132.73 109.621 133.4 108.291 133.83C105.461 134.76 102.531 135.39 99.5707 135.68C93.9507 136.23 88.2907 135.59 82.8307 134.18C71.4807 131.25 61.1307 125.41 50.8507 119.95C45.6907 117.21 40.4807 114.63 35.1707 112.18C32.1207 110.77 28.8907 109.84 25.6407 109.01C24.0807 108.61 22.5707 108.23 21.1207 107.49C19.7807 106.8 18.5307 105.95 17.3307 105.04C16.1307 104.13 15.0807 103.24 13.9507 102.34C13.5807 102.04 13.0407 102.57 13.4207 102.87L13.4407 102.88Z"/>
</mask>
<path d="M13.4407 102.88L14.0634 102.097L13.9815 102.032L13.8879 101.986L13.4407 102.88ZM20.7607 108.15L21.2179 107.261L21.2172 107.26L20.7607 108.15ZM38.9707 114.75L39.3957 113.845L39.3946 113.844L38.9707 114.75ZM46.7507 118.63L47.2137 117.744L47.2131 117.743L46.7507 118.63ZM78.9007 133.83L78.5964 134.783L78.5972 134.783L78.9007 133.83ZM95.7207 136.64L95.7259 137.64L95.7277 137.64L95.7207 136.64ZM104.181 135.73L104.388 136.708L104.388 136.708L104.181 135.73ZM116.561 131.07L117.114 131.903L117.114 131.903L116.561 131.07ZM120.911 128.33L120.402 127.469L120.4 127.47L120.911 128.33ZM130.271 123.82L130.603 124.763L130.604 124.763L130.271 123.82ZM138.911 121.82L139.076 122.806L139.079 122.806L138.911 121.82ZM146.511 120.79L146.394 119.797L146.393 119.797L146.511 120.79ZM174.471 111.19L173.771 110.475L173.771 110.476L174.471 111.19ZM177.051 108.23L176.256 107.623L176.254 107.625L177.051 108.23ZM176.401 107.85L175.606 107.243L175.604 107.246L176.401 107.85ZM164.091 116.67L163.752 115.729L163.751 115.729L164.091 116.67ZM134.161 121.94L134.367 122.918L134.368 122.918L134.161 121.94ZM116.361 130.3L116.909 131.136L116.911 131.135L116.361 130.3ZM112.191 132.21L111.824 131.28L111.819 131.282L112.191 132.21ZM108.291 133.83L107.983 132.878L107.979 132.88L108.291 133.83ZM99.5707 135.68L99.6681 136.675L99.6682 136.675L99.5707 135.68ZM82.8307 134.18L83.0808 133.212L83.0807 133.212L82.8307 134.18ZM50.8507 119.95L51.3198 119.067L51.3197 119.067L50.8507 119.95ZM35.1707 112.18L34.7511 113.088L34.7518 113.088L35.1707 112.18ZM25.6407 109.01L25.3924 109.979L25.3933 109.979L25.6407 109.01ZM21.1207 107.49L20.6629 108.379L20.6661 108.381L21.1207 107.49ZM13.9507 102.34L13.3209 103.117L13.3277 103.122L13.9507 102.34ZM13.4207 102.87L12.8011 103.655L12.8817 103.718L12.9735 103.764L13.4207 102.87ZM13.4407 102.88L12.8181 103.662C15.109 105.485 17.4995 107.601 20.3043 109.04L20.7607 108.15L21.2172 107.26C18.642 105.939 16.4725 104.014 14.0634 102.097L13.4407 102.88ZM20.7607 108.15L20.3035 109.039C21.8218 109.82 23.4333 110.314 25.0054 110.727C26.6157 111.15 28.1142 111.473 29.6044 111.935L29.9007 110.98L30.197 110.025C28.6573 109.547 27.0057 109.185 25.5136 108.793C23.9831 108.391 22.5397 107.94 21.2179 107.261L20.7607 108.15ZM29.9007 110.98L29.6044 111.935C32.5569 112.851 35.5629 114.259 38.5468 115.656L38.9707 114.75L39.3946 113.844C36.4385 112.461 33.3046 110.989 30.197 110.025L29.9007 110.98ZM38.9707 114.75L38.5457 115.655C41.1485 116.877 43.7252 118.18 46.2884 119.517L46.7507 118.63L47.2131 117.743C44.6363 116.4 42.0329 115.083 39.3957 113.845L38.9707 114.75ZM46.7507 118.63L46.2877 119.516C56.7131 124.963 67.1589 131.128 78.5964 134.783L78.9007 133.83L79.2051 132.877C67.9826 129.292 57.7683 123.257 47.2137 117.744L46.7507 118.63ZM78.9007 133.83L78.5972 134.783C84.0983 136.535 89.8747 137.671 95.7259 137.64L95.7207 136.64L95.7155 135.64C90.1267 135.669 84.5632 134.585 79.2043 132.877L78.9007 133.83ZM95.7207 136.64L95.7277 137.64C98.6333 137.619 101.541 137.313 104.388 136.708L104.181 135.73L103.973 134.752C101.261 135.327 98.4881 135.62 95.7137 135.64L95.7207 136.64ZM104.181 135.73L104.388 136.708C105.883 136.391 107.369 135.991 108.825 135.509L108.511 134.56L108.197 133.611C106.812 134.069 105.398 134.449 103.973 134.752L104.181 135.73ZM108.511 134.56L108.825 135.509C109.582 135.259 110.299 134.956 110.982 134.655C111.677 134.349 112.315 134.054 112.976 133.787L112.601 132.86L112.226 131.933C111.527 132.216 110.83 132.536 110.175 132.825C109.507 133.119 108.86 133.391 108.197 133.611L108.511 134.56ZM112.601 132.86L112.976 133.787C114.237 133.277 115.812 132.767 117.114 131.903L116.561 131.07L116.008 130.237C114.929 130.953 113.685 131.343 112.226 131.933L112.601 132.86ZM116.561 131.07L117.114 131.903C118.531 130.961 119.957 130.06 121.422 129.19L120.911 128.33L120.4 127.47C118.904 128.36 117.45 129.279 116.007 130.237L116.561 131.07ZM120.911 128.33L121.419 129.191C124.368 127.449 127.416 125.884 130.603 124.763L130.271 123.82L129.939 122.877C126.585 124.056 123.413 125.691 120.402 127.469L120.911 128.33ZM130.271 123.82L130.604 124.763C133.312 123.805 136.151 123.297 139.076 122.806L138.911 121.82L138.745 120.834C135.83 121.323 132.83 121.855 129.937 122.877L130.271 123.82ZM138.911 121.82L139.079 122.806C141.569 122.381 144.084 122.084 146.628 121.783L146.511 120.79L146.393 119.797C143.858 120.096 141.292 120.399 138.742 120.834L138.911 121.82ZM146.511 120.79L146.628 121.783C156.372 120.633 167.452 119.467 175.171 111.904L174.471 111.19L173.771 110.476C166.629 117.473 156.31 118.627 146.394 119.797L146.511 120.79ZM174.471 111.19L175.17 111.905C176.153 110.942 177.035 109.903 177.847 108.835L177.051 108.23L176.254 107.625C175.486 108.636 174.668 109.597 173.771 110.475L174.471 111.19ZM177.051 108.23L177.846 108.837C178.093 108.512 178.195 108.09 178.071 107.672C177.959 107.294 177.697 107.038 177.448 106.892C176.967 106.61 176.133 106.553 175.606 107.243L176.401 107.85L177.196 108.457C177.097 108.586 176.944 108.669 176.787 108.688C176.649 108.705 176.53 108.672 176.439 108.618C176.352 108.567 176.217 108.453 176.154 108.241C176.079 107.99 176.153 107.758 176.256 107.623L177.051 108.23ZM176.401 107.85L175.604 107.246C172.596 111.212 168.455 114.036 163.752 115.729L164.091 116.67L164.43 117.611C169.447 115.804 173.926 112.768 177.197 108.454L176.401 107.85ZM164.091 116.67L163.751 115.729C159.109 117.407 154.161 118.107 149.16 118.717L149.281 119.71L149.402 120.703C154.4 120.093 159.553 119.373 164.431 117.61L164.091 116.67ZM149.281 119.71L149.16 118.717C144.18 119.325 138.997 119.89 133.953 120.962L134.161 121.94L134.368 122.918C139.305 121.87 144.381 121.315 149.402 120.703L149.281 119.71ZM134.161 121.94L133.954 120.961C127.31 122.363 121.278 125.864 115.811 129.465L116.361 130.3L116.911 131.135C122.344 127.556 128.112 124.237 134.367 122.918L134.161 121.94ZM116.361 130.3L115.812 129.464C114.642 130.232 113.303 130.696 111.824 131.28L112.191 132.21L112.558 133.14C113.918 132.604 115.519 132.048 116.909 131.136L116.361 130.3ZM112.191 132.21L111.819 131.282C111.147 131.551 110.473 131.862 109.847 132.139C109.207 132.423 108.596 132.68 107.983 132.878L108.291 133.83L108.598 134.781C109.315 134.55 110.005 134.257 110.657 133.968C111.324 133.673 111.935 133.389 112.562 133.138L112.191 132.21ZM108.291 133.83L107.979 132.88C105.215 133.788 102.357 134.402 99.4732 134.685L99.5707 135.68L99.6682 136.675C102.704 136.378 105.706 135.732 108.603 134.78L108.291 133.83ZM99.5707 135.68L99.4733 134.685C93.9924 135.221 88.4518 134.599 83.0808 133.212L82.8307 134.18L82.5807 135.148C88.1297 136.581 93.909 137.239 99.6681 136.675L99.5707 135.68ZM82.8307 134.18L83.0807 133.212C71.872 130.318 61.6422 124.549 51.3198 119.067L50.8507 119.95L50.3816 120.833C60.6192 126.271 71.0894 132.182 82.5808 135.148L82.8307 134.18ZM50.8507 119.95L51.3197 119.067C46.143 116.318 40.9163 113.73 35.5897 111.272L35.1707 112.18L34.7518 113.088C40.0451 115.53 45.2384 118.102 50.3817 120.833L50.8507 119.95ZM35.1707 112.18L35.5903 111.272C32.4539 109.822 29.1509 108.874 25.8882 108.041L25.6407 109.01L25.3933 109.979C28.6305 110.806 31.7875 111.718 34.7511 113.088L35.1707 112.18ZM25.6407 109.01L25.8891 108.041C24.309 107.636 22.9095 107.28 21.5753 106.599L21.1207 107.49L20.6661 108.381C22.2319 109.18 23.8525 109.584 25.3924 109.979L25.6407 109.01ZM21.1207 107.49L21.5785 106.601C20.3087 105.947 19.1095 105.134 17.935 104.243L17.3307 105.04L16.7265 105.837C17.9519 106.766 19.2528 107.653 20.6629 108.379L21.1207 107.49ZM17.3307 105.04L17.935 104.243C16.7444 103.34 15.7369 102.484 14.5737 101.558L13.9507 102.34L13.3277 103.122C14.4246 103.996 15.5171 104.92 16.7265 105.837L17.3307 105.04ZM13.9507 102.34L14.5805 101.563C13.8985 101.01 13.0968 101.277 12.7007 101.67C12.4945 101.874 12.3052 102.189 12.2918 102.584C12.2769 103.021 12.482 103.403 12.8011 103.655L13.4207 102.87L14.0403 102.085C14.1694 102.187 14.2995 102.391 14.2906 102.652C14.2831 102.874 14.1807 103.019 14.1082 103.09C14.0325 103.165 13.9241 103.228 13.7834 103.246C13.6226 103.266 13.4501 103.221 13.3209 103.117L13.9507 102.34ZM13.4207 102.87L12.9735 103.764L12.9935 103.774L13.4407 102.88L13.8879 101.986L13.8679 101.976L13.4207 102.87Z" fill="#EE8E46" mask="url(#path-16-inside-1_460_24484)"/>
<mask id="path-18-inside-2_460_24484" fill="white">
<path d="M31.35 85.4198C33.36 85.8898 35.4201 86.1099 37.4401 86.5599C39.4601 87.0099 41.44 88.0298 43.36 88.9698C47.58 91.0298 51.6801 93.3199 55.7601 95.6299C63.7601 100.15 71.8001 104.79 80.5701 107.69C84.9601 109.14 89.6401 110.29 94.2701 110.43C99.4601 110.58 104.65 110.13 109.77 109.33C120.2 107.71 130.33 104.68 140.58 102.23C143.17 101.61 145.77 101.03 148.38 100.52C149.7 100.26 151.03 100.02 152.36 99.7898C153.69 99.5598 154.97 99.4099 156.25 99.0299C161.28 97.5699 166.29 96.0098 171.42 94.9098C172.73 94.6298 174.05 94.3798 175.38 94.1598C175.86 94.0798 175.65 93.3599 175.18 93.4399C169.98 94.3099 164.9 95.7199 159.84 97.1999C158.58 97.5699 157.32 97.9399 156.05 98.3099C154.78 98.6799 153.47 98.8499 152.16 99.0699C149.57 99.4999 147 100.01 144.44 100.58C134.16 102.84 124.07 105.93 113.72 107.89C108.58 108.87 103.38 109.55 98.1401 109.68C95.5501 109.75 92.98 109.69 90.42 109.3C88.14 108.95 85.8701 108.46 83.6501 107.84C74.7501 105.36 66.61 100.9 58.61 96.3799C54.56 94.0899 50.5301 91.7799 46.3901 89.6499C44.3101 88.5799 42.2101 87.5698 40.0801 86.6098C38.3101 85.8098 36.33 85.5598 34.43 85.2398C33.47 85.0798 32.5 84.9199 31.55 84.6999C31.08 84.5899 30.88 85.3098 31.35 85.4198Z"/>
</mask>
<path d="M31.35 85.4198L31.1221 86.3935L31.1223 86.3936L31.35 85.4198ZM43.36 88.9698L42.9203 89.868L42.9214 89.8685L43.36 88.9698ZM55.7601 95.6299L55.2674 96.5001L55.2682 96.5005L55.7601 95.6299ZM80.5701 107.69L80.2561 108.639L80.2564 108.639L80.5701 107.69ZM94.2701 110.43L94.2399 111.429L94.2412 111.429L94.2701 110.43ZM109.77 109.33L109.617 108.342L109.616 108.342L109.77 109.33ZM140.58 102.23L140.813 103.202L140.813 103.202L140.58 102.23ZM148.38 100.52L148.572 101.501L148.573 101.501L148.38 100.52ZM156.25 99.0299L155.971 98.0695L155.965 98.0712L156.25 99.0299ZM171.42 94.9098L171.211 93.9319L171.21 93.9321L171.42 94.9098ZM175.38 94.1598L175.543 95.1464L175.544 95.1462L175.38 94.1598ZM175.18 93.4399L175.345 94.4262L175.348 94.4257L175.18 93.4399ZM159.84 97.1999L159.559 96.2401L159.558 96.2404L159.84 97.1999ZM152.16 99.0699L152.324 100.056L152.326 100.056L152.16 99.0699ZM144.44 100.58L144.655 101.557L144.657 101.556L144.44 100.58ZM113.72 107.89L113.534 106.907L113.533 106.908L113.72 107.89ZM98.1401 109.68L98.1153 108.68L98.1131 108.68L98.1401 109.68ZM90.42 109.3L90.2683 110.288L90.2694 110.288L90.42 109.3ZM83.6501 107.84L83.9191 106.877L83.9185 106.877L83.6501 107.84ZM58.61 96.3799L58.1178 97.2503L58.1181 97.2505L58.61 96.3799ZM46.3901 89.6499L46.8476 88.7607L46.8475 88.7606L46.3901 89.6499ZM40.0801 86.6098L39.6682 87.5211L39.6692 87.5215L40.0801 86.6098ZM34.43 85.2398L34.5961 84.2537L34.5944 84.2535L34.43 85.2398ZM31.55 84.6999L31.3222 85.6736L31.3244 85.6741L31.55 84.6999ZM31.35 85.4198L31.1223 86.3936C32.163 86.6369 33.2107 86.8142 34.2267 86.9837C35.2525 87.1549 36.2441 87.3179 37.2226 87.5359L37.4401 86.5599L37.6575 85.5838C36.616 85.3518 35.5677 85.1798 34.5559 85.011C33.5343 84.8405 32.547 84.6728 31.5777 84.4461L31.35 85.4198ZM37.4401 86.5599L37.2226 87.5359C39.0999 87.9541 40.9573 88.9069 42.9203 89.868L43.36 88.9698L43.7998 88.0717C41.9228 87.1528 39.8202 86.0656 37.6575 85.5838L37.4401 86.5599ZM43.36 88.9698L42.9214 89.8685C47.1113 91.9138 51.1878 94.1903 55.2674 96.5001L55.7601 95.6299L56.2528 94.7597C52.1723 92.4494 48.0488 90.1459 43.7987 88.0712L43.36 88.9698ZM55.7601 95.6299L55.2682 96.5005C63.2453 101.008 71.375 105.703 80.2561 108.639L80.5701 107.69L80.884 106.74C72.2252 103.877 64.2748 99.2921 56.252 94.7592L55.7601 95.6299ZM80.5701 107.69L80.2564 108.639C84.6895 110.104 89.4731 111.285 94.2399 111.429L94.2701 110.43L94.3003 109.43C89.8071 109.294 85.2306 108.176 80.8837 106.74L80.5701 107.69ZM94.2701 110.43L94.2412 111.429C99.5072 111.582 104.76 111.125 109.924 110.318L109.77 109.33L109.616 108.342C104.54 109.135 99.413 109.578 94.299 109.43L94.2701 110.43ZM109.77 109.33L109.924 110.318C120.406 108.69 130.636 105.635 140.813 103.202L140.58 102.23L140.348 101.257C130.024 103.725 119.995 106.73 109.617 108.342L109.77 109.33ZM140.58 102.23L140.813 103.202C143.393 102.585 145.979 102.008 148.572 101.501L148.38 100.52L148.188 99.5384C145.561 100.052 142.947 100.635 140.347 101.257L140.58 102.23ZM148.38 100.52L148.573 101.501C149.883 101.243 151.205 101.004 152.53 100.775L152.36 99.7898L152.19 98.8045C150.855 99.0352 149.517 99.2767 148.187 99.5387L148.38 100.52ZM152.36 99.7898L152.53 100.775C153.791 100.557 155.18 100.391 156.535 99.9885L156.25 99.0299L155.965 98.0712C154.76 98.429 153.589 98.5624 152.19 98.8045L152.36 99.7898ZM156.25 99.0299L156.529 99.9903C161.585 98.5227 166.545 96.9779 171.63 95.8876L171.42 94.9098L171.21 93.9321C166.035 95.0418 160.975 96.6171 155.971 98.0695L156.25 99.0299ZM171.42 94.9098L171.629 95.8877C172.924 95.611 174.229 95.3639 175.543 95.1464L175.38 94.1598L175.217 93.1732C173.872 93.3958 172.536 93.6486 171.211 93.9319L171.42 94.9098ZM175.38 94.1598L175.544 95.1462C175.941 95.0801 176.303 94.8491 176.504 94.4652C176.687 94.1151 176.678 93.7476 176.598 93.466C176.443 92.9225 175.871 92.3079 175.012 92.454L175.18 93.4399L175.348 94.4257C175.187 94.453 175.016 94.4097 174.885 94.3133C174.77 94.2287 174.705 94.1191 174.675 94.0137C174.646 93.9121 174.629 93.7346 174.731 93.5395C174.851 93.3106 175.059 93.1995 175.216 93.1734L175.38 94.1598ZM175.18 93.4399L175.015 92.4536C169.752 93.3342 164.623 94.7592 159.559 96.2401L159.84 97.1999L160.121 98.1597C165.178 96.6806 170.208 95.2856 175.345 94.4262L175.18 93.4399ZM159.84 97.1999L159.558 96.2404C158.298 96.6104 157.039 96.9801 155.77 97.3498L156.05 98.3099L156.33 99.2699C157.601 98.8996 158.862 98.5293 160.122 98.1594L159.84 97.1999ZM156.05 98.3099L155.77 97.3498C154.574 97.6983 153.355 97.8552 151.994 98.0837L152.16 99.0699L152.326 100.056C153.585 99.8445 154.986 99.6614 156.33 99.2699L156.05 98.3099ZM152.16 99.0699L151.996 98.0834C149.386 98.5168 146.798 99.0304 144.223 99.6038L144.44 100.58L144.657 101.556C147.202 100.989 149.754 100.483 152.324 100.056L152.16 99.0699ZM144.44 100.58L144.225 99.6032C139.065 100.738 133.95 102.081 128.859 103.378C123.76 104.678 118.676 105.934 113.534 106.907L113.72 107.89L113.906 108.872C119.114 107.886 124.25 106.617 129.353 105.316C134.465 104.014 139.536 102.682 144.655 101.557L144.44 100.58ZM113.72 107.89L113.533 106.908C108.43 107.88 103.286 108.552 98.1153 108.68L98.1401 109.68L98.1649 110.68C103.474 110.548 108.73 109.859 113.907 108.872L113.72 107.89ZM98.1401 109.68L98.1131 108.68C95.5538 108.749 93.0491 108.689 90.5706 108.311L90.42 109.3L90.2694 110.288C92.911 110.691 95.5464 110.75 98.1671 110.679L98.1401 109.68ZM90.42 109.3L90.5718 108.311C88.3315 107.968 86.1007 107.486 83.9191 106.877L83.6501 107.84L83.3811 108.803C85.6395 109.434 87.9486 109.932 90.2683 110.288L90.42 109.3ZM83.6501 107.84L83.9185 106.877C75.1511 104.434 67.1092 100.033 59.102 95.5092L58.61 96.3799L58.1181 97.2505C66.1109 101.766 74.3491 106.286 83.3817 108.803L83.6501 107.84ZM58.61 96.3799L59.1022 95.5094C55.0604 93.224 51.0095 90.902 46.8476 88.7607L46.3901 89.6499L45.9326 90.5391C50.0506 92.6578 54.0596 94.9557 58.1178 97.2503L58.61 96.3799ZM46.3901 89.6499L46.8475 88.7606C44.7516 87.6825 42.6361 86.665 40.491 85.6982L40.0801 86.6098L39.6692 87.5215C41.7841 88.4747 43.8685 89.4773 45.9326 90.5391L46.3901 89.6499ZM40.0801 86.6098L40.4919 85.6986C38.5731 84.8313 36.4282 84.5623 34.5961 84.2537L34.43 85.2398L34.264 86.226C36.2319 86.5574 38.047 86.7884 39.6682 87.5211L40.0801 86.6098ZM34.43 85.2398L34.5944 84.2535C33.6275 84.0923 32.6896 83.9373 31.7757 83.7257L31.55 84.6999L31.3244 85.6741C32.3105 85.9024 33.3126 86.0674 34.2657 86.2262L34.43 85.2398ZM31.55 84.6999L31.7779 83.7262C30.8971 83.52 30.291 84.1447 30.134 84.7097C30.0545 84.9959 30.0541 85.3508 30.2197 85.6872C30.399 86.0512 30.7289 86.3015 31.1221 86.3935L31.35 85.4198L31.5779 84.4462C31.7361 84.4832 31.9149 84.6023 32.0141 84.8038C32.0997 84.9777 32.0906 85.1388 32.061 85.245C32.0312 85.3526 31.9608 85.4776 31.8243 85.5722C31.6679 85.6807 31.4784 85.7101 31.3222 85.6736L31.55 84.6999Z" fill="#EE8E46" mask="url(#path-18-inside-2_460_24484)"/>
<mask id="path-20-inside-3_460_24484" fill="white">
<path d="M47.0208 55.6596C61.0908 60.1396 75.2708 64.3896 88.9508 69.9896C92.4808 71.4396 95.9308 73.0396 99.4108 74.5996C102.431 75.9496 105.761 76.2696 109.031 75.8896C112.511 75.4796 115.871 74.4097 119.151 73.2097C122.431 72.0097 125.861 70.5096 129.401 69.7296C137.501 67.9696 145.881 69.0396 154.041 67.7696C154.521 67.6996 154.311 66.9696 153.841 67.0496C146.601 68.1796 139.221 67.4496 131.971 68.5096C130.181 68.7696 128.401 69.1396 126.661 69.6596C124.921 70.1796 123.171 70.8896 121.441 71.5496C118.191 72.7896 114.911 74.0096 111.501 74.7196C108.091 75.4296 104.631 75.5797 101.331 74.5297C99.6108 73.9797 98.0108 73.0996 96.3708 72.3596C94.7308 71.6196 93.0008 70.8697 91.3108 70.1497C84.6008 67.3197 77.7508 64.8296 70.8508 62.5096C63.0108 59.8696 55.1008 57.4296 47.2108 54.9196C46.7508 54.7696 46.5508 55.4996 47.0108 55.6396L47.0208 55.6596Z"/>
</mask>
<path d="M47.0208 55.6596L46.1269 56.1079L46.3159 56.4846L46.7174 56.6125L47.0208 55.6596ZM88.9508 69.9896L89.3308 69.0646L89.3297 69.0642L88.9508 69.9896ZM99.4108 74.5996L99.0017 75.5121L99.0027 75.5125L99.4108 74.5996ZM109.031 75.8896L109.146 76.883L109.148 76.8828L109.031 75.8896ZM129.401 69.7296L129.189 68.7524L129.186 68.753L129.401 69.7296ZM154.041 67.7696L153.896 66.7801L153.887 66.7815L154.041 67.7696ZM153.841 67.0496L153.995 68.0377L154.009 68.0354L153.841 67.0496ZM131.971 68.5096L132.115 69.4993L132.115 69.4991L131.971 68.5096ZM121.441 71.5496L121.084 70.6153L121.084 70.6153L121.441 71.5496ZM101.331 74.5297L101.026 75.4821L101.028 75.4826L101.331 74.5297ZM91.3108 70.1497L91.7028 69.2297L91.6994 69.2283L91.3108 70.1497ZM70.8508 62.5096L70.5317 63.4574L70.5321 63.4575L70.8508 62.5096ZM47.2108 54.9196L46.9008 55.8704L46.9077 55.8726L47.2108 54.9196ZM47.0108 55.6396L47.9047 55.1913L47.7124 54.8079L47.302 54.683L47.0108 55.6396ZM47.0208 55.6596L46.7174 56.6125C60.8113 61.1001 74.9395 65.3345 88.572 70.9151L88.9508 69.9896L89.3297 69.0642C75.6021 63.4447 61.3704 59.1791 47.3242 54.7067L47.0208 55.6596ZM88.9508 69.9896L88.5709 70.9146C92.0814 72.3566 95.5061 73.9451 99.0017 75.5121L99.4108 74.5996L99.8198 73.6871C96.3555 72.1341 92.8802 70.5226 89.3308 69.0646L88.9508 69.9896ZM99.4108 74.5996L99.0027 75.5125C102.221 76.9512 105.739 77.2789 109.146 76.883L109.031 75.8896L108.915 74.8963C105.783 75.2604 102.64 74.948 99.8189 73.6867L99.4108 74.5996ZM109.031 75.8896L109.148 76.8828C112.747 76.4587 116.196 75.3556 119.494 74.1488L119.151 73.2097L118.807 72.2705C115.546 73.4637 112.275 74.5006 108.914 74.8965L109.031 75.8896ZM119.151 73.2097L119.494 74.1488C122.854 72.9195 126.163 71.467 129.616 70.7062L129.401 69.7296L129.186 68.753C125.558 69.5523 122.007 71.0998 118.807 72.2705L119.151 73.2097ZM129.401 69.7296L129.613 70.7068C133.562 69.8489 137.597 69.6768 141.725 69.5655C145.826 69.455 150.037 69.4049 154.195 68.7578L154.041 67.7696L153.887 66.7815C149.885 67.4044 145.825 67.4543 141.671 67.5662C137.545 67.6775 133.34 67.8503 129.189 68.7524L129.401 69.7296ZM154.041 67.7696L154.185 68.7592C154.588 68.7004 154.959 68.4707 155.163 68.0815C155.348 67.7293 155.338 67.3604 155.259 67.0814C155.108 66.5462 154.541 65.916 153.673 66.0638L153.841 67.0496L154.009 68.0354C153.844 68.0635 153.671 68.0175 153.541 67.9206C153.427 67.8359 153.364 67.7279 153.335 67.6254C153.307 67.5276 153.289 67.3493 153.393 67.1513C153.516 66.9161 153.734 66.8039 153.896 66.7801L154.041 67.7696ZM153.841 67.0496L153.687 66.0616C150.141 66.615 146.549 66.7147 142.885 66.8062C139.241 66.8971 135.521 66.9799 131.826 67.5202L131.971 68.5096L132.115 69.4991C135.67 68.9794 139.266 68.8971 142.935 68.8056C146.582 68.7145 150.301 68.6142 153.995 68.0377L153.841 67.0496ZM131.971 68.5096L131.827 67.52C129.997 67.7858 128.169 68.1653 126.374 68.7015L126.661 69.6596L126.947 70.6177C128.633 70.1139 130.364 69.7535 132.115 69.4993L131.971 68.5096ZM126.661 69.6596L126.374 68.7015C124.588 69.2353 122.786 69.9662 121.084 70.6153L121.441 71.5496L121.797 72.4839C123.556 71.813 125.253 71.1239 126.947 70.6177L126.661 69.6596ZM121.441 71.5496L121.084 70.6153C117.829 71.8572 114.619 73.049 111.297 73.7406L111.501 74.7196L111.705 75.6986C115.203 74.9702 118.552 73.722 121.797 72.4839L121.441 71.5496ZM111.501 74.7196L111.297 73.7406C107.984 74.4304 104.712 74.5562 101.634 73.5767L101.331 74.5297L101.028 75.4826C104.549 76.6031 108.198 76.4288 111.705 75.6986L111.501 74.7196ZM101.331 74.5297L101.635 73.5772C99.9867 73.05 98.5206 72.2326 96.7821 71.4481L96.3708 72.3596L95.9595 73.2711C97.501 73.9667 99.235 74.9094 101.026 75.4821L101.331 74.5297ZM96.3708 72.3596L96.7821 71.4481C95.1333 70.7041 93.3962 69.9511 91.7028 69.2297L91.3108 70.1497L90.9189 71.0696C92.6054 71.7882 94.3283 72.5351 95.9595 73.2711L96.3708 72.3596ZM91.3108 70.1497L91.6994 69.2283C84.9591 66.3855 78.0841 63.8867 71.1695 61.5618L70.8508 62.5096L70.5321 63.4575C77.4175 65.7726 84.2425 68.2538 90.9222 71.0711L91.3108 70.1497ZM70.8508 62.5096L71.1699 61.5619C63.3193 58.9184 55.3928 56.4731 47.514 53.9667L47.2108 54.9196L46.9077 55.8726C54.8089 58.3861 62.7023 60.8209 70.5317 63.4574L70.8508 62.5096ZM47.2108 54.9196L47.5209 53.9689C47.1329 53.8424 46.718 53.8884 46.3761 54.1106C46.0613 54.315 45.8804 54.6201 45.8018 54.9049C45.7229 55.191 45.7252 55.5336 45.872 55.8586C46.0295 56.2074 46.3296 56.4776 46.7197 56.5963L47.0108 55.6396L47.302 54.683C47.462 54.7317 47.6146 54.8581 47.6947 55.0353C47.764 55.1888 47.7587 55.332 47.7298 55.4368C47.7013 55.5404 47.6279 55.6823 47.4656 55.7877C47.2762 55.9108 47.0588 55.9219 46.9008 55.8703L47.2108 54.9196ZM47.0108 55.6396L46.1169 56.088L46.1269 56.1079L47.0208 55.6596L47.9147 55.2113L47.9047 55.1913L47.0108 55.6396Z" fill="#EE8E46" mask="url(#path-20-inside-3_460_24484)"/>
<mask id="path-22-inside-4_460_24484" fill="white">
<path d="M86.55 38.5002C89.99 41.1402 93.84 43.1602 97.98 44.4502C102.12 45.7402 106.14 46.2402 110.3 46.3902C120.17 46.7402 130.1 45.2802 139.79 43.5702C145.65 42.5402 151.49 41.3502 157.33 40.2302C157.8 40.1402 157.6 39.4202 157.13 39.5102C146.92 41.4702 136.72 43.6302 126.38 44.8202C117.65 45.8202 108.45 46.4602 99.85 44.2102C95.15 42.9802 90.78 40.8102 86.93 37.8502C86.55 37.5602 86.17 38.2102 86.55 38.5002Z"/>
</mask>
<path d="M86.55 38.5002L87.1588 37.7069L87.1567 37.7053L86.55 38.5002ZM110.3 46.3902L110.264 47.3896L110.265 47.3896L110.3 46.3902ZM139.79 43.5702L139.617 42.5853L139.616 42.5854L139.79 43.5702ZM157.33 40.2302L157.142 39.248L157.142 39.2481L157.33 40.2302ZM157.13 39.5102L156.942 38.5281L156.941 38.5282L157.13 39.5102ZM126.38 44.8202L126.494 45.8137L126.494 45.8137L126.38 44.8202ZM99.85 44.2102L99.5968 45.1777L99.5969 45.1777L99.85 44.2102ZM86.93 37.8502L87.5395 37.0574L87.5367 37.0552L86.93 37.8502ZM86.55 38.5002L85.9412 39.2935C89.472 42.0032 93.4268 44.0789 97.6825 45.405L97.98 44.4502L98.2775 43.4955C94.2531 42.2415 90.508 40.2772 87.1588 37.7069L86.55 38.5002ZM97.98 44.4502L97.6825 45.405C101.932 46.7291 106.045 47.2375 110.264 47.3896L110.3 46.3902L110.336 45.3909C106.235 45.243 102.308 44.7514 98.2775 43.4955L97.98 44.4502ZM110.3 46.3902L110.265 47.3896C120.247 47.7436 130.265 46.2666 139.964 44.555L139.79 43.5702L139.616 42.5854C129.935 44.2939 120.093 45.7369 110.335 45.3909L110.3 46.3902ZM139.79 43.5702L139.963 44.5551C145.833 43.5234 151.694 42.3293 157.518 41.2123L157.33 40.2302L157.142 39.2481C151.286 40.3711 145.467 41.5571 139.617 42.5853L139.79 43.5702ZM157.33 40.2302L157.518 41.2124C157.917 41.136 158.265 40.8943 158.455 40.5199C158.629 40.1774 158.624 39.8174 158.546 39.535C158.393 38.9849 157.812 38.3614 156.942 38.5281L157.13 39.5102L157.318 40.4924C157.159 40.5229 156.98 40.4839 156.838 40.3814C156.715 40.2917 156.648 40.1757 156.619 40.0704C156.591 39.968 156.578 39.7993 156.672 39.6142C156.782 39.3974 156.978 39.2794 157.142 39.248L157.33 40.2302ZM157.13 39.5102L156.941 38.5282C146.705 40.4932 136.557 42.6423 126.266 43.8268L126.38 44.8202L126.494 45.8137C136.883 44.6181 147.135 42.4472 157.319 40.4923L157.13 39.5102ZM126.38 44.8202L126.266 43.8267C117.544 44.8258 108.507 45.4416 100.103 43.2428L99.85 44.2102L99.5969 45.1777C108.393 47.4789 117.756 46.8146 126.494 45.8137L126.38 44.8202ZM99.85 44.2102L100.103 43.2428C95.5358 42.0475 91.2864 39.9382 87.5395 37.0574L86.93 37.8502L86.3205 38.643C90.2736 41.6822 94.7641 43.9129 99.5968 45.1777L99.85 44.2102ZM86.93 37.8502L87.5367 37.0552C87.2122 36.8077 86.7899 36.706 86.3721 36.83C85.9941 36.9423 85.7375 37.2036 85.5917 37.453C85.3104 37.9341 85.2525 38.768 85.9433 39.2952L86.55 38.5002L87.1567 37.7053C87.2858 37.8038 87.369 37.9569 87.3882 38.1143C87.4051 38.2523 87.3717 38.3711 87.3183 38.4624C87.2674 38.5494 87.1533 38.6844 86.9416 38.7472C86.6901 38.8219 86.4577 38.7477 86.3233 38.6451L86.93 37.8502Z" fill="#EE8E46" mask="url(#path-22-inside-4_460_24484)"/>
<path d="M154.68 63.71L154.46 64.7V66.9799L154.08 68.6599L154.3 70.9399L155.67 74.1299" stroke="#EE8E46" stroke-miterlimit="10"/>
</svg>
