<svg width="189" height="279" viewBox="0 0 189 279" fill="none" xmlns="http://www.w3.org/2000/svg">
<path d="M0.859375 159.05L47.4894 264.66L90.0094 277L125.669 278.38L157.209 263.29L173.669 212.54L186.019 157.68L169.559 154.94L158.589 168.66L144.869 159.05L129.779 175.51L120.179 165.91L99.6094 171.4L72.1794 163.17L61.2094 171.4L51.6094 154.94L31.0394 168.66L11.8294 156.31L0.859375 159.05Z" stroke="#EE8E46" stroke-miterlimit="10"/>
<path d="M11.4397 125.07C14.5997 116.59 16.1797 109.24 18.9597 101.89C20.9697 97.0604 24.9296 95.4203 28.7896 92.7203C32.7296 89.8203 35.5597 86.5204 37.8297 81.6904C39.4597 78.2304 40.2096 74.3504 41.1696 70.6304C42.5096 65.2804 45.1997 59.6304 49.2797 55.9804C61.8497 44.6604 81.4797 51.9304 92.0197 35.9404C95.0797 31.5804 97.6297 26.3004 101.21 21.3204C103.58 17.9704 106.19 14.7404 108.73 11.4904C117.53 -0.689641 125.2 -2.77964 134.71 9.87036C138.53 14.6204 142.49 19.5604 146.35 24.3704C151.32 30.7904 156.71 36.4304 159.37 42.8904C162.85 50.5704 157.72 57.4104 155.67 64.6304C152.49 76.3804 165.59 82.9103 173.02 90.4703C188.72 105.22 170.47 107 177.9 117.73C181.27 122.57 187.03 126.89 188.15 132.76C189.66 141.55 182.14 146.18 173.5 149.54C161.98 153.51 148.81 153.49 136.75 155.01C123.78 156.51 111.27 156.64 98.1397 155.83C75.7397 154.78 55.7196 153.64 33.3496 152.74C25.8796 151.96 11.5796 154.16 7.65964 147.45C4.13964 140.81 9.37964 132.08 11.3496 125.29L11.4297 125.07H11.4397Z" stroke="#EE8E46" stroke-miterlimit="10"/>
<path d="M18.9609 101.89L48.0809 117.2L73.1409 116.59L98.8109 117.81L149.551 117.2L175.841 107.42" stroke="#EE8E46" stroke-miterlimit="10"/>
<path d="M43.4199 60.3496L64.14 86.2196L81.9799 85.1896L100.25 87.2596L136.36 86.2296L155.07 69.7097" stroke="#EE8E46" stroke-miterlimit="10"/>
</svg>
