<svg width="51" height="33" viewBox="0 0 51 33" fill="none" xmlns="http://www.w3.org/2000/svg">
<path d="M16.3467 0.388672V0.389648L49.6865 11.7852V11.7861L50.75 12.1826V19.3408H49.0381C47.8355 19.341 46.8271 20.1186 46.8271 21.2197C46.8274 22.3206 47.8357 23.0975 49.0381 23.0977H50.75V32.3682H0.25V12.9707L0.291992 12.8672L0.299805 12.8496L0.303711 12.832V12.8311C0.303935 12.8302 0.30416 12.8283 0.304688 12.8262C0.305767 12.8219 0.308229 12.8155 0.310547 12.8066C0.315291 12.7885 0.322739 12.761 0.333008 12.7246C0.353634 12.6515 0.38603 12.5424 0.431641 12.4023C0.522952 12.122 0.667405 11.7162 0.880859 11.2217C1.3081 10.2319 2.00937 8.88599 3.10156 7.46777C5.28271 4.63558 9.0296 1.50563 15.3027 0.34668L15.3037 0.347656L15.8623 0.255859L16.3467 0.388672ZM32.3652 18.2129C33.0016 18.2129 33.61 18.3962 34.0889 18.7217L34.2861 18.8701C34.7876 19.2864 35.0576 19.8404 35.0576 20.4053C35.0576 20.8995 34.8506 21.3848 34.4629 21.7773L34.2861 21.9395C33.7833 22.3569 33.0928 22.5977 32.3652 22.5977C31.7287 22.5976 31.1205 22.4135 30.6416 22.0879L30.4443 21.9395C29.9431 21.5232 29.6729 20.97 29.6729 20.4053C29.6729 19.9109 29.8798 19.4249 30.2676 19.0322L30.4443 18.8701C30.9471 18.4527 31.6378 18.2129 32.3652 18.2129ZM15.5791 3.21582C8.62112 4.71102 5.64019 8.87848 4.43457 11.3389L4.25781 11.6992H39.0459L39.127 11.2129L27.0518 7.09082L26.9258 7.04785L26.8193 7.12891C26.2138 7.59001 24.9979 7.94238 23.5381 7.94238C22.4795 7.94234 21.533 7.763 20.8604 7.4834C20.5234 7.34331 20.2669 7.18258 20.0986 7.01758C19.9312 6.85335 19.8652 6.69969 19.8652 6.56348C19.8654 6.42136 19.9506 6.25559 20.1816 6.07324C20.4105 5.89262 20.7489 5.72428 21.168 5.5791L21.8516 5.3418L21.168 5.10645L15.7129 3.22363L15.6475 3.20117L15.5791 3.21582ZM47.3271 25.2627L47.1553 25.2061C45.0121 24.4976 43.4046 23.1023 43.4043 21.2197C43.4043 19.3369 45.0119 17.941 47.1553 17.2324L47.3271 17.1758V14.4561H15.1328L15.2773 14.8018C15.376 15.0383 15.4423 15.2844 15.4424 15.5195C15.4424 16.0139 15.2354 16.5 14.8477 16.8926L14.6709 17.0547C14.168 17.4721 13.4775 17.7129 12.75 17.7129C12.1135 17.7129 11.5053 17.5287 11.0264 17.2031L10.8291 17.0547C10.329 16.6395 10.059 16.0877 10.0576 15.5244C10.0622 15.2809 10.1163 15.0384 10.2197 14.8076L10.3779 14.4561H3.67285V29.6113H16.7246L16.4482 29.2178C16.1359 28.7736 15.9424 28.2618 15.9424 27.7324C15.9425 26.9517 16.3156 26.191 17.001 25.6221C17.6877 25.052 18.6276 24.7256 19.6152 24.7256C20.6028 24.7256 21.5427 25.0521 22.2295 25.6221C22.9148 26.191 23.288 26.9517 23.2881 27.7324C23.2881 28.2623 23.0968 28.7734 22.7832 29.2168L22.5039 29.6113H47.3271V25.2627Z" fill="#EE8E46" stroke="#EE8E46" stroke-width="0.5"/>
</svg>
