<svg width="437" height="240" viewBox="0 0 437 240" fill="none" xmlns="http://www.w3.org/2000/svg">
<path d="M213.385 9.42531C272.24 6.96317 326.019 17.154 365.384 35.596C404.775 54.0498 429.605 80.6931 430.876 111.081C432.147 141.469 409.629 170.093 371.918 191.772C334.23 213.437 281.491 228.084 222.635 230.546C163.78 233.008 110.002 222.818 70.6362 204.376C31.2458 185.922 6.41685 159.278 5.14562 128.891C3.87441 98.5031 26.3913 69.879 64.1028 48.1997C101.79 26.5342 154.53 11.8875 213.385 9.42531Z" fill="white" stroke="black"/>
<path d="M163.97 97.519C161.922 97.6668 160.211 97.4828 158.837 96.967C157.488 96.4228 156.459 95.6949 155.752 94.7834C155.069 93.8435 154.69 92.8549 154.616 91.8176L158.211 94.4055C158.871 95.0262 159.678 95.4626 160.632 95.7146C161.584 95.94 162.472 96.023 163.297 95.9635C165.105 95.8329 166.377 95.1129 167.111 93.8033C167.87 92.4652 168.171 90.7056 168.013 88.5246C167.864 86.45 167.342 84.7766 166.448 83.5043C165.579 82.2035 164.2 81.6212 162.311 81.7575C161.54 81.8132 160.648 82.0513 159.636 82.472C158.624 82.8926 157.651 83.6846 156.719 84.848L155.499 84.6153L155.669 70.8473L171.986 69.6698L172.361 74.8563L157.24 75.9475L157.136 82.2914C157.716 81.7951 158.485 81.3385 159.444 80.9218C160.401 80.4784 161.717 80.1962 163.393 80.0753C165.707 79.9083 167.676 80.1405 169.299 80.772C170.92 81.3769 172.174 82.2756 173.062 83.4681C173.951 84.6606 174.453 86.0681 174.57 87.6905C174.703 89.5257 174.313 91.1581 173.4 92.5875C172.513 94.015 171.246 95.1625 169.598 96.0301C167.974 96.8691 166.098 97.3654 163.97 97.519ZM158.211 94.4055L154.616 91.8176C154.545 90.8334 154.806 90.0125 155.4 89.3547C155.993 88.6703 156.714 88.2974 157.565 88.2359C158.47 88.1707 159.25 88.4218 159.906 88.9894C160.562 89.557 160.922 90.293 160.987 91.1973C161.047 92.0218 160.832 92.7458 160.342 93.3694C159.852 93.9929 159.142 94.3383 158.211 94.4055ZM181.848 96.2288C180.944 96.294 180.122 96.0192 179.383 95.4041C178.668 94.7606 178.278 93.9866 178.213 93.0823C178.145 92.1514 178.42 91.3295 179.037 90.6166C179.681 89.9017 180.455 89.5117 181.359 89.4464C182.29 89.3792 183.112 89.6541 183.825 90.2711C184.538 90.888 184.928 91.662 184.995 92.5929C185.06 93.4972 184.785 94.3191 184.17 95.0586C183.553 95.7715 182.779 96.1616 181.848 96.2288ZM200.443 82.2541L213.21 81.3328L213.397 83.926L200.63 84.8474L200.443 82.2541ZM250.37 64.013C250.489 65.662 250.398 67.1792 250.097 68.5645C249.823 69.9478 249.423 71.26 248.898 72.501C248.397 73.7135 247.868 74.9014 247.31 76.0645C246.752 77.2277 246.251 78.4269 245.805 79.6622C245.358 80.8709 245.049 82.1498 244.879 83.4988C244.709 84.8479 244.762 86.3279 245.039 87.9388C245.21 88.8355 245.059 89.7019 244.585 90.5383C244.108 91.348 243.285 91.7951 242.115 91.8795C240.945 91.964 240.092 91.6378 239.558 90.901C239.021 90.1377 238.721 89.3038 238.655 88.3995C238.55 86.9366 238.736 85.6265 239.214 84.4691C239.692 83.3117 240.334 82.2093 241.141 81.1618C241.972 80.0859 242.842 78.9804 243.749 77.8455C244.656 76.7106 245.503 75.4731 246.288 74.1331C247.099 72.7645 247.72 71.1824 248.152 69.3866L239.853 69.9855C238.39 70.0911 237.186 70.2582 236.24 70.4869C235.292 70.689 234.543 71.0505 233.992 71.5715C233.468 72.0906 233.056 72.8689 232.757 73.9065L231.412 73.6025L232.657 65.2914L250.37 64.013ZM253.433 91.0627C252.529 91.128 251.707 90.8531 250.967 90.2381C250.252 89.5945 249.862 88.8206 249.797 87.9163C249.73 86.9854 250.005 86.1634 250.622 85.4505C251.265 84.7357 252.039 84.3456 252.943 84.2804C253.874 84.2132 254.696 84.4881 255.409 85.105C256.122 85.722 256.512 86.4959 256.579 87.4268C256.645 88.3311 256.37 89.153 255.755 89.8926C255.138 90.6055 254.364 90.9955 253.433 91.0627ZM114.373 125.562C114.44 126.493 114.751 127.272 115.304 127.901C115.855 128.503 116.561 129.013 117.42 129.432C118.305 129.85 119.256 130.236 120.27 130.59C121.312 130.943 122.343 131.336 123.363 131.771C124.411 132.203 125.37 132.722 126.243 133.327C127.142 133.931 127.88 134.707 128.456 135.654C129.031 136.575 129.368 137.727 129.468 139.11C129.587 140.759 129.29 142.211 128.579 143.466C127.867 144.72 126.79 145.72 125.346 146.466C123.903 147.212 122.131 147.661 120.029 147.812C118.567 147.918 117.239 147.867 116.048 147.658C114.883 147.448 113.857 147.121 112.969 146.678L112.378 147.923L110.981 148.024C110.863 147.124 110.683 146.121 110.443 145.015C110.201 143.883 109.948 142.778 109.683 141.701C109.416 140.598 109.16 139.64 108.914 138.829L110.202 138.335C111.288 140.422 112.382 142.055 113.483 143.232C114.61 144.407 115.738 145.221 116.867 145.674C118.021 146.099 119.143 146.272 120.233 146.193C121.111 146.13 121.873 145.941 122.519 145.627C123.189 145.285 123.691 144.834 124.025 144.276C124.384 143.688 124.534 142.996 124.477 142.198C124.408 141.24 124.097 140.46 123.546 139.859C122.993 139.23 122.273 138.707 121.388 138.29C120.527 137.844 119.575 137.445 118.534 137.092C117.519 136.738 116.489 136.357 115.444 135.952C114.423 135.517 113.464 135.012 112.567 134.435C111.695 133.829 110.973 133.093 110.402 132.225C109.83 131.33 109.496 130.218 109.4 128.888C109.285 127.293 109.57 125.882 110.257 124.656C110.969 123.401 112.032 122.389 113.447 121.618C114.862 120.848 116.58 120.389 118.601 120.244C119.718 120.163 120.778 120.207 121.779 120.375C122.78 120.544 123.742 120.902 124.664 121.45L125.253 120.165L126.649 120.064C126.854 121.413 127.131 122.85 127.482 124.375C127.859 125.899 128.226 127.276 128.582 128.507L127.294 129.001C126.377 127.035 125.373 125.53 124.281 124.486C123.19 123.442 122.109 122.731 121.04 122.354C119.97 121.976 118.969 121.821 118.038 121.888C116.895 121.971 115.971 122.332 115.269 122.971C114.593 123.608 114.294 124.471 114.373 125.562ZM153.301 137.39L154.698 137.29L153.529 144.994L133.142 146.465L133.042 145.069L135.236 144.91L135.606 144.482L133.936 121.343L133.508 120.972L131.314 121.131L131.213 119.734L151.201 118.292L153.098 124.572L151.81 125.066C151.07 123.702 150.22 122.667 149.26 121.961C148.3 121.255 147.25 120.783 146.11 120.544C144.997 120.304 143.802 120.23 142.525 120.322L140.49 120.469L140.12 120.896L140.998 133.065L139.073 131.399L142.983 131.117C144.127 131.034 145.11 130.576 145.932 129.741C146.778 128.878 147.153 127.768 147.055 126.411L148.451 126.311L149.186 136.484L147.789 136.585C147.691 135.229 147.162 134.197 146.202 133.491C145.267 132.757 144.228 132.431 143.084 132.513L139.174 132.795L140.84 130.87L141.79 144.036L142.218 144.406L144.651 144.231C146.566 144.093 148.285 143.46 149.808 142.335C151.331 141.209 152.496 139.561 153.301 137.39ZM157.415 144.713L157.314 143.317L159.509 143.159L159.879 142.731L158.209 119.591L157.781 119.221L155.587 119.379L155.486 117.983L168.851 117.018C170.101 116.928 171.321 116.974 172.511 117.155C173.727 117.335 174.821 117.684 175.795 118.202C176.792 118.691 177.604 119.381 178.23 120.272C178.88 121.134 179.253 122.23 179.349 123.56C179.442 124.836 179.217 125.989 178.677 127.017C178.162 128.043 177.437 128.924 176.501 129.66C175.565 130.396 174.524 130.979 173.379 131.41C172.234 131.84 171.089 132.096 169.945 132.179L163.562 132.639L165.323 132.031L166.063 142.284L166.491 142.655L169.682 142.424L169.783 143.821L157.415 144.713ZM165.297 131.672L163.461 131.243L168.249 130.898C169.153 130.832 169.964 130.587 170.682 130.161C171.398 129.708 171.949 129.013 172.336 128.076C172.75 127.137 172.901 125.896 172.79 124.354C172.694 123.024 172.374 121.924 171.83 121.054C171.284 120.158 170.608 119.498 169.802 119.075C169.023 118.65 168.207 118.468 167.356 118.53L164.763 118.717L164.393 119.145L165.297 131.672ZM203.437 114.522L205.548 121.549L204.26 122.043C203.511 120.546 202.652 119.391 201.684 118.579C200.741 117.738 199.751 117.168 198.713 116.868C197.674 116.542 196.675 116.414 195.718 116.483L197.417 140.022L197.844 140.392L200.039 140.234L200.139 141.63L188.769 142.451L188.668 141.054L190.862 140.896L191.233 140.468L189.534 116.929C188.576 116.998 187.607 117.269 186.625 117.741C185.668 118.184 184.769 118.891 183.93 119.86C183.089 120.803 182.405 122.069 181.878 123.658L180.533 123.354L181.613 116.097L203.437 114.522ZM228.964 131.93L230.36 131.829L229.192 139.533L208.805 141.005L208.704 139.608L210.898 139.45L211.269 139.022L209.599 115.882L209.171 115.512L206.977 115.67L206.876 114.274L226.864 112.832L228.761 119.111L227.473 119.605C226.733 118.242 225.883 117.207 224.923 116.501C223.963 115.795 222.913 115.322 221.773 115.084C220.659 114.843 219.464 114.769 218.188 114.861L216.153 115.008L215.783 115.436L216.661 127.604L214.736 125.939L218.646 125.656C219.789 125.574 220.772 125.115 221.594 124.281C222.441 123.417 222.816 122.308 222.718 120.951L224.114 120.85L224.848 131.024L223.452 131.125C223.354 129.768 222.825 128.737 221.865 128.031C220.93 127.296 219.89 126.97 218.747 127.053L214.837 127.335L216.502 125.41L217.453 138.576L217.88 138.946L220.314 138.77C222.229 138.632 223.948 138 225.471 136.874C226.994 135.748 228.158 134.1 228.964 131.93ZM247.041 138.245L236.872 116.802L236.672 116.816L234.669 114.073L234.242 113.703L231.249 113.919L231.149 112.522L241.801 111.754L250.375 129.984L250.575 129.969L256.483 110.694L256.877 116.16L256.678 116.174L250.034 138.029L247.041 138.245ZM233.078 139.253L232.977 137.857L235.969 137.641L236.342 137.253L234.669 114.073L236.672 116.816L238.138 137.123L238.562 137.453L241.954 137.209L242.054 138.605L233.078 139.253ZM255.819 137.612L255.718 136.215L257.912 136.057L258.282 135.629L256.483 110.694L265.26 110.061L265.361 111.457L262.967 111.63L262.782 111.844L264.466 135.183L264.894 135.553L267.088 135.395L267.189 136.791L255.819 137.612ZM283.92 121.868L283.934 121.506C285.951 121.307 287.726 121.446 289.258 121.924C290.789 122.402 292.005 123.129 292.904 124.107C293.802 125.058 294.298 126.186 294.392 127.489C294.48 128.712 294.252 129.812 293.707 130.787C293.187 131.733 292.457 132.548 291.517 133.231C290.576 133.887 289.531 134.417 288.384 134.82C287.235 135.197 286.088 135.427 284.944 135.51L269.584 136.618L269.484 135.222L271.678 135.064L272.048 134.636L270.378 111.496L269.95 111.126L267.756 111.284L267.655 109.888L281.819 108.866C283.069 108.775 284.287 108.808 285.475 108.963C286.689 109.116 287.78 109.411 288.747 109.85C289.741 110.286 290.547 110.896 291.165 111.68C291.808 112.436 292.172 113.399 292.256 114.569C292.379 116.271 291.765 117.773 290.416 119.073C289.064 120.347 286.899 121.279 283.92 121.868ZM276.932 110.622L276.562 111.05L277.469 123.617L275.544 121.951L281.13 121.548C282.034 121.483 282.846 121.251 283.566 120.851C284.284 120.425 284.839 119.783 285.232 118.926C285.651 118.067 285.811 116.959 285.714 115.603C285.633 114.486 285.323 113.532 284.785 112.742C284.245 111.926 283.573 111.319 282.769 110.923C281.99 110.498 281.175 110.316 280.323 110.377L276.932 110.622ZM283.248 134.229C284.152 134.163 284.964 133.931 285.684 133.531C286.402 133.105 286.957 132.464 287.35 131.607C287.769 130.747 287.93 129.64 287.832 128.283C287.751 127.166 287.44 126.186 286.898 125.343C286.356 124.5 285.682 123.867 284.876 123.443C284.095 122.992 283.278 122.797 282.427 122.858L275.645 123.348L277.311 121.423L278.232 134.19L278.66 134.56L283.248 134.229ZM317.406 125.547L318.802 125.447L317.634 133.151L297.247 134.622L297.146 133.226L299.34 133.067L299.711 132.639L298.041 109.5L297.613 109.13L295.419 109.288L295.318 107.891L315.306 106.449L317.203 112.729L315.915 113.223C315.175 111.859 314.325 110.824 313.365 110.118C312.405 109.412 311.355 108.94 310.215 108.701C309.101 108.461 307.906 108.387 306.629 108.479L304.595 108.626L304.224 109.053L305.103 121.222L303.178 119.556L307.088 119.274C308.231 119.191 309.214 118.733 310.036 117.898C310.883 117.035 311.257 115.925 311.159 114.569L312.556 114.468L313.29 124.641L311.894 124.742C311.796 123.386 311.267 122.354 310.307 121.648C309.372 120.914 308.332 120.588 307.188 120.67L303.279 120.952L304.944 119.027L305.894 132.193L306.322 132.563L308.756 132.388C310.671 132.25 312.39 131.618 313.913 130.492C315.436 129.366 316.6 127.718 317.406 125.547ZM335.922 131.831L335.821 130.435L338.215 130.262L338.585 129.834L330.284 119.284L337.266 118.78L346.155 129.689L348.748 129.502L348.849 130.898L335.922 131.831ZM332.956 105.175C334.206 105.085 335.426 105.131 336.615 105.312C337.831 105.492 338.925 105.827 339.896 106.319C340.892 106.782 341.701 107.432 342.323 108.269C342.969 109.078 343.337 110.094 343.425 111.318C343.51 112.488 343.279 113.561 342.735 114.536C342.217 115.509 341.49 116.363 340.554 117.099C339.616 117.809 338.574 118.378 337.429 118.809C336.281 119.212 335.136 119.455 333.992 119.538L327.609 119.999L329.275 118.074L330.167 130.442L330.595 130.812L332.789 130.653L332.89 132.05L321.52 132.87L321.419 131.474L323.613 131.316L323.983 130.888L322.313 107.748L321.886 107.378L319.691 107.536L319.591 106.14L332.956 105.175ZM329.433 120.268L327.508 118.602L332.296 118.257C333.2 118.191 334.011 117.946 334.729 117.52C335.447 117.094 336.001 116.439 336.392 115.555C336.809 114.669 336.967 113.522 336.865 112.112C336.779 110.915 336.466 109.908 335.925 109.092C335.383 108.249 334.71 107.629 333.906 107.232C333.127 106.807 332.312 106.625 331.461 106.687L328.867 106.874L328.497 107.302L329.433 120.268ZM177.647 181.753L179.043 181.652L177.747 190.368L159.195 191.707C159.065 189.898 159.259 188.334 159.779 187.013C160.323 185.663 161.053 184.475 161.968 183.446C162.881 182.391 163.853 181.412 164.884 180.508C165.94 179.577 166.928 178.637 167.849 177.688C168.769 176.739 169.495 175.684 170.026 174.523C170.584 173.36 170.807 172.007 170.696 170.464C170.581 168.868 170.117 167.632 169.305 166.755C168.518 165.849 167.38 165.45 165.89 165.557C164.72 165.642 163.638 166.027 162.645 166.714C161.652 167.4 160.965 168.252 160.584 169.269L157.995 172.303C157.909 171.106 158.182 169.883 158.813 168.635C159.445 167.386 160.465 166.323 161.872 165.446C163.277 164.543 165.084 164.011 167.291 163.852C168.222 163.785 169.241 163.818 170.346 163.952C171.45 164.06 172.514 164.344 173.536 164.805C174.557 165.239 175.406 165.9 176.085 166.787C176.791 167.671 177.196 168.845 177.302 170.308C177.398 171.638 177.186 172.776 176.666 173.723C176.173 174.667 175.471 175.507 174.562 176.241C173.65 176.948 172.631 177.637 171.503 178.306C170.373 178.949 169.219 179.634 168.041 180.361C166.891 181.086 165.802 181.926 164.775 182.883C163.772 183.81 162.931 184.941 162.252 186.273L170.351 185.688C171.894 185.577 173.139 185.42 174.087 185.218C175.059 184.988 175.821 184.612 176.372 184.091C176.92 183.543 177.345 182.764 177.647 181.753ZM161.429 175.424C160.578 175.485 159.811 175.233 159.129 174.668C158.444 174.075 158.066 173.287 157.995 172.303L160.584 169.269C161.399 169.076 162.069 169.108 162.596 169.364C163.147 169.592 163.574 169.949 163.876 170.435C164.179 170.921 164.35 171.443 164.39 172.002C164.456 172.906 164.204 173.686 163.637 174.342C163.069 174.998 162.333 175.359 161.429 175.424ZM193.787 189.612C191.685 189.763 189.772 189.367 188.046 188.422C186.32 187.477 184.905 186.015 183.799 184.036C182.694 182.057 182.035 179.592 181.822 176.639C181.607 173.66 181.905 171.126 182.717 169.035C183.527 166.918 184.718 165.268 186.29 164.085C187.862 162.902 189.699 162.235 191.8 162.083C193.901 161.932 195.815 162.328 197.541 163.273C199.266 164.218 200.682 165.68 201.787 167.659C202.891 169.611 203.55 172.077 203.765 175.056C203.978 178.008 203.68 180.543 202.87 182.66C202.06 184.777 200.869 186.427 199.297 187.61C197.725 188.793 195.888 189.46 193.787 189.612ZM193.991 187.993C194.948 187.924 195.687 187.416 196.207 186.469C196.751 185.494 197.096 184.159 197.241 182.464C197.411 180.741 197.413 178.736 197.248 176.448C197.024 173.336 196.629 170.838 196.066 168.954C195.528 167.068 194.869 165.712 194.088 164.886C193.304 164.033 192.474 163.639 191.596 163.702C190.665 163.769 189.927 164.29 189.383 165.266C188.836 166.214 188.477 167.537 188.306 169.233C188.161 170.928 188.172 172.933 188.339 175.247C188.563 178.358 188.957 180.857 189.521 182.741C190.085 184.625 190.745 185.995 191.502 186.849C192.283 187.675 193.113 188.056 193.991 187.993ZM225.92 178.269L227.316 178.169L226.02 186.884L207.468 188.223C207.338 186.415 207.532 184.85 208.052 183.529C208.596 182.18 209.326 180.991 210.241 179.962C211.154 178.907 212.126 177.928 213.157 177.025C214.212 176.093 215.201 175.153 216.121 174.204C217.042 173.255 217.768 172.2 218.299 171.039C218.857 169.876 219.08 168.523 218.969 166.98C218.854 165.385 218.39 164.148 217.578 163.271C216.791 162.365 215.653 161.966 214.163 162.074C212.993 162.158 211.911 162.544 210.918 163.23C209.925 163.917 209.238 164.768 208.857 165.785L206.268 168.819C206.182 167.622 206.455 166.4 207.086 165.151C207.718 163.902 208.738 162.839 210.145 161.963C211.55 161.059 213.357 160.528 215.564 160.368C216.495 160.301 217.513 160.335 218.619 160.469C219.723 160.576 220.786 160.86 221.809 161.321C222.829 161.756 223.679 162.416 224.358 163.303C225.064 164.188 225.469 165.362 225.575 166.824C225.671 168.154 225.459 169.293 224.939 170.239C224.446 171.184 223.744 172.023 222.835 172.757C221.923 173.465 220.904 174.153 219.775 174.823C218.645 175.466 217.492 176.15 216.314 176.877C215.164 177.602 214.075 178.442 213.047 179.399C212.045 180.327 211.204 181.457 210.525 182.789L218.624 182.205C220.167 182.093 221.412 181.937 222.36 181.735C223.332 181.504 224.094 181.128 224.644 180.607C225.193 180.06 225.618 179.28 225.92 178.269ZM209.702 171.94C208.851 172.002 208.084 171.75 207.401 171.184C206.717 170.592 206.339 169.803 206.268 168.819L208.857 165.785C209.672 165.593 210.342 165.624 210.869 165.881C211.42 166.108 211.847 166.465 212.149 166.951C212.452 167.437 212.623 167.96 212.663 168.518C212.728 169.423 212.477 170.203 211.91 170.859C211.342 171.514 210.606 171.875 209.702 171.94ZM239.945 186.281C237.897 186.428 236.186 186.244 234.812 185.729C233.463 185.184 232.434 184.456 231.727 183.545C231.044 182.605 230.665 181.616 230.59 180.579L234.186 183.167C234.846 183.788 235.653 184.224 236.606 184.476C237.559 184.702 238.447 184.785 239.271 184.725C241.08 184.594 242.351 183.874 243.086 182.565C243.845 181.227 244.146 179.467 243.988 177.286C243.838 175.212 243.317 173.538 242.423 172.266C241.553 170.965 240.175 170.383 238.286 170.519C237.515 170.575 236.623 170.813 235.611 171.234C234.598 171.654 233.626 172.446 232.694 173.61L231.474 173.377L231.644 159.609L247.961 158.431L248.336 163.618L233.215 164.709L233.111 171.053C233.69 170.557 234.459 170.1 235.419 169.683C236.376 169.24 237.692 168.958 239.368 168.837C241.682 168.67 243.65 168.902 245.273 169.534C246.894 170.138 248.149 171.037 249.037 172.23C249.925 173.422 250.428 174.83 250.545 176.452C250.678 178.287 250.287 179.92 249.375 181.349C248.488 182.777 247.221 183.924 245.572 184.792C243.949 185.631 242.073 186.127 239.945 186.281ZM234.186 183.167L230.59 180.579C230.519 179.595 230.781 178.774 231.375 178.116C231.967 177.432 232.689 177.059 233.54 176.997C234.445 176.932 235.225 177.183 235.881 177.751C236.536 178.319 236.897 179.055 236.962 179.959C237.022 180.783 236.807 181.507 236.317 182.131C235.827 182.754 235.117 183.1 234.186 183.167Z" fill="black"/>
</svg>
